<?xml version="1.0" encoding="utf-8"?>
<!-- Generator: Adobe Illustrator 19.2.1, SVG Export Plug-In . SVG Version: 6.00 Build 0)  -->
<svg version="1.1" id="Layer_1" xmlns="http://www.w3.org/2000/svg" xmlns:xlink="http://www.w3.org/1999/xlink" x="0px" y="0px"
	 viewBox="0 0 366.7 239.4" style="enable-background:new 0 0 366.7 239.4;" xml:space="preserve">
<style type="text/css">
	.st0{fill:#FDFDFD;}
	.st1{fill:#010101;stroke:#FFFFFF;stroke-width:0.5;stroke-miterlimit:10;}
	.st2{fill:#F5E91E;}
	.st3{fill:#010101;}
</style>
<g>
	<g>
		<g>
			<path class="st0" d="M37,19v2.8c0,8.1-2.5,13.3-8,15.9c6.6,2.6,9.2,8.6,9.2,16.9V61c0,12.2-6.4,18.7-18.8,18.7H0V0.9h18.7
				C31.5,0.9,37,6.9,37,19z M12.4,12.2V33h4.8c4.6,0,7.4-2,7.4-8.3v-4.4c0-5.6-1.9-8.1-6.3-8.1H12.4z M12.4,44.2v24.2h7.1
				c4.2,0,6.4-1.9,6.4-7.8v-6.9c0-7.3-2.4-9.6-8-9.6H12.4z"/>
			<path class="st0" d="M45.7,0.9H58v78.8H45.7V0.9z"/>
			<path class="st0" d="M102.9,50.3v10.5c0,12.6-6.3,19.8-18.5,19.8C72.3,80.6,66,73.4,66,60.8v-41C66,7.2,72.3,0,84.5,0
				c12.2,0,18.5,7.2,18.5,19.8v7.7H91.2V19c0-5.6-2.5-7.8-6.4-7.8c-3.9,0-6.4,2.1-6.4,7.8v42.5c0,5.6,2.5,7.6,6.4,7.6
				c3.9,0,6.4-2,6.4-7.6V50.3H102.9z"/>
			<path class="st0" d="M120.8,53.6L105.2,0.9h12.9l9.5,35.9L137,0.9h11.8l-15.6,52.7v26.1h-12.4V53.6z"/>
			<path class="st0" d="M188,50.3v10.5c0,12.6-6.3,19.8-18.5,19.8c-12.2,0-18.5-7.2-18.5-19.8v-41c0-12.6,6.3-19.8,18.5-19.8
				C181.7,0,188,7.2,188,19.8v7.7h-11.7V19c0-5.6-2.5-7.8-6.4-7.8c-3.9,0-6.4,2.1-6.4,7.8v42.5c0,5.6,2.5,7.6,6.4,7.6
				c3.9,0,6.4-2,6.4-7.6V50.3H188z"/>
			<path class="st0" d="M195.5,0.9h12.4v67.5h20.4v11.3h-32.7V0.9z"/>
			<path class="st0" d="M246,34.1h17v11.3h-17v23.1h21.4v11.3h-33.8V0.9h33.8v11.3H246V34.1z"/>
		</g>
		<g>
			<path class="st0" d="M0,89.1h23.6v128.8h38.9v21.5H0V89.1z"/>
			<path class="st0" d="M149.2,239.4h-23.8l-4.1-27.3h-29l-4.1,27.3H66.6l24-150.3h34.6L149.2,239.4z M95.3,191.7h22.8l-11.4-76
				L95.3,191.7z"/>
			<path class="st0" d="M209.3,159.3l-8.6,80.1h-32.4L151.6,89.1h23l12.7,118.5l11.4-118.5h22.8l11.8,119.4l12.2-119.4H266
				l-16.7,150.3h-31.3L209.3,159.3z"/>
		</g>
	</g>
	<g>
		<g>
			<path class="st1" d="M324.9,235.6V3.8c0-2.1,1.7-3.8,3.8-3.8c2.1,0,3.8,1.7,3.8,3.8v231.8c0,2.1-1.7,3.8-3.8,3.8
				C326.6,239.4,324.9,237.7,324.9,235.6z"/>
			<path class="st1" d="M299.7,149.6c1.5,0,2.7,1.2,2.7,2.7v20.3c0,5.6,4.6,10.2,10.2,10.2h32.1c5.6,0,10.2-4.6,10.2-10.2v-20.3
				c0-1.5,1.2-2.7,2.7-2.7s2.7,1.2,2.7,2.7v20.3c0,8.6-7,15.5-15.5,15.5h-32.1c-8.6,0-15.5-7-15.5-15.5v-20.3
				C297.1,150.8,298.3,149.6,299.7,149.6z"/>
		</g>
		<g>
			<path class="st1" d="M352.1,129.9c0,4.8-3.9,8.8-8.8,8.8l0,0c-4.8,0-8.8-3.9-8.8-8.8V99.3c0-3.3-2.7-6-6-6l0,0c-3.3,0-6,2.7-6,6
				v43.9c0,4.8-3.9,8.8-8.8,8.8h0c-4.8,0-8.8-3.9-8.8-8.8l0-64.3c0-13,10.5-23.6,23.6-23.6c13,0,23.6,10.5,23.6,23.6L352.1,129.9z"
				/>
			<path class="st2" d="M305.2,128.3c0-13,10.5-23.6,23.6-23.6c13,0,23.6,10.5,23.6,23.6l-0.1,43.4c0,3.9,3.2,7.1,7.1,7.1l0,0
				c3.9,0,7.1-3.2,7.1-7.1l0.2-64.1c0-21-17-38-38-38c-21,0-38,17-38,38l0.3,20.5l0,43.6c0,3.9,3.2,7.1,7.1,7.1h0
				c3.9,0,7.1-3.2,7.1-7.1L305.2,128.3z"/>
		</g>
		<g>
			<ellipse class="st0" cx="328.7" cy="96.3" rx="21.7" ry="26.7"/>
			<path class="st3" d="M328.7,123.6c-12.3,0-22.4-12.2-22.4-27.3s10-27.3,22.4-27.3C341,69,351,81.2,351,96.3
				S341,123.6,328.7,123.6z M328.7,122.3c11.6,0,21.1-11.7,21.1-26s-9.5-26-21.1-26c-11.6,0-21.1,11.7-21.1,26
				S317,122.3,328.7,122.3z"/>
			<g>
				<path class="st3" d="M323,107.4V88.8c0-0.9-0.7-1.6-1.6-1.6s-1.6,0.7-1.6,1.6v18.6c0,0.9,0.7,1.6,1.6,1.6S323,108.3,323,107.4z"
					/>
				<path class="st3" d="M337.6,107.3V88.6c0-0.9-0.7-1.6-1.6-1.6s-1.6,0.7-1.6,1.6v18.6c0,0.9,0.7,1.6,1.6,1.6
					S337.6,108.1,337.6,107.3z"/>
				<g>
					<g>
						<path class="st3" d="M330.3,95.2V76.6c0-0.9-0.7-1.6-1.6-1.6c-0.9,0-1.6,0.7-1.6,1.6v18.6c0,0.9,0.7,1.6,1.6,1.6
							C329.5,96.8,330.3,96.1,330.3,95.2z"/>
						<path class="st3" d="M330.3,112.7v-12c0-0.9-0.7-1.6-1.6-1.6c-0.9,0-1.6,0.7-1.6,1.6v12c0,0.9,0.7,1.6,1.6,1.6
							C329.5,114.3,330.3,113.6,330.3,112.7z"/>
					</g>
				</g>
			</g>
		</g>
	</g>
</g>
</svg>
