<?xml version="1.0" encoding="utf-8"?>
<!-- Generator: Adobe Illustrator 19.2.1, SVG Export Plug-In . SVG Version: 6.00 Build 0)  -->
<svg version="1.1" id="Layer_1" xmlns="http://www.w3.org/2000/svg" xmlns:xlink="http://www.w3.org/1999/xlink" x="0px" y="0px"
	 viewBox="0 0 1200 575" style="enable-background:new 0 0 1200 575;" xml:space="preserve">
<style type="text/css">
	.st0{enable-background:new    ;}
	.st1{fill:#010101;}
	.st2{fill:#FF1733;}
</style>
<g>
	<g>
		<g class="st0">
			<path d="M73.5,418l8.9-42h-0.7l-23.5,42H39.8l-7.1-42h-0.6l-6.9,42H1l14.1-71h33.2l7,38h0.6l20.7-38h36.3l-14.1,71H73.5z"/>
			<path d="M113.9,418l14.1-71h26.2l-14.1,71H113.9z"/>
			<path d="M207.6,367.2c-1.3-1.3-2.9-2.4-5-3.3c-2-0.8-4.4-1.3-7.1-1.3c-2.1,0-4,0.4-5.7,1.2c-1.7,0.8-2.5,2-2.5,3.7
				c0,1.3,0.7,2.4,2.1,3.1c1.4,0.7,3.5,1.5,6.3,2.3c3.4,1,6.5,2.1,9.2,3.4c2.7,1.3,5,2.7,6.8,4.4c1.9,1.7,3.3,3.6,4.3,5.7
				c1,2.1,1.5,4.6,1.5,7.2c0,4.6-1.1,8.4-3.4,11.7c-2.2,3.2-5.1,5.8-8.6,7.8c-3.5,2-7.3,3.5-11.5,4.4c-4.2,0.9-8.3,1.4-12.2,1.4
				c-3.2,0-6.3-0.2-9.5-0.7c-3.1-0.5-6.2-1.1-9.1-2c-2.9-0.9-5.6-1.9-8.2-3.2c-2.5-1.3-4.8-2.7-6.6-4.3l17.8-14.7
				c0.9,0.9,2,1.8,3.3,2.5c1.3,0.7,2.6,1.4,4,1.9c1.4,0.5,2.8,0.9,4.2,1.2c1.4,0.3,2.7,0.5,3.9,0.5c2.6,0,4.7-0.4,6.3-1.2
				c1.6-0.8,2.4-1.9,2.4-3.4c0-1.2-0.7-2.3-2-3.2c-1.3-0.9-3.8-1.9-7.4-2.9c-2.9-0.8-5.5-1.7-8-2.8c-2.5-1.1-4.7-2.4-6.5-3.9
				c-1.8-1.5-3.3-3.3-4.3-5.4c-1.1-2.1-1.6-4.7-1.6-7.7c0-3.7,0.8-7.1,2.5-10.2c1.7-3.1,4.1-5.9,7.2-8.2c3.1-2.3,6.8-4.1,11.1-5.4
				c4.3-1.3,9.1-2,14.2-2c2.8,0,5.7,0.2,8.4,0.7c2.8,0.4,5.4,1,7.9,1.8c2.5,0.8,4.8,1.7,6.9,2.8c2.1,1.1,3.9,2.3,5.3,3.6
				L207.6,367.2z"/>
			<path d="M275.2,367.2c-1.3-1.3-2.9-2.4-5-3.3c-2-0.8-4.4-1.3-7.1-1.3c-2.1,0-4,0.4-5.7,1.2c-1.7,0.8-2.5,2-2.5,3.7
				c0,1.3,0.7,2.4,2.1,3.1c1.4,0.7,3.5,1.5,6.3,2.3c3.4,1,6.5,2.1,9.2,3.4c2.7,1.3,5,2.7,6.8,4.4c1.9,1.7,3.3,3.6,4.3,5.7
				c1,2.1,1.5,4.6,1.5,7.2c0,4.6-1.1,8.4-3.4,11.7c-2.2,3.2-5.1,5.8-8.6,7.8c-3.5,2-7.3,3.5-11.5,4.4c-4.2,0.9-8.3,1.4-12.2,1.4
				c-3.2,0-6.3-0.2-9.5-0.7c-3.1-0.5-6.2-1.1-9.1-2c-2.9-0.9-5.6-1.9-8.2-3.2c-2.5-1.3-4.8-2.7-6.6-4.3l17.8-14.7
				c0.9,0.9,2,1.8,3.3,2.5c1.3,0.7,2.6,1.4,4,1.9c1.4,0.5,2.8,0.9,4.2,1.2c1.4,0.3,2.7,0.5,3.9,0.5c2.6,0,4.7-0.4,6.3-1.2
				c1.6-0.8,2.4-1.9,2.4-3.4c0-1.2-0.7-2.3-2-3.2c-1.3-0.9-3.8-1.9-7.4-2.9c-2.9-0.8-5.5-1.7-8-2.8c-2.5-1.1-4.7-2.4-6.5-3.9
				c-1.8-1.5-3.3-3.3-4.3-5.4c-1.1-2.1-1.6-4.7-1.6-7.7c0-3.7,0.8-7.1,2.5-10.2c1.7-3.1,4.1-5.9,7.2-8.2c3.1-2.3,6.8-4.1,11.1-5.4
				c4.3-1.3,9.1-2,14.2-2c2.8,0,5.7,0.2,8.4,0.7c2.8,0.4,5.4,1,7.9,1.8c2.5,0.8,4.8,1.7,6.9,2.8c2.1,1.1,3.9,2.3,5.3,3.6
				L275.2,367.2z"/>
			<path d="M290.4,418l14.1-71h26.2l-14.1,71H290.4z"/>
			<path d="M373.9,419c-6.4,0-12-0.8-16.9-2.4c-4.9-1.6-9-3.8-12.4-6.7c-3.3-2.9-5.9-6.3-7.6-10.3c-1.7-4-2.6-8.3-2.6-13.1
				c0-5.9,1.2-11.4,3.5-16.6c2.3-5.2,5.6-9.6,9.8-13.5c4.2-3.8,9.3-6.8,15.2-9c6-2.2,12.6-3.3,19.9-3.3c6.5,0,12.1,0.8,17,2.4
				c4.9,1.6,9,3.8,12.4,6.7c3.3,2.9,5.9,6.3,7.6,10.2c1.7,4,2.6,8.3,2.6,13.1c0,5.9-1.1,11.4-3.4,16.6c-2.3,5.2-5.6,9.6-9.8,13.5
				c-4.2,3.8-9.3,6.8-15.3,9C387.9,417.9,381.2,419,373.9,419z M395.3,378.3c0-1.8-0.3-3.5-1-5.1c-0.6-1.6-1.6-2.9-2.8-4.1
				c-1.2-1.2-2.8-2.1-4.6-2.8c-1.8-0.7-3.9-1-6.2-1c-2.9,0-5.6,0.6-7.9,1.7c-2.4,1.1-4.4,2.6-6,4.4c-1.7,1.8-2.9,3.9-3.8,6.2
				c-0.9,2.3-1.3,4.7-1.3,7.1c0,1.8,0.3,3.5,1,5.1c0.6,1.6,1.6,2.9,2.8,4.1c1.2,1.2,2.8,2.1,4.6,2.8c1.8,0.7,4,1,6.4,1
				c2.9,0,5.6-0.5,7.9-1.6c2.3-1.1,4.3-2.5,6-4.3c1.6-1.8,2.9-3.9,3.8-6.2C394.8,383.2,395.3,380.7,395.3,378.3z"/>
			<path d="M473.1,418l-15.8-36h-0.5l-6.2,36h-25.3l14.1-71H465l16.1,36h0.5l6.5-36h25.3l-14.1,71H473.1z"/>
		</g>
		<g class="st0">
			<path d="M122.1,561.6c-3.8,2.3-8.2,4.3-13,6.1c-4.9,1.7-10.3,3.2-16.4,4.3s-12.8,1.7-20.1,1.7c-11.1,0-21-1.4-29.7-4.1
				c-8.7-2.7-16.1-6.6-22.1-11.7c-6.1-5.1-10.7-11.2-13.9-18.4c-3.2-7.2-4.8-15.2-4.8-24c0-11.3,2.2-21.9,6.6-31.7
				c4.4-9.8,10.5-18.4,18.5-25.7c7.9-7.3,17.3-13.1,28.2-17.3c10.8-4.2,22.7-6.3,35.7-6.3c12.8,0,24.1,1.8,33.8,5.3
				c9.7,3.5,17.2,7.9,22.3,13.1l-33.6,30.9c-2.5-3.2-5.8-5.6-9.9-7.2c-4.1-1.6-8.7-2.3-13.9-2.3c-5.3,0-10.1,1-14.4,2.9
				c-4.3,1.9-8,4.5-11.1,7.8c-3.1,3.3-5.4,7.1-7.1,11.5c-1.7,4.3-2.5,9-2.5,14c0,6.5,2.3,11.9,6.8,16.4c4.5,4.5,11.3,6.7,20.3,6.7
				c5.3,0,10.2-1,14.8-3c4.6-2,8.6-4.4,11.9-7.3l23.8,31.7C129.3,557.1,125.9,559.3,122.1,561.6z"/>
			<path d="M221.9,570l-20.2-47h-5.8l-9.2,47h-46.5l26.1-132h60.7c8.1,0,15.4,0.8,21.9,2.4c6.5,1.6,12.1,4,16.7,7.1
				c4.6,3.1,8.1,6.9,10.5,11.5c2.4,4.5,3.7,9.7,3.7,15.6c0,10.9-2.9,19.9-8.7,27c-5.8,7.1-13.7,12-23.7,14.6l28.8,53.9H221.9z
				 M211.2,494c6.4,0,11.4-0.8,15-2.8c3.6-1.9,5.4-4.9,5.4-9.2c0-3.8-1.5-7-4.5-8.4c-3-1.4-7.1-2.7-12.2-2.7h-9l-4.4,23H211.2z"/>
			<path d="M287,570l26.1-132h48.6l-26.1,132H287z"/>
			<path d="M453.9,473l-18.8,97h-48.4l18.8-97h-37.3l7.3-35h121.8l-7.3,35H453.9z"/>
		</g>
	</g>
</g>
<g>
	<polygon class="st1" points="854.8,542 845.9,556.6 857.8,545.7 	"/>
	<polygon class="st1" points="875.7,538.8 885.6,552.7 873,542.7 	"/>
	<polygon class="st1" points="861.7,553 863.3,569.9 865,553 	"/>
	<path class="st2" d="M854.3,514.2c-3.3,0.3-6.2,2.3-8.7,4.6c-3.4,3.1-6.5,7.3-6,11.9c0.4,3.4,2.8,6.3,5.4,8.6
		c2.6,2.3,5.5,4.2,7.8,6.8c3.5,4.1,4.9,9.5,5.2,14.8c9.8-6.4,19-14.2,25.4-24c1-1.6,2-3.2,2.6-4.9c1.6-4.1,1.6-8.9-0.4-12.9
		c-2-4-5.9-7.1-10.3-7.6c-4.4-0.5-9.1,1.5-11.4,5.4C860.9,515.4,857.6,513.9,854.3,514.2z"/>
	<path class="st1" d="M864.4,499c0,0,4.5-0.2,6.4,3.8c0,0,0.4,0.9-2.7,0.8l-2.2,25.6l17-18.4c0,0-2-2.4-1-3.3
		c1.4-1.2,4.2-0.2,5.4,0.8c0.5,0.5,1,1.2,1.3,1.8c0.5,1.2,0.3,1.9,0.1,3c0,0-0.1,0.8-2.8,0l-19.8,20.6c-2.8,1.3-4.3,0-4.3,0
		l-19.9-20.7c-2.7,0.8-2.8,0-2.8,0c-1.2-2.5,1.2-5.2,3.5-5.9c1-0.3,2.5-0.5,3.4,0.2c1.1,0.9-1,3.3-1,3.3l17,18.4l-2.2-25.6
		c-3.3,0.2-2.7-0.7-2.7-0.7c2-4,6.4-3.8,6.4-3.8H864.4z"/>
</g>
</svg>
