<svg id="Layer_1" data-name="Layer 1" xmlns="http://www.w3.org/2000/svg" xmlns:xlink="http://www.w3.org/1999/xlink" viewBox="0 0 1199 574"><defs><style>.cls-1{isolation:isolate;}.cls-2{fill:#010101;}.cls-3{fill:#ff1733;}</style></defs><title>hero</title><image width="879" height="716" transform="translate(498.79) scale(0.8)" xlink:href="hero-img-iv.png"/><g class="cls-1"><path d="M73.46,418l8.89-42H81.68L58.16,418H39.82l-7.09-42H32.17L25.3,418H1l14.07-71H48.26l7,38H55.8l20.7-38h36.34L98.78,418H73.46Z" transform="translate(-1 0.37)"/><path d="M113.86,418l14.07-71h26.22l-14.06,71H113.86Z" transform="translate(-1 0.37)"/><path d="M207.58,367.21a14.25,14.25,0,0,0-5-3.27,18.46,18.46,0,0,0-7.09-1.26,13.05,13.05,0,0,0-5.68,1.21,3.93,3.93,0,0,0-2.53,3.72,3.41,3.41,0,0,0,2.13,3.12,36.34,36.34,0,0,0,6.28,2.31,62.73,62.73,0,0,1,9.19,3.42,28.36,28.36,0,0,1,6.84,4.42,17.93,17.93,0,0,1,4.32,5.73,16.79,16.79,0,0,1,1.51,7.23,19.88,19.88,0,0,1-3.36,11.66,26.44,26.44,0,0,1-8.57,7.84,40.44,40.44,0,0,1-11.49,4.42,56,56,0,0,1-12.24,1.41,65.16,65.16,0,0,1-18.51-2.71,51.39,51.39,0,0,1-8.16-3.22,32.34,32.34,0,0,1-6.64-4.32l17.78-14.67a14.57,14.57,0,0,0,3.26,2.51,24.79,24.79,0,0,0,4,1.86,31.5,31.5,0,0,0,4.22,1.21,19.13,19.13,0,0,0,3.94.45,14.46,14.46,0,0,0,6.3-1.16,3.64,3.64,0,0,0,2.36-3.37,4,4,0,0,0-2-3.22q-2-1.41-7.37-2.91a66.29,66.29,0,0,1-8-2.81,26.75,26.75,0,0,1-6.53-3.87,16.36,16.36,0,0,1-4.33-5.43,17.1,17.1,0,0,1-1.58-7.69,21.36,21.36,0,0,1,2.53-10.25,24.7,24.7,0,0,1,7.2-8.19A36,36,0,0,1,181.54,346a49,49,0,0,1,14.23-2,54.44,54.44,0,0,1,8.44.65,55.74,55.74,0,0,1,7.88,1.81,43.71,43.71,0,0,1,6.86,2.76,22.88,22.88,0,0,1,5.29,3.62Z" transform="translate(-1 0.37)"/><path d="M275.21,367.21a14.25,14.25,0,0,0-5-3.27,18.46,18.46,0,0,0-7.09-1.26,13.05,13.05,0,0,0-5.68,1.21,3.93,3.93,0,0,0-2.53,3.72,3.41,3.41,0,0,0,2.13,3.12,36.34,36.34,0,0,0,6.28,2.31,62.73,62.73,0,0,1,9.19,3.42,28.36,28.36,0,0,1,6.84,4.42,17.93,17.93,0,0,1,4.32,5.73,16.79,16.79,0,0,1,1.51,7.23,19.88,19.88,0,0,1-3.36,11.66,26.44,26.44,0,0,1-8.57,7.84,40.44,40.44,0,0,1-11.49,4.42,56,56,0,0,1-12.24,1.41A65.16,65.16,0,0,1,231,416.45a51.39,51.39,0,0,1-8.16-3.22,32.34,32.34,0,0,1-6.64-4.32L234,394.24a14.57,14.57,0,0,0,3.26,2.51,24.79,24.79,0,0,0,4,1.86,31.5,31.5,0,0,0,4.22,1.21,19.13,19.13,0,0,0,3.94.45,14.46,14.46,0,0,0,6.3-1.16,3.64,3.64,0,0,0,2.36-3.37,4,4,0,0,0-2-3.22q-2-1.41-7.37-2.91a66.29,66.29,0,0,1-8-2.81,26.75,26.75,0,0,1-6.53-3.87,16.36,16.36,0,0,1-4.33-5.43,17.1,17.1,0,0,1-1.58-7.69,21.36,21.36,0,0,1,2.53-10.25,24.7,24.7,0,0,1,7.2-8.19A36,36,0,0,1,249.16,346a49,49,0,0,1,14.23-2,54.44,54.44,0,0,1,8.44.65,55.74,55.74,0,0,1,7.88,1.81,43.71,43.71,0,0,1,6.86,2.76,22.88,22.88,0,0,1,5.29,3.62Z" transform="translate(-1 0.37)"/><path d="M290.4,418l14.07-71h26.22l-14.06,71H290.4Z" transform="translate(-1 0.37)"/><path d="M373.89,419A55.52,55.52,0,0,1,357,416.6a35,35,0,0,1-12.38-6.68,28.38,28.38,0,0,1-7.6-10.25,32.28,32.28,0,0,1-2.59-13.06A39.87,39.87,0,0,1,337.88,370a40.49,40.49,0,0,1,9.79-13.47,46.29,46.29,0,0,1,15.25-9,56.78,56.78,0,0,1,19.86-3.32,56,56,0,0,1,17,2.36,35.09,35.09,0,0,1,12.38,6.68,28.44,28.44,0,0,1,7.6,10.25,32.31,32.31,0,0,1,2.59,13.06A40.44,40.44,0,0,1,419,393.14a39.52,39.52,0,0,1-9.79,13.47,47,47,0,0,1-15.3,9A57.1,57.1,0,0,1,373.89,419Zm21.38-40.7a13.43,13.43,0,0,0-1-5.07,11.64,11.64,0,0,0-2.81-4.12,13.2,13.2,0,0,0-4.61-2.76,18.19,18.19,0,0,0-6.25-1,18.49,18.49,0,0,0-7.93,1.66,18.84,18.84,0,0,0-6,4.37,19.54,19.54,0,0,0-3.83,6.23,19.77,19.77,0,0,0-1.35,7.13,13.37,13.37,0,0,0,1,5.07,11.6,11.6,0,0,0,2.81,4.12,13.12,13.12,0,0,0,4.61,2.76,18.83,18.83,0,0,0,20.2-4.92,19.55,19.55,0,0,0,3.83-6.23A20,20,0,0,0,395.27,378.26Z" transform="translate(-1 0.37)"/><path d="M473.13,418l-15.75-36h-0.45l-6.19,36H425.42l14.07-71H465l16.09,36h0.45l6.53-36h25.32l-14.06,71H473.13Z" transform="translate(-1 0.37)"/></g><g class="cls-1"><path d="M122.06,561.62a72.79,72.79,0,0,1-13,6.06A105.93,105.93,0,0,1,92.65,572a111.17,111.17,0,0,1-20.13,1.68,99.13,99.13,0,0,1-29.73-4.1A63.34,63.34,0,0,1,20.67,557.8,50.69,50.69,0,0,1,6.79,539.35a58.54,58.54,0,0,1-4.8-24,76.81,76.81,0,0,1,6.57-31.67A78,78,0,0,1,27,457.93,88.1,88.1,0,0,1,55.2,440.6a97.59,97.59,0,0,1,35.68-6.33q19.19,0,33.8,5.31T147,452.71L113.4,483.64a22.18,22.18,0,0,0-9.91-7.17,39,39,0,0,0-13.87-2.33A34.93,34.93,0,0,0,75.22,477a33.63,33.63,0,0,0-11.06,7.83,35.16,35.16,0,0,0-7.09,11.46,38.67,38.67,0,0,0-2.5,14,22.17,22.17,0,0,0,6.78,16.4q6.78,6.71,20.34,6.71a36.86,36.86,0,0,0,14.81-3,46.51,46.51,0,0,0,11.89-7.27l23.78,31.67A109.14,109.14,0,0,1,122.06,561.62Z" transform="translate(-1 0.37)"/><path d="M221.89,570l-20.24-47h-5.84l-9.18,47H140.11l26.08-132H226.9a91.59,91.59,0,0,1,21.91,2.42,51.72,51.72,0,0,1,16.69,7.08,31.08,31.08,0,0,1,14.19,27q0,16.4-8.66,27c-5.77,7.08-13.67,12-23.68,14.58L276.13,570H221.89Zm-10.64-76c6.4,0,11.4-.83,15-2.76a9.62,9.62,0,0,0,5.42-9.16c0-3.85-1.5-7-4.49-8.43A28.11,28.11,0,0,0,215,471h-9l-4.38,23h9.6Z" transform="translate(-1 0.37)"/><path d="M287,570l26.08-132h48.61L335.59,570H287Z" transform="translate(-1 0.37)"/><path d="M453.88,473l-18.78,97H386.7l18.78-97H368.14l7.3-35H497.28L490,473H453.88Z" transform="translate(-1 0.37)"/></g><polygon class="cls-2" points="853.85 542.41 844.91 557 856.8 546.1 853.85 542.41"/><polygon class="cls-2" points="874.71 539.15 884.62 553.09 872.02 543.02 874.71 539.15"/><polygon class="cls-2" points="860.71 553.37 862.34 570.23 863.98 553.37 860.71 553.37"/><path class="cls-3" d="M854.27,514.16c-3.33.29-6.25,2.31-8.72,4.55-3.43,3.11-6.51,7.34-6,11.92,0.42,3.43,2.76,6.31,5.35,8.59s5.54,4.2,7.79,6.83c3.46,4.07,4.94,9.49,5.22,14.84,9.81-6.44,19-14.17,25.38-24A26.77,26.77,0,0,0,886,532a16.3,16.3,0,0,0-.35-12.92,13.7,13.7,0,0,0-10.29-7.6A11.79,11.79,0,0,0,864,516.79C860.91,515.35,857.64,513.88,854.27,514.16Z" transform="translate(-1 0.37)"/><path class="cls-2" d="M864.37,499a7.22,7.22,0,0,1,6.44,3.83s0.35,0.92-2.66.83L866,529.25l17-18.44s-2-2.39-1-3.29c1.41-1.19,4.2-.23,5.42.82a5.63,5.63,0,0,1,1.31,1.82,4.72,4.72,0,0,1,.1,3s-0.1.8-2.76,0l-19.81,20.64c-2.76,1.31-4.29,0-4.29,0l-19.87-20.67c-2.66.77-2.76,0-2.76,0-1.15-2.53,1.15-5.19,3.46-5.9,1-.29,2.5-0.54,3.37.19,1.06,0.9-1,3.27-1,3.27l17,18.4-2.18-25.64c-3.33.19-2.66-.66-2.66-0.66a7.14,7.14,0,0,1,6.44-3.83h0.64Z" transform="translate(-1 0.37)"/></svg>