<?xml version="1.0" encoding="utf-8"?>
<!-- Generator: Adobe Illustrator 19.2.1, SVG Export Plug-In . SVG Version: 6.00 Build 0)  -->
<svg version="1.1" id="pdw_x5F_logos" xmlns="http://www.w3.org/2000/svg" xmlns:xlink="http://www.w3.org/1999/xlink" x="0px"
	 y="0px" viewBox="0 0 748 578" style="enable-background:new 0 0 748 578;" xml:space="preserve">
<style type="text/css">
	.st0{fill:#E01B22;}
	.st1{fill:#FFFFFF;}
</style>
<path class="st0" d="M117.1,175.4h512.6c61.5,0,111.3,49.8,111.3,111.3v4.4c0,61.5-49.8,111.3-111.3,111.3H117.1
	c-61.5,0-111.3-49.8-111.3-111.3v-4.4C5.8,225.2,55.6,175.4,117.1,175.4L117.1,175.4z"/>
<path class="st1" d="M119.4,194.5h508c51.3,0,92.8,41.5,92.8,92.8v3.2c0,51.3-41.5,92.8-92.8,92.8h-508c-51.3,0-92.8-41.5-92.8-92.8
	v-3.2C26.6,236,68.1,194.5,119.4,194.5L119.4,194.5z"/>
<g>
	<path class="st0" d="M625.1,209.8H121.7c-42.6,0-77.1,34.5-77.1,77.1v4c0,42.6,34.5,77.1,77.1,77.1h503.3
		c42.6,0,77.1-34.5,77.1-77.1v-4C702.1,244.3,667.6,209.8,625.1,209.8z"/>
</g>
<g>
	<path class="st1" d="M246.8,324.2l-37.5-91.4h-65.2l0,19.9l8.2,0l-29.4,71.5l-8.2,0l0,19.9l34.4,0c0.2,0.1,10.3-25.8,10.3-25.8
		l40.7,0l10.6,25.8H255l0-19.9L246.8,324.2z M167.6,298.4l12.3-29.3l11.9,29.3H167.6z"/>
	<path class="st1" d="M380.6,298.4c0-5.5-4.5-9.9-10-9.9v0c5.3,0,9.6-4.1,9.9-9.4l0-36.3c0-5.5-4.5-9.9-9.9-9.9l-107.5,0v19.9h8.2
		v71.6h-8.2v19.9l107.5,0c5.5,0,9.9-4.5,9.9-9.9l0-0.3V298.4z M336.9,321.8c0,1.4-1.1,2.5-2.5,2.5h-19.4v-25.8h19.4
		c1.4,0,2.5,1.1,2.5,2.5V321.8z M336.9,276.1c0,1.4-1.1,2.5-2.5,2.5h-19.4v-25.8h19.4c1.4,0,2.5,1.1,2.5,2.5V276.1z"/>
	<path class="st1" d="M522.6,298.4h43.7v0h21.9l0,23.3c0,1.4-1.1,2.5-2.5,2.5h-16.9c-1.4,0-2.5-1.1-2.5-2.5v-3.3h-43.7l-0.1,15.8
		c0,5.5,4.5,9.9,9.9,9.9h89.5c5.5,0,9.9-4.5,9.9-9.9l0-55.6h-65.6l0-23.4c0-1.4,1.1-2.5,2.5-2.5h16.9c1.4,0,2.5,1.1,2.5,2.5l0,2v1.5
		h43.7l0-15.9c0-5.5-4.5-9.9-9.9-9.9h-89.5c-5.5,0-9.9,4.4-9.9,9.9L522.6,298.4z"/>
	<path class="st1" d="M396.9,334.1c0,5.5,4.5,9.9,9.9,9.9h89.4c5.5,0,9.9-4.5,9.9-9.9l-0.1-81.4h8.3v-19.9h-52l0,88.9
		c0,1.4-1.1,2.5-2.5,2.5h-17c-1.4,0-2.5-1.1-2.5-2.5l0.1-88.9h-51.8v19.9h8.1L396.9,334.1z"/>
</g>
</svg>
