<?xml version="1.0" encoding="utf-8"?>
<!-- Generator: Adobe Illustrator 19.2.1, SVG Export Plug-In . SVG Version: 6.00 Build 0)  -->
<svg version="1.1" id="Layer_1" xmlns="http://www.w3.org/2000/svg" xmlns:xlink="http://www.w3.org/1999/xlink" x="0px" y="0px"
	 viewBox="0 0 1192.2 736.2" style="enable-background:new 0 0 1192.2 736.2;" xml:space="preserve">
<style type="text/css">
	.st0{fill:#9BE7D8;}
	.st1{fill:#FF5959;}
</style>
<g>
	<g id="XMLID_5889_">
		<path id="XMLID_5901_" class="st0" d="M541.5,253.1c5.3,34.3,15.3,51.6,46.3,51.6c24.3,0,41.6-8.7,41.6-27
			c0-18.3-8-24.6-60.2-40.9c-50.2-15.6-66.5-36.9-66.5-67.2c0-34.3,28-66.2,78.5-66.2c40.9,0,78.2,19,86.5,63.6l-43.6,11
			c-5.7-18-16.6-32.9-42.9-32.9c-24,0-34.3,10.3-34.3,24.3c0,14,7.7,17.3,59.2,34.9c52.6,18,67.2,36.6,67.2,70.5
			c0,40.6-32.6,71.5-85.5,71.5c-51.9,0-86.5-27-93.5-82.9L541.5,253.1z"/>
		<path id="XMLID_5899_" class="st0" d="M739.3,253.1c5.3,34.3,15.3,51.6,46.3,51.6c24.3,0,41.6-8.7,41.6-27
			c0-18.3-8-24.6-60.2-40.9c-50.2-15.6-66.5-36.9-66.5-67.2c0-34.3,28-66.2,78.5-66.2c40.9,0,78.2,19,86.5,63.6l-43.6,11
			c-5.7-18-16.6-32.9-42.9-32.9c-24,0-34.3,10.3-34.3,24.3c0,14,7.7,17.3,59.2,34.9c52.6,18,67.2,36.6,67.2,70.5
			c0,40.6-32.6,71.5-85.5,71.5c-51.9,0-86.5-27-93.5-82.9L739.3,253.1z"/>
		<path id="XMLID_5897_" class="st0" d="M49.2,539.7c5.3,34.3,15.3,51.6,46.3,51.6c24.3,0,41.6-8.7,41.6-27c0-18.3-8-24.6-60.2-40.9
			c-50.2-15.6-66.5-36.9-66.5-67.2c0-34.3,28-66.2,78.5-66.2c40.9,0,78.2,19,86.5,63.6l-43.6,11c-5.7-18-16.6-32.9-42.9-32.9
			c-24,0-34.3,10.3-34.3,24.3s7.7,17.3,59.2,34.9c52.6,18,67.2,36.6,67.2,70.5c0,40.6-32.6,71.5-85.5,71.5C43.6,632.9,9,605.9,2,550
			L49.2,539.7z"/>
		<path id="XMLID_5895_" class="st0" d="M1008.5,539.7c5.3,34.3,15.3,51.6,46.3,51.6c24.3,0,41.6-8.7,41.6-27
			c0-18.3-8-24.6-60.2-40.9c-50.2-15.6-66.5-36.9-66.5-67.2c0-34.3,28-66.2,78.5-66.2c40.9,0,78.2,19,86.5,63.6l-43.6,11
			c-5.7-18-16.6-32.9-42.9-32.9c-24,0-34.3,10.3-34.3,24.3s7.7,17.3,59.2,34.9c52.6,18,67.2,36.6,67.2,70.5
			c0,40.6-32.6,71.5-85.5,71.5c-51.9,0-86.5-27-93.5-82.9L1008.5,539.7z"/>
		<polygon id="XMLID_5894_" class="st0" points="726.8,436.6 726.8,395 579.4,395 579.4,627.9 726.8,627.9 726.8,586.3 624.3,586.3 
			624.3,528.7 717.5,528.7 717.5,488.8 624.3,488.8 624.3,436.6 		"/>
		<path id="XMLID_5893_" class="st0" d="M890,537.1c29.9-9.6,49.2-33.6,49.2-67.9c0-45.9-32.6-74.2-80.2-74.2h-21.3L824,435.6h31.4
			c23.6,0,38.3,10.6,38.3,33.6c0,23-14.6,33.3-38.3,33.3h-45.9l0-66.8l0,0v0v-0.1V395h-44.9v232.9h44.9v-86.5h34.6l46.9,86.5h48.6
			L890,537.1z"/>
		<polygon id="XMLID_5892_" class="st0" points="493.7,341.2 410,108.3 369.1,108.3 285.4,341.2 332,341.2 389.1,182.4 390.1,182.4 
			420,265.7 377,265.7 363.6,303 433.4,303 447.1,341.2 		"/>
		<polygon id="XMLID_5891_" class="st0" points="391.5,627.9 307.8,395 266.8,395 183.1,627.9 229.7,627.9 286.8,469.1 287.8,469.1 
			317.7,552.3 274.8,552.3 261.3,589.6 331.1,589.6 344.9,627.9 		"/>
		<polygon id="XMLID_5890_" class="st0" points="349.8,395 433.5,627.9 474.4,627.9 558.1,395 511.5,395 454.4,553.8 453.4,553.8 
			396.4,395 		"/>
	</g>
	<g id="XMLID_659_">
		<path id="XMLID_1296_" class="st0" d="M1150.5,416c0-12,9-21,20.8-21c12,0,21,9,21,21c0,11.7-9,20.7-21,20.7
			C1159.5,436.7,1150.5,427.7,1150.5,416z M1188.2,416c0-9.6-7.4-17.1-17-17.1c-9.5,0-16.7,7.5-16.7,17.1c0,9.5,7.2,17,16.7,17
			C1180.8,432.9,1188.2,425.4,1188.2,416z M1163.8,403.5h8.7c5.5,0,8.7,2.8,8.7,7.8c0,3.6-2.3,6.3-5.3,7.5l5.3,9.5h-5.3l-5-9h-2v9
			h-5V403.5z M1171.9,414.7c2.5,0,4-1.1,4-3.3c0-2.5-1.5-3.4-4-3.4h-3.2v6.8H1171.9z"/>
	</g>
</g>
<polygon class="st1" points="1192.2,736.2 1182.3,736.2 1182.3,736.2 1192.2,736.2 "/>
</svg>
