<?xml version="1.0" encoding="utf-8"?>
<!-- Generator: Adobe Illustrator 19.2.1, SVG Export Plug-In . SVG Version: 6.00 Build 0)  -->
<svg version="1.1" id="Layer_1" xmlns="http://www.w3.org/2000/svg" xmlns:xlink="http://www.w3.org/1999/xlink" x="0px" y="0px"
	 viewBox="0 0 564 619.5" style="enable-background:new 0 0 564 619.5;" xml:space="preserve">
<style type="text/css">
	.st0{fill:#00A8E1;}
	.st1{fill:#FFFFFF;}
</style>
<path class="st0" d="M264.1,36.2c0.4,0,5.3,0.5,5.3,0.5c-0.1,0,1.2,3.5,1.2,3.8c12.6,0.9,25.7-2.5,26.1-2.8c1.1-1.2,4.6-5.5,1.1-8
	c-13.8,2.8-34.5-2-31.9-1c-3-1-6.5-2.8-9.5-6.3c-6.5-10.6-9.8-3.3-10.1-0.2C246.8,35.6,250.3,34.3,264.1,36.2z"/>
<g>
	<path class="st0" d="M370.2,433.1c0,3.3-2.8,6.2-6.2,6.2c-3.1,0-6.2-2.7-6.2-6.2c0-3.1,2.7-6,6.2-6
		C367.4,426.9,370.2,429.8,370.2,433.1z M369.1,433.1c0-2.8-2.3-5.2-5.2-5.2c-2.8,0-5.2,2.3-5.2,5.2c0,2.8,2.3,5.1,5.2,5.1
		C366.7,438.1,369.1,435.9,369.1,433.1z M362.9,436.3h-1v-6.5h2.6c1.7,0,2.3,1.2,2.3,2.2s-0.6,1.7-1.4,2.1l1.1,2.3h-1l-1.1-2.3h-1.4
		L362.9,436.3L362.9,436.3z M364.5,433.1c1,0,1.1-0.9,1.1-1.2c0-0.5-0.2-1.2-1.2-1.2h-1.6v2.5L364.5,433.1L364.5,433.1z"/>
</g>
<path class="st0" d="M360.3,212.1c-0.7-5.4-1.6-10.5-2.5-15.3c-6.7-23.1-15.3-47.4-38.2-58.1c-9.8-3.7-28.3-2.8-30.9-26
	c0-6.2-0.1-69.5-0.1-69.6l-29.4,6v4.5c0,0-0.5,13.4-0.5,13.3c0,0,0,6.3,0.2,13.9c0.6,35.5,2.6,58.1-36.1,72.6
	c-23.9,9-25.4,19.7-28,47.1c-0.1,2-0.4,3.9-0.5,5.8c0-0.9-7.9,76.8,18.2,200.3c0,0,4.1,20.1,4.5,23c0.2,1.5,1.8,3.5,5.9,6.5
	c44.2,10.6,53.8,2.8,77,6c23.5,3.1,44.7-12.1,45.1-12.3c2.3-0.7,10.1-16.6,11-36.5C365.1,339.2,362.9,253,360.3,212.1z"/>
<path class="st1" d="M59.1,502.4c0-7.1-4.4-16.1-19.1-16.1H19.9V539h20.2c14.7,0,19.1-8.9,19.1-16c0-4.7-2.8-8.9-6.8-10.4
	C56.4,511.1,59.1,506.1,59.1,502.4z M40.9,527.8h-9v-9.8H41c5.2,0.1,6,3.5,6,5.1C46.9,524.3,46.1,527.8,40.9,527.8z M41,508h-9.1
	v-10.5h9c5.3,0,6.2,3.8,6.2,4.9C46.9,503.9,46.2,507.9,41,508z"/>
<polygon class="st1" points="86.8,486.4 74.8,486.4 74.8,539 105.9,539 105.9,527.8 86.8,527.8 "/>
<path class="st1" d="M148.2,517.8c0,2.8-1.8,10.1-9,10.1c-7.1,0-9-7.3-9-10.1v-32h-12v32c0,9,5.4,21.2,21.2,21.2
	s21.2-12.2,21.2-21.2v-32h-12.1L148.2,517.8L148.2,517.8z"/>
<polygon class="st1" points="177.6,539 214.1,539 214.1,527.8 189.6,527.8 189.6,518.7 208.7,518.7 208.7,507.5 189.6,507.5 
	189.6,497.6 214.1,497.6 214.1,486.4 177.6,486.4 "/>
<path class="st1" d="M287,502.4c0-7.1-4.4-16.1-19.1-16.1h-20.2V539h20.2c14.7,0,19.1-8.9,19.1-16c0-4.7-2.8-8.9-6.8-10.4
	C284.2,511.1,287,506.1,287,502.4z M268.7,527.8h-9v-9.8h9.1c5.2,0.1,6,3.5,6,5.1C274.7,524.3,274,527.8,268.7,527.8z M268.9,508
	h-9.1v-10.5h9c5.3,0,6.2,3.8,6.2,4.9C274.7,503.9,274.1,507.9,268.9,508z"/>
<path class="st1" d="M325.6,484.7c-20.1,0-26.2,16.1-26.2,27.2c0,11.3,6.2,27.2,26.2,27.2s26.1-15.9,26.1-27.2
	C351.7,500.8,345.5,484.7,325.6,484.7z M325.6,527.8c-12.2,0-13.9-12-13.9-15.9c0-3.9,1.7-15.8,13.9-15.8
	c12.1,0,13.8,11.9,13.8,15.8C339.4,515.7,337.7,527.8,325.6,527.8z"/>
<polygon class="st1" points="361.3,497.6 375.2,497.6 375.2,539 387.3,539 387.3,497.6 401.2,497.6 401.2,486.4 361.3,486.4 "/>
<polygon class="st1" points="412.1,497.6 425.9,497.6 425.9,539 438.1,539 438.1,497.6 451.9,497.6 451.9,486.4 412.1,486.4 "/>
<polygon class="st1" points="476.9,486.4 464.7,486.4 464.7,539 495.9,539 495.9,527.8 476.9,527.8 "/>
<polygon class="st1" points="545.7,497.6 545.7,486.4 509.3,486.4 509.3,539 545.7,539 545.7,527.8 521.3,527.8 521.3,518.7 
	540.3,518.7 540.3,507.5 521.3,507.5 521.3,497.6 "/>
<path class="st1" d="M192.8,570.6c3.6,0,7.3,2,9.5,4.1l2.6-2.5c-2.8-3-6.5-4.9-12-4.9c-12.7,0-16.4,10.1-16.4,17.1
	c0,7.1,3.8,17.2,16.4,17.2c5.3,0,8.9-1.8,11.9-4.6c-0.9-1-1.5-1.8-2.3-2.8c-2.3,2-5.8,3.8-9.6,3.8c-10.7,0-12.3-10.1-12.3-13.5
	C180.4,580.8,181.9,570.6,192.8,570.6z"/>
<path class="st1" d="M232.1,567.2c-12.7,0-16.4,10.1-16.4,17.1c0,7.1,3.8,17.1,16.4,17.1c12.7,0,16.4-10,16.4-17.1
	C248.6,577.3,244.9,567.2,232.1,567.2z M232.1,597.8c-10.7,0-12.3-10.1-12.3-13.4c0-3.3,1.5-13.4,12.3-13.4
	c10.7,0,12.2,10,12.2,13.4C244.4,587.7,242.9,597.8,232.1,597.8z"/>
<polygon class="st1" points="263,601 267.1,601 267.1,586.3 280.6,586.3 280.6,582.9 267.1,582.9 267.1,571.1 284.4,571.1 
	284.4,567.7 263,567.7 "/>
<polygon class="st1" points="297.9,601 301.9,601 301.9,586.3 315.6,586.3 315.6,582.9 301.9,582.9 301.9,571.1 319.4,571.1 
	319.4,567.7 297.9,567.7 "/>
<polygon class="st1" points="332.9,601 354.4,601 354.4,597.5 336.9,597.5 336.9,586.3 350.6,586.3 350.6,582.9 336.9,582.9 
	336.9,571.1 354.4,571.1 354.4,567.7 332.9,567.7 "/>
<polygon class="st1" points="367.8,601 389.3,601 389.3,597.5 371.9,597.5 371.9,586.3 385.5,586.3 385.5,582.9 371.9,582.9 
	371.9,571.1 389.3,571.1 389.3,567.7 367.8,567.7 "/>
</svg>
