<?xml version="1.0" encoding="utf-8"?>
<!-- Generator: Adobe Illustrator 19.2.1, SVG Export Plug-In . SVG Version: 6.00 Build 0)  -->
<svg version="1.1" id="Layer_1" xmlns="http://www.w3.org/2000/svg" xmlns:xlink="http://www.w3.org/1999/xlink" x="0px" y="0px"
	 viewBox="0 0 564 619.5" style="enable-background:new 0 0 564 619.5;" xml:space="preserve">
<style type="text/css">
	.st0{fill:#00A8E1;}
	.st1{fill:#FFFFFF;}
</style>
<path class="st0" d="M263.1,21.4c0.4,0,5.6,0.5,5.6,0.5c-0.1,0,1.3,3.7,1.3,4c13.3,0.9,27.1-2.6,27.5-2.9c1.2-1.3,4.9-5.8,1.2-8.4
	c-14.6,2.9-36.4-2.1-33.6-1.1c-3.2-1.1-6.9-3-10-6.6c-6.8-11.2-10.3-3.5-10.6-0.2C244.9,20.8,248.5,19.4,263.1,21.4z"/>
<g>
	<path class="st0" d="M374.9,439.8c0,3.5-2.9,6.5-6.5,6.5c-3.3,0-6.5-2.8-6.5-6.5c0-3.3,2.8-6.3,6.5-6.3
		C372,433.3,374.9,436.3,374.9,439.8z M373.8,439.8c0-3-2.4-5.5-5.5-5.5c-3,0-5.5,2.4-5.5,5.5c0,3,2.4,5.4,5.5,5.4
		C371.3,445.1,373.8,442.8,373.8,439.8z M367.2,443.2h-1.1v-6.9h2.7c1.8,0,2.4,1.3,2.4,2.3s-0.6,1.8-1.5,2.2l1.2,2.4h-1.1l-1.2-2.4
		h-1.5V443.2z M368.9,439.8c1.1,0,1.2-0.9,1.2-1.3c0-0.5-0.2-1.3-1.3-1.3h-1.7v2.6h1.8V439.8z"/>
</g>
<path class="st0" d="M364.5,206.8c-0.7-5.7-1.7-11.1-2.6-16.1c-7.1-24.3-16.1-50-40.3-61.2c-10.3-3.9-29.8-3-32.6-27.4
	c0-6.5-0.1-73.3-0.1-73.4l-31,6.3v4.7c0,0-0.5,14.1-0.5,14c0,0,0,6.6,0.2,14.7c0.6,37.4,2.7,61.2-38.1,76.5
	c-25.2,9.5-26.8,20.8-29.5,49.7c-0.1,2.1-0.4,4.1-0.5,6.1c0-0.9-8.3,81,19.2,211.2c0,0,4.3,21.2,4.7,24.2c0.2,1.6,1.9,3.7,6.2,6.8
	c46.6,11.2,56.7,3,81.2,6.3c24.8,3.3,47.1-12.8,47.5-13c2.4-0.7,10.6-17.5,11.6-38.5C369.6,340.8,367.2,250,364.5,206.8z"/>
<path class="st1" d="M47,512.9c0-7.5-4.6-17-20.1-17H5.6v55.6h21.3c15.5,0,20.1-9.4,20.1-16.9c0-5-3-9.4-7.2-11
	C44.1,522,47,516.8,47,512.9z M27.8,539.7h-9.5v-10.3h9.6c5.5,0.1,6.3,3.7,6.3,5.4C34.1,536,33.3,539.7,27.8,539.7z M27.9,518.8
	h-9.6v-11.1h9.5c5.6,0,6.5,4,6.5,5.2C34.1,514.5,33.4,518.7,27.9,518.8z"/>
<polygon class="st1" points="76.2,496 63.5,496 63.5,551.5 96.3,551.5 96.3,539.7 76.2,539.7 "/>
<path class="st1" d="M140.9,529.1c0,2.9-1.9,10.6-9.5,10.6c-7.5,0-9.5-7.7-9.5-10.6v-33.7h-12.7v33.7c0,9.5,5.7,22.4,22.3,22.4
	s22.3-12.9,22.3-22.4v-33.7H141v33.7H140.9z"/>
<polygon class="st1" points="171.9,551.5 210.4,551.5 210.4,539.7 184.6,539.7 184.6,530.1 204.7,530.1 204.7,518.2 184.6,518.2 
	184.6,507.8 210.4,507.8 210.4,496 171.9,496 "/>
<path class="st1" d="M287.2,512.9c0-7.5-4.6-17-20.1-17h-21.3v55.6h21.3c15.5,0,20.1-9.4,20.1-16.9c0-5-3-9.4-7.2-11
	C284.3,522,287.2,516.8,287.2,512.9z M267.9,539.7h-9.5v-10.3h9.6c5.5,0.1,6.3,3.7,6.3,5.4C274.3,536,273.5,539.7,267.9,539.7z
	 M268.1,518.8h-9.6v-11.1h9.5c5.6,0,6.5,4,6.5,5.2C274.3,514.5,273.6,518.7,268.1,518.8z"/>
<path class="st1" d="M327.9,494.2c-21.2,0-27.6,17-27.6,28.7c0,11.9,6.5,28.7,27.6,28.7c21.1,0,27.5-16.8,27.5-28.7
	C355.4,511.2,348.9,494.2,327.9,494.2z M327.9,539.6c-12.9,0-14.7-12.7-14.7-16.8s1.8-16.7,14.7-16.7c12.8,0,14.6,12.5,14.6,16.7
	C342.5,526.9,340.7,539.6,327.9,539.6z"/>
<polygon class="st1" points="365.6,507.8 380.2,507.8 380.2,551.5 393,551.5 393,507.8 407.6,507.8 407.6,496 365.6,496 "/>
<polygon class="st1" points="419.1,507.8 433.7,507.8 433.7,551.5 446.5,551.5 446.5,507.8 461.1,507.8 461.1,496 419.1,496 "/>
<polygon class="st1" points="487.4,496 474.6,496 474.6,551.5 507.5,551.5 507.5,539.7 487.4,539.7 "/>
<polygon class="st1" points="559.9,507.8 559.9,496 521.6,496 521.6,551.5 559.9,551.5 559.9,539.7 534.2,539.7 534.2,530.1 
	554.3,530.1 554.3,518.2 534.2,518.2 534.2,507.8 "/>
<path class="st1" d="M187.9,584.8c3.8,0,7.7,2.1,10,4.3l2.7-2.6c-3-3.2-6.8-5.2-12.7-5.2c-13.4,0-17.3,10.7-17.3,18
	c0,7.5,4,18.1,17.3,18.1c5.6,0,9.4-1.9,12.5-4.9c-0.9-1.1-1.6-1.9-2.4-3c-2.4,2.1-6.1,4-10.1,4c-11.3,0-13-10.7-13-14.2
	C174.9,595.5,176.4,584.8,187.9,584.8z"/>
<path class="st1" d="M229.4,581.2c-13.4,0-17.3,10.7-17.3,18c0,7.5,4,18,17.3,18c13.4,0,17.3-10.5,17.3-18
	C246.7,591.8,242.8,581.2,229.4,581.2z M229.4,613.4c-11.3,0-13-10.6-13-14.1c0-3.5,1.6-14.1,13-14.1c11.3,0,12.9,10.5,12.9,14.1
	C242.3,602.8,240.7,613.4,229.4,613.4z"/>
<polygon class="st1" points="261.9,616.8 266.2,616.8 266.2,601.3 280.5,601.3 280.5,597.7 266.2,597.7 266.2,585.3 284.5,585.3 
	284.5,581.7 261.9,581.7 "/>
<polygon class="st1" points="298.7,616.8 302.9,616.8 302.9,601.3 317.4,601.3 317.4,597.7 302.9,597.7 302.9,585.3 321.4,585.3 
	321.4,581.7 298.7,581.7 "/>
<polygon class="st1" points="335.6,616.8 358.3,616.8 358.3,613.1 339.8,613.1 339.8,601.3 354.3,601.3 354.3,597.7 339.8,597.7 
	339.8,585.3 358.3,585.3 358.3,581.7 335.6,581.7 "/>
<polygon class="st1" points="372.4,616.8 395.1,616.8 395.1,613.1 376.7,613.1 376.7,601.3 391.1,601.3 391.1,597.7 376.7,597.7 
	376.7,585.3 395.1,585.3 395.1,581.7 372.4,581.7 "/>
</svg>
