<?xml version="1.0" encoding="utf-8"?>
<!-- Generator: Adobe Illustrator 19.2.1, SVG Export Plug-In . SVG Version: 6.00 Build 0)  -->
<svg version="1.1" id="Layer_1" xmlns="http://www.w3.org/2000/svg" xmlns:xlink="http://www.w3.org/1999/xlink" x="0px" y="0px"
	 viewBox="0 0 1000 1000" style="enable-background:new 0 0 1000 1000;" xml:space="preserve">
<style type="text/css">
	.st0{fill:#FFFFFF;}
</style>
<g>
	<path class="st0" d="M834.7,391.3l-8.8-22.1C779,252,675.4,171,553.6,152.4V220c86.8,16.5,161.1,72.2,201,152.5l-148,127l148,127
		c-39.9,80.3-114.2,136-201,152.5v67.6c121.8-18.6,225.4-99.6,272.3-216.8l8.8-22.1L708.6,499.5L834.7,391.3z"/>
	<path class="st0" d="M508.9,148.4h-11.5l-0.6,0.1C353.6,149.6,227,236,173.8,369.3l-8.8,22.1L291,499.5L165,607.6l8.8,22.1
		c53.6,134.2,181.6,220.9,326.1,220.9v-0.1h9.1V148.4z M245,626.4l148-127l-148-127c38-76.6,107.5-130.8,189.1-150v553.9
		C352.5,757.3,283.1,703.1,245,626.4z"/>
	<g>
		<path class="st0" d="M499.8,988.8C230,988.8,10.5,769.3,10.5,499.5S230,10.2,499.8,10.2s489.3,219.5,489.3,489.3
			S769.6,988.8,499.8,988.8z M499.8,76.6C266.7,76.6,77,266.3,77,499.5s189.7,422.9,422.9,422.9s422.9-189.7,422.9-422.9
			S733,76.6,499.8,76.6z"/>
	</g>
</g>
</svg>
