<?xml version="1.0" encoding="utf-8"?>
<!-- Generator: Adobe Illustrator 19.2.1, SVG Export Plug-In . SVG Version: 6.00 Build 0)  -->
<svg version="1.1" id="Layer_1" xmlns="http://www.w3.org/2000/svg" xmlns:xlink="http://www.w3.org/1999/xlink" x="0px" y="0px"
	 viewBox="0 0 1000 1000" style="enable-background:new 0 0 1000 1000;" xml:space="preserve">
<style type="text/css">
	.st0{fill:#FFFFFF;}
</style>
<g>
	<g>
		<path class="st0" d="M596.3,356.3l-2.6-6.5c-13.9-34.8-44.7-58.8-80.8-64.3v20c25.8,4.9,47.8,21.4,59.7,45.3l-43.9,37.7l43.9,37.7
			c-11.8,23.8-33.9,40.4-59.7,45.3v20c36.1-5.5,66.9-29.5,80.8-64.3l2.6-6.5l-37.4-32.1L596.3,356.3z"/>
		<path class="st0" d="M499.6,284.2h-3.4l-0.2,0c-42.5,0.4-80.1,26-95.9,65.5l-2.6,6.5l37.4,32.1l-37.4,32.1l2.6,6.5
			c15.9,39.8,53.9,65.6,96.8,65.6v0h2.7V284.2z M421.3,426l43.9-37.7l-43.9-37.7c11.3-22.7,31.9-38.8,56.1-44.5v164.4
			C453.2,464.9,432.6,448.8,421.3,426z"/>
		<g>
			<path class="st0" d="M496.9,533.6c-80.1,0-145.2-65.1-145.2-145.2s65.1-145.2,145.2-145.2s145.2,65.1,145.2,145.2
				S577,533.6,496.9,533.6z M496.9,262.9c-69.2,0-125.5,56.3-125.5,125.5s56.3,125.5,125.5,125.5s125.5-56.3,125.5-125.5
				S566.1,262.9,496.9,262.9z"/>
		</g>
	</g>
	<g>
		<g>
			<path class="st0" d="M130.8,565.9c-21.3,0-38.5,17.3-38.5,38.5c0,21.3,17.3,38.5,38.5,38.5s38.5-17.3,38.5-38.5
				C169.3,583.2,152,565.9,130.8,565.9z M158.3,604.5c0,15.2-12.3,27.5-27.5,27.5s-27.5-12.3-27.5-27.5c0-15.2,12.3-27.5,27.5-27.5
				S158.3,589.3,158.3,604.5z"/>
			<path class="st0" d="M241.7,565.9v52l-54.5-52h-0.6V643h11v-52l54.4,52h0.7v-77.1H241.7z"/>
			<g>
				<path class="st0" d="M32.6,644.2L32.6,644.2c-6,0-10.1-0.8-10.2-0.8l-4.6-0.9v-76l4.6-0.9c0.2,0,4.2-0.8,10.2-0.8
					c10.7,0,30.6,2.5,44.7,19.4l3,3.6l-14,16.7l14,16.7l-3,3.6C63.2,641.7,43.2,644.2,32.6,644.2z M29.1,632.8
					c1,0.1,2.2,0.1,3.5,0.1h0c9.6,0,22.6-2.2,32.9-11.9l-13.8-16.5L65.4,588c-10.2-9.8-23.3-11.9-32.9-11.9c-1.3,0-2.5,0-3.5,0.1
					V632.8z"/>
			</g>
			<path class="st0" d="M335.2,633.9c-9.2-0.9-25.8-3.5-43.2-11.3l23.9-17.9l-23.6-15.3c17.6-8.5,33.8-11.5,42.8-12.6v-11.4
				c-11.1,1.1-33.4,5.1-56.7,18.6l-8,4.6l25.8,16.8l-25.4,19l7.7,4.2c22.5,12.2,45.2,15.7,56.6,16.7V633.9z"/>
		</g>
		<g>
			<path class="st0" d="M633.1,604.8c0-15.2,12.3-27.5,27.5-27.5c9,0,17,4.3,22,11l8.7-6.7c-7-9.2-18.2-15.3-30.7-15.3
				c-21.3,0-38.5,17.3-38.5,38.5c0,21.3,17.3,38.5,38.5,38.5c12.6,0,23.7-6.1,30.7-15.3l-8.7-6.7c-5.1,6.7-13,11-22,11
				C645.4,632.3,633.1,620,633.1,604.8z"/>
			<path class="st0" d="M764.8,566.2v41.3h-44v-41.3h-11v77.1h11v-24.8h44v24.8h11v-77.1H764.8z"/>
			<path class="st0" d="M808.8,566.2h-11v77.1h11V566.2z"/>
			<path class="st0" d="M883.7,566.2v52l-54.5-52h-0.6v77.1h11v-52l54.4,52h0.7v-77.1H883.7z"/>
			<polygon class="st0" points="575.1,564.7 532.2,643.3 544.7,643.3 552.2,629.5 558.3,618.5 575.1,587.6 592.1,618.5 598,629.5 
				605.6,643.3 618.2,643.3 			"/>
			<path class="st0" d="M976.1,633.9c-9.2-0.9-25.8-3.5-43.2-11.3l23.9-17.9l-23.6-15.3c17.6-8.5,33.8-11.5,42.8-12.6v-11.4
				c-11.1,1.1-33.4,5.1-56.7,18.6l-8,4.6l25.8,16.8l-25.4,19l7.7,4.2c22.5,12.2,45.2,15.7,56.6,16.7V633.9z"/>
			<path class="st0" d="M437.6,643.3c0.8-10,3.5-31.7,13.4-54l19.8,27.7l17.7-27.5c11,22.9,14.1,44,15,53.8h11.3
				c-0.9-11.6-4.7-38.9-20.9-67.8l-4.6-8.2l-19,29.6l-21-29.4l-4.3,8.1c-14.6,27.8-18,55.8-18.8,67.6H437.6z"/>
		</g>
	</g>
</g>
</svg>
