<?xml version="1.0" encoding="utf-8"?>
<!-- Generator: Adobe Illustrator 19.2.1, SVG Export Plug-In . SVG Version: 6.00 Build 0)  -->
<svg version="1.1" id="Layer_1" xmlns="http://www.w3.org/2000/svg" xmlns:xlink="http://www.w3.org/1999/xlink" x="0px" y="0px"
	 viewBox="0 0 427 560" style="enable-background:new 0 0 427 560;" xml:space="preserve">
<style type="text/css">
	.st0{fill:#CC2030;}
	.st1{fill:#FFFFFF;}
</style>
<rect x="85.3" y="58.8" class="st0" width="257.7" height="441.1"/>
<path d="M359.6,25.8H68.8H52.3v16.5v474.1v16.5h16.5h290.7h16.5v-16.5V42.3V25.8H359.6z M343.1,58.8v441.1H85.3V58.8H343.1z"/>
<polygon class="st1" points="281.7,417.6 280.2,417.6 280.2,419.1 280.2,426.5 269.7,450.9 259,425.7 259,419.1 259,417.6 
	257.6,417.6 249.8,417.6 248.3,417.6 248.3,419.1 248.3,483.4 248.3,484.9 259,484.9 259,483.4 259,453.9 265.7,470 273.6,470 
	280.2,454.2 280.2,483.4 280.2,484.9 290.9,484.9 290.9,483.4 290.9,419.1 290.9,417.6 289.4,417.6 "/>
<polygon class="st1" points="99,417.6 99,484.9 130.1,485 130.1,469.4 119.4,469.4 119.4,473.9 109.7,473.9 109.7,428.7 
	119.4,428.7 119.4,434.1 130.1,434.1 130.1,417.6 "/>
<polygon class="st1" points="298.5,417.6 298.4,417.6 298.4,445.2 294.8,445.2 294.8,456.3 298.4,456.3 298.4,484.9 329.5,484.9 
	329.5,469.4 318.8,469.4 318.8,473.9 309.1,473.9 309.1,456.3 326.4,456.3 326.4,445.2 309.1,445.2 309.1,428.7 318.9,428.7 
	318.9,434.1 329.6,434.1 329.6,417.6 "/>
<path class="st1" d="M241.1,417.6h-0.5h-7.2h-1.5h-9.7h-1.5h-7.7h-1.5v1.5v8.1v1.5v56.2l31.1,0v-65.9v-1.5H242H241.1z M231.8,473.9
	h-9.7v-45.2h9.7V473.9z"/>
<polygon class="st1" points="156.1,417.6 156.1,445.2 146.6,445.2 146.6,417.6 135.9,417.6 135.9,445.2 132.3,445.2 132.3,456.3 
	135.9,456.3 135.9,484.9 146.6,484.9 146.6,456.3 156.1,456.3 156.1,484.9 166.7,484.9 166.7,417.6 "/>
<path class="st1" d="M206.6,478.6l-7.9-23.3l6.4-7.2v-30.6h-1.5H174v27.6l0,0h-3.5v11.2h3.6v28.6h10.7v-28.4v0h3.9l9.5,28.4h8.4
	L206.6,478.6z M194.4,445.3h-9.7v-16.6h9.7V445.3z"/>
<path class="st1" d="M310.5,361.7H292l-3.3-92.6l9.8-25.6l0.3-0.8l0-0.8l0.3-25.6l0-3.6l-3.5-0.9l-34.6-8.6l-8.8-19.7l6.1-11.1
	l4.1-1.5l5.6,2.3l4.5,5.7l2.6,3.3l3.5-2.3l6.9-4.5l5-3.3l9.7-4.6l0.8-0.4l0.6-0.7l2.4-2.7l1.8-2l-0.9-2.5l-2.1-5.9L302,147l-0.1-0.9
	l-0.4-0.8l-5.8-10.9l0-5.5l0-1.9l-1.3-1.3l-15.1-15.5l-1.5-1.5l-2.1,0.2l-16.2,1.2l1.1-3.4l1-2.8l-2.2-2l-6.7-6l-1.8-1.6l-2.3,0.6
	l-29.3,7.3l-6.3,1.6l0.5,0.7l-2.7,2.7l-14.3,14.5l-0.5,0.5l-0.4-0.4l-1,1.9l-1.2,1.2l0.3,0.4l-1,1.9l-7.7,14.1l-1.7,3.1l1,0.9
	l-0.8,2.5l-3.7,12.1l-0.7-0.4l-0.8,7.2l-0.8,7.6l-0.4-0.2l0.1,2.8l-0.3,3l0.5,0.2l0.1,1.5l0.1,3l-7.7-41.2l-0.2-1.2l-0.8-0.9
	l-21.2-25.2l-21.5-38.9l-5.6-10.2L118,78.1l-15.2,63.7l-0.2,1l-2.6-0.7l2.1,7.6l10,36.8l-1.5-0.4l2,7.6L122,229l0.2,0.9l-0.6,0.1
	l0.9,1.3l0.4,1.5l0.6-0.1l2.1,2.9l13.5,19.2l0.2,0.3l-1.1,0.6l5.6,4.2l10.8,8.3L133.2,292l-0.8,0.8l-0.3,1.1l-10.3,41.6l-0.2,0.7
	l0.1,0.7l3.7,50.7l0.3,4.2l4.2,0l69,0.5c0,0,19.3,0,21.6,0c0.1,0,0.2,0,0.2,0h4.3h0.2h2.6h0.2h4.3h0.2h3.1h4.5v-4.5v-19.8v-4.5h-4.5
	h-33.4l10-16.7l0.4-0.7l0.2-0.7l4.9-23.4l1.1,0.2l1.2-0.5l26-10.1l7.4,7.8l12.5,67.3l0.7,3.8l3.8-0.1l3.3-0.1c-0.1,0,20,0,22.3,0
	c0.1,0,0.2,0,0.2,0h4.3h0.2h2.6h0.2h4.3h0.2h2.3h4.5v-4.5v-19.8v-4.5H310.5z"/>
<g>
	<path d="M287.6,366.2l-3.4-97.9l10.1-26.5l0.3-25.6l-36.8-9.1l-10.6-23.7l8.1-14.6l7.3-2.6l8.3,3.4l5.2,6.7l6.9-4.5l-8.7-7.4
		l6.1-3.8l5.9,8.6l11.8-5.6l2.4-2.7l-2.3-6.4l-0.8-7l-6.4-12l0-6.7l-15.1-15.5l-23,1.7l3.3-9.8l-6.7-6l-29.3,7.3l13.4,19.8l-4.3,2.4
		L214,110.4l-14.3,14.5l15.4,16.4l-2.8,3.6l-15.6-15.6l-7.7,14.1l14.8,13.7l-2.2,3.8l-13.7-11.9l-3.8,12.4l12.7,8.8l-1.8,4.4
		l-12.1-7.6l-1,9.8l10.6,4.4l-1.5,4l-8.8-4.1l0.4,8.3l19.8,2.5l26.9,3.7l17.4,13.3l-2.8,21.1l-10.4,3.5l-3.1-4l9.3-3.4l1-15.6
		l-13.8-10.1l-25.3-3.4l-21.1-2.3l-6.8-6.6l-8.3-44l-21.4-25.6l-21.7-39.3l-15.2,63.7l29.7,9.4l-1.5,4.1l-29-7.9l10.2,37.2l25.2,7.9
		l1.5,6l-26.3-7.1l9.4,35.4l21.1-3l2.6,4.1l-20.7,4.1l13.5,19.2l19.2-9l3.5,3l-18.9,10.2l14.3,10.9l14.7-12l4.1,2.6l-13.2,11.7
		l16,5.1l8.5-9.6l4.1,1.9l-7.5,10.2l9.9,3.4l13.8-14.9l3.7,2.1L198.6,285l-40.2-13.8l-21.8,23.9l-10.3,41.6l3.7,50.7l69,0.5h21.8
		v-11.1h4.3v11.1h3.1v-11.1h4.3v11.1h3.3v-19.8H199l-4.3-0.5l13.7-23l4.9-23.4l-13.1-2.7l-8.5,1.7l-1-4l9.5-1.8l18.1,3.3l28.9-11.2
		l10.4,11l12.8,68.6l3.3-0.1h22.6v-8.6h4.3v8.6h3.1v-8.6h4.3v8.6h2.5v-19.8H287.6z M280.4,136.5c2.4,0,4.3,1.9,4.3,4.3
		c0,2.4-1.9,4.3-4.3,4.3c-2.3,0-4.3-1.9-4.3-4.3C276.1,138.4,278,136.5,280.4,136.5z"/>
</g>
<g>
	<path class="st1" d="M320.6,383.4h5.4v1.4h-1.8v5.7h-1.8v-5.7h-1.8V383.4z"/>
	<path class="st1" d="M334.8,383.4v7.1h-1.7l0.1-5l0-0.7l-0.1,0.2c-0.1,0.4-0.1,0.5-0.2,0.7l-1.3,4.7h-1.5l-1.3-4.5l-0.3-1.3
		c0,0.6,0,0.7,0.1,1.3l0.1,4.4H327v-7.1h2.6l1.1,4l0.2,1.1c0.1-0.5,0.1-0.5,0.2-0.9l1.1-4.2H334.8z"/>
</g>
</svg>
