<?xml version="1.0" encoding="utf-8"?>
<!-- Generator: Adobe Illustrator 19.2.1, SVG Export Plug-In . SVG Version: 6.00 Build 0)  -->
<svg version="1.1" id="Layer_1" xmlns="http://www.w3.org/2000/svg" xmlns:xlink="http://www.w3.org/1999/xlink" x="0px" y="0px"
	 viewBox="0 0 239.3 81" style="enable-background:new 0 0 239.3 81;" xml:space="preserve">
<style type="text/css">
	.st0{fill:#C8242C;}
	.st1{fill:#FFFFFF;}
</style>
<polygon class="st0" points="9.6,36.1 24.6,36.1 24.6,28.1 9.7,28.1 9.7,19.9 25.6,19.9 25.6,12.7 0.8,12.7 0.8,53.4 26.3,53.4 
	26.3,46 9.6,46 "/>
<g>
	<g>
		<path class="st0" d="M72.2,23.2c-9.3,0-15.4,6-15.5,15.2c-0.1,9.1,6.4,15.4,15.4,15.3c9.1-0.1,15.2-6.4,15.2-15.6
			C87.3,29.2,81.2,23.2,72.2,23.2z M72.1,47.2c-3.4,0-5.9-3.5-5.8-8.7c0-5.3,2.6-8.7,5.9-8.7c3.3,0,5.7,3.4,5.7,8.5
			C77.8,43.5,75.5,47.2,72.1,47.2z"/>
		<path class="st0" d="M140.6,23.2c-9.5,0-15.2,6-15.1,15.8c0.1,8.8,5.9,14.6,14.8,14.7c9.4,0.1,15.5-6.1,15.4-15.7
			C155.7,28.8,149.9,23.2,140.6,23.2z M140.6,47.1c-3.5-0.1-6.1-4-6-8.9c0.1-4.9,2.5-8.4,5.9-8.5c3.6-0.2,6.1,3.3,6.1,8.6
			C146.6,43.6,144.1,47.2,140.6,47.1z"/>
	</g>
</g>
<path class="st0" d="M119.9,32.9c-1-8.6-8.6-12.3-16.2-8c-1,0.6-1.9,1.2-2.9,1.9c-0.1,0.1-0.3,0.2-0.4,0.3v-3.4H93c0,0,0,25.3,0,29
	c2.9,0,5.4,0,8.4,0c0-2.4,0-4.3,0-6.1c0-3.3-0.1-6.6,0.1-10c0.1-3.3,1.4-6.1,5.1-6.1c3.7,0.1,4.3,3.2,4.6,6.1
	c0.2,1.8,0.1,3.7,0.1,5.5c0,3.4,0,6.9,0,10.5c3.3,0,5.8,0,8.8,0c0-2.1,0-3.9,0-5.7C120.1,42.2,120.5,37.5,119.9,32.9z"/>
<path class="st0" d="M228.7,23.7l-5.2,18.6l-5.6-18.7l-10.2,0c2.7,6.8,6,14.8,8.7,21.6c3.4,8.4,2.8,9.7-4.5,13.3
	c-0.1,3.6,0,5,0.1,7.4c5.9-0.5,10.8-3.5,12.9-8.1c4.9-10.8,9.7-22.8,14.3-34L228.7,23.7z"/>
<path class="st0" d="M33.6,47.6c7,9.4,20.5,4.8,20.5,4.8l-1.6-6.1c-9,1.1-12.8-2.2-13-8v-0.3c0.1-5.8,3.9-9.1,13-8l1.6-6.1
	c0,0-13.3-4.4-20.5,4.8C33.6,28.8,26.9,37.5,33.6,47.6z"/>
<path class="st0" d="M205.3,34.7c0-1.3-0.3-2.6-0.7-3.9c-2-7.2-8.9-9.9-15.3-5.9c-1,0.6-3.2,2.4-3.9,3c-2.8-5-8.7-6.5-14.1-3
	c-1,0.6-1.9,1.4-2.9,2.1l0,0v-3.7h-7.3v0.4c0,1.3,0,20.7,0,28.8c2.8,0,8.1,0,8.2,0c0,0,0.1-11,0.1-15.1c0-3.3,0.4-6.9,4.7-6.8
	c3.9,0.1,4.3,3.6,4.3,6.7c0.1,5,0,10,0,15.3c0,0,5.9,0,9,0c0-5.3,0-10.2,0-15.2c0-3.3,0.4-6.9,4.7-6.8c3.9,0.1,4.3,3.6,4.3,6.7
	c0.1,5,0,9.9,0,15.2c3.4,0,5.9,0,8.8,0C205.3,46.3,205.4,40.5,205.3,34.7z"/>
<g>
	<path class="st1" d="M5,71.8c0.8-0.1,1.3-0.2,1.5-0.4c0.2-0.2,0.3-0.7,0.3-1.5v-9.4c0-0.8-0.1-1.2-0.3-1.5
		c-0.2-0.2-0.7-0.4-1.5-0.4v-0.4h6v0.4c-0.8,0-1.3,0.2-1.6,0.4C9.1,59.2,9,59.7,9,60.4v10.2c0,0.2,0,0.4,0.1,0.6
		c0.1,0.1,0.3,0.2,0.5,0.3c0.2,0,0.3,0,0.5,0c0.2,0,0.5,0,1,0c1.9,0,3.2-0.2,3.8-0.5c0.7-0.3,1.3-1.1,1.9-2.4h0.5l-1,3.7H5V71.8z"/>
	<path class="st1" d="M24.2,58.2v0.4c-0.8,0.1-1.3,0.2-1.6,0.4c-0.2,0.2-0.4,0.7-0.4,1.5v6.8c0,1.1,0.2,2,0.5,2.6
		c0.6,1.1,1.6,1.7,3.2,1.7c1.7,0,2.9-0.6,3.5-1.7c0.3-0.6,0.5-1.6,0.5-3v-5.5c0-1.1-0.1-1.9-0.4-2.2c-0.3-0.3-0.8-0.5-1.6-0.6v-0.4
		h4.9v0.4c-0.8,0.1-1.4,0.3-1.6,0.6c-0.3,0.3-0.4,1-0.4,2.1v5.5c0,1.5-0.2,2.6-0.7,3.4c-0.8,1.5-2.4,2.3-4.7,2.3
		c-2.3,0-3.8-0.7-4.7-2.2c-0.4-0.8-0.7-1.9-0.7-3.2v-6.6c0-0.8-0.1-1.3-0.4-1.5c-0.2-0.2-0.8-0.4-1.6-0.4v-0.4H24.2z"/>
	<path class="st1" d="M33.6,71.8c0.9-0.1,1.4-0.3,1.7-0.6c0.2-0.3,0.4-1,0.4-2.1v-8.6c0-0.8-0.1-1.3-0.4-1.5
		c-0.2-0.2-0.8-0.4-1.6-0.4v-0.4h4.2l4.9,10.5l4.7-10.5h4.2v0.4c-0.8,0.1-1.3,0.2-1.5,0.4c-0.2,0.2-0.3,0.7-0.3,1.5v9.4
		c0,0.8,0.1,1.3,0.3,1.5c0.2,0.2,0.7,0.4,1.5,0.4v0.4h-5.9v-0.4c0.9-0.1,1.4-0.2,1.6-0.5c0.2-0.2,0.3-0.8,0.3-1.7v-9.5l-5.4,12h-0.3
		l-5.3-11.5v8.4c0,1.2,0.2,1.9,0.5,2.3c0.2,0.2,0.7,0.4,1.5,0.5v0.4h-5V71.8z"/>
	<path class="st1" d="M52.8,71.8c0.8,0,1.4-0.2,1.6-0.4c0.3-0.2,0.4-0.7,0.4-1.5v-9.4c0-0.8-0.1-1.3-0.4-1.5
		c-0.3-0.2-0.8-0.4-1.6-0.4v-0.4h5.9c1.7,0,3,0.3,4,0.8c1,0.5,1.5,1.5,1.5,2.8c0,1-0.3,1.8-1,2.3c-0.4,0.3-1,0.5-1.8,0.7
		c1,0.2,1.8,0.6,2.5,1.2s1,1.3,1,2.3c0,1.7-0.8,2.8-2.3,3.4c-0.8,0.3-1.8,0.5-3,0.5h-6.9V71.8z M60.7,64.1c0.9-0.4,1.3-1.2,1.3-2.2
		c0-1.3-0.5-2.1-1.5-2.6c-0.6-0.2-1.4-0.4-2.6-0.4c-0.4,0-0.7,0-0.8,0.1c-0.1,0.1-0.2,0.3-0.2,0.6v4.8l2,0
		C59.7,64.5,60.2,64.4,60.7,64.1z M61.4,70.8c0.7-0.4,1.1-1.2,1.1-2.4c0-1.2-0.4-2-1.3-2.4s-1.9-0.7-3.3-0.7c-0.3,0-0.5,0-0.6,0
		c-0.1,0-0.2,0-0.4,0v5.3c0,0.4,0.1,0.6,0.3,0.7c0.2,0.1,0.7,0.2,1.4,0.2C59.8,71.5,60.7,71.2,61.4,70.8z"/>
	<path class="st1" d="M66.9,71.8c0.8-0.1,1.3-0.2,1.5-0.4s0.3-0.7,0.3-1.5v-9.4c0-0.8-0.1-1.2-0.3-1.5c-0.2-0.2-0.7-0.4-1.5-0.4
		v-0.4h11.2l0.1,3h-0.5c-0.2-0.9-0.4-1.5-0.8-1.8c-0.4-0.3-1.2-0.4-2.4-0.4h-2.9c-0.3,0-0.5,0-0.6,0.1c-0.1,0.1-0.1,0.3-0.1,0.6v4.7
		h3.3c0.9,0,1.5-0.1,1.7-0.4c0.2-0.3,0.4-0.8,0.6-1.6H77v4.9h-0.5c-0.2-0.8-0.4-1.4-0.6-1.6c-0.2-0.3-0.8-0.4-1.7-0.4h-3.3v5.2
		c0,0.4,0.1,0.7,0.4,0.7c0.3,0.1,1.1,0.1,2.4,0.1c1.4,0,2.5-0.2,3.2-0.5c0.7-0.3,1.3-1.1,1.8-2.3h0.6l-1,3.6H66.9V71.8z"/>
	<path class="st1" d="M80.1,71.8c0.8-0.1,1.3-0.2,1.5-0.5c0.2-0.2,0.3-0.8,0.3-1.7v-9.2c0-0.7-0.1-1.2-0.3-1.5
		c-0.2-0.2-0.7-0.4-1.5-0.4v-0.4h5.9c1.2,0,2.2,0.2,3,0.5c1.5,0.6,2.3,1.7,2.3,3.2c0,1.1-0.3,1.9-1,2.4c-0.7,0.6-1.6,0.9-2.8,1.1
		l4.4,5.4c0.3,0.3,0.5,0.6,0.8,0.7c0.3,0.2,0.6,0.2,1,0.3v0.4h-3.4L85,65.7L84,65.8v4.2c0,0.8,0.1,1.3,0.4,1.5
		c0.2,0.2,0.8,0.3,1.6,0.4v0.4h-5.9V71.8z M87.3,64.5c1.1-0.5,1.7-1.3,1.7-2.6c0-1.2-0.5-2.1-1.5-2.5c-0.5-0.2-1.2-0.4-2.1-0.4
		c-0.6,0-1,0-1.1,0.1c-0.1,0.1-0.2,0.3-0.2,0.6V65C85.6,64.9,86.6,64.8,87.3,64.5z"/>
</g>
<g>
	<path class="st1" d="M109.5,58.3c0.8,0.2,1.3,0.3,1.4,0.3c0.2,0,0.4-0.1,0.6-0.2c0.2-0.1,0.3-0.3,0.4-0.5h0.4l0.2,4.7h-0.5
		c-0.3-0.9-0.7-1.7-1.1-2.3c-0.9-1.1-2-1.6-3.5-1.6c-1.5,0-2.7,0.6-3.6,1.8c-0.9,1.2-1.4,2.8-1.4,4.8c0,1.9,0.5,3.4,1.5,4.5
		c1,1.1,2.2,1.7,3.8,1.7c1.1,0,2.1-0.3,3-0.8c0.5-0.3,1.1-0.7,1.7-1.3l0.4,0.4c-0.5,0.6-1,1.1-1.7,1.6c-1.2,0.8-2.5,1.1-3.9,1.1
		c-2.3,0-4.1-0.7-5.4-2.2c-1.2-1.3-1.8-3-1.8-5c0-2.1,0.7-3.8,2-5.2c1.4-1.5,3.2-2.2,5.3-2.2C107.9,58,108.7,58.1,109.5,58.3z"/>
	<path class="st1" d="M117.2,59.8c1.3-1.2,2.9-1.9,4.8-1.9c1.9,0,3.5,0.6,4.8,1.9c1.4,1.4,2.1,3.2,2.1,5.4c0,2.3-0.7,4.1-2.2,5.5
		c-1.3,1.2-2.9,1.8-4.7,1.8c-2,0-3.6-0.7-4.9-2c-1.3-1.4-2-3.1-2-5.3C115.1,63,115.8,61.2,117.2,59.8z M118.8,70.2
		c0.9,1.1,2,1.6,3.2,1.6c1.2,0,2.3-0.5,3.2-1.6c0.9-1,1.3-2.7,1.3-5c0-2.3-0.4-4-1.3-5c-0.9-1-2-1.5-3.2-1.5c-1.3,0-2.3,0.5-3.2,1.6
		c-0.9,1.1-1.3,2.7-1.3,4.9C117.5,67.4,117.9,69.1,118.8,70.2z"/>
	<path class="st1" d="M131,71.8c0.9-0.1,1.4-0.3,1.7-0.6c0.2-0.3,0.4-1,0.4-2.1v-8.6c0-0.8-0.1-1.3-0.4-1.5
		c-0.2-0.2-0.8-0.4-1.6-0.4v-0.4h4.2l4.9,10.5l4.7-10.5h4.2v0.4c-0.8,0.1-1.3,0.2-1.5,0.4c-0.2,0.2-0.3,0.7-0.3,1.5v9.4
		c0,0.8,0.1,1.3,0.3,1.5c0.2,0.2,0.7,0.4,1.5,0.4v0.4h-5.9v-0.4c0.9-0.1,1.4-0.2,1.6-0.5c0.2-0.2,0.3-0.8,0.3-1.7v-9.5l-5.4,12h-0.3
		L134,60.7v8.4c0,1.2,0.2,1.9,0.5,2.3c0.2,0.2,0.7,0.4,1.5,0.5v0.4h-5V71.8z"/>
	<path class="st1" d="M151,71.8c0.8-0.1,1.3-0.2,1.5-0.5c0.2-0.2,0.3-0.8,0.3-1.7v-9.2c0-0.7-0.1-1.2-0.3-1.5
		c-0.2-0.2-0.7-0.4-1.5-0.4v-0.4h5.6c1.8,0,3.2,0.3,4.1,1c0.9,0.7,1.4,1.6,1.4,2.7c0,1.4-0.5,2.5-1.6,3.1c-1.1,0.6-2.4,1-4,1
		c-0.2,0-0.5,0-0.9,0c-0.4,0-0.6,0-0.8,0v3.8c0,0.8,0.1,1.3,0.4,1.5c0.2,0.2,0.8,0.3,1.6,0.4v0.4H151V71.8z M158.1,59.4
		c-0.6-0.3-1.4-0.4-2.3-0.4c-0.4,0-0.7,0-0.8,0.1c-0.1,0.1-0.1,0.3-0.1,0.6v5.5c0.4,0,0.6,0.1,0.7,0.1c0.1,0,0.2,0,0.3,0
		c1,0,1.7-0.1,2.3-0.4c1-0.5,1.5-1.4,1.5-2.8C159.8,60.8,159.3,59.9,158.1,59.4z"/>
	<path class="st1" d="M161.9,72.2v-0.4c0.5-0.1,1-0.3,1.2-0.6c0.3-0.3,0.7-1.3,1.4-2.9l4.4-10.4h0.4l5.3,12c0.4,0.8,0.6,1.3,0.8,1.5
		c0.2,0.2,0.6,0.3,1.1,0.4v0.4h-5.4v-0.4c0.6-0.1,1-0.1,1.2-0.2c0.2-0.1,0.3-0.3,0.3-0.6c0-0.1,0-0.3-0.1-0.5
		c-0.1-0.3-0.2-0.5-0.3-0.8l-0.8-2h-5.6c-0.5,1.4-0.9,2.2-1,2.5s-0.2,0.5-0.2,0.7c0,0.4,0.1,0.6,0.4,0.7c0.2,0.1,0.5,0.1,1,0.2v0.4
		H161.9z M171,66.8l-2.4-5.8l-2.4,5.8H171z"/>
	<path class="st1" d="M178.1,71.8c0.9-0.1,1.4-0.3,1.7-0.6c0.2-0.3,0.4-1,0.4-2.1v-9.3l-0.3-0.3c-0.3-0.4-0.6-0.6-0.8-0.7
		c-0.2-0.1-0.5-0.1-1-0.2v-0.4h3.6l8.2,10.1v-7c0-1.2-0.2-1.9-0.5-2.3c-0.2-0.2-0.7-0.4-1.5-0.4v-0.4h5v0.4
		c-0.8,0.1-1.3,0.3-1.6,0.6c-0.3,0.3-0.4,1-0.4,2.1v11.1h-0.4l-9.4-11.6v8.2c0,1.2,0.2,1.9,0.5,2.3c0.2,0.2,0.7,0.4,1.5,0.5v0.4h-5
		V71.8z"/>
	<path class="st1" d="M200.6,58.2v0.4c-0.5,0-0.9,0-1.1,0.1c-0.2,0.1-0.4,0.3-0.4,0.6c0,0.1,0,0.2,0.1,0.3c0,0.1,0.1,0.3,0.3,0.5
		l3.1,4.6l3-4.6c0.1-0.2,0.2-0.4,0.2-0.5c0-0.1,0.1-0.2,0.1-0.3c0-0.3-0.2-0.5-0.5-0.6c-0.2-0.1-0.5-0.1-1-0.1v-0.4h4.6v0.4
		c-0.4,0-0.8,0.1-1.1,0.4c-0.5,0.4-1.1,1-1.8,2l-3.1,4.8v4.1c0,0.8,0.1,1.3,0.4,1.5c0.3,0.2,0.9,0.3,1.8,0.4v0.4h-6.5v-0.4
		c1-0.1,1.6-0.2,1.8-0.4c0.2-0.2,0.3-0.8,0.3-1.7V66l-2.8-4.1c-1-1.4-1.6-2.3-2-2.7c-0.4-0.4-0.9-0.6-1.4-0.6v-0.4H200.6z"/>
</g>
</svg>
