<?xml version="1.0" encoding="utf-8"?>
<!-- Generator: Adobe Illustrator 19.2.0, SVG Export Plug-In . SVG Version: 6.00 Build 0)  -->
<svg version="1.1" id="Layer_1" xmlns="http://www.w3.org/2000/svg" xmlns:xlink="http://www.w3.org/1999/xlink" x="0px" y="0px"
	 viewBox="0 0 1039.1 955.9" style="enable-background:new 0 0 1039.1 955.9;" xml:space="preserve">
<style type="text/css">
	.st0{fill:#FFFFFF;}
</style>
<g>
	<path class="st0" d="M544.8,78.6c-10,12-19.4,23.4-29.1,34.6c-9.5,11.1-17.8,23.2-29.9,32c-30,22-61.4,41.5-94.2,58.9
		c-2.3,1.2-4.5,2.9-6.3,4.8c-16.3,16.6-36.6,25.6-58.7,31.3c-26.5,6.8-53.2,6-80.3,3.6c-28.1-2.5-54.6-10.6-80.2-21.1
		c-31.6-13-60.8-30.7-85-55.5c-2.1-2.1-4.4-4-7.5-6.7c1.2,35.7,9.2,69.1,16.7,103.7c-17.2,1.3-33.6,2.6-51.1,3.9
		c-4.7-26.9-9.8-53-13.6-79.2c-2.8-19.2-3.8-38.6-6.1-57.9c-0.9-7.5-4-14.9-4.4-22.4c-0.8-16.1,5.3-29.4,19.7-37.6
		C46.3,64.4,56.5,66.1,66,75c3.6,3.4,6.7,7.4,9.9,11.1c0.3,0.4,0.5,0.9,0.9,1.2c11.5,7.2,16.6,19.6,24.6,29.7
		c16.9,21.4,38.5,36.7,61.8,50.4c22.2,13,46.3,20.8,70.9,25.8c29.7,6.1,60.2,7.7,89.8-2.5c9-3.1,17.7-7,24.3-14.3
		c10.1-11.1,24.2-16.2,36.5-24c23.9-15,47.8-30.2,71.2-46c5.5-3.7,9.6-9.6,13.9-14.9c16.4-20.1,32.5-40.4,49-60.5
		c4.7-5.7,9.4-12.5,17.8-12.5c18.4,0,38,5.9,46.7,25C594,67,606,90.1,618.2,113c3,5.6,8.6,10,13.7,14.1c9.6,7.7,19.7,14.7,29.5,22.1
		c14.5,11.1,31.6,15.1,48.9,18.9c17.6,3.8,35.4,3.2,53.2,2.2c36.3-2.1,72-7.6,107-17.8c18-5.2,34-14.2,49.2-24.8
		c2.7-1.9,5.7-3.5,8.4-5.4c4.9-3.4,9.2-6.8,12-12.8c9-19.8,39.4-27.8,55.9-15.2c10.9,8.3,13.3,20.1,11.6,32.7
		c-4.6,33.9-9.6,67.8-14.9,101.6c-1.8,11.5-4.7,22.8-7.1,34.1c-0.1,0.6-0.6,1.1-0.9,1.5c-16.6-0.9-33-1.8-50-2.7
		c3.4-15.9,7.1-31.7,10-47.7c3-16,5.2-32.1,8-49.6c-6.3,4-11.6,7.2-16.7,10.8c-15.3,10.7-32.2,18.1-50,23
		c-20.5,5.5-41.3,10.3-62.1,14c-16.6,3-33.6,4.6-50.5,5.8c-15.6,1.1-31.3,1.8-46.9,0.8c-29.8-1.8-58.7-8.9-84.7-23.8
		c-13.3-7.7-24.5-18.8-37.4-27.3c-19.6-12.8-31.1-31.4-40.7-51.9C557.8,103.4,551.3,91.4,544.8,78.6z"/>
	<path class="st0" d="M864.8,572.2c-9.6,15.6-19.3,31.4-29,47.3c-31.5,51.6-70,97.9-109.4,143.5c-21.4,24.8-43.2,49.4-65.9,72.9
		c-23.7,24.5-51.8,43.8-80,62.7c-24.7,16.6-49.9,32.4-75,48.4c-17.1,10.9-35.1,11.2-54,4.7c-21-7.2-39.3-19.3-58.1-30.6
		c-0.9-0.5-1.9-0.9-2.4-1.7c-10.7-16.2-27.7-26.2-40.6-40.3c-19.5-21.2-39.2-42.2-58.8-63.2c-11.6-12.3-24.2-23.8-34.9-36.9
		c-13.3-16.4-24.6-34.3-37.4-51c-21.3-28-36.7-59.8-56.4-88.8c-13.2-19.5-23.2-40.7-35.4-60.7c-1.1-1.8-1.9-3.8-3.5-7.2
		c12.9,0,24.7,0,36.4,0c5.3,0,10.7-0.4,16,0c1.9,0.1,4.4,1.5,5.4,3.1c22.1,36.3,43.5,73.1,66.3,109c13.5,21.3,29.1,41.3,44,61.7
		c3.1,4.2,7.9,7.1,11.5,11c8,8.6,15.8,17.5,23.8,26.2c26.9,29.5,53.2,59.5,83.2,86.1c14.2,12.6,28,25.5,45.8,33
		c5.2,2.2,10.5,4.4,15.9,5.7c2.3,0.6,5.6-0.3,7.7-1.7c17.2-10.7,34.7-21.2,51.3-32.7c26-18,52.1-35.9,76.7-55.6
		c15.8-12.6,29.9-27.5,43.3-42.7c27.7-31.4,54.5-63.6,81.4-95.8c27.1-32.3,50.4-67.4,72.4-103.3c0.9-1.4,2.8-3.2,4.3-3.2
		C827.6,572.1,845.7,572.2,864.8,572.2z"/>
	<path class="st0" d="M453.5,410.9c-0.9,2.2-2,4.4-2.6,6.7c-6.5,27.1-15.6,53.2-26.8,78.7c-4.7,10.6-12.3,18.3-21.7,24
		c-3.5,2.1-9.4,1.7-13.8,0.6c-5.2-1.3-10.1-4.2-14.6-7.3c-1.7-1.2-2.4-5.1-2-7.4c1.8-9.6,4-19.2,6.5-28.6
		c10-37.6,19.7-75.2,30.3-112.6c6.1-21.6,13.7-42.7,20.8-64c0.4-1.3,2-2.8,3.2-3c6.4-1.1,12.8-2,19.2-2.7c4.8-0.5,8,2,9.7,6.3
		c10.5,26,20.8,52.2,31.4,78.2c5,12.3,10.4,24.5,15.7,36.6c0.5,1.2,1.8,2.1,2.8,3.1c0.8-1.3,2-2.5,2.3-3.9
		c5.1-18.7,9.5-37.7,15.2-56.2c5.4-17.7,13.7-34.3,23.7-49.9c0.4-0.6,0.6-1.2,1.1-1.7c1.5-1.5,17-3.6,19.1-2.8
		c1.2,0.5,2.5,1.3,3.7,1.1c5.7-0.9,6.1,2,5,6.4c-3.5,13-6.7,26-10.4,39c-4.1,14.5-8.9,28.9-12.8,43.5c-8.3,30.4-15.4,61.2-24.6,91.3
		c-3.1,10.2-3,20.6-6.2,30.5c-2.9,8.8-11.8,12.5-19.5,7.6c-8.7-5.5-15.7-12.8-20.2-22.2c-10.4-21.5-17.8-44-24.5-66.8
		c-2.4-8.2-5.6-16.2-8.4-24.3C454.5,410.9,454,410.9,453.5,410.9z"/>
	<path class="st0" d="M214.8,313.5c1.5,15-4.3,28.6-9.4,42.1c-3.9,10.3-9.2,20.1-13.8,30.1c-0.7,1.5-0.9,3.2-1.1,4.8
		c-0.8,7.8-4.2,14.1-9,20.5c-5.4,7.1-9.1,15.7-12.6,24.1c-12.2,29.5-23.8,59.2-35.8,88.8c-3.7,9.1-11.3,13-20.9,11.1
		c-7.1-1.4-9.1-3.1-8.4-10.4c0.8-8.2,2.7-16.3,4.6-24.3c3.2-13.6,6.6-27.1,10.2-40.6c2.5-9,5.5-17.8,8.5-26.6
		c1.2-3.5-0.1-5.1-3.3-5.6c-2.8-0.4-5.6-1.1-8.4-0.9c-7,0.5-14.1,1.2-21,2.1c-1.6,0.2-3.6,1.6-4.5,3c-3.8,6.6-6.2,13.8-8.8,20.9
		c-9.9,26.7-21.2,53-32.3,79.3c-1.3,3.1-4.4,6-7.4,7.7c-11.3,6.1-21,0-21.6-13c-0.7-13.9,3.6-26.9,7.4-40c5-16.9,10-33.7,14.9-50.6
		c0.3-1.1,0.3-2.3,0.6-3.4c1.2-4.4-0.4-6.4-5-6.7c-3.4-0.2-6.9-1-10.2-2c-7-2.2-12-9.6-11.7-16.8c0.3-7.2,5.2-13,12.9-14.3
		c7-1.3,14.1-2.1,21.1-2.5c3.9-0.2,5.9-1.3,6.9-5.3c4.3-16.4,8.4-32.9,13.6-49c5.5-17.2,12.1-34.1,18.4-51.1
		c1.6-4.4,4.2-7.3,9.5-4.1c1.1,0.7,3.2,0.8,4.4,0.3c4.6-2,7.5,0.7,10.7,3.1c9.2,6.7,12.2,16.6,12.3,27c0.1,7.7-1.6,15.5-3.4,23
		c-2.5,11-5.7,21.9-8.9,32.7c-1.6,5.2-4,10.2-6.2,15.2c-1.6,3.6-0.3,5.7,3.3,5.8c8.8,0.2,17.6,0,26.5,0c4.9,0,6.7-3.5,8.4-7.3
		c13.1-28.7,26.2-57.5,39.3-86.2c0.6-1.4,1.5-2.6,2.3-3.9c4.9-8,7-9.3,12.5-7.9c9.8,2.5,15.1,8,15.3,15.9
		C214.9,303.5,214.8,308.5,214.8,313.5z"/>
	<path class="st0" d="M266.4,540.8c-12.6-1.9-25.5-2.8-37.7-6c-15.8-4.2-23.8-16.3-25.8-32.1c-2.3-18,0.3-35.8,3.6-53.5
		c6.5-34.5,16.8-68,26.4-101.7c4.6-16.3,12.6-31,19.8-46.2c2.3-4.8,5.6-7.5,9.9-5.9c8.6,3.1,17.7,6.3,24.7,11.8
		c6,4.7,6.1,13.5,4.1,21c-8.2,29.6-16.7,59.1-25.1,88.6c-6.3,22.4-11.7,45.1-12.6,68.4c-0.3,6.7,0.9,13.6,2.4,20.2
		c1.4,6,5.2,7.1,10.6,3.8c14.4-8.9,25.6-20.9,34.7-35.1c17.7-27.4,29.4-57.3,38-88.5c5.9-21.4,13.9-41.9,24.1-61.5
		c3.7-7,9.4-13.2,15.2-18.8c6.9-6.6,19.1-2.7,21.7,6.6c3.1,10.8,3.8,21.9,1.6,33.1c-1.7,8.6-3,17.4-5.4,25.8
		c-2.2,7.4-5.7,14.5-8.8,21.7c-9.2,21-18.4,42-27.7,63c-5.1,11.5-9.3,23.6-15.4,34.5c-8.8,15.5-21.9,27.6-35.2,39.2
		c-8.7,7.5-19.2,11-30.9,10.5c-4-0.2-8,0-12,0C266.5,540,266.4,540.4,266.4,540.8z"/>
	<path class="st0" d="M934.3,302c15.9,0.3,30.9,4.2,45.1,11.3c3.3,1.6,6.7,2.9,10.1,4.3c10.9,4.3,15.8,13,16.1,24.1
		c0.6,22.9-11,38.7-30.3,49.4c-4.8,2.7-9.9,4.6-14.9,6.9c-6.1,2.7-6.8,3.9-4.9,10.2c2.5,8.3,5.2,16.5,7.7,24.7
		c7.4,24.1,15.1,48.2,21.8,72.5c1.8,6.4,1.2,13.6,0.5,20.3c-0.7,6.4-7.4,7.6-12,10c-4.8,2.4-9.7,0.6-12.7-3.6
		c-2.8-3.8-5.4-8.1-6.9-12.5c-9.6-29.4-18.8-58.9-28.2-88.3c-1.1-3.3-2.5-6.5-3.8-9.8c-1.4-3.5-2.7-6.8-7.6-6.5
		c-4.9,0.4-8.8,2-10.6,6.8c-8.2,22.1-16.2,44.3-24.5,66.4c-3.7,9.8-7.9,19.4-11.8,29.1c-0.9,2.2-1.7,4.4-2.3,6.6
		c-1.3,5.1-4.1,8.4-9.6,9.5c-3.9,0.8-7.4,2.9-11.2,4c-9.1,2.4-15.2-2.2-13.6-11.3c2.5-14,6-27.9,9.7-41.7c4-15.4,8.5-30.7,13.1-46
		c6.2-21,12.6-42,19.1-62.9c6.1-19.5,12.5-38.9,18.8-58.4c0.7-2.1,1.5-4,2.2-6.1c1-3.1,2.9-4.2,6.2-4.5c8.9-1,17.7-2.6,26.6-3.8
		C929,302.4,931.6,302.3,934.3,302z M917.2,376.2c-0.1,3.9,1.6,4.4,4.5,3.3c7.4-2.9,15-5.5,22.2-8.8c8.2-3.7,15.9-8.3,21.5-15.7
		c4.2-5.6,4.1-7.8-1-12.6c-7.4-6.9-16.5-9.4-26.2-10.9c-4.2-0.7-5.8,0.8-7,4.2c-3.3,9.4-6.6,18.8-9.9,28.2
		C919.9,368.2,918.5,372.4,917.2,376.2z"/>
	<path class="st0" d="M751.2,500.5c5.4,0,9.8-0.1,14.3,0c8.7,0.2,17.3,0.3,26,0.7c6.5,0.3,8.3,2.2,8.4,8.7
		c0.3,17.2-0.7,18.5-17.3,21.1c-12.9,2-26.2,1.8-39.3,2.2c-10.7,0.3-21.3,0.5-32,0.2c-9.7-0.3-12.4-3.5-10.8-13.3
		c1.4-8.3,3.8-16.5,6-24.6c8.8-32.4,17.6-64.8,26.5-97.1c6-21.9,12.2-43.8,18.4-65.7c1.9-6.8,3.7-13.3-0.8-20.1
		c-2.4-3.7-0.4-7.1,4.1-8.2c2.9-0.7,5.9-1.1,8.9-1.1c24.7-0.4,49.3-0.8,74-0.8c4.3,0,8.5,1.9,12.8,2.8c2.1,0.5,4.2,0.9,5.6,1.1
		c2.3,2.5,5,4.4,6,7c0.8,2.1-0.1,5.1-0.9,7.4c-1.2,3.5-3.4,6.7-4.5,10.3c-0.9,3.2-2.7,4.8-5.8,5.1c-8.9,0.7-17.9,1.5-26.8,2
		c-5.8,0.3-11.7,0.2-17.5,0c-3-0.1-4.8,1.1-5.7,3.7c-6,17.2-12,34.5-17.9,51.8c-0.5,1.4-0.4,2.9-0.6,4.9c2.2,0.3,4.1,0.6,6,0.7
		c6.3,0.1,12.7,0.1,19,0.3c9.2,0.2,17.3,6.6,19.7,15.5c1.2,4.6-2,8.7-7.7,9.3c-14,1.3-28.1,2.7-42.1,3.7c-3.2,0.2-4.7,1.4-5.6,4.4
		c-6.4,20.8-13,41.5-19.5,62.3C751.8,496.2,751.7,497.9,751.2,500.5z"/>
	<path class="st0" d="M612.8,520.4c-5-1.5-10.3-2.4-15-4.6c-6.5-3.1-8.5-8.5-7.9-15.7c1.6-19.4,7.8-37.7,13.1-56.2
		c8.7-30,17.7-59.9,26.6-89.8c0.7-2.2,1.6-4.4,2.3-6.6c2.1-6.5,1.2-7.4-5.6-7.7c-4.9-0.2-10-0.7-14.6-2.2
		c-7.1-2.3-12.1-7.4-15.2-14.3c-2-4.3-3.5-8.9-0.5-13.3c3.6-5.3,8.9-8.6,15.3-7.3c13.7,2.8,27.3,1.1,40.8-0.1
		c15.9-1.5,31.7-1.5,47.6-2.3c11.5-0.6,17.8,4.7,20.9,15.9c1.4,5.1-0.2,8.4-5.2,10.3c-1.9,0.7-3.9,0.9-5.7,1.7
		c-3.7,1.6-7.3,3.5-10.9,5.3c-3.7,1.9-7.5,3.6-10.9,5.9c-2,1.3-4.2,3.4-4.8,5.5c-8.5,29.4-16.2,58.9-25.2,88.1
		c-3.5,11.5-9.9,22.1-14.3,33.4c-5.9,15.2-11.2,30.5-16.5,45.9C625.1,518,622.9,519.4,612.8,520.4z"/>
	<path class="st0" d="M492.2,711.5c-39.3,0-78.6-0.3-117.9,0.1c-19,0.2-37.9,1.6-56.9,2.4c-1.5,0.1-3,0-4.5-0.3
		c-5.7-1.3-9.2-4.8-9.1-9.1c0.1-4.9,3.1-8.1,9.6-8.7c8.9-0.9,17.9-1.2,26.9-1.5c18.6-0.6,37.3-1.5,55.9-1.5c32-0.1,64-0.2,95.9,0.5
		c33.3,0.7,66.6,2.4,99.8,3.6c23.3,0.8,46.6,1.4,69.9,2.2c2.3,0.1,4.9,0.3,6.7,1.5c2,1.3,5.1,4.4,4.7,5.4c-1,2.3-3.6,5-6,5.6
		c-5.5,1.2-11.2,1.6-16.9,1.6c-39.3-0.2-78.6-0.7-117.8-1c-13.5-0.1-27,0-40.5,0C492.2,711.8,492.2,711.7,492.2,711.5z"/>
	<path class="st0" d="M363.4,611.7c6.2,3.6,11.6,5.9,16.1,9.4c4.8,3.7,9,8.4,13,13c1.1,1.3,1.3,4.2,0.8,6.1
		c-2.4,10.3-10.6,14.6-19.6,18c-10.4,3.9-21.3,3.7-32,3.8c-17.3,0.1-34.6-0.7-51.9-0.9c-4.1-0.1-5.4-2-5-5.6
		c1.1-10.2,2.5-20.4,3.5-30.7c1.3-13.1,2.3-26.2,3.3-39.3c0.1-1.2-1.2-2.6-2.2-3.6c-0.8-0.7-2.5-0.6-3.1-1.3c-1.6-1.8-3.9-4-3.8-5.9
		c0.1-1.4,3.4-3.9,5.3-3.9c10.4-0.3,20.9-0.4,31.4,0.1c14.5,0.7,28.9,1.8,43.3,3.1c4.9,0.5,9.8,1.8,14.6,3.3
		c5.1,1.6,12.9,13.2,13,18.5c0.1,5.4-3.4,10.1-9.4,12.2c-2.6,0.9-5.4,1.6-8.2,2.2C369.7,610.7,367.1,611.1,363.4,611.7z
		 M305.4,646.6c13.9,0,26.8,0.4,39.7-0.2c6.7-0.3,13.4-2.1,19.9-3.8c2.2-0.6,5-2.6,5.6-4.6c1-3.7-0.4-7.4-4.2-9.2
		c-4.4-2.2-8.9-5.1-13.6-5.7c-14.5-2.1-29.2-3.3-44.6-4.9C307.3,628.4,306.4,637.4,305.4,646.6z M310.3,603.5
		c1.2,0.2,2.5,0.6,3.8,0.6c11.8-0.2,23.6-0.1,35.4-0.9c5.7-0.4,11.3-2.3,16.9-3.9c1.6-0.5,2.7-2.5,4.1-3.8c-1.5-1.1-2.9-2.7-4.6-3.3
		c-16.9-5.8-34.5-6.6-52.1-6.8c-1.1,0-3.2,2-3.3,3.1C310,593.3,310.3,598.3,310.3,603.5z"/>
	<path class="st0" d="M479.8,621.1c4.8,6.2,9.4,12,13.7,18.1c2.3,3.2,3.7,6.8,0.7,10.5c-2.4,3-10.3,6.1-13.4,4.7
		c-3.1-1.4-6.3-3.1-8.7-5.5c-6.6-6.6-13-13.4-19-20.5c-3.3-3.8-6.8-5.6-11.9-5.7c-14.7-0.3-14.8-0.5-16.6,13.8
		c-1,7.8-1.6,15.9-7.3,21.8c-2.3,2.4-6.6,3.5-10.1,3.9c-3.1,0.4-3.6-2.7-3.5-5.4c0.6-14.8,1-29.6,1.8-44.4c0.5-9.3,1.9-18.6,2-27.8
		c0-4.9,3.8-6.7,5.8-9.9c2.4-4,5.7-3.4,9.9-2.7c5.1,0.9,10.6-0.1,15.9-0.2c10.8-0.3,21.6-0.9,32.4-0.8c13.2,0.2,23.9,6.8,33.1,15.4
		c4.3,4,2.6,10,0.6,15c-3.8,9.2-10.6,15.1-20.2,17.7c-1.6,0.4-3.2,0.9-4.8,1.5C480,620.7,479.8,621,479.8,621.1z M443.7,610.8
		c6-0.5,12.6-0.9,19.2-1.8c6.7-0.9,12.4-3.9,16.2-9.6c4.3-6.4,2.7-11.7-4.5-14.1c-13.3-4.3-26.8-4.4-40.3-1.2
		c-1.1,0.3-2.8,1.2-3,2.1c-1.6,6.8-2.9,13.6-4.2,20.4c-0.4,2.4,0.7,3.7,3.4,3.7C434.7,610.2,438.9,610.5,443.7,610.8z"/>
	<path class="st0" d="M598.5,581.1c-10-5.4-20.9-9.4-32.7-9.1c-0.1-0.4-0.3-0.9-0.4-1.3c-8.3,2-17,3.1-24.8,6.3
		c-22.4,9-32.9,27.3-29.9,50.3c2,15.3,12.9,23.5,25.5,28.1c18.8,6.8,38.2,6.7,55-6.2c11.6-9,22.3-19.3,23.2-35.5
		C615.1,600,611.1,588,598.5,581.1z M592.8,607.5c-0.1,1.8-0.4,3.7-1.1,5.3c-4.7,10.2-9.5,20.5-18.7,27.8c-7.1,5.7-15,5.4-22.5,1.7
		c-7.8-3.9-13.1-10.1-13.2-20.2c1.1-12.8,5.3-25.1,16.5-33.1c6.6-4.7,15-4.6,23-2.8C587.3,588.6,593.4,596.8,592.8,607.5z"/>
	<path class="st0" d="M639.4,660.5c-6.2-1.3-11.9-1.3-17.2-5.4c-7.3-5.6-6-13-2.8-17.6c3.8-5.5,14.4-6.8,18.7-1.5
		c6.8,8.3,15.2,7.3,23.6,5.8c5.6-1,11-3.7,16.2-6.1c1.5-0.7,3.3-3.2,3-4.3c-0.5-1.9-2.3-4.4-4-4.9c-5.5-1.7-11.3-2.7-17-3.7
		c-9.5-1.6-19.1-2.9-27.5-8.2c-5.8-3.7-8.2-9-7.4-15.7c1.2-9.5,6.5-15.8,15-20.3c13.8-7.4,28.1-11.2,43.6-7.5
		c3.7,0.9,7.3,2.2,10.8,3.8c5.1,2.5,8,12.6,5.4,17.8c-2.5,5-8.7,6.8-15.2,4c-2.5-1.1-5.3-2.6-7-4.6c-7.7-9.3-15.3-8.4-27.4-2.8
		c-1.7,0.8-3.3,2.3-4.3,3.9c-3.2,5.3-2.1,9.6,3.6,11.6c5.1,1.8,10.6,3.1,16,3.2c11.2,0.2,21.4,3,30.6,9.1
		c13.2,8.7,12.6,18.5,1.3,28.3c-3.4,2.9-7.9,5.3-12.3,6.3C670.1,654.9,654.7,657.6,639.4,660.5z"/>
	<path class="st0" d="M543.7,762.1c-1.8,8-3.4,14.7-4.8,21.5c-0.6,2.8-1.3,5.7-4.8,4.9c-3.4-0.8-3.4-3.3-2.6-6.7
		c2.1-8.7,3.7-17.6,5.2-26.4c0.6-3.3,1.1-6.3,5-7c4.2-0.7,5.3,2.1,6.7,5.2c2.7,6.2,5.7,12.3,9.1,19.6c1.9-7.9,3.5-14.5,5.2-21.1
		c0.3-1.1,0.2-2.7,0.9-3.3c1.4-1.1,3.3-2.4,4.8-2.1c1,0.2,2.6,2.9,2.3,4.2c-2.2,10.4-4.7,20.7-7.2,31c-0.6,2.5-1.8,5.2-4.9,4.4
		c-2-0.5-4.3-2.2-5.2-4C550,776.2,547.3,769.7,543.7,762.1z"/>
	<path class="st0" d="M594.5,769.5c-2.1-0.1-3.3,0.2-4-0.3c-1.3-0.8-3.3-2-3.3-2.9c0-1.4,1.3-3.4,2.6-4.1c3.6-2.2,10.3-1,14.2,2.4
		c-2.2,5.6-4.1,11.6-6.9,17.2c-2.6,5.3-8.1,7.3-13.5,6.2c-5.4-1.2-9.1-5.2-10-11.1c-2.4-15.5,8.1-30.7,22.1-31.9
		c2.3-0.2,4.9,0.5,7.1,1.5c1,0.5,1.8,3,1.4,4.1c-0.4,1-2.7,2-4,1.8c-11.8-1.6-23.5,13.2-18.9,24.5c0.7,1.7,2.8,3.8,4.4,3.9
		c1.6,0.2,4-1.4,5.1-3C592.4,775.6,593.1,772.8,594.5,769.5z"/>
	<path class="st0" d="M395.8,745.1c2.8,1,5.8,1.5,8.2,3.1c1.3,0.8,1.5,3.4,2.1,5.2c-1.8,0.6-4,2.1-5.5,1.7
		c-11.1-3.4-22.4,6.5-20.5,18.1c1.2,6.9,6.6,9.9,13.4,7.2c1.7-0.7,3.3-2.1,5-2.2c1.7-0.1,4.4,0.6,4.8,1.8c0.5,1.3-0.3,4-1.5,5
		c-5.8,4.9-15.8,5.4-22,1.7c-5.9-3.6-8.5-10.4-7.1-18.7C374.7,754.8,384.3,745.5,395.8,745.1z"/>
	<path class="st0" d="M441.7,773.2c-0.1-9.4,2.9-16.9,9.3-22.9c5.5-5.2,13.8-6.3,18.7-2.1c1.3,1.2,2.3,4.2,1.8,5.8
		c-0.9,2.6-3.4,2.6-5.8,1.1c-4.6-3-8.2-1.2-11.3,2.5c-3.7,4.5-5.9,9.5-5.7,15.5c0.3,8.4,6.4,11.9,13.8,7.6c2.4-1.4,4.8-3.4,6.8-0.1
		c1.9,3,0.1,5.1-2.6,6.9c-5.5,3.6-11.4,4.4-17,1.3C443.4,785.4,441.4,779.3,441.7,773.2z"/>
	<path class="st0" d="M512.1,754.3c-1,0.1-2.4,0.8-3.1,0.4c-1.5-1-3.3-2.3-3.7-3.9c-0.2-1,1.7-3.5,3-3.6c4.6-0.7,9.3-0.8,13.9-0.8
		c1.1,0,2.7,1.3,3.2,2.5c0.3,0.7-0.7,2.8-1.6,3.2c-3.4,1.4-3.4,4.2-3.6,7c-0.2,5.3-0.5,10.6-0.6,15.9c-0.1,2.5-0.7,5.4,3.2,6.2
		c0.4,0.1,1,3.9,0.2,4.7c-3.6,3.8-8.6,4.1-13.4,3.4c-1.1-0.1-2.8-2-2.7-2.9c0.2-1.5,1.5-2.9,2.5-4.2c0.8-1.1,2.6-2.1,2.7-3.2
		C512.3,770.8,512.1,762.6,512.1,754.3z"/>
	<path class="st0" d="M422.4,779.9c0.4-3.3,1.1-6.6,1.1-9.9c0-2.1-0.8-4.5-1.9-6.2c-2.6-3.9-6-7.2-8.3-11.2
		c-0.9-1.6-0.8-5.2,0.4-6.4c2.6-2.6,3.9,0.6,5.1,2.4c7.7,11.4,7.7,11.4,15.9,0.7c0.7-0.9,1.2-2.2,2.1-2.7c1.6-0.9,3.5-1.2,5.3-1.8
		c0.1,1.9,0.9,4.2,0.2,5.7c-1.7,3.2-4.1,6-6.5,8.8c-3.1,3.8-5.6,7.6-5.6,12.9c0,4.3-0.6,8.6-1.6,12.8c-0.4,1.7-2.3,4.3-3.7,4.4
		c-3.2,0.2-3.2-2.6-2.9-5c0.2-1.5,0.3-3,0.5-4.5C422.5,779.9,422.4,779.9,422.4,779.9z"/>
	<path class="st0" d="M486.2,779.6c3.8-0.5,6.3-0.8,8.7-1.1c2.9-0.4,5.1,0.5,5.4,3.7c0.3,2.9-1.4,4-4.2,4.3
		c-4.1,0.3-8.2,1.4-12.3,1.6c-4.7,0.2-5.9-2.2-5.6-6.9c0.6-8.1,0.4-16.2,0.6-24.3c0-1.7-0.6-3.6,0.1-4.9c0.9-1.8,2.8-3.1,4.3-4.6
		c1.2,1.6,3.3,3.1,3.4,4.8c0.3,4.8-0.3,9.6-0.4,14.4C486.1,770.5,486.2,774.6,486.2,779.6z"/>
</g>
</svg>
