<?xml version="1.0" encoding="utf-8"?>
<!-- Generator: Adobe Illustrator 19.2.1, SVG Export Plug-In . SVG Version: 6.00 Build 0)  -->
<svg version="1.1" id="Layer_1" xmlns="http://www.w3.org/2000/svg" xmlns:xlink="http://www.w3.org/1999/xlink" x="0px" y="0px"
	 viewBox="0 0 200 200" style="enable-background:new 0 0 200 200;" xml:space="preserve">
<path d="M124.6,69.2h12.3V56.9h-12.3C124.6,56.9,124.6,69.2,124.6,69.2z M100,69.2c-6.9,0-13.2,2.3-18.3,6.2h-31v-6.2
	c0-10.2,8.2-18.5,18.5-18.5h61.5c10.2,0,18.5,8.2,18.5,18.5v6.2h-31C113.2,71.6,106.9,69.2,100,69.2z M100,81.5
	c10.2,0,18.5,8.2,18.5,18.5s-8.2,18.5-18.5,18.5s-18.5-8.2-18.5-18.5S89.8,81.5,100,81.5z M130.8,149.2H69.2
	c-10.2,0-18.5-8.2-18.5-18.5V81.5h24.7c-3.9,5.2-6.3,11.5-6.3,18.5c0,17,13.8,30.8,30.8,30.8s30.8-13.8,30.8-30.8
	c0-7-2.4-13.3-6.3-18.5h24.7v49.2C149.2,141,141,149.2,130.8,149.2L130.8,149.2z M161.5,63.1c0-13.6-11-24.6-24.6-24.6H63.1
	c-13.6,0-24.6,11-24.6,24.6v73.8c0,13.6,11,24.6,24.6,24.6h73.8c13.6,0,24.6-11,24.6-24.6V63.1z"/>
<g>
	<path d="M100,6.5c51.6,0,93.5,41.9,93.5,93.5s-41.9,93.5-93.5,93.5S6.5,151.6,6.5,100S48.4,6.5,100,6.5 M100,1.5
		C45.6,1.5,1.5,45.6,1.5,100s44.1,98.5,98.5,98.5s98.5-44.1,98.5-98.5S154.4,1.5,100,1.5L100,1.5z"/>
</g>
</svg>
