<?xml version="1.0" encoding="utf-8"?>
<!-- Generator: Adobe Illustrator 19.2.1, SVG Export Plug-In . SVG Version: 6.00 Build 0)  -->
<svg version="1.1" id="Layer_1" xmlns="http://www.w3.org/2000/svg" xmlns:xlink="http://www.w3.org/1999/xlink" x="0px" y="0px"
	 viewBox="0 0 171.3 199" style="enable-background:new 0 0 171.3 199;" xml:space="preserve">
<style type="text/css">
	.st0{fill:#CE1B22;}
	.st1{fill:#FFFFFF;}
</style>
<g id="Center_Lines">
</g>
<g>
	<path class="st0" d="M161.9,170.8H9.5c-5.1,0-9.2-4.1-9.2-9.2V9.2C0.3,4.1,4.4,0,9.5,0h152.4c5.1,0,9.2,4.1,9.2,9.2v152.4
		C171,166.6,166.9,170.8,161.9,170.8z"/>
	<g>
		<path class="st1" d="M82.5,17.4c-4.9-4.9-12.7-4.9-17.6,0L49.4,32.8l0,0c-2.3,2.3-3.6,5.5-3.6,8.8c0,3.3,1.3,6.5,3.6,8.8
			l29.8,29.8l0.1,0.1c1.3,1.3,2.1,2.8,2.4,4.5c0.6,2.8-0.2,5.9-2.4,8.1c-2.2,2.2-5.3,3-8.1,2.4c-1.1-0.2-2.1-0.6-3.1-1.3
			c0,0-0.1-0.1-0.1-0.1c-2.4-1.6-5.2-2.3-8.1-2c-3.7,0.3-7,2.3-9.1,5.4l-12.5,18.3c-3.4,4.9-2.8,11.6,1.5,15.8l13.4,13.4
			c8.5,8.5,16.5,12.5,24.6,12.2c7.9-0.2,15.7-4.5,24.7-13.4c0,0,0,0,0,0l27.8-27.9c9-9,13.3-16.8,13.5-24.7
			c0.2-8-3.8-16.1-12.2-24.6L82.5,17.4z M131.3,90.6c-0.1,4.4-3.4,9.8-9.9,16.3l-27.8,27.9c-6.4,6.4-11.9,9.7-16.3,9.8
			c-4.5,0.2-9.6-2.7-15.4-8.6l-13.4-13.4l12.5-18.3l9.4,9.4l29.9-29.9L58.2,41.6l15.5-15.5l49.1,49C128.6,81,131.5,86.2,131.3,90.6z
			"/>
		<polygon class="st1" points="73.1,116.3 80.5,123.7 110.5,93.8 103.1,86.5 		"/>
	</g>
</g>
<g>
	<g>
		<path class="st1" d="M14.5,194.2H6v-6.3L0.3,189v4.6c0,2.1,0.4,3.4,1.2,4.2c0.8,0.8,2.2,1.1,4.3,1.1h8.8c2.1,0,3.5-0.4,4.3-1.1
			c0.8-0.8,1.2-2.1,1.2-4.2v-16.2h-5.7V194.2z"/>
		<path class="st1" d="M40.7,177.5h-5.1L23.4,199h5.8l2.4-4.5h12.5l2.5,4.5l0,0H53L40.7,177.5L40.7,177.5z M41.6,189.9h-7.5l3.8-7
			L41.6,189.9z"/>
		<polygon class="st1" points="81.1,177.6 81.2,177.5 72.7,177.5 61.9,185.6 61.9,177.5 56.2,177.5 56.2,199 61.9,199 61.9,190.4 
			73.6,199 73.6,199 82.9,199 67,187.6 		"/>
		<path class="st1" d="M104.2,191.2c2.3,0,5.1-0.8,5.1-4.4v-4.8c0-3.7-2.8-4.4-5.1-4.4H86.1V199h5.6v-7.8h3.9l8.3,7.8l0,0h8.3
			l-9.5-7.8H104.2z M103.3,186.6c-0.1,0.1-0.5,0.2-1.3,0.2H91.7v-4.9H102c0.9,0,1.2,0.1,1.3,0.2c0.3,0.2,0.4,0.5,0.4,1v2.5
			C103.7,186.1,103.6,186.4,103.3,186.6z"/>
		<path class="st1" d="M136.1,177.5h-15.1c-2.1,0-3.5,0.4-4.3,1.1c-0.8,0.8-1.2,2.1-1.2,4.2v10.8c0,2.1,0.4,3.4,1.2,4.2
			c0.8,0.8,2.2,1.1,4.3,1.1h15.1c2.1,0,3.5-0.4,4.3-1.1c0.8-0.8,1.2-2.1,1.2-4.2v-10.8c0-2.1-0.4-3.4-1.2-4.2
			C139.6,177.9,138.2,177.5,136.1,177.5z M135.9,182.1v12.1h-14.9v-12.1H135.9z"/>
		<path class="st1" d="M169.8,178.6c-0.8-0.8-2.2-1.1-4.3-1.1h-15.1c-2.1,0-3.5,0.4-4.3,1.1c-0.8,0.8-1.2,2.1-1.2,4.2v10.8
			c0,2.1,0.4,3.4,1.2,4.2c0.8,0.8,2.2,1.1,4.3,1.1h15.1c2.1,0,3.5-0.4,4.3-1.1c0.8-0.8,1.2-2.1,1.2-4.2v-10.8
			C171,180.7,170.6,179.4,169.8,178.6z M165.4,182.1v12.1h-14.9v-12.1H165.4z"/>
	</g>
</g>
</svg>
