<?xml version="1.0" encoding="utf-8"?>
<!-- Generator: Adobe Illustrator 19.2.1, SVG Export Plug-In . SVG Version: 6.00 Build 0)  -->
<svg version="1.1" id="Layer_1" xmlns="http://www.w3.org/2000/svg" xmlns:xlink="http://www.w3.org/1999/xlink" x="0px" y="0px"
	 viewBox="0 0 365.7 344.3" style="enable-background:new 0 0 365.7 344.3;" xml:space="preserve">
<style type="text/css">
	.st0{fill:#FFFFFF;}
</style>
<path class="st0" d="M148,9.9C50.3,36.7-14.4,111.3,3.6,176.7c12.6,45.9,62.8,75,125.4,78.9c0.6,31-20.1,72.9-47.7,88.9
	c56.5,1.8,90.6-54.5,96.5-90.8c11.6-1.5,23.4-4,35.2-7.2c97.8-26.9,167.3-102.8,149.3-168.1C344.3,12.8,245.7-17,148,9.9"/>
<g>
	<path d="M284,112.6c-1.2,2.8-3.9,5.1-8,6.8c-12.5,4-17.6,1.3-22.6-12.5c-0.3-0.6-0.5-1.4-0.8-2.2c-5.1-15.7,2.7-19.9,11.1-22.9h0.1
		l0.1-0.1c3.3-1.5,6-1.7,8.4-0.6c3.7,1.7,6,6.6,7.5,10.4c0.4,1.3,3,8.2,3.5,9.6C284.7,104.7,285.6,109,284,112.6 M278.2,62.6
		c-0.5,1.5,2.7,7.5,0.9,8.2c-3.3,1.3-8.4-6.8-23-1.2c-8.9,3.3-27.7,10.9-16.3,42.2c10.9,29.8,34.6,32.5,48.5,14.1
		c4.5-6,5.3-7.2,10.3,1.4c9.3,16,2.8,26.2-5,29.8c-28.3,12.9-32.4-2.6-38.8-11.3c-2.3-3.1-19.4-4.5-14.5,2.4
		c9.8,14.4,16.3,18.3,20.8,20.3c10.3,4.8,21.7,2.4,31-0.9c13.6-4.9,19.3-12.3,21-18.7c2.1-7.7-0.8-17.9-3.3-24.8
		c0,0-18.3-31.8-17.6-62.3C292,58.4,279.4,59.1,278.2,62.6"/>
	<path d="M333.4,108.9c0.9,2.4,1,5.3-0.1,7.6c-1.3,2.6-4,4.5-7.1,5.7c-5.8,2.1-11.1,0.3-13-5c-1-2.6-1.5-6.2-0.1-8.6
		c1.3-2.4,4.5-4.9,7.5-6C326.3,100.5,331.6,103.6,333.4,108.9"/>
	<path d="M191.8,99.4c-12.1,4.2-18.4,17.5-14,29.6c4.2,12.1,17.5,18.4,29.6,14.1c12.1-4.2,18.4-17.5,14.1-29.6
		C217.1,101.4,203.9,95,191.8,99.4 M40.4,124.7c2.2,6.7,5.3,26.9,5.3,26.9c3.2,12.1,10.5,11.7,19.6-11.4c4.5-11.7,18.5-15,21.2-10.7
		c2.7,4.4-19.2,23.3-14.7,34.3c4.5,11.1,37.9,27.3,40,17.5c1.3-6-30.9-52.9-19.2-59.8c11.2-6.7,7.6,2.6,14.1,0.8
		c6.6-1.8,10.9-14.4,26.6-15.8c15.6-1.3,16.2,7.2,22.5,28.7c6.6,22.3,3.9,28.4,19.6,23.8c5.4-1.5,12.1-3.9,2.2-8.7
		c-15.4-7.7-28.2-48.5,9.3-62.1c41.5-15,60.7,30,45.8,51.1c-9.9,14-14.9,19.2-48.9,30.9c-25.3,8.7-30.9,2.2-34.1-2.4
		c-3.3-4.6-5.4-23.7-11.3-39c-6-15.3-33.2-4.1-30,12.7s25.3,37.3,15.4,47.3c-5.1,5.3-13.2,7.8-25.3,10c-12.1,2.2-31-25.3-38.2-23.8
		s7.1,18.7,8.9,28.6c1.9,9.9-17.2,12.6-17.8,4.5c-2.8-39.9-28.2-74.2-28.2-74.2C16.7,122.2,37.6,116,40.4,124.7"/>
	<path d="M216.6,115.8c-3-9.4-12.9-14.7-22.4-11.7c-9.4,3-14.7,13-11.7,22.4c3,9.4,12.9,14.7,22.4,11.7
		C214.3,135.3,219.4,125.2,216.6,115.8"/>
</g>
</svg>
