<?xml version="1.0" encoding="utf-8"?>
<!-- Generator: Adobe Illustrator 19.2.1, SVG Export Plug-In . SVG Version: 6.00 Build 0)  -->
<svg version="1.1" id="Layer_1" xmlns="http://www.w3.org/2000/svg" xmlns:xlink="http://www.w3.org/1999/xlink" x="0px" y="0px"
	 viewBox="0 0 500 238" style="enable-background:new 0 0 500 238;" xml:space="preserve">
<style type="text/css">
	.st0{enable-background:new    ;}
</style>
<g>
	<g class="st0">
		<path d="M88.2,86.5l8.1-37.6h-0.6L74.2,86.5H57.6l-6.4-37.6h-0.5l-6.2,37.6H22.3l12.8-64.9h30.2l6.3,35.6h0.5l18.8-35.6h33
			l-12.8,64.9H88.2z"/>
		<path d="M124.9,86.5l12.8-64.9h23.8l-12.8,64.9H124.9z"/>
		<path d="M210.1,41c-1.2-1.2-2.7-2.2-4.5-3c-1.8-0.8-4-1.1-6.4-1.1c-1.9,0-3.6,0.4-5.2,1.1c-1.5,0.7-2.3,1.9-2.3,3.4
			c0,1.2,0.6,2.2,1.9,2.8c1.3,0.7,3.2,1.4,5.7,2.1c3.1,0.9,5.9,2,8.4,3.1c2.4,1.2,4.5,2.5,6.2,4c1.7,1.5,3,3.3,3.9,5.2
			c0.9,2,1.4,4.2,1.4,6.6c0,4.2-1,7.7-3.1,10.6c-2,2.9-4.6,5.3-7.8,7.1s-6.6,3.2-10.4,4c-3.8,0.9-7.5,1.3-11.1,1.3
			c-2.9,0-5.7-0.2-8.6-0.6c-2.9-0.4-5.6-1-8.2-1.8c-2.6-0.8-5.1-1.8-7.4-2.9c-2.3-1.2-4.3-2.5-6-3.9l16.2-13.4
			c0.8,0.9,1.8,1.6,3,2.3c1.2,0.7,2.4,1.2,3.6,1.7c1.3,0.5,2.5,0.8,3.8,1.1c1.3,0.3,2.5,0.4,3.6,0.4c2.4,0,4.3-0.4,5.7-1.1
			c1.4-0.7,2.1-1.7,2.1-3.1c0-1.1-0.6-2.1-1.8-2.9c-1.2-0.9-3.4-1.7-6.7-2.7c-2.6-0.7-5-1.6-7.3-2.6c-2.3-1-4.3-2.2-5.9-3.5
			c-1.7-1.4-3-3-3.9-4.9c-1-1.9-1.4-4.3-1.4-7c0-3.4,0.8-6.5,2.3-9.3c1.5-2.9,3.7-5.4,6.5-7.5c2.8-2.1,6.2-3.8,10.1-4.9
			c3.9-1.2,8.2-1.8,12.9-1.8c2.6,0,5.1,0.2,7.7,0.6c2.5,0.4,4.9,0.9,7.2,1.6c2.3,0.7,4.3,1.5,6.2,2.5c1.9,1,3.5,2.1,4.8,3.3
			L210.1,41z"/>
		<path d="M271.6,41c-1.2-1.2-2.7-2.2-4.5-3c-1.8-0.8-4-1.1-6.4-1.1c-1.9,0-3.6,0.4-5.2,1.1c-1.5,0.7-2.3,1.9-2.3,3.4
			c0,1.2,0.6,2.2,1.9,2.8c1.3,0.7,3.2,1.4,5.7,2.1c3.1,0.9,5.9,2,8.4,3.1c2.4,1.2,4.5,2.5,6.2,4c1.7,1.5,3,3.3,3.9,5.2
			c0.9,2,1.4,4.2,1.4,6.6c0,4.2-1,7.7-3.1,10.6c-2,2.9-4.6,5.3-7.8,7.1c-3.2,1.8-6.6,3.2-10.4,4c-3.8,0.9-7.5,1.3-11.1,1.3
			c-2.9,0-5.7-0.2-8.6-0.6c-2.9-0.4-5.6-1-8.2-1.8c-2.6-0.8-5.1-1.8-7.4-2.9c-2.3-1.2-4.3-2.5-6-3.9l16.2-13.4
			c0.8,0.9,1.8,1.6,3,2.3c1.2,0.7,2.4,1.2,3.6,1.7c1.3,0.5,2.5,0.8,3.8,1.1c1.3,0.3,2.5,0.4,3.6,0.4c2.4,0,4.3-0.4,5.7-1.1
			c1.4-0.7,2.1-1.7,2.1-3.1c0-1.1-0.6-2.1-1.8-2.9c-1.2-0.9-3.4-1.7-6.7-2.7c-2.6-0.7-5-1.6-7.3-2.6c-2.3-1-4.3-2.2-5.9-3.5
			c-1.7-1.4-3-3-3.9-4.9c-1-1.9-1.4-4.3-1.4-7c0-3.4,0.8-6.5,2.3-9.3c1.5-2.9,3.7-5.4,6.5-7.5c2.8-2.1,6.2-3.8,10.1-4.9
			c3.9-1.2,8.2-1.8,12.9-1.8c2.6,0,5.1,0.2,7.7,0.6c2.5,0.4,4.9,0.9,7.2,1.6c2.3,0.7,4.3,1.5,6.2,2.5c1.9,1,3.5,2.1,4.8,3.3
			L271.6,41z"/>
		<path d="M285.4,86.5l12.8-64.9H322l-12.8,64.9H285.4z"/>
		<path d="M361.3,88.2c-5.8,0-10.9-0.7-15.4-2.2c-4.5-1.4-8.2-3.5-11.3-6.1c-3-2.6-5.3-5.7-6.9-9.3c-1.6-3.6-2.4-7.6-2.4-11.9
			c0-5.4,1.1-10.4,3.2-15.1c2.1-4.7,5.1-8.8,8.9-12.3c3.8-3.5,8.4-6.2,13.9-8.2c5.4-2,11.4-3,18.1-3c5.9,0,11,0.7,15.5,2.2
			c4.5,1.4,8.2,3.5,11.3,6.1c3,2.6,5.3,5.7,6.9,9.3c1.6,3.6,2.4,7.6,2.4,11.9c0,5.4-1,10.4-3.1,15.1c-2.1,4.7-5,8.8-8.9,12.3
			c-3.9,3.5-8.5,6.2-13.9,8.2C374,87.2,368,88.2,361.3,88.2z M380.7,51.1c0-1.6-0.3-3.2-0.9-4.6c-0.6-1.4-1.4-2.7-2.6-3.8
			c-1.1-1.1-2.5-1.9-4.2-2.5c-1.7-0.6-3.6-0.9-5.7-0.9c-2.7,0-5.1,0.5-7.2,1.5s-4,2.3-5.5,4c-1.5,1.6-2.7,3.5-3.5,5.7
			c-0.8,2.1-1.2,4.3-1.2,6.5c0,1.6,0.3,3.2,0.9,4.6c0.6,1.4,1.4,2.7,2.6,3.8c1.1,1.1,2.5,1.9,4.2,2.5c1.7,0.6,3.6,0.9,5.8,0.9
			c2.7,0,5-0.5,7.2-1.5c2.1-1,3.9-2.3,5.4-3.9c1.5-1.6,2.7-3.5,3.5-5.7C380.3,55.5,380.7,53.3,380.7,51.1z"/>
		<path d="M451.5,86.5l-14.3-32.2h-0.4l-5.6,32.2h-23L421,21.6h23.2l14.6,33.8h0.4l5.9-33.8h23l-12.8,64.9H451.5z"/>
	</g>
	<g class="st0">
		<path d="M132.3,218.3c-3.5,2.1-7.4,3.9-11.9,5.5c-4.4,1.6-9.4,2.9-14.9,3.9c-5.5,1-11.6,1.5-18.3,1.5c-10.1,0-19.1-1.2-27-3.7
			c-7.9-2.5-14.6-6.1-20.1-10.7c-5.5-4.6-9.7-10.3-12.6-16.8c-2.9-6.6-4.4-13.9-4.4-21.9c0-10.3,2-19.9,6-28.9
			c4-8.9,9.6-16.8,16.8-23.5c7.2-6.7,15.7-12,25.6-15.8c9.9-3.9,20.7-5.8,32.4-5.8c11.6,0,21.9,1.6,30.7,4.8
			c8.9,3.2,15.6,7.2,20.3,12l-30.5,28.2c-2.3-2.9-5.3-5.1-9-6.5c-3.7-1.4-7.9-2.1-12.6-2.1c-4.8,0-9.2,0.9-13.1,2.6
			c-3.9,1.8-7.3,4.1-10.1,7.1c-2.8,3-4.9,6.5-6.4,10.5c-1.5,4-2.3,8.2-2.3,12.7c0,5.9,2.1,10.9,6.2,15c4.1,4.1,10.3,6.1,18.5,6.1
			c4.8,0,9.3-0.9,13.5-2.7c4.2-1.8,7.8-4,10.8-6.6l21.6,28.9C138.9,214.1,135.8,216.2,132.3,218.3z"/>
		<path d="M223.1,225.9l-18.4-44h-5.3l-8.3,44h-42.3l23.7-120.3h55.2c7.3,0,14,0.7,19.9,2.2c5.9,1.5,11,3.6,15.2,6.5
			c4.2,2.8,7.4,6.3,9.6,10.5c2.2,4.1,3.3,8.9,3.3,14.2c0,10-2.6,18.2-7.9,24.6c-5.2,6.5-12.4,10.9-21.5,13.3l26.2,49.1H223.1z
			 M213.4,156.9c5.8,0,10.4-0.9,13.7-2.6c3.3-1.8,4.9-4.6,4.9-8.4c0-3.5-1.4-5.9-4.1-7.2c-2.7-1.3-6.4-2-11.1-2h-8.2l-4,20.2H213.4z
			"/>
		<path d="M282.3,225.9L306,105.5h44.2l-23.7,120.3H282.3z"/>
		<path d="M434,138.7L417,225.9h-44l17.1-87.2h-34l6.6-33.1h110.8l-6.6,33.1H434z"/>
	</g>
</g>
</svg>
