<?xml version="1.0" encoding="utf-8"?>
<!-- Generator: Adobe Illustrator 19.2.1, SVG Export Plug-In . SVG Version: 6.00 Build 0)  -->
<svg version="1.1" id="Layer_1" xmlns="http://www.w3.org/2000/svg" xmlns:xlink="http://www.w3.org/1999/xlink" x="0px" y="0px"
	 viewBox="0 0 720.6 129.3" style="enable-background:new 0 0 720.6 129.3;" xml:space="preserve">
<style type="text/css">
	.st0{fill:#FFFFFF;}
	.st1{fill:#F47A20;}
	.st2{fill:none;}
</style>
<g>
	<g>
		<path class="st0" d="M2.5,103.3h7.9c1.6,0,2.7,0.1,3.5,0.2c0.8,0.1,1.5,0.4,2.1,0.8c0.6,0.4,1.1,1,1.5,1.6
			c0.4,0.7,0.6,1.5,0.6,2.3c0,0.9-0.2,1.8-0.7,2.5c-0.5,0.8-1.2,1.3-2,1.7c1.2,0.3,2.1,0.9,2.8,1.8c0.6,0.8,1,1.8,1,3
			c0,0.9-0.2,1.8-0.6,2.6c-0.4,0.8-1,1.5-1.7,2c-0.7,0.5-1.6,0.8-2.7,0.9c-0.7,0.1-2.3,0.1-4.8,0.1H2.5V103.3z M6.5,106.6v4.6h2.6
			c1.6,0,2.5,0,2.9-0.1c0.7-0.1,1.2-0.3,1.6-0.7c0.4-0.4,0.6-0.9,0.6-1.5c0-0.6-0.2-1.1-0.5-1.5c-0.3-0.4-0.8-0.6-1.5-0.7
			c-0.4,0-1.5-0.1-3.4-0.1H6.5z M6.5,114.4v5.3h3.7c1.4,0,2.3,0,2.7-0.1c0.6-0.1,1.1-0.4,1.4-0.8c0.4-0.4,0.6-1,0.6-1.7
			c0-0.6-0.1-1.1-0.4-1.5c-0.3-0.4-0.7-0.7-1.2-0.9c-0.5-0.2-1.7-0.3-3.5-0.3H6.5z"/>
		<path class="st0" d="M98.8,123v-19.7h4V123H98.8z"/>
		<path class="st0" d="M195.7,115.8l3.9,1.2c-0.6,2.2-1.6,3.7-3,4.8c-1.4,1-3.1,1.6-5.2,1.6c-2.6,0-4.8-0.9-6.5-2.7
			c-1.7-1.8-2.5-4.2-2.5-7.3c0-3.3,0.8-5.8,2.5-7.6c1.7-1.8,3.9-2.7,6.7-2.7c2.4,0,4.4,0.7,5.9,2.1c0.9,0.8,1.6,2.1,2,3.6l-3.9,0.9
			c-0.2-1-0.7-1.8-1.5-2.4c-0.7-0.6-1.6-0.9-2.7-0.9c-1.5,0-2.6,0.5-3.6,1.6c-0.9,1-1.4,2.7-1.4,5.1c0,2.5,0.4,4.3,1.3,5.3
			s2.1,1.6,3.5,1.6c1.1,0,2-0.3,2.7-1S195.4,117.2,195.7,115.8z"/>
		<path class="st0" d="M284.2,123v-8.3l-7.2-11.4h4.7l4.6,7.8l4.5-7.8h4.6l-7.2,11.4v8.3H284.2z"/>
		<path class="st0" d="M386,115.8l3.9,1.2c-0.6,2.2-1.6,3.7-3,4.8c-1.4,1-3.1,1.6-5.2,1.6c-2.6,0-4.8-0.9-6.5-2.7
			c-1.7-1.8-2.5-4.2-2.5-7.3c0-3.3,0.8-5.8,2.5-7.6s3.9-2.7,6.7-2.7c2.4,0,4.4,0.7,5.9,2.1c0.9,0.8,1.6,2.1,2,3.6l-3.9,0.9
			c-0.2-1-0.7-1.8-1.5-2.4c-0.7-0.6-1.6-0.9-2.7-0.9c-1.5,0-2.6,0.5-3.6,1.6c-0.9,1-1.4,2.7-1.4,5.1c0,2.5,0.4,4.3,1.3,5.3
			s2.1,1.6,3.5,1.6c1.1,0,2-0.3,2.7-1S385.6,117.2,386,115.8z"/>
		<path class="st0" d="M469.9,123v-19.6h4v16.2h9.9v3.3H469.9z"/>
		<path class="st0" d="M562.6,123v-19.7h14.6v3.3h-10.6v4.4h9.9v3.3h-9.9v5.4h11v3.3H562.6z"/>
		<path class="st0" d="M656.5,116.6l3.9-0.4c0.2,1.3,0.7,2.3,1.4,2.9c0.7,0.6,1.7,0.9,2.9,0.9c1.3,0,2.2-0.3,2.9-0.8
			c0.6-0.5,1-1.2,1-1.9c0-0.5-0.1-0.9-0.4-1.2s-0.8-0.6-1.4-0.9c-0.5-0.2-1.5-0.4-3.2-0.9c-2.1-0.5-3.6-1.2-4.5-1.9
			c-1.2-1.1-1.8-2.4-1.8-4c0-1,0.3-1.9,0.9-2.8s1.4-1.5,2.5-2s2.4-0.7,3.9-0.7c2.5,0,4.3,0.5,5.6,1.6c1.3,1.1,1.9,2.5,2,4.3l-4,0.2
			c-0.2-1-0.5-1.7-1.1-2.2c-0.6-0.4-1.4-0.7-2.5-0.7c-1.2,0-2.1,0.2-2.7,0.7c-0.4,0.3-0.6,0.7-0.6,1.2c0,0.5,0.2,0.9,0.6,1.2
			c0.5,0.4,1.7,0.9,3.7,1.3c1.9,0.5,3.4,0.9,4.3,1.4s1.7,1.2,2.2,2s0.8,1.9,0.8,3.1c0,1.1-0.3,2.2-0.9,3.2c-0.6,1-1.5,1.7-2.7,2.2
			c-1.1,0.5-2.6,0.7-4.3,0.7c-2.5,0-4.4-0.6-5.7-1.7C657.5,120.5,656.7,118.8,656.5,116.6z"/>
	</g>
	<g id="XMLID_2_">
		<g>
			<path class="st1" d="M720.6,2l-44.8,80.9c-0.4,0.7-2.2,1-4.9,1H638c-2.2,0-3.1-0.6-2.7-1.2l44-80.7c0.5-0.7,1.8-1,4-1h34.2
				C719.3,1,720.6,1.6,720.6,2z"/>
			<path class="st1" d="M657.6,2l-44.8,80.9c-0.5,0.7-2.2,1-4.9,1H575c-2.2,0-3.1-0.6-2.7-1.2l44-80.7c0.4-0.7,1.8-1,4-1h34.2
				C656.2,1,657.6,1.6,657.6,2z"/>
			<path class="st0" d="M589.9,1c4.4,0,5.8,0.7,5.3,1.5l-41.3,79.7c-0.4,1.1-3.1,1.7-5.8,1.7h-64.8c-2.7,0-4.9-0.6-5.3-1.2L461.1,56
				c-0.5-1-1.8-1.8-3.6-1.8c-1.8,0-3.1,0.9-3.6,1.9l-15.5,26.5c-0.9,0.8-2.2,1.3-4.9,1.3h-65.7c-3.1,0-5.8-0.7-6.2-1.4l-24.5-45.9
				c0.3,1.7,0.4,3.5,0.4,5.4c0,29-34.1,42-94.8,42c-40.6,0-69.3-5.8-83.9-18.3v16.2c0,1.1-0.9,2-2,2H2c-1.1,0-2-0.9-2-2V2.6
				c0-1.1,0.9-2,2-2h81.2c1.1,0,2,0.9,2,2v42.1c0,1.1,0.9,2,2,2H117h31.3c-0.2-1.5-0.3-3.1-0.3-4.7c0-29,34.1-42,94.8-42
				c42.1,0,71.4,6.2,85.4,19.8L319,2.5c-0.5-1,1.8-1.4,4.9-1.4h70.6c3.1,0,6.2,0.6,6.7,1.4l9.8,26.2c0.4,1.2,1.8,2.1,3.5,2.1
				c1.8,0,3.5-0.9,4-2.1l10.7-26.2c0.9-0.9,2.2-1.4,5.3-1.4h45.3c2.2,0,4.9,0.6,5.3,1.2l11.5,26.4c0.4,1.2,1.8,2.1,3.6,2.1
				c1.8,0,3.5-0.9,4-2.1l8.9-26.3c0.4-0.8,2.2-1.3,4.9-1.3H589.9z M262.1,41.5c0-6.4-8.7-11.6-19.5-11.6c-10.8,0-19.5,5.2-19.5,11.6
				c0,6.4,8.7,11.6,19.5,11.6C253.3,53,262.1,47.8,262.1,41.5z"/>
		</g>
		<g>
		</g>
	</g>
</g>
<line class="st2" x1="367.9" y1="83.9" x2="124.4" y2="83.9"/>
</svg>
