<?xml version="1.0" encoding="utf-8"?>
<!-- Generator: Adobe Illustrator 19.2.1, SVG Export Plug-In . SVG Version: 6.00 Build 0)  -->
<svg version="1.1" id="Layer_1" xmlns="http://www.w3.org/2000/svg" xmlns:xlink="http://www.w3.org/1999/xlink" x="0px" y="0px"
	 viewBox="0 0 203.2 243.7" style="enable-background:new 0 0 203.2 243.7;" xml:space="preserve">
<style type="text/css">
	.st0{fill:#FFFFFF;}
</style>
<g>
	<path class="st0" d="M167.6,128.4c-7.6-12.1-11.5-23.5-11.9-35c-0.4-11.5,2.8-23.1,9.6-35.5l3.6-6.5l-15.5-29.5H113
		c0,0-7.5,6.1-11.2,9.1c-3.6-3-11.2-9.1-11.2-9.1H49.9L34.2,51.3l3.6,6.5c6.8,12.4,10,24,9.6,35.5c-0.4,11.5-4.2,23-11.9,35l-4.3,7
		l4.1,7.2c13.1,23,27.8,28.7,42.1,34.3c5.6,2.1,11.3,4.4,17.5,7.8l6.7,3.8l6.7-3.8c6.1-3.5,11.9-5.7,17.5-7.8
		c14.3-5.5,29-11.3,42.1-34.3l4.1-7.2L167.6,128.4z M162.2,139.2c-12,21-25,26.1-38.8,31.4c-5.8,2.2-11.8,4.6-18.3,8.3l-3.6,2
		l-3.6-2c-6.5-3.7-12.5-6-18.3-8.3c-13.8-5.3-26.8-10.5-38.8-31.4l-2.1-3.7l2.2-3.6c16.5-25.9,17.3-50.5,2.5-77.2l-1.9-3.4
		l12.1-22.9h34.4c0,0,11.5,9.2,13.6,10.9c2.1-1.8,13.5-10.9,13.5-10.9h34.1l12.1,22.9l-1.9,3.4c-14.8,26.7-14,51.3,2.4,77.3l2.2,3.6
		L162.2,139.2z"/>
	<path class="st0" d="M76.7,83.7l64.5-48.2h-23.4l-16,13l-16.2-13H58.1l-8.3,15.7c14.1,25.5,15.1,49.6,3.2,74.2l48.4-41.1L76.7,83.7
		z"/>
	<path class="st0" d="M153.4,51.2l-0.1-0.3l-35.8,25.9l17.4,0.6l-86.8,59.9c5.7,9.6,11.6,15.2,17.8,19.2l2.3,1
		c3.7-7.7,9.8-20.9,9.8-26.1c0,0,5,11.5,6.7,33.6c5.2,2.1,10.7,4.4,16.8,7.8c6-3.4,11.4-5.6,16.5-7.7c1.7-22.1,6.8-33.7,6.8-33.7
		c0.1,5.1,6.2,18.5,9.9,26.2l2.1-0.9c6.7-4.1,13-10.2,19.1-20.9C138.3,107.6,137.3,80.3,153.4,51.2z"/>
</g>
<g>
	<path class="st0" d="M131.7,198.5c-1.9-1.4-4.5-2.1-7.9-2.3l-1.1,6.6c0.5,0.1,0.8,0.3,1.1,0.5c0.7,0.4,0.9,1,0.9,1.9h9.9
		C134.7,202.2,133.8,200.1,131.7,198.5z"/>
	<g>
		<path class="st0" d="M49,196.7l-0.1-0.3H42h-7.5c0,0,2.5,3.2,5,5.1c0.1,0.1,0.4,0.3,0.4,0.3s-0.8,6.8-1.3,9.8
			c-1,6-3.2,14.2-3.2,14.2h8.6L49,196.7z"/>
		<path class="st0" d="M66,196.4l-10.7,14.1l-5-11.1l-3.2,18.1c1.5,4.2,3,8.3,3,8.3h5c0,0,8.4-11.8,8.4-11.9c-1,5.6-2.4,12-2.4,12
			h8.6c0,0,0.7-8.3,1.8-14.2c1-6,3.4-15.3,3.4-15.3L66,196.4z"/>
	</g>
	<g>
		<path class="st0" d="M117.9,219.7c-1-0.1-1.8-0.3-2.2-0.7c-0.7-0.5-1-1.2-1.1-2.2h-10.2c-0.3,3.1,0.7,5.5,3,7.2
			c2.1,1.7,5.2,2.5,9.3,2.5L117.9,219.7z"/>
		<path class="st0" d="M133,212.8c-0.5-1.1-1.3-2.1-2.6-2.9c-1-0.7-3.4-1.5-7-2.3c-0.8-0.2-1.4-0.3-1.8-0.4c-0.1,0-0.3-0.1-0.6-0.1
			c-2.7-0.7-4-1.4-3.8-2.4c0.1-0.7,0.5-1.2,1-1.5c0.6-0.3,1.5-0.5,2.5-0.5l0,0l1.1-6.5c-4.1,0-7.6,0.8-10.3,2.4
			c-2.7,1.7-4.3,3.9-4.8,6.7c-0.3,1.4-0.2,2.7,0.3,3.8c0.5,1.1,1.2,2.1,2.3,2.9c0.6,0.4,1.5,0.8,2.9,1.2c1.3,0.5,3.2,0.9,5.4,1.5
			c0.3,0.1,0.7,0.2,1.3,0.3c2.8,0.7,4.1,1.5,3.9,2.5c-0.1,0.7-0.6,1.2-1.3,1.5c-0.6,0.3-1.3,0.5-2.1,0.6l-1.2,6.8
			c4.1-0.2,7.4-1,9.9-2.5c2.8-1.7,4.5-4.1,5-7.4C133.6,215.1,133.5,213.9,133,212.8z"/>
	</g>
	<g>
		<path class="st0" d="M95.9,196.8c-0.1-0.3-0.1-0.4-0.1-0.4H80c0,0,2.5,3.2,5,5c-0.2,0.4-12.7,24.3-12.7,24.3h8.5L95.9,196.8z"/>
		<path class="st0" d="M99.1,210.3c-0.6-2.1-1.9-7.8-2.6-11.2l-6.4,12.1c0.2,1.2,0.5,2.8,0.7,4.5h-3.1l-3.2,6.2h7.3
			c0.3,1.8,0.6,3.2,0.7,3.8h10.9C103.7,225.8,100.6,215.8,99.1,210.3z"/>
	</g>
	<g>
		<path class="st0" d="M149.7,196.4h-15.5c0,0,2.5,3.2,5,5.1c0.1,0,0.1,0.1,0.2,0.1c-0.3,3.2-0.7,7.2-1.3,10.3c-1,6-3.2,14-3.2,14
			l9.9-0.1L149.7,196.4z"/>
		<path class="st0" d="M156.3,196.5c0,0-0.7,5.5-1.4,10.8h-5.4l-1.6,9.1h5.5c-0.9,4.9-2,9.5-2,9.5l9.9-0.1c0,0,0.5-8,1.5-14
			c1-6,3.4-15.4,3.4-15.4L156.3,196.5z"/>
	</g>
</g>
</svg>
