<?xml version="1.0" encoding="utf-8"?>
<!-- Generator: Adobe Illustrator 19.2.1, SVG Export Plug-In . SVG Version: 6.00 Build 0)  -->
<svg version="1.1" id="Layer_1" xmlns="http://www.w3.org/2000/svg" xmlns:xlink="http://www.w3.org/1999/xlink" x="0px" y="0px"
	 viewBox="0 0 276 393.7" style="enable-background:new 0 0 276 393.7;" xml:space="preserve">
<style type="text/css">
	.st0{stroke:#FFFFFF;stroke-width:0.5;stroke-miterlimit:10;}
	.st1{fill:#FF1733;}
</style>
<polygon class="st0" points="90.4,244.8 42.1,323.6 106.4,264.8 "/>
<polygon class="st0" points="203.4,227.1 256.8,302.4 188.8,248 "/>
<polygon class="st0" points="127.5,302.4 136.4,393.7 145.3,302.4 "/>
<path class="st1" d="M87.4,94c-18,1.6-33.8,12.4-47.2,24.5C21.6,135.3,5,158.2,7.9,183c2.2,18.6,15,34.2,29,46.5
	c14.1,12.3,30,22.6,42.2,36.9c18.8,21.9,26.8,51.4,28.3,80.2c53-34.9,102.8-76.7,137.3-129.9c5.5-8.4,10.5-17.2,14.2-26.5
	c8.7-22.4,8.6-48.4-1.9-69.9s-31.8-37.9-55.6-40.9c-23.8-3-49.3,8.4-61.5,29C123.2,100.4,105.7,92.4,87.4,94z"/>
<path class="st0" d="M141.9,8.3c0,0,24,0.8,34.8,22.6c0,0,1.9,5.9-14.4,5.4l-11.9,138.8L242,75.6c0,0-10.9-12.8-5.1-17.8
	c7.5-6.4,22.7-1.1,29.4,4.5c3,2.5,5.5,6.4,7.1,9.9c2.8,6.2,1.4,10.2,0.5,16.4c0,0-0.6,4.2-15,0L151.8,200.2c-15,7.1-23.3,0-23.3,0
	L21.4,88.6c-14.4,4.2-15,0-15,0c-6.2-13.7,6.3-28.1,18.8-31.9c5.2-1.6,13.6-2.9,18.3,1.1c5.8,4.9-5.1,17.8-5.1,17.8l91.6,99.5
	L118.1,36.3c-18.1,1-14.4-5.4-14.4-5.4c10.7-21.8,34.8-22.6,34.8-22.6S141.9,8.3,141.9,8.3z"/>
</svg>
