<?xml version="1.0" encoding="utf-8"?>
<!-- Generator: Adobe Illustrator 19.2.1, SVG Export Plug-In . SVG Version: 6.00 Build 0)  -->
<svg version="1.1" id="Layer_1" xmlns="http://www.w3.org/2000/svg" xmlns:xlink="http://www.w3.org/1999/xlink" x="0px" y="0px"
	 viewBox="0 0 360 360" style="enable-background:new 0 0 360 360;" xml:space="preserve">
<style type="text/css">
	.st0{fill:#FFFFFF;}
</style>
<g>
	<path class="st0" d="M316,96L184.6,20c-1.4-0.7-2.9-1.1-4.7-1.1c-1.6,0-3.2,0.5-4.7,1.1L43.7,96c-2.7,1.8-4.7,4.7-4.7,8.4v151.3
		c0,3.6,1.8,6.6,4.7,8.4l131.4,76c1.4,0.7,2.9,1.1,4.7,1.1c1.6,0,3.2-0.5,4.7-1.1L316,264c2.7-1.8,4.7-4.7,4.7-8.4V104.4
		C320.7,100.7,318.9,97.6,316,96z M311,255.6l-131.2,75.8L48.7,255.6V104.4l131.2-75.8L311,104.4V255.6z"/>
	<path class="st0" d="M179.4,39L58,109.1c-0.2,0.2-0.5,0.5-0.5,0.9v140.2c0,0.5,0.2,0.7,0.5,0.9l121.4,70.1c0.2,0,0.2,0.2,0.5,0.2
		c0.2,0,0.5,0,0.5-0.2l121.4-70.1c0.2-0.2,0.5-0.5,0.5-0.9V110c0-0.5-0.2-0.7-0.5-0.9L180.3,39c-0.2,0-0.2-0.2-0.5-0.2
		C179.6,38.8,179.6,38.8,179.4,39z M275,125.2c0.5,0,0.9,0.5,0.9,0.9v87.5c0,0.5-0.5,0.9-0.9,0.9c-0.2,0-0.5,0-0.5-0.2l-14.7-8.4
		c-3.2-1.8-5.2-5.2-5.2-9.3v-35.3l-53.4,30.8l73.3,42.3c0.5,0.2,0.7,0.9,0.5,1.4c0,0.2-0.2,0.2-0.5,0.5l-14.5,8.4
		c-1.6,0.9-3.4,1.4-5.4,1.4s-3.8-0.5-5.4-1.4l-69.4-40l-53.4,31l53.4,30.8l30.5-17.6c1.6-0.9,3.4-1.4,5.4-1.4c1.8,0,3.6,0.5,5.2,1.4
		l14.7,8.4c0.2,0.2,0.5,0.5,0.5,0.9c0,0.5-0.2,0.7-0.5,0.9l-55.4,31.9c-0.2,0-0.2,0.2-0.5,0.2c-0.2,0-0.5,0-0.5-0.2l-94.3-54.3
		c-0.2-0.2-0.5-0.5-0.5-0.9c0-0.5,0.2-0.7,0.5-0.9l73.3-42.3L105,161.6v35.3c0,3.8-2,7.5-5.2,9.3l-14.7,8.4c-0.2,0-0.2,0.2-0.5,0.2
		c-0.5,0-0.9-0.5-0.9-0.9v-87.7c0-0.5,0.5-0.9,0.9-0.9c0.2,0,0.2,0,0.5,0.2l94.8,54.7l94.8-54.7C274.8,125.2,274.8,125.2,275,125.2z
		 M227.1,96.2c0.5,0.2,0.7,0.9,0.5,1.4l-9.7,16.7c-0.2,0.5-0.9,0.7-1.4,0.5l-25.8-14.9v48.4c0,0.5-0.5,0.9-0.9,0.9h-9.7h-9.7
		c-0.5,0-0.9-0.5-0.9-0.9V99.8l-26,14.9c-0.5,0.2-1.1,0-1.4-0.5l-9.7-16.7c-0.2-0.5,0-1.1,0.5-1.4l46.8-26.9c0.2,0,0.2-0.2,0.5-0.2
		c0.2,0,0.2,0,0.5,0.2L227.1,96.2z"/>
</g>
</svg>
