<?xml version="1.0" encoding="utf-8"?>
<!-- Generator: Adobe Illustrator 19.2.1, SVG Export Plug-In . SVG Version: 6.00 Build 0)  -->
<svg version="1.1" id="Layer_1" xmlns="http://www.w3.org/2000/svg" xmlns:xlink="http://www.w3.org/1999/xlink" x="0px" y="0px"
	 viewBox="0 0 360 360" style="enable-background:new 0 0 360 360;" xml:space="preserve">
<style type="text/css">
	.st0{fill:#FFFFFF;}
</style>
<g>
	<path class="st0" d="M326.1,89.8L184.9,8.1c-1.5-0.7-3.2-1.2-5.1-1.2c-1.7,0-3.4,0.5-5.1,1.2L33.6,89.8c-2.9,1.9-5.1,5.1-5.1,9
		v162.5c0,3.9,1.9,7,5.1,9l141.1,81.6c1.5,0.7,3.2,1.2,5.1,1.2c1.7,0,3.4-0.5,5.1-1.2l141.1-81.6c2.9-1.9,5.1-5.1,5.1-9V98.8
		C331.2,94.9,329.2,91.5,326.1,89.8z M320.7,261.2l-140.9,81.4L39,261.2V98.8l140.9-81.4l140.9,81.4V261.2z"/>
	<path class="st0" d="M179.4,28.6L48.9,103.9c-0.2,0.2-0.5,0.5-0.5,1v150.6c0,0.5,0.2,0.7,0.5,1l130.4,75.3c0.2,0,0.2,0.2,0.5,0.2
		c0.2,0,0.5,0,0.5-0.2l130.4-75.3c0.2-0.2,0.5-0.5,0.5-1V104.8c0-0.5-0.2-0.7-0.5-1L180.3,28.6c-0.2,0-0.2-0.2-0.5-0.2
		C179.6,28.3,179.6,28.3,179.4,28.6z M282.1,121.1c0.5,0,1,0.5,1,1v94c0,0.5-0.5,1-1,1c-0.2,0-0.5,0-0.5-0.2l-15.8-9
		c-3.4-1.9-5.6-5.6-5.6-10V160l-57.3,33l78.7,45.4c0.5,0.2,0.7,1,0.5,1.5c0,0.2-0.2,0.2-0.5,0.5l-15.5,9c-1.7,1-3.6,1.5-5.8,1.5
		c-2.2,0-4.1-0.5-5.8-1.5l-74.6-43l-57.3,33.3l57.3,33l32.8-18.9c1.7-1,3.6-1.5,5.8-1.5c1.9,0,3.9,0.5,5.6,1.5l15.8,9
		c0.2,0.2,0.5,0.5,0.5,1c0,0.5-0.2,0.7-0.5,1l-59.5,34.2c-0.2,0-0.2,0.2-0.5,0.2c-0.2,0-0.5,0-0.5-0.2L78.1,240.6
		c-0.2-0.2-0.5-0.5-0.5-1s0.2-0.7,0.5-1l78.7-45.4l-57.3-33v37.9c0,4.1-2.2,8-5.6,10l-15.8,9c-0.2,0-0.2,0.2-0.5,0.2
		c-0.5,0-1-0.5-1-1v-94.2c0-0.5,0.5-1,1-1c0.2,0,0.2,0,0.5,0.2l101.8,58.8l101.8-58.8C281.9,121.1,281.9,121.1,282.1,121.1z
		 M230.6,90c0.5,0.2,0.7,1,0.5,1.5l-10.4,18c-0.2,0.5-1,0.7-1.5,0.5l-27.7-16v52c0,0.5-0.5,1-1,1h-10.4h-10.4c-0.5,0-1-0.5-1-1v-52
		l-27.9,16c-0.5,0.2-1.2,0-1.5-0.5l-10.4-18c-0.2-0.5,0-1.2,0.5-1.5l50.3-28.9c0.2,0,0.2-0.2,0.5-0.2c0.2,0,0.2,0,0.5,0.2L230.6,90z
		"/>
</g>
</svg>
