<?xml version="1.0" encoding="utf-8"?>
<!-- Generator: Adobe Illustrator 19.2.1, SVG Export Plug-In . SVG Version: 6.00 Build 0)  -->
<svg version="1.1" id="Layer_1" xmlns="http://www.w3.org/2000/svg" xmlns:xlink="http://www.w3.org/1999/xlink" x="0px" y="0px"
	 viewBox="0 0 379.3 237" style="enable-background:new 0 0 379.3 237;" xml:space="preserve">
<style type="text/css">
	.st0{fill:#FFFFFF;}
</style>
<g>
	<g>
		<polygon class="st0" points="0,237 36,127.9 55.5,180.6 36,237 		"/>
		<polygon class="st0" points="80.7,109 61.7,55.9 80.7,0 123.8,0 190,191 211.4,127.9 230.2,180.6 211.4,237 168.3,237 102.3,46 		
			"/>
		<polygon class="st0" points="255.6,109 236.3,55.9 255.6,0 298.7,0 379.3,237 343.3,237 277.2,46 		"/>
		<polygon class="st0" points="0,0 36,0 102.3,191 123.8,127.9 142.8,180.6 123.8,237 80.7,237 		"/>
		<polygon class="st0" points="149,55.9 168.3,0 211.4,0 277.2,191 298.7,127.9 317.5,180.6 298.7,237 255.6,237 190,46 168.3,109 
					"/>
		<polygon class="st0" points="323.7,55.9 343.3,0 379.3,0 343.3,109 		"/>
	</g>
</g>
</svg>
