<?xml version="1.0" encoding="utf-8"?>
<!-- Generator: Adobe Illustrator 19.2.1, SVG Export Plug-In . SVG Version: 6.00 Build 0)  -->
<svg version="1.1" id="Layer_1" xmlns="http://www.w3.org/2000/svg" xmlns:xlink="http://www.w3.org/1999/xlink" x="0px" y="0px"
	 viewBox="0 0 309.9 138.7" style="enable-background:new 0 0 309.9 138.7;" xml:space="preserve">
<style type="text/css">
	.st0{display:none;}
	.st1{display:inline;fill:none;stroke:#9DDCF9;stroke-width:0.5;}
	.st2{display:inline;fill:none;stroke:#9DDCF9;stroke-width:0.428;}
	.st3{fill:#FFFFFF;}
</style>
<g id="Guides_-_Do_not_print" class="st0">
	<line class="st1" x1="-32.3" y1="67" x2="327.7" y2="67"/>
	<line class="st1" x1="-31.8" y1="78" x2="328.2" y2="78"/>
	<line class="st1" x1="-32.4" y1="102.5" x2="327.6" y2="102.5"/>
	<line class="st1" x1="237.5" y1="-77.1" x2="237.5" y2="67"/>
	<line class="st1" x1="280.7" y1="78" x2="280.7" y2="222"/>
	<rect x="67" y="7.8" class="st2" width="170.5" height="59.2"/>
</g>
<g id="_x31_00_K">
	<g>
		<g>
			<path class="st3" d="M35.4,118.5v0.4c0,3-4.5,4.2-17,4.2c-9.9,0-15.2-1-16.2-3.1c-0.1-0.4-0.2-1-0.2-1.9v-0.4V99.1v-0.5
				c0-2.5,1.1-3.6,4.2-4.3c2.7-0.6,7.2-1,12.3-1c4.9,0,9.4,0.4,12.3,1c3.5,0.7,4.5,1.7,4.5,4.1v0.5v19.6H35.4z M14.9,117.7v0.5
				c0,1.7,1.4,2,3.6,2c2.6,0,3.9-0.4,3.9-1.8V118V98v-0.4c0-1.2-1.7-1.6-3.9-1.6c-2.4,0-3.6,0.4-3.6,1.7v0.5V117.7z"/>
			<path class="st3" d="M78.4,122.3l-2.4-7.2h-8.8l-2,7.2h-10l10.4-28.7h16.4l11.2,28.7H78.4z M75.2,111.9l-3.9-11.3l-3.3,11.3H75.2
				z"/>
			<path class="st3" d="M128.8,93.7v11.7l10.7-11.7h12.1l-11,11.8l10.3,16.8H136l-7.3-12.7v12.7h-14V93.7H128.8z"/>
			<path class="st3" d="M187,93.7v24.8h13.9v3.8H173V93.7H187z"/>
			<path class="st3" d="M248.9,97.3h-13.4v8.8h10.3l0.1,3.3h-10.3v9.2h13.3v3.6h-27.4V93.6h27.4V97.3z"/>
			<path class="st3" d="M291.5,122.3h-14.1v-10.6l-12.2-18h14.9l6.2,10.7l6.2-10.7h10.9l-12.1,18v10.6H291.5z"/>
		</g>
		<g>
			<path class="st3" d="M152.4,9.8C96.8,9.8,50.7,25.1,50.7,45s46.2,35.2,101.8,35.2S254.2,65,254.2,45S208,9.8,152.4,9.8z
				 M152.7,72.7c-32.6,0-62-11.9-62-27.9s29.4-27.9,62-27.9s62,11.9,62,27.9C214.7,60.8,185.3,72.7,152.7,72.7z"/>
		</g>
		<g>
			<path class="st3" d="M254.6,77.4c0,1.6-1.2,2.7-2.7,2.7s-2.9-1.2-2.9-2.7s1.2-2.7,2.9-2.7C253.4,74.6,254.6,75.8,254.6,77.4z
				 M249.7,77.4c0,1.2,1,2.1,2.1,2.1s2-1,2-2.1s-1-2.1-2.1-2.1C250.6,75.1,249.7,76.2,249.7,77.4z M251.3,78.8h-0.6v-2.7
				c0.2,0,0.6-0.1,1.1-0.1s0.7,0.1,1,0.2c0.1,0.1,0.2,0.4,0.2,0.6c0,0.4-0.2,0.6-0.6,0.6l0,0c0.2,0.1,0.4,0.4,0.5,0.7
				c0.1,0.4,0.1,0.6,0.2,0.7h-0.7c-0.1-0.1-0.1-0.4-0.2-0.7c0-0.2-0.2-0.4-0.6-0.4h-0.2V78.8z M251.3,77.3h0.4
				c0.4,0,0.6-0.1,0.6-0.4s-0.2-0.4-0.6-0.4c-0.1,0-0.2,0-0.4,0V77.3z"/>
		</g>
	</g>
</g>
</svg>
