<?xml version="1.0" encoding="utf-8"?>
<!-- Generator: Adobe Illustrator 19.2.1, SVG Export Plug-In . SVG Version: 6.00 Build 0)  -->
<svg version="1.1" id="pdw_x5F_logos" xmlns="http://www.w3.org/2000/svg" xmlns:xlink="http://www.w3.org/1999/xlink" x="0px"
	 y="0px" viewBox="0 0 748 578" style="enable-background:new 0 0 748 578;" xml:space="preserve">
<style type="text/css">
	.st0{fill:#0093D0;}
	.st1{fill:#FFFFFF;}
</style>
<g>
	<path d="M597.1,426.5c80.9,0,146.4-65.6,146.4-146.4c0-80.9-65.6-146.4-146.4-146.4H150.9C70,133.7,4.5,199.3,4.5,280.1
		c0,80.9,65.6,146.4,146.4,146.4H597.1z"/>
	<g>
		<g>
			<g>
				<path class="st0" d="M133.3,370.5c-16.8-3.6-32.7-11.9-45.7-24.9l0,0c-2.8-2.8-5.4-5.7-7.7-8.8l0,0
					c-6.6,6.6-10.9,10.9-10.9,10.9l0,0l-5.9,5.9l-4.8-6.8c-13.9-19.8-20.9-43.1-20.9-66.3l0,0c0-29.5,11.3-59,33.8-81.5l0,0
					c22.5-22.5,52-33.8,81.5-33.8l0,0c23.2,0,46.3,6.9,66.1,20.8l0,0l0.4,0.3l-0.3,0.4c-3,4.1-6.9,6.5-11.3,6.5l0,0
					c-2.1,0-4.2-0.5-6.3-1.7l0,0c-15.1-8.3-31.9-12.4-48.6-12.4l0,0c-25.9,0-51.9,9.9-71.7,29.7l0,0c-19.8,19.8-29.7,45.7-29.7,71.7
					l0,0c0,17.7,4.6,35.5,13.8,51.2l0,0c1.9-1.9,4.2-4.2,6.8-6.8l0,0c-7.5-13.8-11.3-29.2-11.3-44.5l0,0c0-6.4,0.7-12.9,2-19.2l0,0
					c0.9-4.2,3.6-7.7,6.6-10.7l0,0c6.7-6.8,23.2-23.2,36.9-37l0,0c6.7-6.7,15.4-10,24.2-10l0,0c8.8,0,17.5,3.3,24.2,10l0,0
					c6.7,6.7,10,15.4,10,24.2l0,0c0,8.8-3.3,17.5-10,24.2l0,0c-9.8,9.8-43.4,43.5-64.8,64.9l0,0c2.3,3.1,4.8,6.1,7.7,8.9l0,0
					c8.1,8.1,17.5,14,27.6,17.9l0,0c5.2,2,9.6,6.1,9.6,12.1l0,0c0,1.4-0.2,2.9-0.7,4.5l0,0l-0.1,0.5L133.3,370.5L133.3,370.5z
					 M74.5,280.4c0,11.7,2.6,23.4,7.8,34.1l0,0c21.3-21.3,53-53.1,62.4-62.5l0,0c4-4,5.9-9.1,5.9-14.4l0,0c0-5.2-2-10.4-5.9-14.4
					l0,0c-4-4-9.1-5.9-14.4-6l0,0c-5.2,0-10.4,2-14.4,6l0,0c-9.4,9.5-21.3,21.3-28.6,28.7l0,0c-2.7,2.7-5,5-6.9,6.9l0,0
					c-2.8,2.8-4.3,5.5-4.9,8.7l0,0l0,0C74.9,271.8,74.5,276.1,74.5,280.4L74.5,280.4z M70,251.2L70,251.2L70,251.2L70,251.2
					L70,251.2L70,251.2z"/>
				<path class="st0" d="M152.1,395.1c-28.7,0-57.4-10.6-79.6-31.9l0,0l-0.4-0.4l0.4-0.4c3.1-3.1,6.8-5.1,10.6-5.1l0,0
					c2.3,0,4.7,0.8,6.8,2.4l0,0c18.2,14.2,40.2,21.3,62.2,21.3l0,0c15.5,0,31.1-3.6,45.3-10.6l0,0v-25.2c0-5.6,2.3-10.7,6-14.3l0,0
					c3.6-3.6,8.7-5.9,14.3-5.9l0,0l0,0l0,0l0,0l0,0h25.2c7.1-14.2,10.7-29.8,10.7-45.3l0,0c0-23-7.8-46-23.3-64.7l0,0
					c-1.2,1.2-2.6,2.6-4.2,4.1l0,0c-0.8,0.8-1.6,1.5-2.4,2.4l0,0c11.2,13.5,18,29.5,20.3,46l0,0c0.1,0.8,0.1,1.5,0.1,2.2l0,0
					c0,5.1-1.5,9.6-5.2,13.3l0,0c-7.4,7.4-31.3,31.3-45.6,45.6l0,0c-6.7,6.7-15.4,10-24.2,10l0,0c-8.8,0-17.5-3.3-24.2-10l0,0
					c-6.7-6.7-10-15.4-10-24.2l0,0c0-8.8,3.3-17.5,10-24.2l0,0c9.1-9.2,40.8-40.6,59.2-58.8l0,0c-12.6-11-28-17.3-43.7-18.8l0,0
					c-7.3-0.7-14.1-4.5-14.1-13.6l0,0v-0.5h0.5c2-0.2,4-0.2,6-0.2l0,0c21.9,0,43.8,7.8,61.2,23.3l0,0c7-6.9,11.7-11.5,11.7-11.5l0,0
					l5-5l4.9,5.1c21.3,22.3,31.9,51,31.9,79.7l0,0c0,19.2-4.8,38.4-14.3,55.6l0,0l-2,3.6h-33.6c-1.7,0-3.3,0.7-4.4,1.9l0,0
					c-1.2,1.2-1.9,2.7-1.9,4.4l0,0v33.5l-3.6,2C190.4,390.4,171.3,395.1,152.1,395.1L152.1,395.1L152.1,395.1L152.1,395.1z
					 M204.2,240.8c-16.5,16.4-42,41.7-49.6,49.3l0,0c-4,4-6,9.1-6,14.4l0,0c0,5.2,2,10.4,6,14.3l0,0c4,4,9.1,6,14.3,6l0,0
					c5.2,0,10.4-2,14.3-6l0,0c9.5-9.4,27.1-27,35.3-35.3l0,0c2.6-2.6,5-5,7-7l0,0c2.7-2.7,3.9-6.3,3.9-9.6l0,0c0-0.5,0-1-0.1-1.5
					l0,0l0,0c-2.4-12.1-7.6-23.8-15.8-34l0,0C210.6,234.4,207.5,237.6,204.2,240.8L204.2,240.8z"/>
			</g>
			<g>
				<g>
					<path class="st0" d="M220.1,346.7h-3v-2.1h8.6v2.1h-3.1v9.1H220v-9.1H220.1z"/>
					<path class="st0" d="M236.5,351.5c0-1.3-0.1-3-0.1-4.6h-0.1c-0.3,1.4-0.8,3-1.2,4.3l-1.3,4.4h-1.9l-1.2-4.4
						c-0.4-1.3-0.7-3-1-4.4l0,0c-0.1,1.5-0.2,3.2-0.2,4.6l-0.2,4.3h-2.4l0.7-11.2h3.4l1.1,3.7c0.3,1.3,0.7,2.7,1,4l0,0
						c0.3-1.3,0.7-2.8,1-4l1.2-3.7h3.3l0.6,11.2h-2.5L236.5,351.5z"/>
				</g>
			</g>
		</g>
		<g>
			<path class="st1" d="M289.1,363.3v-83.5V279c0.1-6.7,1.6-12.9,4.3-18.8l0,0c2.7-5.8,6.3-10.9,10.8-15.2l0,0
				c4.4-4.3,9.6-7.7,15.6-10.2l0,0c6-2.5,12.3-3.7,18.9-3.7l0,0c6.6,0,12.9,1.1,18.8,3.3l0,0c5.9,2.2,11.2,5.9,15.7,10.8l0,0
				c4.8,4.8,8.5,10.2,11.2,16.1l0,0c2.6,6,3.9,12.1,3.9,18.4l0,0l0,0c0,6.8-1.3,13.2-3.9,19.3l0,0c-2.6,6-6.2,11.2-10.7,15.7l0,0
				c-4.5,4.4-9.8,8-15.8,10.6l0,0c-6,2.6-12.4,3.9-19.2,3.9l0,0c-8.1,0-15.4-1.6-21.9-4.9l0,0c-5.2-2.6-9.9-6.1-14-10.4l0,0v39.3
				c0,4.3-4.2,10.1-12.1,10.1l0,0L289.1,363.3L289.1,363.3z M305.7,293.7c1.9,4.4,4.5,8.1,7.7,11.4l0,0c3.3,3.3,7.1,5.8,11.4,7.7
				l0,0c4.3,1.9,9,2.8,13.9,2.8l0,0c4.8,0,9.4-0.9,13.7-2.8l0,0c4.3-1.9,8-4.4,11.2-7.7l0,0c3.2-3.3,5.7-7.1,7.5-11.4l0,0
				c1.8-4.3,2.7-9,2.7-14l0,0c0-4.6-0.8-9-2.5-13.2l0,0c-1.6-4.2-4.1-8-7.5-11.4l0,0c-7.2-7.2-15.5-10.7-25.2-10.7l0,0
				c-5,0-9.6,0.9-13.9,2.8l0,0c-4.4,1.9-8.2,4.5-11.4,7.7l0,0c-3.3,3.3-5.8,7-7.7,11.3l0,0c-1.9,4.3-2.8,8.7-2.8,13.4l0,0
				C302.9,284.7,303.8,289.3,305.7,293.7L305.7,293.7z"/>
			<path class="st1" d="M428.1,325.4c-5.9-2.2-11.2-5.9-15.7-10.8l0,0c-4.8-4.8-8.5-10.2-11.1-16.1l0,0c-2.6-5.9-3.9-12-3.9-18.3
				l0,0c0-6.8,1.3-13.2,3.9-19.2l0,0c2.6-6,6.2-11.2,10.7-15.6l0,0c4.5-4.4,9.8-8,15.7-10.5l0,0c6-2.6,12.4-3.9,19.2-3.9l0,0
				c8,0,15.3,1.6,21.8,4.9l0,0c5.2,2.6,9.8,6.1,14,10.4l0,0V207c0-4.2,4.1-10.1,12-10.1l0,0h1.7v83.3v0.8
				c-0.1,6.6-1.6,12.9-4.3,18.7l0,0c-2.7,5.8-6.3,10.8-10.7,15.1l0,0c-4.4,4.3-9.6,7.7-15.5,10.1l0,0c-5.9,2.5-12.2,3.7-18.9,3.7
				l0,0C440.2,328.7,433.9,327.6,428.1,325.4L428.1,325.4z M433.2,247.3c-4.3,1.9-8,4.4-11.2,7.7l0,0c-3.2,3.3-5.7,7-7.5,11.4l0,0
				c-1.8,4.3-2.7,9-2.7,13.9l0,0c0,4.6,0.8,9,2.5,13.2l0,0c1.6,4.2,4.1,8,7.5,11.3l0,0c7.2,7.1,15.4,10.6,25.1,10.7l0,0
				c5,0,9.6-1,13.9-2.8l0,0c4.3-1.9,8.1-4.4,11.4-7.7l0,0c3.3-3.3,5.8-7,7.7-11.3l0,0c1.9-4.3,2.8-8.7,2.8-13.4l0,0
				c0-5-0.9-9.6-2.8-13.9l0,0c-1.9-4.4-4.4-8.2-7.7-11.4l0,0c-3.2-3.3-7-5.8-11.4-7.7l0,0c-4.3-1.9-8.9-2.8-13.9-2.8l0,0
				C442,244.5,437.5,245.4,433.2,247.3L433.2,247.3z"/>
			<path class="st1" d="M598.4,326.9c-4.9-2-9.3-4.9-13.2-8.9l0,0c-1.9-2-3.5-4.2-5-6.5l0,0c-1.5,2.3-3.2,4.5-5.2,6.4l0,0
				c-3.7,3.7-8,6.6-12.9,8.7l0,0c-5,2.2-10.3,3.2-15.9,3.2l0,0c-5.4,0-10.7-1-15.6-3l0,0c-4.9-2-9.3-4.9-13.2-8.9l0,0
				c-3.6-3.9-6.5-8.3-8.6-13.1l0,0c-2.1-4.8-3.1-9.9-3.1-15.1l0,0c0-0.1,0-0.1,0-0.2l0,0v-58h2.5c5.1,0.1,10.7,3.7,10.9,9.7l0,0
				v48.4l0,0c0,0.1,0,0.1,0,0.1c0,3.2,0.7,6.4,2.2,9.7l0,0c1.5,3.3,3.5,6.2,6.2,8.9l0,0c2.5,2.8,5.4,4.9,8.7,6.2l0,0
				c3.3,1.4,6.6,2.1,10.3,2.1l0,0c3.9,0,7.4-0.7,10.7-2.2l0,0c3.3-1.4,6.1-3.4,8.5-5.9l0,0c2.4-2.5,4.3-5.4,5.7-8.7l0,0
				c1.4-3.2,2-6.8,2-10.5l0,0v-38.5c0.2-6.1,5.8-9.6,11-9.7l0,0h2.5v9.2c0,0.1,0,0.3,0,0.5l0,0v38.5v0.1v1c0.1,3,0.8,6,2.2,9l0,0
				c1.5,3.3,3.5,6.2,6.2,8.9l0,0c2.5,2.8,5.4,4.9,8.6,6.2l0,0c3.3,1.4,6.6,2.1,10.3,2.1l0,0c3.9,0,7.4-0.7,10.7-2.2l0,0
				c3.3-1.4,6.1-3.4,8.5-5.9l0,0c2.4-2.5,4.3-5.4,5.7-8.7l0,0c1.4-3.2,2.1-6.8,2.1-10.5l0,0V241c0.2-6.1,5.8-9.7,10.9-9.7l0,0h2.5
				v58c0,0.1,0,0.1,0,0.2l0,0c0,5.4-1.1,10.5-3.2,15.4l0,0c-2.1,4.8-5,9.1-8.7,12.7l0,0c-3.7,3.7-8,6.6-12.9,8.7l0,0
				c-5,2.2-10.3,3.2-15.9,3.2l0,0C608.5,329.8,603.3,328.8,598.4,326.9L598.4,326.9z"/>
		</g>
	</g>
</g>
</svg>
