<?xml version="1.0" encoding="utf-8"?>
<!-- Generator: Adobe Illustrator 19.2.1, SVG Export Plug-In . SVG Version: 6.00 Build 0)  -->
<svg version="1.1" id="Layer_1" xmlns="http://www.w3.org/2000/svg" xmlns:xlink="http://www.w3.org/1999/xlink" x="0px" y="0px"
	 viewBox="0 0 448.1 242" style="enable-background:new 0 0 448.1 242;" xml:space="preserve">
<style type="text/css">
	.st0{fill:#EE2D3A;stroke:#EE2D3A;stroke-width:0.216;stroke-miterlimit:2.6131;}
	.st1{fill-rule:evenodd;clip-rule:evenodd;fill:#FFE610;}
	.st2{fill-rule:evenodd;clip-rule:evenodd;fill:#EE2D3A;}
</style>
<g>
	<path class="st0" d="M437.3,148.2c0.7,0,3.9,0.1,3.9,3.4c0,1.7-1.3,2.6-2.7,2.9v-0.2c0.6,0.1,1.1,0.7,1.4,1.4l2.1,4.9h-1.8
		l-2.1-4.6c-0.3-0.6-0.5-1-1.5-1h-1.4v5.6h-1.6v-12.4H437.3L437.3,148.2z M435.4,153.6L435.4,153.6h1.5c1.8,0,2.6-1,2.6-2
		c0-0.7-0.2-2-2.3-2h-1.9V153.6L435.4,153.6z M437.6,143.8L437.6,143.8c5.8,0,10.5,4.7,10.5,10.5c0,5.8-4.7,10.5-10.5,10.5
		c-5.8,0-10.5-4.7-10.5-10.5C427.1,148.5,431.8,143.8,437.6,143.8L437.6,143.8z M437.6,163.4L437.6,163.4c5.1,0,9.1-4,9.1-9.1
		c0-5.1-4-9.1-9.1-9.1c-5.1,0-9.1,4-9.1,9.1C428.5,159.4,432.5,163.4,437.6,163.4L437.6,163.4z"/>
	<path class="st1" d="M77.7,66.8c-1.7-1.5-2.6-3.3-3.2-4.8c-0.5-1.5-1.2-3.4-1.2-5c0-7.3,4.3-12.7,8.9-15.2c2.1-1.1,2.9-1.9,3.2-2.3
		c-0.2-0.1-0.3-0.1-0.5-0.1c-6.2,0-9.4-2.4-11-4.5c-1.5-1.9-2.2-4.4-2.2-7.1c0-1.3,0.2-2.7,0.6-4.1c1.8-2.9,3.4-2.1,4.4-0.6
		c0.7,0.9,5.1,4.1,10.6,4.6c4,0.4,6.2,2.3,7.3,3.9c1.3,1.8,1.8,4,1.8,5.9c0,0.8-0.1,1.5-0.2,2.1c-0.6,2.4-3.2,4.7-6.8,7.5l-2,1.7
		c-3,2.6-4.6,5.5-4.6,8c0,0.6,0.1,1.2,0.3,1.8c0.1,0.2,0.2,0.4,0.3,0.7c1.3,2.3,5.1,3.7,10.6,1.8c2.5-0.9,7.4-3.9,10.4-6.9
		c3.5-3.5,8.2-4.3,12.6-4.7c3.9-0.3,6.3-1.2,8-3.1c5-5.6,9.8-6.4,14.3-6.7c1.7-0.1,1.8-0.3,2-0.6c2.5-3.3,5-5,7.3-6.1
		c1.7-0.8,3.3-1.1,4.6-1.4l1.6-0.4l0.4-0.1c2.5-0.8,4.4-1.5,9.5-4.9l0.2-0.1l0,0l0.2-0.1l0,0l0.2-0.1l0,0l0.2-0.1l0,0l0.2-0.1l0,0
		l0.2-0.1l0,0l0.2-0.1l0,0l0.2-0.1l0,0l0.2-0.1l0,0l0.2-0.1l0,0l0.2-0.1l0,0l0.2-0.1l0.2-0.1l0,0l0.2-0.1l0,0l0.2-0.1l0,0l0.2-0.1
		l0,0l0.2-0.1l0,0l0.2,0l0,0l0.2,0l0,0l0.2,0l0,0l0.2,0l0,0l0.2,0l0,0l0.2,0l0,0l0.2,0l0,0l0.2,0l0,0l0.2,0l0,0l0.2,0l0,0l0.2,0
		l0.2,0h0l0.2,0h0.2h0l0.2,0l0,0h0c0.1,0,0.3,0,0.4,0l0.2,0l0,0l0.2,0l0,0l0.2,0l0,0l0.2,0l0,0l0.2,0l0,0l0.2,0l0,0l0.2,0l0,0l0.2,0
		l0,0l0.2,0l0,0l0.2,0l0,0c0.3,0.1,0.6,0.1,0.9,0.2l0.2,0l0,0c0.3,0.1,0.6,0.2,0.9,0.2l0.2,0.1l0,0c0.6,0.2,1.1,0.4,1.7,0.6l0.2,0.1
		l0.2,0.1C189.7,10.7,206.9,0.8,226.5,0v0c0.3,0,0.6,0,1,0c0.3,0,0.6,0,1,0c0.3,0,0.6,0,1,0c0.3,0,0.6,0,1,0c0.3,0,0.6,0,1,0
		c0.3,0,0.6,0,0.9,0h0c0.3,0,0.6,0,0.9,0l0,0c18.9,1.1,35.6,10.7,46.3,24.9c1.5-0.5,3.2-0.9,4.9-1l0,0l0.2,0l0.2,0l0,0l0,0l0.2,0
		l0,0l0.2,0l0,0l0.2,0h0l0.2,0h0l0.2,0l0.2,0l0,0l0.2,0l0,0l0.2,0l0,0l0.2,0l0,0l0.2,0l0,0c0.4,0,0.8,0.1,1.2,0.2l0.2,0l0,0l0.2,0
		l0,0l0.2,0l0,0l0.2,0l0,0l0.2,0.1l0,0l0.2,0.1l0,0l0.2,0.1l0,0l0.2,0.1l0.2,0.1l0,0l0.2,0.1l0,0l0.2,0.1l0,0c0.3,0.1,0.7,0.3,1,0.5
		l0,0l0.2,0.1l0,0l0.2,0.1l0,0l0.2,0.1l0,0l0.2,0.1v0l0.2,0.1c3.5,2.4,5.5,3.4,7.3,4.1c0.8,0.3,1.5,0.5,2.3,0.8l0.4,0.1l1.6,0.4
		c0.9,0.2,1.9,0.4,2.9,0.8c2.7,0.9,5.9,2.6,9,6.7c0.2,0.3,0.3,0.4,2.1,0.6c4.5,0.3,9.3,1.1,14.3,6.7c1.7,1.9,4.1,2.9,8,3.1
		c4.5,0.4,9.2,1.2,12.6,4.7c3,2.9,7.8,6,10.4,6.9c5.5,1.9,9.2,0.5,10.5-1.8c0.3-0.5,0.5-1,0.6-1.6c0-0.3,0.1-0.6,0.1-0.9
		c0-2.5-1.6-5.4-4.6-8l-0.4-0.3l-1.7-1.4c-3.6-2.8-6.2-5-6.8-7.5c-0.2-0.6-0.2-1.3-0.2-2.1c0-1.9,0.5-4,1.8-5.9
		c1.1-1.6,3.3-3.5,7.3-3.9c5.5-0.5,10-3.7,10.6-4.6c1-1.5,2.7-2.3,4.4,0.6c0.4,1.4,0.6,2.8,0.6,4.1c0,2.7-0.8,5.2-2.2,7.1
		c-1.6,2.1-4.8,4.5-11,4.5c-0.1,0-0.3,0.1-0.5,0.1c0.3,0.4,1.1,1.2,3.2,2.3c4.6,2.5,8.8,7.9,8.9,15.2c0,1.6-0.7,3.5-1.2,5
		c-0.5,1.3-1.3,2.9-2.6,4.3c-0.2,0.2-0.3,0.3-0.5,0.5c-2.6,2.4-6.9,4.3-14,3.9c-0.7,0-1.5-0.1-2.3-0.2c-0.2,3.6-1.2,7.9-2.6,10.1
		c-0.4,0.7-0.5,1.1-0.5,1.4c0,0.1,0,0.1,0,0.2c0,0,3.2,1.9,3.2,1.9l0.5,0.3c0,0,0.3,0.1,0.3,0.2c0,0,1.1-0.1,1.1-0.1l0.2,0l0,0
		c2-0.2,5-1.1,6.2,2.4c0.3,0.9,0.5,1.8,0.7,2.5c0.4,1.5,0.7,2.6,2,3.6c0,0,0.6-0.6,1.4-1.2c0.6-0.5,1.2-1.1,1.7-1.5
		c0.9-0.9,2.6-0.5,3.8,0c1.2,0.5,2.7,1.5,3.8,2.1c1.1,0.6,1.7,1.4,2,2.3c0.3,0.9,1.1,1.5,2.2,2.1c1.1,0.6,2.7,2.6,2.7,5.3
		c0,0.4,0,0.8,0.2,1.1c0.1,0.2,0.2,0.5,0.3,0.8c1.5,3.1,0.3,4.7-0.6,5.3c-1.2,0.9-3.3,1.3-5.3,0.9l0,0.5l-2.9-0.4
		c-1.1-0.1-2.6,0.1-3.5,0.3l-0.2,0.1c-2.1,0.4-4.8-0.3-6.3-2.8c-0.1-0.1-0.1-0.2-0.2-0.3c-0.8-1.4-2-2.6-2.6-3
		c-0.9,0.2-2.2,0.6-3.8,0.4c-1.5-0.1-3.2-0.7-4.9-2.2c-0.3-0.2-0.6-0.5-0.9-0.8c-2.6-2.6-5.9-3.1-8.1-2.8l-1.3,0.2
		c-2.6,0.5-5.9,1.1-8.9-0.8c-0.8-0.5-1.8-0.9-2.9-1.4c-2.7-1.2-5.6-2.4-6-5c-0.1-0.5-0.6-1.3-1-2c-0.4-0.6-0.8-1.2-1.1-1.9
		c-0.3-0.7-0.5-1.4-0.5-2.1c-0.9,0.2-1.8,0.3-2.7,0.3c-0.3,0-0.6,0-1-0.1l-1.2-0.2c-2-0.3-6.2-1-7.5-0.5c-2.7,1-11,1.4-13.3,0.9
		c0,0-0.8-0.2-1.6-0.4c-0.8,0.8-1.6,1.5-2.5,2.2c1.7,0.1,3.2-0.1,4.2,0.1l2.1,0.6c0.7-0.2,2.3-0.2,3.3-0.1l2.5,0.2l2.8,0.3
		c1.4,0.3,2.8,0.9,2.6,3.5c-0.1,0.8-0.6,2-1.2,2.7c-0.4,0.4-1.9,2.6-2.2,3.2l-0.1,0.2c-0.6,1.2-1.4,2.3-3.9,2.3c-0.3,0-0.7,0-0.9,0
		c-0.1,0.2-0.3,0.6-0.3,0.6c-0.6,1.3-1.4,3-2.9,4.1l-0.4,0.3c-1.2,0.9-3.3,2.3-6.4,1.2l-1.1-0.4c-2.7-1-6.9-2.5-9-3.6l-0.3-0.2
		c-2-1.1-2.4-1.3-3.1-1.2l-0.4,0.1c-1.5,0.2-4.3,0.6-6.3-2.6l-0.2-0.3c-9.3,12.7-23.2,21.8-39.2,24.8l-0.1,0
		c-0.5,0.1-1.1,0.2-1.7,0.3l-0.2,0l-0.8,0.1c-0.3,0-0.6,0.1-0.9,0.1l-0.5,0.1l-0.8,0.1l-0.6,0.1c-0.4,0-0.8,0.1-1.2,0.1l-0.4,0
		c-0.4,0-0.7,0-1.1,0.1l-0.4,0c-0.4,0-0.8,0-1.2,0l-0.4,0c-0.4,0-0.9,0-1.3,0c-0.4,0-0.9,0-1.3,0l-0.4,0c-0.4,0-0.8,0-1.2,0l-0.5,0
		c-0.3,0-0.7,0-1-0.1l-0.4,0c-0.4,0-0.8-0.1-1.2-0.1l-0.6-0.1l-0.8-0.1l-0.4,0c-0.4,0-0.8-0.1-1.2-0.2l-0.5-0.1l-0.9-0.1l-0.4-0.1
		c-0.3-0.1-0.7-0.1-1-0.2l-0.7-0.1l-0.4-0.1c-0.5-0.1-1-0.2-1.5-0.3l-0.1,0l-0.8-0.2l-0.4-0.1c-0.5-0.1-1-0.3-1.4-0.4l-0.2,0
		c-14.1-4.1-26.1-12.9-34.2-24.7l-1.1,1.6c-1.9,3.2-4.8,2.9-6.3,2.6l-0.4-0.1c-0.7-0.1-1.2,0.1-3.1,1.2l-0.3,0.2
		c-2.1,1.1-6.2,2.6-9,3.6l-1.1,0.4c-3.1,1.1-5.2-0.3-6.4-1.2l-0.4-0.3c-1.5-1-2.3-2.8-2.9-4.1c0,0-0.2-0.4-0.3-0.6
		c-0.2,0-0.6,0-0.9,0c-2.5,0-3.3-1.1-3.9-2.3l-0.1-0.2c-0.3-0.7-1.8-2.8-2.2-3.2c-0.7-0.7-1.2-1.8-1.2-2.7c-0.3-2.7,1.2-3.2,2.6-3.5
		l2.8-0.3l2.5-0.2c0.9-0.1,2.6-0.1,3.2,0.1l2.1-0.6c1-0.3,2.5-0.1,4.2-0.1c-0.9-0.7-1.7-1.4-2.5-2.2c-0.8,0.2-1.6,0.4-1.6,0.4
		c-2.3,0.5-10.7,0.1-13.3-0.9c-1.3-0.5-5.5,0.2-7.6,0.5l-1.2,0.2c-1.3,0.2-2.5,0.1-3.7-0.2c-0.1,1.5-0.9,2.9-1.6,4.1
		c-0.4,0.7-0.9,1.5-1,2c-0.4,2.6-3.2,3.8-6,5c-1.1,0.4-2.1,0.9-2.9,1.4c-3,1.8-6.3,1.2-8.9,0.8l-1.3-0.2c-2.1-0.3-5.5,0.2-8.1,2.8
		c-3.9,3.9-7.8,3.1-9.6,2.6c-0.6,0.3-1.8,1.6-2.6,3c-1.5,2.7-4.3,3.5-6.5,3l-0.2-0.1c-0.9-0.2-2.3-0.5-3.5-0.3l-2.9,0.4l0-0.5
		c-2,0.3-4.1,0-5.3-0.9c-0.9-0.7-2.1-2.2-0.6-5.3c0.4-0.7,0.5-1.3,0.5-2c0-2.7,1.6-4.7,2.7-5.3c1.2-0.6,1.9-1.2,2.2-2.1
		c0.3-0.9,0.9-1.7,2-2.3c1.1-0.6,2.6-1.7,3.8-2.1c1.2-0.5,2.9-0.9,3.8,0c0.9,0.9,3,2.7,3,2.7c1.9-1.5,1.8-3.2,2.8-6.1
		c1.3-3.6,4.3-2.6,6.2-2.4l0.2,0c0,0,1.1,0,1.1,0.1c0.1,0,0.3-0.2,0.3-0.2l0.5-0.3c0,0,3.1-1.8,3.2-1.9c0,0,0-0.1,0-0.2
		c0-0.2-0.1-0.7-0.5-1.4c-1.4-2.2-2.4-6.5-2.6-10.1c-0.5,0.1-1,0.1-1.5,0.1C84.9,71.2,80.4,69.2,77.7,66.8L77.7,66.8z M365.1,84.2
		l-0.2,0L365.1,84.2L365.1,84.2z M288.1,24.1c-0.4-0.1-0.8-0.1-1.2-0.2L288.1,24.1L288.1,24.1z M291.4,25.2c-0.3-0.2-0.6-0.3-1-0.5
		L291.4,25.2L291.4,25.2z M237.3,124.8c0.3,0,0.6-0.1,0.9-0.1L237.3,124.8L237.3,124.8z M234.1,125.1c0.4,0,0.8-0.1,1.2-0.1
		L234.1,125.1L234.1,125.1z M232.7,125.2c0.4,0,0.7,0,1.1-0.1L232.7,125.2L232.7,125.2z M231.1,125.2c0.4,0,0.8,0,1.2,0L231.1,125.2
		L231.1,125.2z M228,125.2c0.4,0,0.9,0,1.3,0c0.4,0,0.9,0,1.3,0L228,125.2L228,125.2z M226.5,125.2c0.4,0,0.8,0,1.2,0L226.5,125.2
		L226.5,125.2z M225,125.1c0.3,0,0.7,0,1,0.1L225,125.1L225,125.1z M223.4,125c0.4,0,0.8,0.1,1.2,0.1L223.4,125L223.4,125z
		 M220.4,124.6c0.4,0.1,0.8,0.1,1.2,0.2L220.4,124.6L220.4,124.6z M217.5,124.1c0.3,0.1,0.7,0.1,1,0.2L217.5,124.1L217.5,124.1z"/>
	<path class="st2" d="M173.8,46.2c-0.4-0.8-0.3-1.6,0.2-2.4c1-1.5,1.9,0.1,1.9,0.1c3.5,4.8,0.9,12.1,0.9,12.1
		C176.5,49.4,173.8,46.2,173.8,46.2L173.8,46.2z M203.8,78.3c0.1-1.4,0.2-4.6-1.3-5.7c-0.5-0.4-2.6-2.7-2.6-2.7
		c-0.3-0.6-0.6-0.6-0.6-0.6c-0.4,0-1,1-1,1c-1.5,2.9-3,2.5-3,2.5c0-0.5,0.3-1.1,0.3-1.1c0.4-0.8,2.2-4.2,2.2-4.2
		c0.2-0.5,0.4-1.2,0.4-1.2c1.5-2.2,2.8-0.5,2.8-0.5c0.6,1.2,3.9,5.1,3.9,5.1c0.7,0.9,0.8,1.8,0.8,1.8
		C206.4,77.9,203.8,78.3,203.8,78.3L203.8,78.3L203.8,78.3z M195.2,91.9c-0.6,0-0.8-0.2-0.7-0.9c0.4-1.9,1.9-2.7,1.9-2.7
		c2.8-1.7,3.2,0,3.2,0c0.5,3-1.9,3.4-1.9,3.4C197.3,91.8,195.2,91.9,195.2,91.9L195.2,91.9L195.2,91.9z M71.7,100.7
		c0,0,0.6,0.5,0.3,1.4c0,0-1.6,4.3-1.5,5.8c0,0-3.5,0.6-4-1.1c0,0-0.1-0.7,0.5-1.6c0,0,0.6-0.9,0.7-2.6c0,0-0.1-4.2,2.6-3.1
		C70.9,99.8,71.3,100.2,71.7,100.7L71.7,100.7L71.7,100.7z M76,93.8c0.6-0.5,1.4-0.8,2.2-0.6c1.7,0.4,0.7,1.8,0.7,1.8
		c-0.7,1.3-2.9,3.5-2.9,3.5c-2,1.5-3.6-0.3-3.6-0.3c-1.5-1.5,0.4-2.2,0.4-2.2C73.9,95.6,76,93.8,76,93.8L76,93.8L76,93.8z
		 M96.5,67.8c0,0-0.6,6.2,2.1,11.6c0,0,2.1,2.9-0.1,4.8l-4.2,2.5c0,0-0.6,0.4-2.5,0.3c0,0-2.6-0.6-3.5,0.5c0,0-0.8,2.2-1.7,4.1
		c0,0-1.9,4.4-5.1,5.9c0,0-2.5,0.6-3.3,2.8c0,0-0.8,1.6-2.5,1.6c0,0-1.2,0.4-2,3.1c0,0-0.4,1.8-0.4,3.1c0,0,2.1-0.3,3.5,0.2
		c0,0,3.4,1.1,4.9-1.6c0,0,2.9-5,5-4.2c0,0,4.3,1.4,7.4-1.7c0,0,4.2-4.6,10.1-3.6c0,0,6.7,1.3,8.7-0.2c0,0,4.2-2.2,5.8-2.7
		c0,0,1.9-0.6,2.1-2.7c0,0,1.2-3,2-4l-3.2,0c0,0-2.9,4.8-7.8,6.3c0,0-2.7,1.1-8,0.2c0,0-7.7-1.7-14.5,5.6c0,0-0.9,1.3-2.2,0.8
		c0,0,3.7-6.4,12-7.9c0,0,2.7-0.6,4.9-0.2c0,0,11.1,0.3,16.2-10.6c0,0-0.6-9.3,1.9-11.5c0,0,0.9-0.3,0.8,1.5c0,0-1.7,9.7,1.5,11.6
		c0,0,1.8,1.4,5.2,0.9c0,0,5.1-1.2,9.3-0.5c0,0,6.4,1.5,12,0.8c0,0-1.4-2.2-1.2-4.8c0,0,0.8-1.9,1.7-0.7c0,0,2.1,7,7.9,9.1
		c0,0,5.2,1.9,5.1,8.5c0,0-0.8,0.9-7.7,3.3c0,0-2.6,0.8-3.4-1.1c0,0-3.3-7.1-6.2-6.9l-5.4,0.4c0,0-1.9,0.5-0.5,2
		c0,0,1.9,2.5,2.6,3.9c0,0,0.2,1.3,2,1c0,0,2.4-1.2,3.8,3.3c0,0,1.2,2.3,3.4,3c0,0,2,0.7,3.8-0.4c0,0,9-3.3,10.5-4.5
		c0,0,1.9-1.1,3.5-0.6c0,0,2.7,0.6,3.8-1.5l2.8-4.3c0,0,0.6-1.1,0.5-2.4c0,0,0.3-1.3-0.9-2.7c0,0-1-1.1-1.2-1.9l-2-4.7
		c0,0-0.8-1.2-1.7-1.8l-2.6,0.2c0,0,1.8,4.6,3.2,6.5c0,0,1.8,2.8,1.7,4.5c0,0-0.1,1.2-0.6,1.7c0,0-0.6,1-0.9,1.5
		c0,0-0.8,1.7-1.5,2.1c0,0-1.1,0.7-1.4,0.7c0,0-0.5,0.1-0.1-0.7c0,0,1.5-3.1,1.4-4.8c0,0,0.3-1.7-0.9-2.8c0,0-2.9-4.5-3.3-5.9
		c0,0-0.9-1.8-1.4-2.1c0,0-1-1.3,0.6-1.9c0,0,4-0.9,4.8-1.4c0,0,1.9-0.6,3.2-4.6c0,0,1.7-4.7,1.7-7.6c0,0,3.4,6.6-2,13.3
		c0,0,4.3,1.3,6.1,0c0,0,5.4-0.8,6.4-1.1c0,0,1.3-0.3,0.6,0.6c0,0-1.6,2.3-1.8,3.8c0,0-0.1,1.2-1.1,1.9c0,0-3,2.1-3.3,4.2
		c0,0-0.7,2,0.7,1.5c0,0,1.8-0.8,2.5,0c0,0,0.2,0.1-0.5,0.9c0,0-1.8,1.6-2,3.7c0,0,0.3,2.5,1,3.3c0,0,0.8,1.1,2.1,0.8
		c0,0,0.3-0.3,1-0.1c0,0,0.6,0,2.3-0.6c0,0,2.6-0.7,3.4-1c0,0,3.2-1.2,4.9-1.1c0,0,1-0.1,2.4,0.2c0,0,4.1,0.5,6.8-2.5
		c0,0,2.1-1.6,2.8,0c0,0,4.9,6.6,12.9,4.9c0,0-6.4-2.6-8-6.2c0,0-0.2-3-3.6-7.2c0,0-1-1.4,0-1.8c0,0,0.6-0.4,1.8,0.8
		c0,0,3.2,3,4.3,5.8c0,0,3.9,5.9,9.6,3.9c0,0-4.5-1.7-6.5-4.9c0,0-1.3-4.3-5.6-7.6c0,0-0.2-4.9-2.2-7.6c0,0-1-4.6-1.3-5.6
		c0,0-1.1-4-1.1-5.1c0,0,0.4-5.2-3-9.3c0,0-2.3-4.4-5.8-7.4c0,0-2.7-3.3-4.7-5.3c0,0-2.6-3.1-8.3-7.1c0,0-2.6-1.9-4.5-3.9
		c0,0-10.1-7.3-17.4-1.4c0,0-5,3.4-9.2,4.5c0,0-8.6,1-12.3,7c0,0-0.3,1.1-3.8,1.5c0,0-7.7-0.9-13.3,6.6c0,0-2.6,2.6-7.8,3.2
		c0,0-8.5-0.9-14,5.6c0,0-13.9,12.1-22.2,4.3c0,0-4.3-4.1,0.6-11.4c0,0,3.1-3.8,8.4-7.7c0,0,4.3-3,2.3-7.7c0,0-1-4.6-7.5-4.7
		c0,0-8.1-1.6-11.4-5.7c0,0-3.7,12.9,10.7,12.7c0,0,3.7,0.6,2.4,3.5c0,0-1.8,2.5-4.3,3.5c0,0-4.3,1.9-6.3,8.2c0,0-4.4,11,6.3,15.3
		C87.5,68.9,92.3,68.5,96.5,67.8L96.5,67.8L96.5,67.8z"/>
	<path class="st2" d="M283.1,46.2c0.4-0.8,0.3-1.6-0.2-2.4c-1-1.5-1.9,0.1-1.9,0.1c-3.5,4.8-0.9,12.1-0.9,12.1
		C280.4,49.4,283.1,46.2,283.1,46.2L283.1,46.2z M253.1,78.3c-0.1-1.4-0.2-4.6,1.3-5.7c0.5-0.4,2.6-2.7,2.6-2.7
		c0.3-0.6,0.6-0.6,0.6-0.6c0.4,0,1,1,1,1c1.5,2.9,3,2.5,3,2.5c0-0.5-0.3-1.1-0.3-1.1c-0.4-0.8-2.2-4.2-2.2-4.2
		c-0.2-0.5-0.4-1.2-0.4-1.2c-1.5-2.2-2.8-0.5-2.8-0.5c-0.6,1.2-3.9,5.1-3.9,5.1c-0.7,0.9-0.8,1.8-0.8,1.8
		C250.5,77.9,253.1,78.3,253.1,78.3L253.1,78.3L253.1,78.3z M261.7,91.9c0.6,0,0.8-0.2,0.7-0.9c-0.4-1.9-1.9-2.7-1.9-2.7
		c-2.8-1.7-3.2,0-3.2,0c-0.5,3,1.9,3.4,1.9,3.4C259.6,91.8,261.7,91.9,261.7,91.9L261.7,91.9L261.7,91.9z M385.2,100.7
		c0,0-0.6,0.5-0.3,1.4c0,0,1.6,4.3,1.5,5.8c0,0,3.5,0.6,4-1.1c0,0,0.1-0.7-0.5-1.6c0,0-0.6-0.9-0.7-2.6c0,0,0.1-4.2-2.6-3.1
		C386,99.8,385.6,100.2,385.2,100.7L385.2,100.7L385.2,100.7z M380.9,93.8c-0.6-0.5-1.4-0.8-2.2-0.6c-1.7,0.4-0.7,1.8-0.7,1.8
		c0.7,1.3,2.9,3.5,2.9,3.5c2,1.5,3.6-0.3,3.6-0.3c1.5-1.5-0.4-2.2-0.4-2.2C383,95.6,380.9,93.8,380.9,93.8L380.9,93.8L380.9,93.8z
		 M360.4,67.8c0,0,0.6,6.2-2.1,11.6c0,0-2.1,2.9,0.1,4.8l4.2,2.5c0,0,0.6,0.4,2.5,0.3c0,0,2.6-0.6,3.5,0.5c0,0,0.8,2.2,1.7,4.1
		c0,0,1.9,4.4,5.1,5.9c0,0,2.6,0.6,3.3,2.8c0,0,0.8,1.6,2.5,1.6c0,0,1.2,0.4,2,3.1c0,0,0.4,1.8,0.4,3.1c0,0-2.1-0.3-3.5,0.2
		c0,0-3.4,1.1-4.9-1.6c0,0-2.9-5-5-4.2c0,0-4.3,1.4-7.4-1.7c0,0-4.2-4.6-10.1-3.6c0,0-6.7,1.3-8.7-0.2c0,0-4.2-2.2-5.8-2.7
		c0,0-1.9-0.6-2.1-2.7c0,0-1.2-3-2-4l3.2,0c0,0,2.9,4.8,7.8,6.3c0,0,2.7,1.1,8,0.2c0,0,7.7-1.7,14.5,5.6c0,0,0.9,1.3,2.2,0.8
		c0,0-3.7-6.4-12-7.9c0,0-2.7-0.6-4.9-0.2c0,0-11.1,0.3-16.2-10.6c0,0,0.6-9.3-1.9-11.5c0,0-0.9-0.3-0.8,1.5c0,0,1.7,9.7-1.5,11.6
		c0,0-1.8,1.4-5.2,0.9c0,0-5.1-1.2-9.3-0.5c0,0-6.4,1.5-12,0.8c0,0,1.4-2.2,1.2-4.8c0,0-0.8-1.9-1.7-0.7c0,0-2.1,7-7.9,9.1
		c0,0-5.2,1.9-5.1,8.5c0,0,0.8,0.9,7.7,3.3c0,0,2.6,0.8,3.4-1.1c0,0,3.3-7.1,6.2-6.9l5.4,0.4c0,0,1.8,0.5,0.5,2c0,0-1.9,2.5-2.6,3.9
		c0,0-0.2,1.3-2,1c0,0-2.4-1.2-3.8,3.3c0,0-1.2,2.3-3.4,3c0,0-2,0.7-3.8-0.4c0,0-9-3.3-10.5-4.5c0,0-1.9-1.1-3.5-0.6
		c0,0-2.7,0.6-3.8-1.5l-2.8-4.3c0,0-0.6-1.1-0.5-2.4c0,0-0.3-1.3,0.9-2.7c0,0,1.1-1.1,1.2-1.9l2-4.7c0,0,0.8-1.2,1.7-1.8l2.6,0.2
		c0,0-1.8,4.6-3.2,6.5c0,0-1.8,2.8-1.7,4.5c0,0,0.1,1.2,0.6,1.7c0,0,0.6,1,0.9,1.5c0,0,0.8,1.7,1.4,2.1c0,0,1.1,0.7,1.4,0.7
		c0,0,0.5,0.1,0.1-0.7c0,0-1.5-3.1-1.4-4.8c0,0-0.3-1.7,0.9-2.8c0,0,2.9-4.5,3.3-5.9c0,0,0.9-1.8,1.4-2.1c0,0,1-1.3-0.6-1.9
		c0,0-4-0.9-4.8-1.4c0,0-1.9-0.6-3.2-4.6c0,0-1.7-4.7-1.7-7.6c0,0-3.4,6.6,2,13.3c0,0-4.3,1.3-6.1,0c0,0-5.4-0.8-6.4-1.1
		c0,0-1.3-0.3-0.6,0.6c0,0,1.6,2.3,1.8,3.8c0,0,0.1,1.2,1.1,1.9c0,0,3,2.1,3.3,4.2c0,0,0.7,2-0.7,1.5c0,0-1.8-0.8-2.5,0
		c0,0-0.2,0.1,0.5,0.9c0,0,1.8,1.6,2,3.7c0,0-0.3,2.5-1,3.3c0,0-0.8,1.1-2.1,0.8c0,0-0.3-0.3-1-0.1c0,0-0.6,0-2.3-0.6
		c0,0-2.6-0.7-3.4-1c0,0-3.2-1.2-4.9-1.1c0,0-1-0.1-2.4,0.2c0,0-4.1,0.5-6.8-2.5c0,0-2.1-1.6-2.8,0c0,0-4.9,6.6-12.9,4.9
		c0,0,6.4-2.6,8-6.2c0,0,0.2-3,3.6-7.2c0,0,1-1.4,0-1.8c0,0-0.6-0.4-1.8,0.8c0,0-3.2,3-4.3,5.8c0,0-3.9,5.9-9.6,3.9
		c0,0,4.4-1.7,6.5-4.9c0,0,1.3-4.3,5.6-7.6c0,0,0.2-4.9,2.2-7.6c0,0,1-4.6,1.3-5.6c0,0,1.1-4,1.1-5.1c0,0-0.4-5.2,3-9.3
		c0,0,2.3-4.4,5.8-7.4c0,0,2.7-3.3,4.7-5.3c0,0,2.6-3.1,8.3-7.1c0,0,2.6-1.9,4.5-3.9c0,0,10.1-7.3,17.4-1.4c0,0,5,3.4,9.2,4.5
		c0,0,8.6,1,12.3,7c0,0,0.3,1.1,3.8,1.5c0,0,7.7-0.9,13.3,6.6c0,0,2.6,2.6,7.8,3.2c0,0,8.5-0.9,14,5.6c0,0,13.9,12.1,22.2,4.3
		c0,0,4.3-4.1-0.6-11.4c0,0-3.1-3.8-8.4-7.7c0,0-4.3-3-2.3-7.7c0,0,1-4.6,7.5-4.7c0,0,8.1-1.6,11.4-5.7c0,0,3.7,12.9-10.7,12.7
		c0,0-3.7,0.6-2.4,3.5c0,0,1.8,2.5,4.3,3.5c0,0,4.3,1.9,6.3,8.2c0,0,4.4,11-6.3,15.3C369.4,68.9,364.6,68.5,360.4,67.8L360.4,67.8
		L360.4,67.8z"/>
	<path class="st2" d="M106.7,201.8H128c0,0-0.9-10.1-10.5-10.1S106.7,201.8,106.7,201.8L106.7,201.8L106.7,201.8z M117.8,179.6
		c28.7,0,27.6,28,27.6,28v4.4h-39c0,6.4,5.3,11.9,12.6,11.9c7.3,0,11-7,11-7l13.8,6.8c-6.4,9.6-15,13.5-24.6,13.5
		c-29.9,0-30.5-24.9-30.5-28S89.1,179.6,117.8,179.6L117.8,179.6L117.8,179.6z M181.8,221.5L181.8,221.5c-0.9,0-12,0.2-12-13.5
		c0-13.6,12.2-14.1,12.2-14.1s13.6,0.4,13.6,13.8C195.6,221.1,182.7,221.5,181.8,221.5L181.8,221.5L181.8,221.5z M194.9,144.9V186
		c0,0-8.3-6.4-17.8-6.4c-9.5,0-25.5,6.7-25.5,27.7c0,21,13.6,29,25.3,29c11.7,0,18.2-7.7,18.2-7.7v6.8h16.9v-90.6H194.9L194.9,144.9
		z M308.8,182.4H326v30.4c0,0,0.6,10.2,10.2,10.2c9.6,0,9.5-10.2,9.5-10.2v-30.2h17.3v31.3c0,0,2.2,24.5-26.4,24.5
		c-28.6,0-27.9-21.5-27.9-25.3C308.8,209.1,308.8,182.4,308.8,182.4L308.8,182.4L308.8,182.4z M373.1,144.9h17v90.6h-17V144.9
		L373.1,144.9z M401.9,144.9h16.7v90.6h-16.7V144.9L401.9,144.9z M274.4,220.4L274.4,220.4h-16.1v-56.7h8.6c0,0,11.7-0.9,11.7,9.3
		c0,10.2-9.3,9.3-9.3,9.3h-5.3v15.3c0,0,7.7,0,10.4,0c2.7,0,11.5,1.3,11.5,11.4C285.8,218.9,274.4,220.4,274.4,220.4L274.4,220.4
		L274.4,220.4z M288.8,188.2c0,0,7.9-6.1,7.9-17.7c0-11.6-8.4-22-26.3-22c-17.9,0-30,0-30,0l0,87h36.9c0,0,26.5-0.3,26.5-24.2
		C303.8,197.4,298.4,192.1,288.8,188.2L288.8,188.2L288.8,188.2z M26.7,146.6v88.9h17.9v-71.9H53c0,0,13.2-0.6,13.2,11.4
		c0,12-11.7,11.7-11.7,11.7h-4.3v20.5l17.9,28.3h21l-25-36.3c0,0,20.6-1.8,20.6-24.2c0-22.4-15.6-28.4-36.3-28.4
		C27.7,146.6,26.7,146.6,26.7,146.6L26.7,146.6L26.7,146.6z"/>
</g>
</svg>
