<?xml version="1.0" encoding="utf-8"?>
<!-- Generator: Adobe Illustrator 19.2.1, SVG Export Plug-In . SVG Version: 6.00 Build 0)  -->
<svg version="1.1" id="Layer_1" xmlns="http://www.w3.org/2000/svg" xmlns:xlink="http://www.w3.org/1999/xlink" x="0px" y="0px"
	 viewBox="0 0 564 619.5" style="enable-background:new 0 0 564 619.5;" xml:space="preserve">
<style type="text/css">
	.st0{fill-rule:evenodd;clip-rule:evenodd;fill:#FFFFFF;}
	.st1{fill:#FFFFFF;}
</style>
<g>
	<path class="st0" d="M452.9,239.3c0.3-14.8-10.4-126.9-36.3-174.9H147.9c-25.6,48.2-35.5,161.5-35.1,176.3
		c-0.2,15.2,0.5,30.1,2.5,58.2c8,119.9,50,189.2,94.8,229.5c26.2,21.4,51.6,27.2,73.7,26.8c22.2,0.2,47.5-5.9,73.6-27.5
		c44.6-40.6,86.1-110.2,93.2-230.2C452.5,269.4,453.2,254.5,452.9,239.3z M262.1,205.8v94.6h-35.8l-0.1-94.6H262.1z M332.2,205.8
		c0,0,26.4,0.5,26.6,42l0,8c0.1,15-8.2,44.6-26.6,44.6h-29.8v-94.6H332.2z M441.8,294.9c-5.8,114.1-42.5,181.6-83.5,222.2
		c-26.8,23.4-51.4,32.7-74.3,31.8c-22.9,1.1-47.6-7.8-74.5-31.1c-41.3-40.3-78.4-107.6-85.1-221.6c-1.6-19.1-1.6-33.4-1.5-46
		c-0.9-12.4,1.6-37.8,1.6-37.8c0.5-7.9,3.7-54.6,31.6-80.1c20.2-18.4,53.5-19.1,106-19.5v58.8h-89.5v34.2c0,0,13.8-1.2,12.7,13
		l0.1,188.3c0,0,0.5,7.9-6.5,7.8c0.2,0-6.3-0.1-6.3-0.1v30.3h53.6V334.2h7c0,0,8.7,1,17.7,5.4c4,1.9,11.2,7.8,11.2,7.8v67.8
		c0,0,1.3,76.5-35,95l113.8,0.1c-36.4-18.3-38.5-95.5-38.5-95.5v-30.5l61.5,60.8l33.1,0v-30.9c-9.3-0.5-9.3,3.7-29.7-16.4
		l-63.9-63.5l47.6-0.2c33-0.1,46.7-50.2,46.6-76.6l0-8.2l0,7l0-8.2c-0.1-26.4-13.2-76.7-46.2-76.6h-48.9v-58.8
		c52.5,0,86.2,0.2,106.5,18.5c28,25.3,31.5,71.9,32.1,79.8c0,0,2.8,25.4,1.9,37.8C443.1,261.5,443.3,275.8,441.8,294.9z"/>
	<path class="st1" d="M405.5,517.6c-2.2,2.3-3.4,5-3.4,8.2c0,3.2,1.1,6,3.4,8.3c2.3,2.3,5,3.4,8.2,3.4c3.2,0,6-1.1,8.2-3.4
		c2.3-2.3,3.4-5,3.4-8.3c0-3.2-1.1-5.9-3.4-8.2c-2.3-2.3-5-3.4-8.2-3.4C410.5,514.2,407.8,515.3,405.5,517.6z M423.2,535.3
		c-2.6,2.6-5.8,4-9.5,4c-3.7,0-6.9-1.3-9.5-4c-2.6-2.6-3.9-5.8-3.9-9.6c0-3.7,1.3-6.9,3.9-9.5c2.6-2.6,5.8-3.9,9.5-3.9
		c3.7,0,6.9,1.3,9.5,3.9c2.6,2.6,3.9,5.8,3.9,9.5C427.2,529.5,425.9,532.7,423.2,535.3z M416.2,520.7c-0.6-0.4-1.7-0.6-3.1-0.6h-2.2
		v5.4h2.3c1.1,0,1.9-0.1,2.5-0.3c1-0.4,1.5-1.2,1.5-2.3C417.2,521.8,416.9,521,416.2,520.7z M413.4,518.3c1.8,0,3.2,0.2,4,0.5
		c1.5,0.6,2.3,1.9,2.3,3.7c0,1.3-0.5,2.3-1.4,2.9c-0.5,0.3-1.2,0.6-2.2,0.7c1.2,0.2,2,0.7,2.6,1.4c0.5,0.8,0.8,1.5,0.8,2.3v1.1
		c0,0.3,0,0.7,0,1.1c0,0.4,0.1,0.7,0.1,0.8l0.1,0.2h-2.4c0-0.1,0-0.1,0-0.2c0,0,0-0.1,0-0.2l-0.1-0.5v-1.2c0-1.7-0.5-2.8-1.4-3.4
		c-0.6-0.3-1.5-0.5-2.9-0.5h-2.1v5.8h-2.6v-14.8H413.4z"/>
</g>
</svg>
