<?xml version="1.0" encoding="utf-8"?>
<!-- Generator: Adobe Illustrator 19.2.1, SVG Export Plug-In . SVG Version: 6.00 Build 0)  -->
<svg version="1.1" id="Layer_1" xmlns="http://www.w3.org/2000/svg" xmlns:xlink="http://www.w3.org/1999/xlink" x="0px" y="0px"
	 viewBox="0 0 396 180" style="enable-background:new 0 0 396 180;" xml:space="preserve">
<style type="text/css">
	.st0{fill:#FFFFFF;}
</style>
<path class="st0" d="M124.7,66c3.5,0,6.7,0,10,0c0.8,0,1.2,0.2,1.3,1.1c0.3,1.5,0.7,3,1,4.5c0.4,2,0.1,2.5-1.6,3.6
	c-0.6,0.4-1.2,1-1.3,1.7c-0.3,1.6,0.7,2.4,2.6,2.4c6,0,12,0,18,0c0.9,0,1.9,0.1,2.8,0c1-0.1,1.8-0.5,2-1.6c0.2-1.1-0.3-1.9-1.3-2.2
	c-1.8-0.6-2.4-1.9-2.7-3.5c-1-4.2-2-8.4-3-12.6c-2.6-11-5.2-22-7.8-32.9c-0.2-0.7-0.3-1.1-1.1-1.1c-4.8,0-9.5,0-14.3,0
	c-0.3,0-0.9,0.3-0.9,0.5c-0.3,1.5-0.8,3.1-0.6,4.6c0.9,4.9,2.2,9.8,3.3,14.7c1.2,5.3,2.4,10.7,3.7,16.2c-3,0-5.9,0-8.9,0
	C125.4,62.9,125.1,64.3,124.7,66z M116,133.6c0.4,1.7,0.8,3.3,1.1,4.9c0.6,2.8,0.6,2.9-1.8,4.4c-0.8,0.5-1.2,1.2-1.1,2.1
	c0.2,1,0.9,1.5,1.8,1.8c0.3,0.1,0.6,0,0.9,0c6.6,0,13.1,0,19.7,0c0.4,0,0.9,0,1.3-0.1c0.9-0.2,1.6-0.7,1.7-1.7c0.1-1-0.3-1.8-1.2-2
	c-2.1-0.6-2.6-2.3-3-4.1c-2.8-11.9-5.6-23.9-8.4-35.8c-0.8-3.4-1.6-6.9-2.4-10.3c-5.4,0-10.7,0-16.4,0c-0.1,1.8-0.6,3.5-0.3,5.2
	c1.3,6.6,3,13.2,4.5,19.9c0.8,3.6,1.6,7.2,2.4,10.9c-3,0-5.9,0-8.8,0c-0.4,1.6-0.7,3.1-1.1,4.8C108.7,133.6,112.3,133.6,116,133.6z
	 M240.3,53.6c0.1,0.4,0.1,0.5,0.1,0.7c0,5.8,0,11.6,0,17.4c0,1.7-0.6,2.8-2.4,3.2c-1.3,0.3-1.7,1.3-1.5,2.6c0.2,1.2,1.1,1.6,2.1,1.6
	c7,0,14,0,21.1,0c1.2,0,2.1-0.5,2.3-1.8c0.2-1.2-0.4-2.1-1.7-2.5c-2.1-0.8-2.3-1.1-2.3-3.2c0-12.6,0-25.2,0-37.8
	c0-2.2,0.1-4.1,2.8-4.6c1-0.2,1.3-1.2,1.2-2.2c-0.1-1-0.7-1.5-1.6-1.7c-0.5-0.1-1-0.1-1.5-0.1c-5.9,0-11.9,0-17.8,0
	c-0.9,0-1.7-0.1-2.6,0c-1,0.1-1.9,0.4-2.1,1.6c-0.2,1.2,0.1,2.2,1.4,2.6c2.3,0.5,2.4,1.2,2.5,3.8c0,5,0,10.1,0,15.1
	c0,0.4,0,0.9,0,1.4c-2.3,0-4.3,0-6.4,0c0,1.4,0,2.6,0,3.9C236.2,53.6,238.2,53.6,240.3,53.6z M212.4,147.8c2.3,0.2,5.9-0.5,8.9-1.8
	c11.5-4.9,14.8-19.2,6.6-28.4c-2.8-3.1-6.5-4.7-10.2-6.4c-2.8-1.3-5.5-2.6-8.2-4.1c-2.2-1.3-3.3-3.3-3-5.9c0.3-2.5,1.9-3.7,4.1-4.6
	c0.3-0.1,0.8-0.5,0.8-0.7c0.1-1.4,0-2.7,0-4.2c-1.1,0.1-2,0.2-2.9,0.3c-4.2,0.7-8,2.3-11,5.5c-6,6.4-7.3,19.9,3,26.6
	c3,2,6.4,3.3,9.6,5c2,1,4.1,2,6.1,3.2c2,1.3,2.9,3.2,2.6,5.7c-0.3,2.4-1.7,3.8-3.8,4.6c-0.8,0.3-1.7,0.6-2.6,0.9
	C212.4,144.8,212.4,146.3,212.4,147.8z M182,80.5c2.1-0.4,4.1-0.6,5.9-1.1c7.9-2.2,13.2-8.3,14-15.9c0.8-7.6-2.9-14-10.3-17.9
	c-2.9-1.5-6-2.7-8.9-4.2c-1.8-0.9-3.7-2-5.1-3.4c-2.6-2.5-1.9-6.6,1.1-8.4c0.7-0.4,1.5-0.7,2.3-1.1c0-1.5,0-3,0-4.5
	c-4.3,0.2-8.1,1.3-11.6,3.7c-8.2,5.7-10.5,21.2,0.4,28.4c3.4,2.3,7.4,3.8,11.1,5.8c1.8,0.9,3.7,1.8,5.3,3c3.7,2.8,2.9,8-1.3,9.9
	c-0.9,0.4-1.8,0.7-2.8,1C182,77.2,182,78.7,182,80.5z M77.6,25.1c-0.6,0-1.1,0-1.5,0c-5.7,0-11.4,0-17.2,0c-0.5,0-1,0-1.5,0.1
	c-0.9,0.2-1.5,0.8-1.6,1.8c-0.1,1,0.3,1.8,1.2,2.2c0.3,0.1,0.7,0.3,1,0.4c1.1,0.3,1.7,1,1.7,2.1c0,0.8,0.1,1.5,0.1,2.3
	c0,10.4,0,20.9,0,31.3c0,2.2,0,4.3,0,6.5c0,1.6-0.6,2.7-2.3,3.1c-1.4,0.3-1.9,1.3-1.7,2.5c0.2,1.3,1.2,1.7,2.4,1.7
	c7.2,0,14.3,0,21.5,0c1.5,0,2.6-0.8,2.7-1.9c0.2-1.2-0.5-2-2.2-2.4c-2.5-0.7-2.7-1-2.7-3.7c0-14.8,0-29.5,0-44.3
	C77.6,26.3,77.6,25.8,77.6,25.1z M221.8,79.2c3.5,0,6.9,0,10.4,0c1.1,0,2-0.4,2.2-1.6c0.3-1.3-0.2-2.2-1.5-2.7
	c-2.2-0.8-2.3-1.1-2.3-3.3c0-13,0-25.9,0-38.9c0-2.3,0.1-2.5,2.3-3.3c1.2-0.5,1.6-1.3,1.5-2.5c-0.2-1.2-1-1.7-2.1-1.7
	c-7,0-14,0-21.1,0c-1.1,0-2.1,0.4-2.3,1.7c-0.2,1.2,0.3,2.1,1.7,2.6c2.2,0.8,2.4,1.1,2.4,3.4c0,12.9,0,25.8,0,38.6
	c0,2.4-0.2,2.6-2.4,3.4c-0.9,0.3-1.6,0.8-1.7,1.9c-0.1,1.5,0.8,2.3,2.6,2.4C215,79.2,218.4,79.2,221.8,79.2z M19.7,25.2
	c0,0.7,0,1.3,0,1.9c0,14.6,0,29.3,0,43.9c0,2.7-0.3,3.1-2.8,3.8c-1.7,0.5-2.2,1.2-2.1,2.5c0.1,1.1,1,1.8,2.6,1.9c0.6,0,1.3,0,1.9,0
	c6.6,0,13.2,0,19.9,0c1.8,0,2.9-0.7,3-1.9c0.2-1.4-0.5-2.1-2.3-2.6c-2.2-0.6-2.6-1.1-2.6-3.4c0-14.9,0-29.7,0-44.6c0-0.5,0-1,0-1.6
	C31.4,25.2,25.6,25.2,19.7,25.2z M60,92.7c-6.6,0-13,0-19.4,0c-1.1,0-2,0.6-2.2,1.8c-0.1,1.3,0.5,2,1.7,2.4c2.2,0.8,2.4,1.1,2.4,3.4
	c0,12.8,0,25.7,0,38.5c0,2.5-0.1,2.7-2.5,3.6c-1.4,0.6-2.2,2.1-1.3,3.1c0.6,0.6,1.7,1.1,2.5,1.1c5.9,0.1,11.8,0.1,17.7,0
	c0.3,0,0.7-0.1,1.1-0.1C60,128.7,60,110.8,60,92.7z M80.7,51.2c0,1.4,0,2.8,0,4.1c3.5,1.1,4.2,2.2,4.3,5.8c0.1,2.8,0,5.6,0.1,8.4
	c0.1,4,1.4,7.3,4.9,9.5c2.4,1.4,5.1,1.6,7.7,1.4c4.7-0.3,8-2.8,10.1-7c0.7-1.5,0.4-2.8-0.8-3.5c-1-0.6-1.7-0.3-3,1
	c-0.3,0.4-0.9,0.5-1.3,0.8c-0.2-0.5-0.6-1-0.6-1.5c-0.1-2.7,0-5.5-0.1-8.2c0-2.2-0.9-4.2-2.7-5.5c-1.7-1.2-3.7-2-5.6-2.8
	c-1.1-0.5-2.4-0.6-3.8-0.9c1.7-0.6,3.2-1.1,4.6-1.7c4.6-1.9,7.2-5.5,7.6-10.4c0.5-5.2-1.1-9.5-5.6-12.4c-5-3.3-10.6-2.9-16.3-2.9
	c0,1.2,0.1,2.2,0,3.3c-0.1,0.9,0.2,1.3,1.1,1.5c2.3,0.7,3.4,2.3,3.4,4.6c0,4.2,0,8.4,0,12.6c0,1.8-1,3-2.7,3.6
	C81.7,50.9,81.2,51,80.7,51.2z M73,118.8c1.6-0.5,3.2-0.9,4.6-1.4c5.2-1.8,8.3-6,8.5-11.3c0.1-5.1-2.7-9.4-7.8-11.5
	c-4.8-2.1-9.9-1.8-15-1.7c0,1.5,0,2.9,0,4.2c4.4,1.4,5.3,2.7,5.3,7.3c0,2.4,0,4.8,0,7.2c0,2.8-1.5,4.6-4.2,5.1
	c-0.3,0.1-0.7,0.2-1.1,0.3c0,0.9,0.1,1.8,0,2.6c-0.1,1,0.2,1.5,1.3,1.7c2.1,0.4,3.6,1.8,3.7,3.9c0.2,4.5,0.2,9,0,13.5
	c-0.1,1.8-1.2,3.2-3,3.7c-2.1,0.6-2.1,0.6-2.1,2.9c0,0.5,0,1,0,1.5c3.1,0,6.1,0.1,9,0c2.5-0.1,5-0.7,7.2-1.9
	c5.2-2.8,7.6-7.2,7.2-13.1c-0.4-5.7-3.4-9.5-8.7-11.4C76.5,119.7,74.8,119.3,73,118.8z M163.6,91.6c-0.9,0.1-1.7,0-2.4,0.2
	c-7.4,1.5-12.8,5.8-16.2,12.5c-3.9,7.6-4.5,15.6-2.8,23.8c2,9.8,7.6,16.5,17.4,19.4c1,0.3,2.2,0.4,3.4,0.6c-0.3-2.2,0.9-4.5-1.7-5.8
	c-0.3-0.1-0.5-0.6-0.6-1c-0.2-1.1-0.4-2.2-0.5-3.3c0-5.6,0-11.3,0-16.9c0-6.4,0-12.7,0-19.1c0-1.9,0-4.1,1.9-5
	c1.7-0.8,1.5-2,1.5-3.4C163.6,93,163.6,92.4,163.6,91.6z M166.1,147.8c0.3,0,0.5,0.1,0.7,0.1c6.6-0.3,12.4-2.9,17.3-7.2
	c0.4-0.3,0.5-1,0.5-1.5c0-4,0-8.1,0-12.1c0-1.3,0.2-2.5,1.5-3.3c0.5-0.3,0.9-0.9,1.1-1.5c0.5-1.7-0.5-2.8-2.6-2.8
	c-5.5,0-11.1,0-16.6,0c-2.1,0-3.2,0.6-3.4,1.9c-0.2,1.3,0.6,2.2,2.8,2.6c1.5,0.3,2,1.2,2.1,2.6c0,4.2,0,8.4,0,12.6
	c0,1.5-0.4,3-1.9,3.6c-1.4,0.5-1.6,1.4-1.5,2.6C166.2,146.1,166.1,146.9,166.1,147.8z M125.8,35.6c-0.1,0-0.2,0-0.3,0.1
	c-2.8,10.3-5.7,20.6-8.4,30.9c-1,3.8-2.4,7.3-6.6,8.7c-0.2,0.1-0.4,0.2-0.5,0.4c-0.9,0.8-1,2-0.1,2.7c0.6,0.5,1.5,0.8,2.3,0.9
	c2.3,0.1,4.6,0.1,6.9,0.1c1.5,0,3,0,4.5-0.1c1-0.1,1.9-0.6,1.8-1.6c-0.1-0.8-0.7-1.5-1.1-2.2c-0.1-0.2-0.5-0.2-0.7-0.4
	c-2.9-1.4-3.6-2.8-2.8-5.9c1.8-6.5,3.6-13.1,5.4-19.6c0.5-2,1.6-4,1.5-6C127.5,40.8,126.5,38.2,125.8,35.6z M105.9,102.7
	c-0.2,0.8-0.4,1.2-0.5,1.6c-2.9,10.4-5.7,20.8-8.6,31.2c-0.9,3.3-2.4,5.9-5.8,7.1c-1,0.4-1.8,1-1.6,2.2c0.2,1.2,1.1,1.8,2.2,1.8
	c4,0.1,8,0.1,12,0c0.9,0,1.7-0.4,1.8-1.5c0.2-1-0.2-1.9-1.1-2.4c-0.2-0.1-0.4-0.2-0.6-0.3c-2.7-0.9-3.8-2.7-2.9-6.1
	c2.2-8,4.4-15.9,6.6-23.9c0.2-0.6,0.4-1.2,0.3-1.7C107.3,108.2,106.6,105.7,105.9,102.7z M166.8,96c5.4,0,8.7,3,10.9,7.4
	c1.2,2.4,2.1,4.8,3.1,7.3c0.4,0.9,0.8,1.8,2,1.9c1.7,0.2,2.6-0.7,2.7-2.7c0-5.3,0-10.6,0-15.9c0-1-0.1-2-1.2-2.3
	c-1.1-0.3-2,0-2.7,0.9c-1.8,2.3-1.8,2.2-4.6,1.2c-3.2-1.3-6.6-1.9-10.1-2.1C166.8,93.1,166.8,94.5,166.8,96z M178.9,75.7
	c-2.2-0.5-4.1-1.6-5.8-3.2c-3-2.9-4.9-6.5-6.1-10.5c-0.2-0.6-0.3-1.2-0.6-1.8c-0.6-1.2-2.1-1.6-3-0.6c-0.5,0.6-0.9,1.5-0.9,2.2
	c-0.1,3.7,0,7.5,0,11.2c0,1.4-0.1,2.8,0,4.2c0.1,1.7,1.1,2.7,2.5,2.3c0.6-0.2,1.1-0.7,1.6-1.1c1.2-1.2,2-1.4,3.6-0.8
	c1,0.4,2,0.9,3,1.2c1.9,0.6,3.7,1,5.8,1.5C178.9,78.7,178.9,77.3,178.9,75.7z M209.5,143.3c-4-0.9-6.7-3.4-8.7-6.7
	c-1.3-2.1-2.1-4.4-3.1-6.6c-0.3-0.6-0.3-1.4-0.6-1.9c-0.4-0.6-1.1-1.3-1.6-1.3c-0.7,0-1.5,0.5-2,1c-0.4,0.4-0.5,1.1-0.5,1.6
	c0,5,0,10.1,0.1,15.1c0,1.1,0.3,2.1,1.4,2.5c1.2,0.4,1.9-0.3,2.7-1.1c1.2-1.3,1.9-1.4,3.6-0.8c1.5,0.6,3,1.3,4.5,1.8
	c1.3,0.4,2.7,0.6,4.3,0.9c0-1.2,0-2.1,0-3C209.5,144.5,209.5,143.9,209.5,143.3z M184.1,24.3c0,0.7,0,1.2,0,1.8c0,2.4,0,2.4,2.1,3.3
	c5.2,2.2,7.8,6.5,9.1,11.8c0.4,1.6,1.2,2.3,2.5,2.2c1.3-0.1,2.2-1,2.2-2.6c0-4.7,0-9.5-0.1-14.2c0-0.9-0.3-1.8-1.4-2.1
	c-1.1-0.3-1.8,0.2-2.4,1.1c-1.3,1.7-1.5,1.7-3.4,0.9c-0.5-0.2-1.1-0.4-1.6-0.7C189.1,25,186.8,24.3,184.1,24.3z M214.6,91.9
	c0,1.3-0.1,2.5,0,3.6c0,0.3,0.4,0.8,0.7,0.9c6,1.9,9,6.4,10.5,12.2c0.5,1.8,1.3,2.5,2.7,2.4c1.3-0.2,2-1.1,2-2.9c0-4.4,0-8.7,0-13.1
	c0-0.5,0-1.1-0.2-1.4c-0.3-0.5-0.8-1.3-1.3-1.4c-0.6-0.1-1.4,0.3-2,0.6c-0.4,0.2-0.5,0.8-0.8,1c-0.6,0.3-1.2,0.6-1.9,0.6
	c-0.6,0-1.2-0.4-1.8-0.6C220.1,92.8,217.6,91.9,214.6,91.9z M40.5,25.2c0,1.5,0,2.8,0,4.2c0,0.3,0.2,0.7,0.5,0.9
	c2.7,1.9,3.7,4.6,4.4,7.6c0.3,1.1,0.4,2.3,0.6,3.5c0.2,1.1,0.6,2.1,1.8,2.5c1.8,0.5,3.1-0.5,3.1-2.6c0-5.2,0-10.4,0-15.5
	c0-0.2-0.1-0.3-0.1-0.5C47.4,25.2,44.1,25.2,40.5,25.2z M6,25.2c0,5.6,0,11.1,0,16.6c0,1.1,0.7,2,2,2.2c1.3,0.1,2.3-0.4,2.7-1.7
	c0.3-1.1,0.4-2.2,0.6-3.3c0.7-3.4,1.7-6.5,4.7-8.6c0.2-0.1,0.4-0.4,0.4-0.6c0-1.5,0-2.9,0-4.4C13,25.2,9.6,25.2,6,25.2z"/>
<path class="st0" d="M292.7,96.4c-0.4-13.3-0.9-26.6-1.2-40c-0.1-3.4,0.1-6.8,0.3-10.3c0.1-3.8-0.5-7.3-2.3-10.7
	c-0.6-1.1-0.9-2.4-1.5-3.6c-0.7-1.5-0.2-2.5,0.9-3.5c5.2-4.6,11.2-7.5,17.8-9.3c1.6-0.4,3.2-0.9,4.8-1.4c2.6-0.8,5-1.9,6.9-4
	c2.8-3,6.5-3.7,10.2-3.8c9.8-0.2,19.6-0.2,29.3,0.8c0.8,0.1,1.9,0.7,2.3,1.3c2.2,3.9,5.8,5,9.9,5.2c6.5,0.5,11.5,3.6,15.6,8.4
	c1.7,2,3.3,4.1,4.9,6.3c0.3,0.4,0.4,1.1,0.2,1.4c-0.7,1.6-1.2,3.4-2.3,4.7c-4.1,5.3-5.3,11.4-5.6,18c-0.7,20.9-1.7,41.8-2.4,62.6
	c-0.3,10-0.2,20-0.2,30c0,0.7,0.2,1.3-0.8,1.6c-7.8,2.4-15.4,5.2-23.3,7.3c-10.4,2.8-21,2.8-31.7,1.4c-10.1-1.3-19.7-4-29.1-7.8
	c-1.1-0.4-1.5-1-1.5-2.2c-0.5-17.6-1.1-35.2-1.7-52.8C292.6,96.4,292.7,96.4,292.7,96.4z M383.8,42.7c-0.8,0.1-1.3,0.2-1.8,0.3
	c-20.3,6.1-40.9,8.5-62.1,6.7c-8.6-0.7-16.9-2.4-24.9-5.8c-0.4-0.2-0.7-0.3-1.2-0.4c0,0.5-0.1,0.9-0.1,1.2
	c0.2,9.1,0.3,18.1,0.5,27.2c0.5,21.7,1.1,43.4,1.6,65.1c0,1.2,0.3,2,1.5,2.3c0.3,0.1,0.7,0.3,1,0.4c8.2,3.7,17,5.4,25.9,6.3
	c14.1,1.4,28.1,1,41.8-3c3.2-0.9,6.3-2,9.4-3.2c1.6-0.6,2.3-1.8,2.4-3.8c1.1-28,2.3-56.1,3.5-84.1c0.1-2.9,0.4-5.7,2.1-8.2
	C383.6,43.4,383.6,43.2,383.8,42.7z M385.2,39.1c0.1,0,0.3,0,0.4,0c0.7-1.4,1.4-2.8,2.1-4.2c0.5-0.8,0.4-1.5,0.1-2.4
	c-2.3-5-6.2-8.5-11.1-10.5c-4.4-1.8-9.1-3.1-13.6-4.6c-1-0.3-2.1-0.7-2.9-1.4c-2.4-2.1-5-3.1-8.3-3.3c-8.2-0.6-16.4-1.1-24.7,0
	c-2.5,0.3-5.2,0.4-7.1,2.5c-2.5,2.8-5.8,4.2-9.2,5.4c-4.3,1.5-8.6,2.8-12.9,4.4c-2.8,1-5.3,2.7-7.4,4.9c-0.9,0.9-0.9,1.7,0,2.5
	c1.1,0.9,2.1,2.1,3.4,2.6c2.3,1,4.7,1.7,7,2.3c6.4,1.8,12.8,3.3,19.4,4c19.5,1.9,38.6-0.1,57.3-5.3c2.2-0.6,4.4-1.3,6.7-2
	C384.7,35.7,385,37.4,385.2,39.1z M296.5,141.9c0,2.1,0,4.1,0,6.1c0,0.9,0.3,1.3,1.1,1.5c2.8,0.9,5.6,1.9,8.4,2.9
	c8.9,2.9,18,5,27.4,5.1c14.5,0.2,28.5-2.8,42.1-7.8c2-0.8,3.1-1.7,2.7-3.9c-0.1-0.9,0.1-1.8,0-2.7c0-0.6-0.2-1.1-0.4-1.6
	c-0.8,0.2-1.4,0.4-2,0.6c-0.6,0.2-1.3,0.5-1.9,0.7c-9.4,3.6-19.1,6.2-29.1,7.3c-12.3,1.2-24.1-0.8-35.8-4.3
	C305,144.6,300.9,143.3,296.5,141.9z"/>
<path class="st0" d="M124.7,66c0.4-1.7,0.7-3.1,1.1-4.8c2.9,0,5.8,0,8.9,0c-1.3-5.5-2.5-10.9-3.7-16.2c-1.1-4.9-2.3-9.8-3.3-14.7
	c-0.3-1.4,0.3-3.1,0.6-4.6c0-0.2,0.6-0.5,0.9-0.5c4.8,0,9.5,0,14.3,0c0.9,0,1,0.5,1.1,1.1c2.6,11,5.2,22,7.8,32.9
	c1,4.2,2,8.4,3,12.6c0.4,1.6,1,3,2.7,3.5c1,0.3,1.5,1.1,1.3,2.2c-0.2,1.2-1.1,1.5-2,1.6c-0.9,0.1-1.9,0-2.8,0c-6,0-12,0-18,0
	c-1.9,0-2.9-0.9-2.6-2.4c0.1-0.6,0.8-1.3,1.3-1.7c1.7-1.1,2-1.6,1.6-3.6c-0.3-1.5-0.7-3-1-4.5c-0.1-0.8-0.5-1.1-1.3-1.1
	C131.5,66,128.2,66,124.7,66z"/>
<path class="st0" d="M116,133.6c-3.7,0-7.3,0-11,0c0.4-1.7,0.7-3.2,1.1-4.8c2.9,0,5.8,0,8.8,0c-0.8-3.8-1.6-7.3-2.4-10.9
	c-1.5-6.6-3.1-13.2-4.5-19.9c-0.3-1.6,0.2-3.4,0.3-5.2c5.6,0,10.9,0,16.4,0c0.8,3.4,1.6,6.8,2.4,10.3c2.8,11.9,5.6,23.9,8.4,35.8
	c0.4,1.8,1,3.4,3,4.1c0.9,0.3,1.3,1.1,1.2,2c-0.1,1-0.8,1.5-1.7,1.7c-0.4,0.1-0.9,0.1-1.3,0.1c-6.6,0-13.1,0-19.7,0
	c-0.3,0-0.6,0-0.9,0c-0.9-0.2-1.6-0.7-1.8-1.8c-0.2-1,0.2-1.6,1.1-2.1c2.3-1.5,2.4-1.6,1.8-4.4C116.7,136.9,116.3,135.2,116,133.6z"
	/>
<path class="st0" d="M240.3,53.6c-2.1,0-4.1,0-6.2,0c0-1.3,0-2.6,0-3.9c2.1,0,4.1,0,6.4,0c0-0.6,0-1,0-1.4c0-5,0-10.1,0-15.1
	c0-2.6-0.2-3.3-2.5-3.8c-1.3-0.3-1.6-1.4-1.4-2.6c0.2-1.2,1.1-1.5,2.1-1.6c0.8-0.1,1.7,0,2.6,0c5.9,0,11.9,0,17.8,0
	c0.5,0,1,0,1.5,0.1c0.9,0.2,1.5,0.8,1.6,1.7c0.1,1-0.2,2-1.2,2.2c-2.7,0.5-2.8,2.4-2.8,4.6c0.1,12.6,0,25.2,0,37.8
	c0,2.2,0.2,2.5,2.3,3.2c1.3,0.5,1.9,1.3,1.7,2.5c-0.2,1.3-1.2,1.8-2.3,1.8c-7,0-14,0-21.1,0c-1.1,0-1.9-0.4-2.1-1.6
	c-0.2-1.3,0.3-2.3,1.5-2.6c1.8-0.4,2.4-1.5,2.4-3.2c0-5.8,0-11.6,0-17.4C240.5,54.1,240.4,53.9,240.3,53.6z"/>
<path class="st0" d="M212.4,147.8c0-1.5,0-2.9,0-4.4c0.9-0.3,1.7-0.6,2.6-0.9c2.1-0.8,3.6-2.2,3.8-4.6c0.3-2.4-0.6-4.4-2.6-5.7
	c-1.9-1.2-4-2.2-6.1-3.2c-3.2-1.6-6.6-3-9.6-5c-10.3-6.8-9.1-20.2-3-26.6c3-3.2,6.8-4.8,11-5.5c0.9-0.1,1.8-0.2,2.9-0.3
	c0,1.5,0,2.8,0,4.2c0,0.3-0.5,0.6-0.8,0.7c-2.1,0.9-3.8,2.1-4.1,4.6c-0.3,2.6,0.8,4.7,3,5.9c2.6,1.5,5.4,2.8,8.2,4.1
	c3.7,1.7,7.4,3.3,10.2,6.4c8.2,9.2,4.8,23.5-6.6,28.4C218.3,147.2,214.7,148,212.4,147.8z"/>
<path class="st0" d="M182,80.5c0-1.9,0-3.3,0-4.7c1-0.4,1.9-0.6,2.8-1c4.2-1.9,5-7,1.3-9.9c-1.6-1.2-3.5-2.1-5.3-3
	c-3.7-1.9-7.7-3.5-11.1-5.8c-10.8-7.3-8.6-22.7-0.4-28.4c3.5-2.4,7.4-3.5,11.6-3.7c0,1.6,0,3,0,4.5c-0.8,0.3-1.6,0.6-2.3,1.1
	c-3.1,1.8-3.7,6-1.1,8.4c1.5,1.4,3.3,2.4,5.1,3.4c2.9,1.5,6,2.7,8.9,4.2c7.4,3.8,11.1,10.3,10.3,17.9c-0.8,7.6-6.1,13.7-14,15.9
	C186,79.9,184.1,80.1,182,80.5z"/>
<path class="st0" d="M77.6,25.1c0,0.7,0,1.2,0,1.7c0,14.8,0,29.5,0,44.3c0,2.7,0.2,3,2.7,3.7c1.6,0.5,2.3,1.2,2.2,2.4
	c-0.1,1.1-1.2,1.9-2.7,1.9c-7.2,0-14.3,0-21.5,0c-1.1,0-2.2-0.4-2.4-1.7c-0.2-1.2,0.3-2.2,1.7-2.5c1.7-0.4,2.3-1.5,2.3-3.1
	c0-2.2,0-4.3,0-6.5c0-10.4,0-20.9,0-31.3c0-0.8-0.1-1.5-0.1-2.3c0-1.1-0.6-1.9-1.7-2.1c-0.3-0.1-0.7-0.2-1-0.4
	c-1-0.4-1.3-1.2-1.2-2.2c0.1-1,0.7-1.5,1.6-1.8c0.5-0.1,1-0.1,1.5-0.1c5.7,0,11.4,0,17.2,0C76.5,25.1,76.9,25.1,77.6,25.1z"/>
<path class="st0" d="M221.8,79.2c-3.4,0-6.8,0-10.3,0c-1.8,0-2.7-0.9-2.6-2.4c0.1-1.1,0.8-1.6,1.7-1.9c2.2-0.8,2.4-1.1,2.4-3.4
	c0-12.9,0-25.8,0-38.6c0-2.4-0.2-2.6-2.4-3.4c-1.3-0.5-1.9-1.3-1.7-2.6c0.2-1.3,1.2-1.7,2.3-1.7c7,0,14,0,21.1,0
	c1.1,0,1.9,0.5,2.1,1.7c0.2,1.2-0.3,2.1-1.5,2.5c-2.2,0.8-2.3,1-2.3,3.3c0,13,0,25.9,0,38.9c0,2.3,0.1,2.5,2.3,3.3
	c1.2,0.5,1.7,1.4,1.5,2.7c-0.2,1.2-1.1,1.6-2.2,1.6C228.8,79.2,225.3,79.2,221.8,79.2z"/>
<path class="st0" d="M19.7,25.2c5.9,0,11.7,0,17.6,0c0,0.5,0,1,0,1.6c0,14.9,0,29.7,0,44.6c0,2.3,0.3,2.8,2.6,3.4
	c1.8,0.5,2.5,1.2,2.3,2.6c-0.2,1.2-1.2,1.9-3,1.9c-6.6,0-13.2,0-19.9,0c-0.6,0-1.3,0-1.9,0c-1.6-0.1-2.5-0.8-2.6-1.9
	c-0.1-1.4,0.4-2,2.1-2.5c2.5-0.7,2.8-1.1,2.8-3.8c0-14.6,0-29.3,0-43.9C19.7,26.5,19.7,25.9,19.7,25.2z"/>
<path class="st0" d="M60,92.7c0,18.1,0,36,0,54c-0.4,0-0.7,0.1-1.1,0.1c-5.9,0-11.8,0-17.7,0c-0.9,0-2-0.5-2.5-1.1
	c-0.9-1-0.1-2.5,1.3-3.1c2.4-0.9,2.5-1.1,2.5-3.6c0-12.8,0-25.7,0-38.5c0-2.4-0.2-2.6-2.4-3.4c-1.2-0.4-1.8-1.2-1.7-2.4
	c0.1-1.3,1.1-1.8,2.2-1.8C47,92.7,53.5,92.7,60,92.7z"/>
<path class="st0" d="M80.7,51.2c0.6-0.2,1.1-0.3,1.5-0.4c1.7-0.6,2.7-1.8,2.7-3.6c0.1-4.2,0-8.4,0-12.6c0-2.4-1.1-3.9-3.4-4.6
	c-0.8-0.3-1.1-0.7-1.1-1.5c0.1-1,0-2.1,0-3.3c5.7,0.1,11.3-0.4,16.3,2.9c4.5,3,6.1,7.3,5.6,12.4c-0.5,4.9-3,8.5-7.6,10.4
	c-1.4,0.6-2.9,1.1-4.6,1.7c1.4,0.3,2.6,0.4,3.8,0.9c1.9,0.8,3.9,1.6,5.6,2.8c1.8,1.3,2.7,3.3,2.7,5.5c0,2.7,0,5.5,0.1,8.2
	c0,0.5,0.4,1,0.6,1.5c0.4-0.3,1-0.4,1.3-0.8c1.2-1.3,2-1.6,3-1c1.1,0.7,1.5,2,0.8,3.5c-2.1,4.2-5.4,6.7-10.1,7
	c-2.7,0.2-5.3,0-7.7-1.4c-3.6-2.1-4.9-5.5-4.9-9.5c0-2.8,0-5.6-0.1-8.4c-0.1-3.6-0.8-4.6-4.3-5.8C80.7,53.9,80.7,52.6,80.7,51.2z"/>
<path class="st0" d="M73,118.8c1.8,0.5,3.5,0.9,5.1,1.5c5.3,1.9,8.3,5.7,8.7,11.4c0.4,5.9-2,10.3-7.2,13.1c-2.3,1.2-4.7,1.8-7.2,1.9
	c-3,0.1-5.9,0-9,0c0-0.5,0-1,0-1.5c0-2.2,0-2.2,2.1-2.9c1.9-0.6,3-1.9,3-3.7c0.1-4.5,0.2-9,0-13.5c-0.1-2.1-1.6-3.5-3.7-3.9
	c-1.1-0.2-1.4-0.7-1.3-1.7c0.1-0.8,0-1.7,0-2.6c0.4-0.1,0.7-0.2,1.1-0.3c2.7-0.5,4.2-2.3,4.2-5.1c0-2.4,0-4.8,0-7.2
	c0-4.7-0.9-5.9-5.3-7.3c0-1.4,0-2.7,0-4.2c5.1-0.1,10.2-0.3,15,1.7c5.1,2.2,7.9,6.4,7.8,11.5c-0.2,5.3-3.3,9.5-8.5,11.3
	C76.1,117.9,74.6,118.3,73,118.8z"/>
<path class="st0" d="M163.6,91.6c0,0.8,0,1.4,0,2c0,1.3,0.2,2.5-1.5,3.4c-1.9,0.9-1.9,3.1-1.9,5c0,6.4,0,12.7,0,19.1
	c0,5.6,0,11.3,0,16.9c0,1.1,0.2,2.2,0.5,3.3c0.1,0.4,0.3,0.9,0.6,1c2.7,1.2,1.5,3.5,1.7,5.8c-1.3-0.2-2.4-0.3-3.4-0.6
	c-9.8-2.8-15.4-9.6-17.4-19.4c-1.7-8.2-1.1-16.3,2.8-23.8c3.4-6.7,8.8-10.9,16.2-12.5C161.8,91.6,162.6,91.7,163.6,91.6z"/>
<path class="st0" d="M166.1,147.8c0-0.9,0.1-1.6,0-2.4c-0.1-1.3,0.1-2.1,1.5-2.6c1.5-0.6,1.8-2.2,1.9-3.6c0.1-4.2,0-8.4,0-12.6
	c0-1.4-0.6-2.3-2.1-2.6c-2.2-0.5-3-1.3-2.8-2.6c0.2-1.3,1.3-1.9,3.4-1.9c5.5,0,11.1,0,16.6,0c2.1,0,3.1,1.1,2.6,2.8
	c-0.2,0.6-0.6,1.2-1.1,1.5c-1.3,0.8-1.5,1.9-1.5,3.3c0,4,0,8.1,0,12.1c0,0.5-0.2,1.2-0.5,1.5c-5,4.3-10.7,6.8-17.3,7.2
	C166.6,147.9,166.5,147.8,166.1,147.8z"/>
<path class="st0" d="M125.8,35.6c0.6,2.6,1.6,5.2,1.7,7.8c0.1,2-0.9,4-1.5,6c-1.8,6.5-3.6,13.1-5.4,19.6c-0.8,3.1-0.2,4.6,2.8,5.9
	c0.2,0.1,0.6,0.2,0.7,0.4c0.4,0.7,1.1,1.5,1.1,2.2c0.1,1-0.9,1.5-1.8,1.6c-1.5,0.1-3,0.1-4.5,0.1c-2.3,0-4.6,0.1-6.9-0.1
	c-0.8,0-1.7-0.4-2.3-0.9c-0.9-0.7-0.8-1.9,0.1-2.7c0.2-0.1,0.3-0.3,0.5-0.4c4.2-1.4,5.6-4.8,6.6-8.7c2.8-10.3,5.6-20.6,8.4-30.9
	C125.6,35.6,125.7,35.6,125.8,35.6z"/>
<path class="st0" d="M105.9,102.7c0.7,3,1.4,5.5,1.9,8.1c0.1,0.5-0.2,1.1-0.3,1.7c-2.2,8-4.4,15.9-6.6,23.9c-1,3.4,0.2,5.2,2.9,6.1
	c0.2,0.1,0.4,0.2,0.6,0.3c1,0.5,1.3,1.3,1.1,2.4c-0.2,1-1,1.5-1.8,1.5c-4,0.1-8,0.1-12,0c-1.1,0-2-0.6-2.2-1.8
	c-0.2-1.2,0.6-1.9,1.6-2.2c3.4-1.2,4.9-3.8,5.8-7.1c2.8-10.4,5.7-20.8,8.6-31.2C105.5,104,105.7,103.5,105.9,102.7z"/>
<path class="st0" d="M166.8,96c0-1.6,0-2.9,0-4.4c3.5,0.3,6.9,0.9,10.1,2.1c2.8,1.1,2.8,1.1,4.6-1.2c0.7-0.9,1.6-1.3,2.7-0.9
	c1.1,0.4,1.2,1.3,1.2,2.3c0,5.3,0,10.6,0,15.9c0,2-0.9,2.9-2.7,2.7c-1.2-0.1-1.6-1-2-1.9c-1-2.4-1.9-4.9-3.1-7.3
	C175.5,99.1,172.2,96,166.8,96z"/>
<path class="st0" d="M178.9,75.7c0,1.6,0,3,0,4.8c-2-0.5-3.9-1-5.8-1.5c-1-0.3-2-0.8-3-1.2c-1.6-0.7-2.4-0.5-3.6,0.8
	c-0.5,0.5-1,1-1.6,1.1c-1.3,0.3-2.4-0.6-2.5-2.3c-0.1-1.4,0-2.8,0-4.2c0-3.7-0.1-7.5,0-11.2c0-0.8,0.4-1.7,0.9-2.2
	c0.9-1,2.4-0.7,3,0.6c0.3,0.6,0.4,1.2,0.6,1.8c1.2,4,3.1,7.5,6.1,10.5C174.8,74.2,176.7,75.2,178.9,75.7z"/>
<path class="st0" d="M209.5,143.3c0,0.6,0,1.1,0,1.7c0,0.9,0,1.8,0,3c-1.5-0.3-3-0.4-4.3-0.9c-1.5-0.5-3-1.2-4.5-1.8
	c-1.7-0.7-2.4-0.5-3.6,0.8c-0.7,0.8-1.5,1.5-2.7,1.1c-1.2-0.4-1.4-1.5-1.4-2.5c-0.1-5-0.1-10.1-0.1-15.1c0-0.6,0.1-1.3,0.5-1.6
	c0.5-0.5,1.3-1.1,2-1c0.6,0,1.2,0.7,1.6,1.3c0.4,0.5,0.4,1.3,0.6,1.9c1,2.2,1.8,4.5,3.1,6.6C202.8,139.9,205.5,142.5,209.5,143.3z"
	/>
<path class="st0" d="M184.1,24.3c2.6,0,4.9,0.7,7.1,1.6c0.5,0.2,1.1,0.4,1.6,0.7c1.9,0.8,2.1,0.7,3.4-0.9c0.6-0.8,1.3-1.3,2.4-1.1
	c1.1,0.3,1.4,1.2,1.4,2.1c0.1,4.7,0.1,9.5,0.1,14.2c0,1.6-0.9,2.5-2.2,2.6c-1.3,0.1-2.1-0.6-2.5-2.2c-1.3-5.3-3.9-9.6-9.1-11.8
	c-2.1-0.9-2.1-0.9-2.1-3.3C184.2,25.5,184.1,25,184.1,24.3z"/>
<path class="st0" d="M214.6,91.9c3,0,5.5,0.9,8,1.9c0.6,0.2,1.2,0.6,1.8,0.6c0.6,0,1.3-0.3,1.9-0.6c0.4-0.2,0.5-0.8,0.8-1
	c0.6-0.3,1.4-0.7,2-0.6c0.5,0.1,1,0.8,1.3,1.4c0.2,0.4,0.2,1,0.2,1.4c0,4.4,0,8.7,0,13.1c0,1.7-0.7,2.7-2,2.9
	c-1.4,0.2-2.3-0.6-2.7-2.4c-1.5-5.8-4.5-10.3-10.5-12.2c-0.3-0.1-0.7-0.6-0.7-0.9C214.6,94.4,214.6,93.2,214.6,91.9z"/>
<path class="st0" d="M40.5,25.2c3.5,0,6.9,0,10.3,0c0,0.2,0.1,0.3,0.1,0.5c0,5.2,0,10.4,0,15.5c0,2-1.4,3.1-3.1,2.6
	c-1.2-0.4-1.6-1.4-1.8-2.5c-0.2-1.1-0.3-2.3-0.6-3.5c-0.7-3-1.8-5.8-4.4-7.6c-0.2-0.2-0.4-0.6-0.5-0.9C40.5,28,40.5,26.7,40.5,25.2z
	"/>
<path class="st0" d="M6,25.2c3.6,0,6.9,0,10.5,0c0,1.5,0,3,0,4.4c0,0.2-0.2,0.5-0.4,0.6c-3,2.1-4,5.3-4.7,8.6
	c-0.2,1.1-0.3,2.2-0.6,3.3c-0.4,1.3-1.4,1.9-2.7,1.7c-1.3-0.1-2-1-2-2.2C6,36.3,6,30.8,6,25.2z"/>
<path class="st0" d="M296.5,141.9c4.4,1.4,8.5,2.7,12.6,3.9c11.7,3.5,23.6,5.5,35.8,4.3c10.1-1,19.7-3.6,29.1-7.3
	c0.6-0.2,1.3-0.5,1.9-0.7c0.6-0.2,1.2-0.4,2-0.6c0.1,0.5,0.3,1.1,0.4,1.6c0,0.9-0.2,1.8,0,2.7c0.3,2.2-0.7,3.1-2.7,3.9
	c-13.6,5-27.6,8-42.1,7.8c-9.4-0.1-18.5-2.3-27.4-5.1c-2.8-0.9-5.6-1.9-8.4-2.9c-0.8-0.3-1.2-0.6-1.1-1.5
	C296.6,146,296.5,144.1,296.5,141.9z"/>
<path class="st0" d="M382,43c-20.3,6.1-40.9,8.5-62.1,6.7c-8.6-0.7-16.9-2.4-24.9-5.8c-0.4-0.2-0.7-0.3-1.2-0.4
	c0,0.5-0.1,0.9-0.1,1.2c0.2,9.1,0.3,18.1,0.5,27.2c0.5,21.7,1.1,43.4,1.6,65.1c0,1.2,0.3,2,1.5,2.3c0.3,0.1,0.7,0.3,1,0.4
	c8.2,3.7,17,5.4,25.9,6.3c14.1,1.4,28.1,1,41.8-3c3.2-0.9,6.3-2,9.4-3.2c1.6-0.6,2.3-1.8,2.4-3.8c1.1-28,2.3-56.1,3.5-84.1
	c0.1-2.9,0.4-5.7,2.1-8.2c0.1-0.2,0.2-0.4,0.4-0.9C383,42.8,382.5,42.8,382,43z M316.6,62.1c-0.2,21-0.4,42-0.7,62.9
	c0,3.1-0.2,6.2-0.3,9.5c-2.3-0.4-4.5-0.8-6.7-1.3c-2-0.4-4-0.9-6-1.2c-1.1-0.2-1.3-0.7-1.3-1.7c0-24.5,0-49,0-73.5
	c0-0.7,0-1.4,0-2.5c4.4,1.5,8.5,2.8,12.5,4.2C316.7,59.5,316.6,59.5,316.6,62.1z M344.8,138.2c-3.8,0.1-7.6,0.1-11.5,0.2
	c-1.2,0-2.3-0.1-3.5,0c-1,0.1-1.4-0.2-1.5-1.3c-0.1-3.3-0.3-6.7-0.4-10c-0.8-21.9-1.5-43.8-2.3-65.6c0-1.2,0.3-1.6,1.4-1.6
	c5-0.2,10.1-0.4,15.1-0.7c0.4,0,0.7,0.1,1.1,0.1c1,0,1.4,0.4,1.4,1.5c0.1,12.7,0.3,25.3,0.4,33.1c0.5,17.4,0.8,30,1.2,42.6
	C346.4,137.7,346,138.2,344.8,138.2z M370.8,131.1c-3.7,1.1-7.3,2.4-10.9,3.5c-0.5,0.2-1,0.3-1.6,0.5c-0.1-0.3-0.1-0.5-0.1-0.7
	c0.4-15.6-0.7-31.1-1.6-46.6c-0.5-8.8-0.8-17.5-1.2-26.3c-0.1-1,0.3-1.5,1.3-1.8c4.1-1.2,8.3-2.5,12.4-3.8c0.6-0.2,1.2-0.2,2-0.4
	c0,0.8,0,1.2,0,1.7c0.2,19.4,0.3,38.8,0.5,58.2c0,4.6,0.3,9.2,0.6,13.8C372.1,130.3,371.9,130.7,370.8,131.1z"/>
<path class="st0" d="M342.7,36.8c-6.7-0.3-13.4-0.3-20-1.8c-2.7-0.6-5.3-1.9-7.9-2.9c-0.4-0.2-0.8-0.9-0.9-1.5
	c-0.1-0.9,0.1-1.2,1.2-0.9c2.9,0.8,6,1.4,9,1.8c10.5,1.5,21.1,1.1,31.7,1c0.8,0,1.6-0.3,2.4-0.2c0.7,0.1,1.8,0.6,1.9,1.1
	c0.1,0.7-0.3,1.9-0.9,2.3c-1,0.6-2.4,1-3.6,1C351.4,36.9,347.1,36.8,342.7,36.8z"/>
<path class="st0" d="M322.3,24.8c-1.7-0.4-2.4-1.6-2.2-2.9c0.4-2.3,1-4.5,1.6-6.7c0.1-0.2,0.6-0.5,0.9-0.5c11.3,0,22.7,0,34,0
	c0.3,0,0.8,0.3,0.9,0.6c0.9,1.8,1.6,3.6,2.5,5.4c0.7,1.4,1.4,2.8,0.8,4.5c-1.5,0-2.3-0.9-2.8-2.1c-0.5-1.3-0.9-2.7-1.3-4.1
	c-0.2-0.7-0.6-1-1.3-1c-8.1-0.2-16.2-0.4-24.3-0.6c-1.7,0-3.4,0.1-5.1-0.1c-1.4-0.1-2.1,0.5-2.3,1.8c-0.3,1.4-0.6,2.7-0.9,4.1
	C322.7,23.8,322.5,24.3,322.3,24.8z"/>
<path class="st0" d="M337,28.3c-2.2-0.2-4.5-0.3-6.7-0.5c-0.5,0-1.3-0.4-1.3-0.7c-0.1-0.6,0.1-1.5,0.5-1.8c0.8-0.6,1.8-1.1,2.7-1
	c5.5,0.2,10.9-0.7,16.4-1.1c1.3-0.1,2.6,0.1,3.9,0.4c0.7,0.2,1.4,0.7,1.8,1.3c0.7,0.9,0.2,2.1-0.8,2.1c-5.5,0.4-11,0.7-16.4,1.1
	C337,28.2,337,28.3,337,28.3z"/>
</svg>
