<?xml version="1.0" encoding="utf-8"?>
<!-- Generator: Adobe Illustrator 19.2.1, SVG Export Plug-In . SVG Version: 6.00 Build 0)  -->
<svg version="1.1" xmlns="http://www.w3.org/2000/svg" xmlns:xlink="http://www.w3.org/1999/xlink" x="0px" y="0px"
	 viewBox="0 0 1821.2 673.1" style="enable-background:new 0 0 1821.2 673.1;" xml:space="preserve">
<style type="text/css">
	.st0{fill:#133D8D;}
	.st1{fill:#7D84B9;}
	.st2{fill:#233065;}
</style>
<g id="Layer_1">
	<g id="CENTER_PANEL">
	</g>
</g>
<g id="CENTER_PANEL_1_">
	<g>
		<g>
			<path class="st0" d="M1702.7,343.2c9.1,1.9,14.9,11.2,13,20.9c-2,9.8-10.7,15.9-19.9,13.9c-9.1-2-15-11.2-13.1-21
				C1684.6,347.4,1693.5,341.3,1702.7,343.2L1702.7,343.2z M1702.1,345.9c-7.4-1.6-14.7,3.7-16.3,11.8c-1.6,8.2,3.1,16,10.5,17.6
				c7.4,1.7,14.6-3.6,16.3-11.8C1714.3,355.3,1709.6,347.5,1702.1,345.9L1702.1,345.9z M1694.1,370l-3-0.6l3.8-19.4
				c1.6,0.1,3.1,0.2,5.4,0.6c2.8,0.6,4.6,1.6,5.5,2.7c1,1.1,1.3,2.5,0.9,4.4c-0.5,2.5-2.4,3.7-4.6,3.9l0,0.2
				c1.6,0.7,2.4,2.4,2.2,5.4c-0.1,3.1,0.1,4.3,0.2,5l-3.1-0.7c-0.3-0.7-0.4-2.6-0.3-5.2c0-2.6-1-3.7-3.3-4.3l-2.1-0.4L1694.1,370z
				 M1696.2,359.3l2.1,0.4c2.5,0.5,4.7,0,5.2-2.3c0.3-1.7-0.5-3.7-3.8-4.4c-1-0.2-1.6-0.3-2.2-0.3L1696.2,359.3z"/>
			<path class="st0" d="M90.8,327.7c-1.5-2.9-2.8-5.5-3.9-8.5c-1.9-5.4-1.9-8.6-0.6-11.8c2.8-5.7,9.2-7.1,18.5-10.7
				c4-1.3,7.9-3,11.7-4.6c12-5.2,23.5-11.5,35.8-16.8c5.3-2.3,10.6-4.6,16-6.5c6.3-2.7,12.6-4.6,18.8-7.7c3.5-1.5,7.2-3.6,10.6-5.5
				c1.4-0.6,9.5-6.3,16.9,0.7c5.2,5.3,8.4,22.2,15.7,40c1,2.7,2.3,5.2,3.3,7.9c1.3,3.5,4.4,13.2-6.5,18c-3.2,1.4-6.5,2.4-10,3.9
				c-1.4,0.6-6.2,1.8-8,8.4c-1.2,4.5,0,10.2,2.8,17.9c1.8,5,4,9.9,6,14.3c2.5,6.9,5.4,13.7,7.9,20.6c6,16.5,10.8,33.2,17.1,49.6
				c4.2,11.6,8.9,22.4,13.1,34c2.7,8.6,5.6,17.6,9,25.9c1.8,5,4,9.9,6.1,14.7c1.5,2.9,3.1,6.2,4.3,9.7c1.7,4.6,2,6.7,0.7,9.9
				c-2,6.7-8.3,8.5-9,8.8c-3.9,1.7-7.5,2.8-11.5,4.1c-4.9,2.1-10.4,4-15.6,6.3c-9.5,4.1-16.4,8.9-20.6,8.4c-4.9-0.1-8.5-5.6-8.8-6.4
				c-3-4.9-10.5-32.4-12.1-37.9c-4.2-11.5-9.4-22.6-13.6-34.2c-4.6-12.7-7.3-25.8-11.9-38.5c-1.7-4.6-3.8-9.5-5.8-13.9
				c-2.3-5.2-4.7-10.9-6.7-16.2c-3.5-9.6-6.1-19.2-9.1-28.5c-1.8-5-4.4-15.5-12.1-18.8c-5.1-1.8-9-0.1-12.9,1.6
				c-8.1,3.5-11.6,6.3-17.2,4.3c-6.4-2.1-7.3-10.2-9.2-16.5L90.8,327.7z"/>
			<path class="st0" d="M394.1,441.8c-0.4,9-0.4,18-0.9,26.7c0,5.8-0.6,11.1-0.3,16.8c-0.2,0.8,0.3,5.7-1.5,9
				c-3.3,5.6-7.7,5.2-11.7,6.4c-4.8,0.9-9.4,2.2-14.4,3.6c-11,3.1-16.4,5.8-22,4.6c-1.4,0-3.8-0.9-6.3-4.1
				c-5.5-7-16.7-37.7-20.3-45.6c-5.1-11-11.1-21.7-17-32.9c-4.6-8.8-8.8-17.8-12.7-26.8c-3-6.9-5.8-14.3-9.3-21.5
				c-4-7.8-8.9-15.4-13-23.6c-4.4-8.1-7.5-16.9-10.9-25.3c-4.9-11.8-10.1-23.6-15-35.4c-2-5.3-4.2-10.1-5.5-15.9
				c-0.2-0.7-0.9-4,0-7.4c1.7-5.1,4.7-5.9,11.3-7.8c8-2.2,15.9-3.3,23.6-5.4c2.9-1.2,5.8-2.4,8.8-3.2c0.9-0.6,6.7-3.1,12.4,1.2
				c1.3,1.2,2.3,2.4,3.8,5.5c3.5,5.6,5.4,12.5,8,18.8c4.4,11.2,9.1,22.3,14.4,32.9c4.5,8.5,8.9,16.6,13.2,24.7
				c3.6,7.6,7,14.7,10.2,22.4c2.7,5.5,5.3,10.6,7.9,16.8c0.8,1.7,1.5,3.4,3.2,3c2.3-0.6,1.4-3.1,1.4-7.8c0.1-4.3,0.2-8.2-0.1-12.4
				c0-10.9,0.2-21.8,0.1-33.1c-4.4-8.1-8.8-16.2-12.6-24.8c-2.4-5.6-4.5-11.6-7.2-17c-0.8-2.1-1.8-4.6-2.9-6.6
				c-5.6-11.7-8.2-16.7-9.6-22.9c-1.4-5.8,0.4-10.2,3.1-12.5c3.8-3.4,18.5-4.4,32-9c4-1.1,7.9-2.6,11.9-3.7c0,0,7.2-2.4,11.4,1.5
				c3.3,3.4,4.6,8.9,7,17.9c1.2,3.6,1.9,6.8,3.1,10.4c4.9,13.4,10.9,26.9,16.5,40.1c4.6,10.4,8.4,20.6,12,31.3
				c1.8,4.6,3,9.7,4.4,14.3c1.1,3.2,2.5,6.3,3.6,9.5c0.1,0.4,0.4,1.8,1,2.8c1,1.2,2.5,3.2,3.5,2.9c0.9-0.7,1.5-2.7,1.8-4.4
				c0.2-3.5-1.3-11.7-2.1-21.2c-0.7-10.7-0.8-21.6-1.5-32.2c-1.1-9.4-2.6-18.7-3.4-28.2c-0.6-7.2-0.3-15-1-22.6
				c-0.7-6-2.1-11.9-3.1-17.8c-1.4-5.8-1.8-9.2-1.5-12.4c1.3-8.2,7.5-9.1,8.8-9.5c3.3-0.9,6.7-1.9,10.1-2.4
				c3.8-0.7,7.6-0.9,11.6-2.1c6-1.7,18.5-7.5,25.4-6.7c5.1,0.5,7.6,3.7,8.6,7.7c1,4.4,0.8,15.4,0.8,20c0.3,10.4,0.6,20.8,1.2,31.1
				c0.5,5.3,1.2,11.3,1.9,17c0.4,6.5,0.6,13.1,0.7,19.6c0.3,5.7,0.5,11.2,0.3,16.6c0,7.4-0.3,15.2-0.4,22.6
				c-0.2,8.2-0.3,16.8-0.2,24.9c0.1,5,0,10.5,0.4,15.4c0.4,4.6,1,9,1.1,13.7c0.3,4.2-0.1,8.6-0.3,12.5c-0.2,6.7-0.1,13.2,0,19.8
				c0.1,10.8,0.7,21.2-0.3,31.9c-0.6,6.4-0.6,9.5-1.6,12.9c-2.5,6.1-6.9,7-10.6,8c-11.7,3.3-23.7,5.1-35,9.8
				c-0.7,0.2-5.7,2.8-10.2-1c-3-2.3-4.3-7.7-5.7-10.8c-1.6-3.8-3.5-7.2-5.3-10.6c-1.4-3.1-3-6.5-4.4-9.6c-3.3-8-6.6-16-10.5-23.5
				c-0.6-1-4.2-7.4-6.9-6.6c-0.3,0.1-0.9,0.6-1.2,1.1c-2.1,2.9-1.9,7.1-2.1,10.7L394.1,441.8z"/>
			<path class="st0" d="M568.1,242.5c2.1,14.1,3.8,28.3,6.3,42.4c1,6.7,2.3,12.9,2.9,19.7c0.9,5.9,1.1,12,2,18l2.8,19
				c1.9,13,5.2,25.8,7.1,38.8c1.4,9.3,1.7,18.8,3.2,28.4c0.8,5.6,2,11.1,3.2,16.6c0.9,3.7,1.5,7.8,2.4,11.4l0.5,3
				c0.1,0.8,0.7,7.5-4.8,10c-4.5,2.7-9.2,1.6-18.7,3.3c-5.1,0.9-10.1,2.5-14.8,3.7l-8.1,1.5c-2.4,0.4-6.5,1.1-8.6,0.4
				c-2.9-0.6-6.1-3.1-7.2-6.4c-0.1-0.7-1.6-8.1-1.7-8.8c-0.9-6.3-2.2-12.2-2.7-18.2c-0.6-6.8-1-13.6-2-20.3
				c-1.2-8.2-2.7-16.3-3.6-24.5c-0.8-5.2-1.5-10.4-2.6-15.6c-1.2-5.9-2.4-11.8-3.3-17.7c-1.9-13-3.5-26.1-5.8-39.4l-2.2-14.9
				c-1.7-11.2-2.7-22.8-4-34l-5.2-35.3c-0.7-2.2-1-4.4-1.7-6.6c-0.3-2.2-1-4.4-1.3-6.6c-0.9-6.3,2.2-10.7,4.8-12.3
				c1.2-1,2.3-1.1,5-1.6c8.5-1.5,16.7-2.6,24.9-4c5.4-1,10.5-1.9,15.9-3.2c1-0.6,4.6-2,8.2,1.2c2.1,2.3,3.5,5.1,4.4,10.7
				c0.4,3,0.5,6,0.6,9c0.5,3.3,0.7,7.1,1.2,10.5L568.1,242.5z"/>
			<path class="st0" d="M677,169.1c5.2-0.2,10-0.7,15.2-0.6c9.7,0.4,14.7,2.2,18,7.8c1.7,3.2,1.3,7,2,13.8
				c0.2,5.7,0.4,11.7,0.9,17.3c0.3,3.7,1,7.1,1.3,10.4c0.1,1.1,1.2,5.9-0.5,9.9c-2.7,8.3-9.6,8.6-11.3,8.8
				c-6.2,0.7-9.8-1.5-16.5-2.3c-5.6-0.9-9.7-0.5-11.8-0.2c-6.9,0.8-10.2,2.3-12.5,6.7c-1.2,2.4-1.7,4.3-1.3,8.4
				c0.1,1.5,0.5,5.6,3.3,9.5c1.2,2.1,6.9,7.6,8.8,9.6c3.7,3,9,7.3,13.5,10.6c3.8,3,7.2,6.4,10.9,9.4c2.2,1.7,4.1,3.3,6.3,5
				c1.9,1.3,3.5,3.4,4.9,4.4c1.9,2.1,4.9,4.4,7.2,6.8c2.3,2,3.8,4.1,5.4,6.2c8.5,10,15.1,20.7,17.2,43.5c2.6,28.1,1.2,42.3-7.8,56.9
				c-6.4,9.8-12.5,14.6-15.4,16.9c-9.7,7.5-16,10.5-34.3,14.4c-6.5,1.5-12.6,2.5-19.1,3.3c-17.1,1.9-35.6,0.2-41-1.9
				c-3.9-1.4-8.4-4.4-9.8-8.4c-0.5-1.5-0.7-3.3-0.8-4.8c-0.7-7.9-0.8-15.4-1.5-23.3c-1.4-14.6-4.2-23-0.3-29.5
				c3.3-5.6,7.4-5.7,9.1-5.9c6.9-0.8,9.7,0.4,13.8,3.4c4.5,3.3,4.9,4.4,7.4,5.6c2.9,0.8,9.2,2,16.1,1.2c7.5-0.8,13.2-3.4,16-6.3
				c3.1-3.7,3-8.6,2.9-9.8c-0.2-2.2-0.8-5.2-4-9.4c-5.9-8-13.2-11.8-26.5-23.9c-2.3-2-5.3-4.7-7.9-7.4c-9.8-8.4-24.1-17-33.4-38.7
				c-2.7-6.9-4-13.6-5.4-27.8c-2.7-29.2,0.9-45.9,10.7-60.2c3.3-4.9,4.6-6.2,6.5-8.3c7.6-7.7,23.5-15.8,44.6-19L677,169.1z"/>
			<path class="st0" d="M728.8,188.7c-0.4-3-0.9-5.6-1-8.6c-0.2-5.3,0.7-7.9,2.7-10.3c4-3.9,9.9-3.1,18.8-3.1
				c3.8,0.2,7.6,0.1,11.4-0.1c11.7-0.5,23.4-2.2,35.4-2.7c5.2-0.2,10.3-0.5,15.5-0.3c6.2-0.3,12.1,0.2,18.3-0.4
				c3.4-0.1,7.2-0.7,10.6-1.2c1.4-0.1,9.9-2.3,14.4,6.1c3,6.3,1.1,21.8,2.5,39.5c0.1,2.6,0.5,5.2,0.6,7.9
				c0.1,3.4,0.1,12.8-10.6,13.3c-3.1,0.1-6.2-0.1-9.6,0c-1.4,0.1-5.9-0.5-9.1,4.5c-2.3,3.5-2.8,8.8-2.5,16.3
				c0.2,4.9,0.7,9.8,1.2,14.3c0.2,6.8,0.8,13.5,1.1,20.3c0.6,16.2,0.1,32,1.1,48.2c0.4,11.3,1.5,22.2,1.9,33.4
				c-0.1,8.3-0.1,17,0.6,25.2c0.2,4.9,0.7,9.8,1.2,14.7c0.5,3,0.9,6.4,1.1,9.7c0.2,4.5-0.1,6.4-2.1,8.7c-3.6,5.1-9.5,4.6-10.2,4.6
				c-3.8,0.2-7.2-0.1-11-0.3c-4.8,0.2-10,0-15.2,0.3c-9.3,0.4-16.5,2.2-20,0.5c-4.2-1.7-5.8-7.7-5.8-8.4c-1.2-5.2-0.1-31.3,0-36.6
				c-0.4-11.3-1.8-22.5-2.3-33.8c-0.5-12.4,0.8-24.5,0.4-37c-0.2-4.5-0.7-9.4-1.2-13.9c-0.6-5.2-1.1-10.9-1.3-16.1
				c-0.3-9.4,0-18.5,0-27.5c-0.2-4.9,0.5-14.7-5.2-20.1c-3.9-3.2-7.7-3.1-11.5-2.9c-7.9,0.4-11.7,1.7-15.9-1.9
				c-5-3.9-3.5-11.2-3.4-17.2L728.8,188.7z"/>
			<path class="st0" d="M898,428c-3.4-0.1-6.5-0.2-10,0.1c-5.2,0.3-7.9,0.2-10.3-1c-3.4-1.6-8.5-5.9-8.3-14.2
				c0.1-3.4,0.5-6.8,0.9-10.5c0.5-5.6,0.6-11.7,0.7-17.7c0.1-5.6,0.2-10.9,0-16.6c0.1-3.4-0.2-7.2,0.2-10.5
				c0.4-4.1,0.9-8.6,1.3-12.8c0.1-6.4-0.4-12.8-0.3-19.6c0.3-12,1.5-24.1,1.5-36.1c0.2-10.5-0.3-20.7,0-31.3
				c0.2-12.4,1.2-25.2,1.5-37.6c0.1-5.7,0.3-11.7,0-17.7c0-15.4-0.1-29,2.8-34.6c3.2-5.9,8.4-6.6,12.6-6.8c2.4-0.3,4.8-0.3,9.6,0.2
				c3.4,0.5,6.9,0.9,10.3,1c7.2,0.6,14.1,0.4,21.4,0.5c6.5,0.2,13.1,0.7,19.6,1.2c3.8,0.1,7.2,0.6,11,0.6c3.8-0.3,7.6-0.6,11.4-0.5
				c3.5-0.3,6.9,0.2,10.3,0.3c4.1-0.3,8.3-1.3,12.4,0.7c4.4,2.4,5.7,6.9,5.6,11.1c-0.1,7.1-1.3,14.3-1.5,21.4
				c-0.2,9.4,0.4,14-0.7,18.1c-1.8,6-5.3,7-7.4,7.7c-4.8,1.4-5.2,1-10.4,0.9c-4.1-0.1-8.3,0.5-12.4,0.1c-4.1-0.1-8.6-1.3-12.7-1.4
				c-3.1-0.1-6.2,0.2-9.3,0.5c-3.8,0.7-5.2,1.4-7.3,2.8c-3.5,3.3-3.9,5.6-4,9.3c-0.1,5.3-0.6,10.2,0.4,15.1c0.3,1.5,2.2,8.7,8,10.4
				c3.8,1.2,5.2,0.1,11.7-0.1c5.2-0.3,10.7,1,15.8,1.1c4.5,0.1,13.8-0.8,18.2,1.2c3.1,1.6,5.1,5,5.7,8c1,4.5-0.2,11.3-0.5,21.8
				c-0.1,4.5-0.2,9.4,0,13.9c0,1.1,0.5,7.2-2.7,11.6c-3.2,4.4-5.6,5.5-12.2,5.3c-3.8-0.1-7.2-0.5-10.6-1c-5.8-0.5-11.7-1-17.5-1.2
				c-5.5-0.1-7.6,0.2-10.4,1.2c-1,0.4-4.5,2.2-6.3,6.6c-1.1,3-1.5,7.1-1.7,14.3c-0.1,6.4-1.4,14.6,4.1,19.3
				c5.1,4.3,14.8,3.4,19.2,3.9c5.1,0.5,10.6,1.8,15.8,1.9c2.8,0.1,5.2,0.1,7.9-0.2c2.1-0.3,4.5-0.6,6.9-0.6
				c3.1,0.1,12.7,2.6,12.4,14.3c-0.1,2.6-0.5,4.9-0.5,7.5c-0.4,3-0.5,6.4-0.5,9.8c-0.1,4.5-0.2,9.4,0.1,13.9
				c-0.2,7.1-0.9,10.5-4.4,13.4c-5.6,5.5-8.7,3.2-18.7,2.9c-5.5-0.5-11,0.1-16.5-0.4c-5.2-0.1-10.3-0.6-15.5-1.2
				c-6.6-0.2-13.4,0.4-20-0.1c-5.2-0.1-10-0.6-15.2-0.4L898,428z"/>
			<path class="st0" d="M1103.9,238.5c9.3,0.3,13.7,9.5,15.3,13.8c1.1,3.2,1.5,5.9,2.4,12c0.6,4.2,1,8.4,0.9,12.6
				c0.3,4.6,0.2,9.1,0.1,13.6c-0.4,7.5-0.4,15.1-1,22.6c-0.9,9.7-3.2,19.3-5.5,29.3c-4,17.3-4.2,26.8-13.5,33.7
				c-4.1,3-7.8,2.5-8.9,2.4c-5.1-0.6-8.3-4.3-9-7c-2.3-5.6-1.1-14.5,0.5-27.6c0.9-5.6,0.7-11.3,0.9-16.9c0.3-10.9,2.4-21.7,3.4-32.5
				c0.5-5.6,1.1-11.6,1.3-17.7c0.3-7.2,0.6-14.3,1.3-21.4c0.7-7.5,1.3-10.8,5.1-14.2C1099.3,239.2,1101.4,238.7,1103.9,238.5z
				 M1103,173.8c-8.3-0.5-16.2-1.1-24.4-2c-5.5-0.6-11.3-1.3-16.8-2.2c-8.2-0.9-18.6-4.7-23.3,9.1c-1.4,3.6-1.8,8.1-1.9,9.6
				c-1,10.5-0.9,20.7-1.9,31.2c-1.1,11.6-2.9,23.5-4,35.1c-1,10.9-1.4,22.2-2.1,33.1c-0.6,10.2-2.6,20.5-3.6,31
				c-1,11.2-1.7,22.5-2.4,33.4c-0.5,8.7-0.5,17-1.3,25.6c-0.6,6.4-1.8,12.3-2.8,18.6c-0.6,2.6-0.5,5.6-1.1,8.2
				c-0.3,3-0.9,6.3-1.2,9.3c-0.5,5.2,0.6,8.8,1.4,10.8c2.8,7.1,7.9,8,17.9,9.1c8.9,1,18,0.1,26.6,1.1c6.2,0.7,12.3,2.1,18.4,2.8
				c15.8,1.8,26.2,1,33.3-0.8c7.1-1.8,17.6-6.4,25.4-12.7c3-2.3,5.7-5.1,10.7-10.5c31.6-34.7,36.4-86.4,37-93.1
				c2-21.7,2.3-53.9-3-76.4c-3.4-15.9-8.8-27.8-19-41.1c-7.1-9.1-12.3-13.1-15.8-15.8C1132.3,174.7,1105.8,173.7,1103,173.8z"/>
			<path class="st0" d="M1233.2,187.6c0.2-3.4,0.3-6.3,0.9-9.5c1-5.7,2.6-8.3,5.3-10.3c5.2-3.1,11.3-0.6,20.9,1.9
				c4,1.3,8.1,2.1,12.2,3c12.7,2.7,25.5,4.1,38.5,6.8c5.6,1.2,11.2,2.4,16.6,3.9c6.7,1.4,12.9,3.6,19.6,4.6
				c3.7,0.8,7.9,1.3,11.7,1.6c1.5,0.3,11.1,0.2,13.9,10.5c1.8,7.5-3.8,23.7-6.4,42.9c-0.5,2.8-0.6,5.7-1.1,8.6
				c-0.6,3.6-2.8,13.7-14.3,11.3c-3.4-0.7-6.6-1.8-10.3-2.6c-1.5-0.3-6.2-2.1-10.8,2.4c-3.3,3.1-5,8.6-6.4,16.8
				c-0.9,5.3-1.5,10.6-2,15.6c-1.3,7.3-2.2,14.7-3.5,22c-3.1,17.5-7.2,34.3-9.9,51.9c-2.2,12.2-3.5,24.1-5.7,36.3
				c-1.9,8.9-4,18.1-5.2,27.2c-0.9,5.3-1.5,10.6-2,16c-0.2,3.3-0.5,7.1-1.1,10.7c-0.9,4.9-1.6,6.8-4.3,8.8c-5,4.4-11.2,2.3-11.9,2.1
				c-4.1-0.9-7.7-2-11.7-3.3c-5.2-1.1-10.7-2.7-16.3-3.8c-10.1-2.1-18.2-2.1-21.5-4.9c-4.1-3-4.4-9.8-4.3-10.6
				c-0.1-5.9,7.1-33.5,8.4-39.1c2.2-12.2,3.2-24.6,5.4-36.8c2.4-13.4,6.5-26,8.9-39.4c0.9-4.9,1.4-10.2,1.9-15.2
				c0.6-5.8,1.3-12,2.4-17.6c1.8-10.2,4.3-19.8,6.3-29.4c0.9-5.3,3.9-15.6-0.9-23c-3.5-4.5-7.5-5.4-11.6-6.2
				c-8.6-1.8-12.9-1.5-16.6-6.4c-4.4-5.6-1.2-12.9,0.3-19.3L1233.2,187.6z"/>
			<path class="st0" d="M1350.8,488.7c-3.3-1-6.3-1.9-9.7-2.6c-5.1-1.1-7.7-2-9.8-3.8c-2.9-2.5-6.9-7.9-4.9-15.9
				c0.8-3.3,2-6.4,3.3-10c1.7-5.3,3.2-11.1,4.7-16.9c1.4-5.4,2.7-10.5,3.7-16.1c0.8-3.3,1.4-7,2.6-10.2c1.4-3.9,2.8-8.2,4.1-12
				c1.6-6.1,2.5-12.5,4.1-19c2.9-11.6,6.9-22.9,9.5-34.6c2.6-10.2,4.4-20.2,7-30.3c3.1-12,6.8-24.1,9.9-36.1
				c1.4-5.5,2.9-11.2,4-17.2c3.5-15,6.4-28.1,10.5-32.7c4.5-4.9,9.6-4.1,13.7-3.3c2.4,0.3,4.7,1,9.3,2.8c3.2,1.4,6.4,2.7,9.8,3.8
				c6.9,2.5,13.6,4.1,20.6,6.2c6.3,1.9,12.5,4.2,18.7,6.5c3.7,1.1,6.9,2.5,10.5,3.6c3.7,0.8,7.5,1.5,11.1,2.6c3.4,0.7,6.6,2,10,3
				c4.1,0.8,8.3,0.9,11.9,4c3.8,3.5,4,8.2,3,12.2c-1.8,6.9-4.5,13.5-6.3,20.4c-2.3,9.1-2.7,13.6-4.7,17.3c-3.1,5.3-6.7,5.4-8.9,5.5
				c-5,0-5.2-0.4-10.2-2c-4-1.2-8.2-1.7-12-3.3c-4-1.2-8-3.6-12-4.8c-3-0.9-6.1-1.5-9.1-2c-3.8-0.4-5.3-0.1-7.7,0.8
				c-4.1,2.3-5,4.3-6,8c-1.3,5.1-2.8,9.7-3,14.7c0,1.5,0.2,9.1,5.5,12.2c3.4,2.2,5,1.5,11.4,3c5.1,1.2,10.1,3.8,15.1,5.4
				c4.3,1.3,13.5,2.9,17.4,6.1c2.6,2.4,3.8,6.2,3.7,9.3c-0.1,4.7-2.8,10.9-5.4,21.1c-1.1,4.3-2.3,9.1-3.1,13.5
				c-0.3,1.1-1.1,7.1-5.2,10.5c-4.1,3.4-6.7,3.8-13,1.9c-3.6-1.1-6.9-2.5-10.1-3.9c-5.6-2.1-11.1-4.1-16.7-5.8
				c-5.3-1.6-7.4-1.9-10.3-1.6c-1.1,0.1-4.9,0.9-7.6,4.7c-1.7,2.6-3.1,6.5-4.8,13.4c-1.6,6.2-4.6,13.9-0.4,19.8
				c4,5.5,13.5,7.2,17.8,8.9c4.9,1.9,9.9,4.6,14.9,6.1c2.7,0.8,5,1.5,7.7,1.9c2.1,0.2,4.5,0.6,6.8,1.3c3,0.9,11.7,5.9,8.8,17.2
				c-0.6,2.5-1.5,4.6-2.2,7.2c-1.1,2.8-1.9,6.1-2.7,9.3c-1.1,4.3-2.3,9.1-3.1,13.5c-1.7,6.9-3.2,10-7.3,11.9
				c-6.7,3.8-9.1,0.7-18.8-2.2c-5.2-2-10.7-2.9-15.9-4.8c-5-1.5-9.9-3.4-14.7-5.3c-6.3-1.9-13.1-3.2-19.3-5.5
				c-5-1.5-9.5-3.3-14.6-4.4L1350.8,488.7z"/>
			<path class="st0" d="M1591,375.2c0.9,0.4,2.2,2.2,2.1,5.4c-0.3,2.7-1.2,5.2-1.7,7.8c-0.7,2.9-1.5,6.2-2.2,9.1
				c-1.3,6.7-2.5,13.1-3.8,19.4c-1.6,6.5-3.3,13.1-5.3,19.6c-0.6,1.8-1.1,4-1.9,6.1c-1.4,3.8-3.1,5.5-5,6.7
				c-4.5,3.3-8.3,1.3-12.1-0.4c-4.2-1.8-6.2-4.3-6.6-7.3c-0.5-1.8,0-5.3,1.6-9.5c2-5.6,5.2-10.3,7.8-15.2c2.9-4.8,5.3-10.3,8.1-15.1
				c1.1-2,2.2-3.9,3.6-5.7c1-1.6,1.8-2.9,2.6-4.1c1.1-1.9,7.2-12.6,8.9-14.3C1589.1,375.5,1590.4,374.9,1591,375.2z M1482.5,531.3
				c4.5,2,8.5,4.1,12.7,5.9c3.2,1.4,6.8,2.6,10.9-0.5c3.2-2.7,4.3-6.6,5.7-9.3c1-2.8,8.2-19.5,10.5-21.7c1.9-2,4.2-2.3,8.8-0.6
				c4.3,1.4,8.3,3.6,12.8,5.6c4.5,2,9.9,4.3,10.8,5.1c3.7,2.9,2.2,9.1,1.7,11.7c-1.1,4.8-2.4,9.5-3.6,13.8
				c-2.4,8.7-4.8,11.3-2.4,16.8c1.3,3.4,3.8,4.9,6.3,6c4.8,2.1,9.4,3.7,14.3,5.4c5.8,2.5,11.7,5.5,17.3,8.4c3.5,1.5,7.9,3.8,8.5,4.1
				c4.1,1,8.9-3,9.6-3.9c2.9-2.8,3.9-5.6,4.4-7c1.8-4.9,1.9-7.3,3.2-16.9c1.8-11,3.7-22.3,5.9-33.5c1.3-7.5,3-15.3,4.9-22.6
				c2.3-8.3,4.9-16.5,6.9-25c1.3-6.7,2.5-13.9,3.6-21.1c2.6-16.3,5.2-32.6,8.3-48.2c1.5-7.1,2.8-13.8,4.7-21.1
				c0.9-4.5,2.1-8.8,3.1-13.6c1.3-5.5,1.9-11.3,2.8-16.6c2.2-11.2,4.3-20,2.5-25.3c-1.9-6.1-5.3-7.9-13.4-11.1
				c-7.7-3.4-15.2-6.2-22.8-9.6c-5.5-2.4-11.1-5.2-16.4-8c-5.3-2.7-10.5-5.8-16.1-7.8c-3.3-1.1-7.1-2.7-11.5-1
				c-3,1.1-4.9,2.3-8.4,6.9c-3.9,5.6-7.2,10.6-10.3,16.2c-5.9,10-10.9,20.8-16.5,30.9c-5.3,9.4-11.6,18.4-16.9,27.9
				c-3.5,6.6-6.6,13-9.6,19.3c-4.9,9.2-10.5,17.7-15.4,26.9c-5.5,10.1-10.3,20.2-15.8,30c-3.1,5.5-6.2,11-9.2,16.2
				c-5.1,8.7-9.8,17.6-14.8,26.4c-1.6,3.4-3.6,6.9-5.6,10.2c-1.1,1.9-2.6,4.1-3.4,6.2c-1,2.8-0.8,7.4,1.5,10
				c3.2,3.4,9.7,5.9,18.5,9.3L1482.5,531.3z"/>
			<path class="st1" d="M202.5,458.1c-3.1-15.1-9.6-32.2-14.7-47.1c-5-14.9-8.8-34.1-8.8-34.1c-2.2-6.9-6.9-21.4-20.3-27.4l-0.5-0.2
				l-0.5-0.2c-2.8-1-5.5-1.5-7.9-1.7c9,6.9,12.7,17.9,14.7,23.6l0.8,2.4l2.9,9.5l5.9,18.3l6.2,15.1c-0.1-0.2,6.3,15.1,6.3,15.1
				c2.5,7,4.5,13.9,6.3,20.6c1.8,6.3,3.5,12.2,5.5,17.9l6.5,16.3l7.5,18.8l0,0.3l0.9,3.3c4.1,14.4,6.5,22.3,8,26.5
				c0,0-2.8-19.8-5.9-33C212.4,488.9,205.7,473.3,202.5,458.1z"/>
			<path class="st1" d="M431.2,431c-1.1-3-0.8-5.2-4.3-10.7c-4.8-7.1-9.8-10.2-14.3-11.1c1.4,1.7,2.7,3.6,4,5.8l0.2,0.4l0.3,0.5
				c4.2,8.1,7.7,16.5,11,24.6c0.3,0.7,4.2,9.3,4.2,9.3l-0.6-1.1c0,0,5.8,11.6,6.1,12.1c0.1,0.2,0.2,0.6,0.4,1.1
				c0,0-0.1-4.9-2.6-13.3C433.1,440.4,432.3,434.1,431.2,431z"/>
			<path class="st1" d="M192,274c-0.8,0.3-12.3,5.2-12.3,5.2l-7.9,3.1l-14.9,6c-0.1,0-35.9,16.9-35.9,16.9l-13.3,5.2l1-0.3l-4.6,1.7
				c-0.6,0.2-1.3,0.5-2,0.7c0.5,1.1,1,2.1,1,2.1l0.9,1.9l10,27.5c0,0,0.5,2,0.9,3.2c0,0,2.2-3.7,2.2-6.9c0-3-0.3-8.8,0.7-14.2
				c1-5.4,0-8.5,0-8.5s11.9-5.4,25.7-13.7c12.5-7.5,20.4-11.5,28.4-16.2c8-4.6,19.4-9.7,31-19.3C201.2,269.2,192.7,273.6,192,274z"
				/>
			<path class="st1" d="M540.4,327.9c-1.4-19.3-6.8-56.8-7.8-73.1c-1-16.2-3-35-3-35s1.4-2.5,5.9-3.9c4.5-1.4,7.5-5.6,10.3-6.9
				c2.7-1.3,4.4-5.3,4.4-5.3c-4.8,1-14.6,2.8-14.6,2.8c0,0-16.4,2.6-19.9,3.2c0.3,1.3,0.7,2.6,0.7,2.6l0.7,2.7l0.4,2l5.3,35.7
				l1.3,11.6l2.7,22.1c0,0,2.2,14.9,2.2,14.9l-0.1-0.5l4.1,27.1l1.8,12.8l3.1,16.6c0,0,2.8,16.6,2.8,16.6l0,0.3l0.1,0.6l2.2,15.3
				l1.3,8.4l1.5,14.8l0.5,6.4c0,0.1,1.5,10.6,1.5,10.6s1,6,1,6.4c1.3-9.3,0.7-18.5,0.2-39.4C548.5,376.3,541.7,347.2,540.4,327.9z"
				/>
			<path class="st1" d="M450.7,285c-2.4-12.8-0.9-26.9-1.3-34c-0.3-6.6-1.4-17.6-1.4-17.6s3.6-2.5,7.7-4.4c4.1-2,4.9-4.1,7.7-5.9
				c2.7-1.8,6.9-8.3,6.9-8.3c-2.5,0.8-10.1,2.8-11.8,3.5l-8.4,2.9l1-0.3l-9.9,1.9l-3.2,0.5c-0.1,0-2.2,0.5-4.4,1.1
				c0.1,0.3,0.2,0.6,0.2,1.1l0.1,0.4l1.2,6.2l2.4,14.4l-0.1-0.7L438,259l0.4,9.5c0,0,2.1,17.9,2.1,17.9l1.3,10.4l0,0.2
				c0,0,1.5,32.2,1.5,32.2c0-0.1,1.1,10.2,1.1,10.2c0.7,5.6,1.2,9.7,1,13.6l-0.1,1.3l-0.3,1.2c-0.5,2.7-2.1,10.9-9,15.7l-2.2,1.6
				l-2.6,0.7c-2.3,0.7-4.6,0.7-6.9,0.4c0,0,10.5,7.5,20.5,0c9.6-7.1,7.8-7.4,9.1-11.5c1.3-4.2,0.7-10.7,1.3-16.2
				c0.6-5.5-0.1-19-1.2-25.1C453.1,315,453.1,297.7,450.7,285z"/>
			<path class="st1" d="M360.7,287.8c-2.9-9-9.6-23.2-10.9-28.8c0,0,2.9-1.3,7.1-4.3c4-2.9,4.6-4.9,7-6.5c2.4-1.6,4.5-5.1,4.5-5.1
				c-1.1,0.3-9.8,3.1-10.8,3.4c-6.9,2.3-13.8,3.8-19.4,5c-0.8,0.2-1.7,0.4-2.6,0.6c1,2.4,2.5,5.5,4.7,10.1l1.6,3.4l-0.8-1.5l3.9,8.3
				l0.3,0.7l-0.6-1.3l5.4,12.4l2.3,5.5c3.4,7.8,7.5,15.3,11.8,23.3l2.3,4.2l0,4.7l0,19l-0.1,14.2l0-1.1l0.1,11.8l-0.1,2.2
				c0-0.4,0.1,1.6,0.1,1.6c1.1,17.7-10.3,22.3-13.8,23.3c-0.8,0.2-3,0.7-5.7,0.5c0,0,7.5,3.5,13.7,1.9c6.2-1.6,7.3-4.4,10-6.6
				c2.7-2.2,6-10.5,5.7-17c-0.3-6.2,1.9-19.1,1.6-29.5c-0.3-10.4-0.1-20.2-4.7-29.8C368.7,302.9,363.6,297,360.7,287.8z"/>
			<path class="st1" d="M324.6,427.3c-11.2-26.3-19.4-43.1-21.8-49.7c-2.4-6.6-6.4-14.9-14.1-32.2c-7.7-17.2-14-37.4-14.1-37.6
				c-3.6-8.9-7.3-17.9-7.4-18c-0.3-0.8-1.4-3.8-1.4-3.8c-0.5-1.2-0.7-2.2-1.1-3.3c0,0,4.1-1.6,5.8-3c1.7-1.4,2.8-3.6,5.4-5.6
				c2.6-2,4.8-6.6,4.8-6.6c-1.5,0.6-9.1,3.2-9.1,3.2l-0.8,0.3l-12.6,2.9c0,0-5.5,1.3-8.5,2c0.4,1.1,0.6,2.1,1.1,3.3
				c0,0,1.1,3,1.5,3.8c0.1,0.3,15,35.3,15,35.3c0.1,0.2,2.3,5.8,2.3,5.8c2.5,6.4,4.9,12.4,7.7,17.7l0.3,0.6l6.3,11.5l6.6,11.9
				c0.2,0.3,6.6,14.9,6.6,14.9l3.2,7.5c3.7,8.7,7.8,17.3,12.2,25.7c0,0,5.1,9.8,5.1,9.8c4.1,7.8,8.4,15.8,12.1,24
				c0,0,5.2,12.5,5.2,12.5c2.6,6.6,8.3,20.8,11.6,27.1C340.8,466.9,335.8,453.6,324.6,427.3z"/>
			<path class="st1" d="M624,264.6c-0.5-5.8-2.1-11.8-2-16.2c0.1-10.8,1.6-18.2,4-24.1l0,0c0,0,3.4-15.6,12.8-20.7
				c9.4-5,12-7.7,25.9-11.3c13.9-3.6,17.3-5.8,25-7.9c2.1-0.6,3.3-0.9,4-1.1c-0.9-0.1-2.1-0.3-3.9-0.3c0,0-8.6,0.3-8.6,0.3
				s-3.6,0.2-4.7,0.2c-0.8,0.1-17.3,1.9-18,2c-19.5,2.9-31.4,10.2-35.4,14.2c0,0-0.1,0.1-0.1,0.1l-4.5,5.8c-4.9,7.3-8.3,16-8.3,32.4
				c0,4.5,0.2,9.5,0.8,15.3c1.2,13.2,2.3,17.8,4,22.2c5.8,13.5,14.2,20.4,22.3,26.9c-3.6-4.1-6.9-9.1-9.6-15.6
				C626.1,282.4,625.1,277.7,624,264.6z"/>
			<path class="st1" d="M787.8,378.1c-0.4-8.7,0.2-28.6,1.4-40.1c1.2-11.5,1.9-34.1,1.4-41.9c-0.5-7.8,1.6-32.6,1.6-32.6
				c0-7-0.1-21.4-10.4-31.5l-0.4-0.4l-0.5-0.4c-1.6-1.4-3.2-2.4-4.8-3.3c4,8.4,4.2,17.3,4.2,22.3l0,2.3l-0.1,9.1l0,17.6l1.2,14.9
				c0,0,1.3,15.2,1.3,15.2c0,0-0.2,19.9-0.2,19.9l-0.2,17.1l1.1,16l1.3,18.8l-0.1,0.3l-0.1,3.2c-0.4,10.8-0.5,17.8-0.5,22.3
				c0,0.6,0,0.8,0,1.3C784.2,408.1,788.5,392.3,787.8,378.1z"/>
			<path class="st1" d="M1088.4,199.8c13.3,2.4,16.5,0,21.4,1.3c4.9,1.3,13.8,1.4,19.4,3.2c5.6,1.9,26,9.7,33.2,26.7
				c-2.7-7-6.4-13.3-11.7-20.1c-5.9-7.5-9.7-10.4-12.6-12.5c-11.5-8.5-32.1-10.3-36.6-10.3l-0.5,0l-0.7,0l-1-0.1l-24.1-1.9
				c-0.1,0-17.8-2.4-17.8-2.4l1,0.1l-3.9-0.5c-0.9-0.1-1.8-0.3-2.8-0.4c-0.2,0.7-0.3,1.7-0.5,3.7l-0.8,14.6l-1,16.6l-4,35.2
				l-1.4,21.4l-0.6,11c0,0-2.1,18.9-2.1,18.9l-1.5,12.7l-2.4,32.8c0,0.1-0.4,8.3-0.4,8.3l-1,17.9l-2,13.6l-1,6.4l-0.2,1l0-0.1
				l-0.2,1.7l-1,6.6l0.4-2.5l-0.7,5.7c0,0-0.4,2.8-0.5,3.3c8.7-18.8,9-41.7,11.6-51.4c2.6-9.7,3-31.4,4.1-41.8
				c1.1-10.4,4.1-26.5,5.2-37c1.1-10.4,3.4-33.3,5.6-44.5c1.5-7.4,3.2-21.4,4.2-30.1l0.3-3.9c0.2-2,0.4-3,0.6-3.7
				C1062.6,199.4,1075.1,197.4,1088.4,199.8z"/>
			<path class="st1" d="M1258.4,382.7c0.2-6.7,7.5-26.7,8.7-33.9c1.2-7.2,4.1-27.2,6-35.8c1.9-8.7,4.1-21.6,7.2-34.9
				c3.1-13.2-3.1-26.5-7-30.7c0.3,2.1,0.4,4.2,0.4,6.1c0,5.8-1,10.9-1.7,14.3l-0.5,2.5l-2.2,9.7l-4,19l-2.2,16.3
				c0-0.2-2.1,16.5-2.1,16.5c-1.3,7.4-3,14.3-4.7,21.1c-1.6,6.3-3.1,12.3-4.1,18.4l-2.6,17.5l-2.9,20.3l-0.1,0.3l-0.9,3.4
				c-3.7,14.5-5.5,22.5-6.3,27c0,0,10.8-18.1,13-31.8C1254.6,394.2,1258.2,389.4,1258.4,382.7z"/>
			<path class="st1" d="M1574.8,545.4c0.5-4.5-0.7-4.5,0-9.5c0.5-3.7-1.8-8.2-3-10.2c-0.2-0.3-0.4-0.8-0.7-1.1
				c-0.2,1-0.3,2.1-0.5,3.2c0,0.1-3.6,14.1-3.6,14.1l-0.3,1c0,0-0.4,1.3-0.9,2.7c3.5,1.4,7.6,2.9,7.6,2.9l1.2,0.4
				C1574.6,547.9,1574.6,546.7,1574.8,545.4z"/>
			<path class="st1" d="M922.3,188.7c11.9,0.4,10.9-1.7,20.8-1.4c9.9,0.4,15.9-1.2,19.4-2.1c3.5-1,14.1-0.6,21.1-6.2l-1.2,0.1
				l-0.3-0.1l-4-0.2l-4.7-0.1l-1.6,0l-10.7,0.5h-0.7l-6.3-0.3l-5.7-0.3l-18.6-1.2l-6.9-0.1c0,0-13.7-0.4-14.7-0.5
				c-0.4-0.1-11.8-1.1-11.8-1.1l0.5,0.1c-4.3-0.4-5.4-0.4-6.2-0.3c0,0-0.3,0-0.3,0c-0.5,4.7-0.6,12.5-0.6,19.6c0,1.1,0,4,0,4l0-0.7
				l0,18.7c0,0.1-1.5,37.7-1.5,37.7s0,30,0,30.8c0,0.2-0.8,21.8-0.8,21.8l-0.7,14.8l0.1,9l0.2,11.7l-0.1,0.5l-1.3,12.8
				c0,0.3-0.1,4.9-0.1,4.9v2.9v1.2v16.6l-0.8,19.6l0-0.1l-0.1,1c0,0-0.2,2.3-0.4,4.5c6.7-20.5,4.7-42,7.3-59.3
				c2.5-17.3,4.1-48.3,5-55.4c1-7.1,0.5-39,1.9-51.8c0.9-7.8,2.2-24.8,3.1-36.9c0.1-5.1,0.3-9.9,0.7-13.2l0.3,0
				C902.7,190,910.5,188.3,922.3,188.7z"/>
			<path class="st1" d="M1426.6,264.5c11,3.7,18,2.6,25.6,5.1c7.7,2.5,15.3,0.9,19.6,2.1c5.7,1.6,17.1-1.1,17.1-1.1
				c0,0-1.2-0.2-1.2-0.2l-0.3-0.2l-3.8-1.2l-4.6-1.4l-1.6-0.4l-10.4-2.4l-0.7-0.2l-6-2.1l-5.3-1.8l-17.9-6.2l-6.7-1.9
				c0,0-13.1-4.1-14.1-4.4c-0.4-0.2-11.2-4.2-11.2-4.2l0.5,0.2c-4.1-1.6-5.2-1.8-5.9-1.9c0,0-0.2,0-0.3,0c-1.8,5-4,14.5-5.7,22
				l-0.1,0.6l0.1-0.7l-4.2,18.3l-9.9,36.1c0,0-6.7,29.1-6.9,29.9c-0.1,0.2-5.7,20.9-5.7,20.9l-4,14.1l-1.9,8.8l-2.5,11.3l-0.2,0.5
				l-4.1,12c-0.1,0.3-1.2,4.7-1.2,4.7l-0.9,3.9l0.2-1.2l-4,17.2l-5.1,18.8v-0.1l-0.4,1c0,0-0.7,2.2-1.4,4.3
				c5.1-6.9,9-19.6,12.3-28.4c3.2-8.4,6.1-22.1,9.9-33.2c3.8-11.1,5.1-20.3,11.8-37.8c6.7-17.5,6.7-24.1,10.8-34.9
				c4.1-10.8,3.5-16.5,8.6-28.6c2.6-6.2,5.9-16.2,8.5-24.5c1.4-5.5,2.8-11,4.1-14.4l0,0C1407.5,262.8,1415.5,260.8,1426.6,264.5z"/>
			<path class="st1" d="M1598.4,326.9c5.6,2.3,10.8,1.1,16.2,3.3c5.4,2.1,12.2,2.3,17.1,3.1c9.1,1.6,14.2,0,14.2,0
				c-0.8-0.3-8.3-3.3-9.6-3.8l-23.5-9.8l-17.3-8.4l-4.2-2.2c-3.5-1.9-6.9-3.7-10-4.8c-0.4-0.1-0.8-0.2-0.8-0.2s-0.4-0.1-0.8-0.2
				c-0.3,0.3-0.5,0.5-0.6,0.7c-4,5.8-6.7,9.9-9.1,14.2c-0.2,0.2-9.5,17.7-9.5,17.7l-6.8,13c-0.1,0.1-9,14.8-9,14.8s-8,13.2-8,13.2
				c0,0-9.1,18.3-9.1,18.3l-0.3,0.6l-8.2,14.3l-7.2,12.6c-0.1,0.3-7.6,14.5-7.6,14.5l-8.4,15.9c-0.1,0.1-9.4,16.5-9.4,16.5
				c0,0-7.3,12.9-7.3,12.9l-7.5,13.5l0.7-1.3c0,0-2.5,4.5-4.3,8c5.1-5.5,11.2-13.1,18.1-24.1c7.3-11.6,9.2-15.9,17.6-27.4
				c8.2-11,9.4-17.4,16.5-27.3c5.1-7.1,6.5-8.5,19.9-32.4c13.4-24.1,16-22.4,20.5-29.6c4.5-7.2,10.9-19.7,15.1-23.9
				c3.1-3,7-8,9-10.4c0.2-0.3,0.4-0.5,0.6-0.9c0.1-0.1,1.3-1.7,1.5-2C1587,325.2,1592.8,324.6,1598.4,326.9z"/>
			<path class="st1" d="M693.8,362c-2.3-12-13.1-20.3-13.1-20.3c4.5,5.9,6.9,12,7.6,18.8c0,0.6,0.1,1.6,0.1,2.8
				c0,4.8-1,13.4-7.2,20.9l-0.4,0.5l-0.4,0.5c-5.8,6-14.9,10-25.7,11.2c-10.6,1.2-19.4-1-21.9-1.7l-2.4-0.7l-0.1-0.3l-6.9-4.7
				c0,0-1.1-0.8-2-1.6c0.1,1.1,0.3,2.2,0.4,3.3l1.3,11.2l0.8,12.5c0,0,0.4,6.3,0.6,8.9c3.4-6.1,3.8-7.3,4.9-11.7
				c1.1-4.3,2.2-4.6,2.6-6.7c0.3-2.1,0.8-4.7,0.8-4.7c0.9,0.7,1.9,1.6,1.9,1.6l7,3.3c0.4,0.2,0.9,0.5,1.6,0.7l0.9,0.3
				c0.6,0.2,1.5,0.4,2.7,0.7c6.6,1.4,17,1.8,23.8-0.9c9.2-3.6,17.4-3.7,22.3-18.8C697.9,372,696.1,373.9,693.8,362z"/>
			<path class="st1" d="M829.4,177.5c-0.8,0-12.1,0.4-12.1,0.4l-7.7,0.1l-14.3,0.3c0,0-35.5,2.7-35.5,2.7l-13,0.1l1,0
				c0,0-4.5,0-4.6-0.1c0,0.1,0,0.2,0,0.2l0.3,2.1l1,27.1c0,0,0,0.9-0.1,1.3c0,0,0.5,0,1.4-2c0.9-1.9,1.6-2.2,3.3-6.7
				c1.7-4.5,2.5-3.7,3.4-5.4c0.9-1.7,1.6-4.1,1.6-4.1s3.9-2.5,26.9-5.3c21-2.5,18.3-4.5,34.5-5.4c16.2-0.9,23.1-6.4,23.1-6.4
				C835.6,176.8,830.1,177.4,829.4,177.5z"/>
			<path class="st1" d="M1342.9,202.1c-0.8-0.2-12.9-2.9-12.9-2.9l-8.2-2l-15.6-3.7l-38.5-6.9l-13.8-3.4l0.9,0.3l-4.7-1.3
				c-0.6-0.2-1.3-0.3-2-0.6c-0.1,1.3-0.2,2.4-0.2,2.4l-0.1,2.2l-5.1,29c0,0-0.5,2.1-0.9,3.2c0,0,1.3-0.9,2.5-2.4
				c1.3-1.7,4.6-4.1,5.8-6.1c1.2-2.1,4.1-3.9,5.2-5.3c1.1-1.3,3.7-6.1,3.7-6.1s7.1,0.1,19,2.7c11.9,2.6,8.3-0.7,25.1,1.8
				c16.8,2.5,19.3,1.2,29.8,2.8c10.5,1.6,21.7-2.2,21.7-2.2C1353,203.6,1343.7,202.3,1342.9,202.1z"/>
			<path class="st1" d="M1549.3,472.9c10.2,7.2,11.4,5,19.8,6.2s13.9-0.3,18.6-2.6c4.2-2.1,7.4-4,10.8-13.9c0-0.1,0.1-0.2,0.1-0.2
				c0,0,0,0,0,0c0.2-0.7,0.5-1.4,0.7-2.1l0,0l2-7.1c0.1-0.5,0.2-1,0.3-1.4c1.6-7.4,1.4-11.2,3.5-20.5c2-8.9,0.2-17.3,2-25.5
				c1.8-8.2,0-23.5,0-23.5l-0.9,4.8l-0.5,1.8c-0.1,0.3-2,8.5-2.2,9.1c-0.1,0.7-3.8,19.6-3.8,19.6l-5.9,21.7c0,0-0.1,0.2-0.1,0.2
				c0,0.1-0.4,1.3-0.4,1.3l-1.5,4.8c-2.5,6.9-6.4,11.9-11.8,15.3c-11.2,7.8-21.5,3.2-26,1.2l-0.7-0.3c-5.2-2.2-8.8-5.3-11.3-8.4
				C1542.1,453.5,1542.2,467.9,1549.3,472.9z"/>
			<path class="st1" d="M952.7,285.7c7.7,1.4,12.8-2.7,18.2-3c5.4-0.3,7.5-6.2,7.5-6.2c-1.3,0-2.5,0-3.4,0.1l-4.7,0l-8.1-0.7
				c-2.5-0.3-4.9-0.6-6.6-0.5c-0.2,0-4.5,0.3-4.5,0.3c-3.1,0.4-7,0.8-12.3-0.9c-2.7-0.8-5.1-2.1-7.2-3.6c0.5,1.3,1,2.6,1.7,3.9
				c1.9,3.6,5.7,8.4,12.2,9.1C948.5,284.8,950.8,285.2,952.7,285.7C952.7,285.7,952.7,285.7,952.7,285.7z"/>
			<path class="st1" d="M964.9,393.2c4.9-0.3,6.9-2.9,10.9-4.5s6.8-5.5,6.8-5.5c-0.1,0-0.9,0.1-0.9,0.1l-0.1,0l-9.9,0.3
				c0,0-11.5-1.3-11.5-1.3l-5.4-0.7c-0.2,0-2.7-0.1-2.7-0.1c-6.5-0.2-16.1-0.6-24.1-6.7c0,0,5.6,13.3,14.1,15.8
				c5.2,1.5,7.6,2.8,10.8,3.6C957.6,394.7,960.1,393.5,964.9,393.2z"/>
			<path class="st1" d="M1431.3,367.4c12.7,4.2,13.3-0.3,20.4,0c7.1,0.2,10.3-3.6,10.3-3.6c-1.2-0.3-2.4-0.6-3.2-0.9l-4.6-1.2
				l-7.7-2.8c-2.4-1-4.6-1.9-6.3-2.2c-0.2-0.1-4.4-0.9-4.4-0.9c-3.1-0.5-6.9-1.1-11.6-4.1c-2.7-1.6-4.9-3.6-6.7-5.9
				c0,0,2.4,13.3,8.2,18C1427.7,365.4,1429.5,366.4,1431.3,367.4z"/>
			<path class="st1" d="M1396.8,462.8c2.8,2.3,3.8,3.7,5.8,5.4c6.4,2.9,9.6,1.6,12.7,2.5c3,1,8.9-0.5,13.9,0
				c4.9,0.4,12.9-2.5,12.9-2.5c-0.1,0-0.8-0.2-0.8-0.2h-0.2l-9.7-2.4l-10.8-4.3l-5.1-2.2c-0.1-0.1-2.6-0.9-2.6-0.9
				c-6.2-1.9-15.5-4.9-21.8-12.9C1391,445.5,1391.9,458.8,1396.8,462.8z"/>
			<path class="st1" d="M1141.9,271.4c0-14.3-8.5-27.2-8.5-27.2c1.3,4.3,1.9,8.3,2.7,14c0.7,4.6,1,9.5,1,14.4l0.2,15.2l0,0.2
				l-0.2,7.2l-0.9,16.2c-1,10.7-3.3,20.9-5.6,30.8l-0.3,1.1c0,0-1.8,8.5-1.8,8.5c-2.8,13.4-5.4,26-18.3,35.7
				c-4.3,3.1-11,6.4-19.8,5.4c-6.2-0.7-11.3-3.4-15.1-7c0,0,5.2,15.3,14.7,17.7c9.4,2.4,17.4,3.7,25.1,1.5c7.7-2.2,14-12.6,17-17.5
				c1.4-3.4,2.5-7,3.5-10.7c0,0,0-0.1,0-0.1c0.3-1.1,0.5-2.3,0.8-3.4c0-0.1,0-0.2,0.1-0.3c4-17.5,5.7-35.1,6.9-42.8
				c1.3-8.3,1.3-22.6,1.3-32.4C1144.5,287.9,1141.9,285.6,1141.9,271.4z"/>
		</g>
		<g>
			<g>
				<path class="st0" d="M501.3,540.2c-0.2-1.1-0.6-3.3-0.1-4.1c0.5-0.9,2.3-1.5,2.4-1.5c0.4-0.1,2.2-0.3,2.5-0.4
					c0.3-0.1,1.5-0.2,1.8-0.3c0.3,0,1.5-0.5,1.7-0.5c0.2,0,1-0.1,1.3-0.2l1.5-0.3c0.4-0.1,1.4-0.3,1.8-0.3c0.4,0.1,1.7,0.6,2,2.5
					c0.1,0.4,0.2,0.9,0.2,1.4c0,0.2,1,6.7,1,6.8c0.1,0.4,1.5,6.5,1.7,6.9c1.1,4.3,3.5,4,5.4,3.7l4.4-0.9c0.7-0.1,4.1-0.5,4.9-0.7
					c1.2-0.2,3.6-0.9,5.2-2c2.4-1.9,1.9-4.3,1.8-5.2c-0.1-0.7-0.9-4-1-4.8c-0.1-0.4-0.3-2.2-0.4-2.6c-0.2-0.8-1.2-4.7-1.3-5.6
					c-0.2-1.2-0.4-2.1,0-2.9c0.1-0.3,0.7-1.2,1.6-1.4c0.3,0,0.5-0.1,0.8-0.1c0.3,0,0.5,0,0.7,0c0.2,0,0.5-0.1,1-0.3
					c0.4-0.1,0.8-0.2,1-0.3c1-0.2,1.4-0.2,1.7-0.2c0.1,0,1,0,1.2,0c0.5-0.1,1.1-0.4,1.7-0.6c0.3-0.2,0.7-0.2,1-0.3
					c2.5-0.5,3.9-0.8,4.6,2.6c0.1,0.7,0.5,4.1,0.7,4.9c0.1,0.4,0.7,2.9,0.9,3.5c0.2,0.9,0.7,5.2,0.9,6.2c0.1,0.6,0.9,3.6,1,4.3
					c0.1,0.6,0.5,3.6,0.6,4.2c0.1,0.5,0.7,3.2,0.8,3.8c0.1,0.7,0.8,4.6,0.9,5.4l0.6,3.3c0.1,0.4,0.4,2.4,0.5,2.9
					c0.1,0.4,0.5,2.3,0.6,2.7c0.3,1.8,0.5,3.5,0.8,5.2c0.2,0.9,1.3,5.3,1.5,6.3l0.7,3.5c0.2,1.2-0.1,3-2.3,3.4
					c-0.4,0.1-2.1,0.3-2.5,0.4c-0.7,0.1-3.9,0.9-4.7,1.1c-1.3,0.3-3.4,0.6-4.6-0.4c-0.1-0.2-1.4-1.8-1.6-2.8
					c-0.1-0.6-0.7-4.9-0.9-5.9c-0.1-0.4-0.5-2.3-0.6-2.7c-0.1-0.4-0.4-2.6-0.5-3.1c-0.2-0.8-1-4.7-1.2-5.4c-0.7-2.2-2.1-2.5-2.2-2.5
					c-0.2-0.1-3.2,0.1-3.2,0.1c-0.4,0-2.1,0.4-2.5,0.5c-0.3,0.1-1.4,0.2-1.7,0.2l-2.8,0.5c-0.4,0.1-2.2,0.3-2.7,0.4
					c-0.6,0.1-3.4,0.7-4.6,1.7c-1.8,1.4-1.7,4.5-1.6,5.2c0.1,0.4,0.3,1,0.4,1.5c0,0.2,0.2,1.4,0.2,1.6c0.1,0.4,0.5,1.9,0.5,2.2
					c0.1,0.7,0.6,3.9,0.7,4.7c0.1,0.6,0.8,3.5,0.9,4.2c0.6,3.4,0.6,5.1-2.1,5.7c-0.4,0.2-3,0.5-3.5,0.6c-0.8,0.2-4.9,1-5.9,1.2
					c-1.5,0.3-2.2-0.1-2.6-1c-0.1-0.1-0.7-1.7-0.8-2.2c-0.2-0.8-0.7-4.4-0.8-5.3c-0.2-1.2-0.6-2.5-0.8-3.7c-0.1-0.7-0.6-4.3-0.8-5.2
					c-0.1-0.6-1.4-6.5-1.7-7.7c0-0.3-0.3-2.3-0.3-2.6c0-0.6-0.9-5.6-1-6.4c-0.2-1.1-1.5-6.4-1.7-7.5c-0.2-0.9-0.7-5.1-0.9-6
					c-0.1-0.7-0.9-3.9-1.1-4.6L501.3,540.2z"/>
				<path class="st0" d="M607.7,570.2c-0.6,0.1-1.1,0.3-2.7,0.9c-2,0.8-2.8,1.1-3.4,2.1c-0.4,0.7-1.4,3.8-1.3,5.9
					c0.1,0.9,0.1,1-0.6,1.9c-0.6,0.8-0.7,0.9-3,1.3c-0.6,0.1-3.6,0.5-4.3,0.6c-0.4,0.1-2.2,0.5-2.7,0.6c-0.4,0.1-2.7,0.1-2.8,0
					c-0.7-0.3-1.7-1.3-1.8-2.5c-0.1-0.6-0.1-1.4,0-2.2c0.1-0.5,0.2-1,0.2-1.4c0.1-0.6,0-1.2,0-1.7c0-0.7,0-1.3,0-1.9
					c0-0.5,0.3-2.9,0.3-3.4c0.1-1.4-0.1-2.7-0.1-4c0-0.9,0.3-4.7,0.4-5.7c0.1-0.7,0.2-1.6,0.3-2.3c0.1-1.4,0-2.7,0-4
					c0-0.5,0.3-6.2,0.6-7c0.1-0.6,0.4-1.2,0.4-1.8c0-0.4,0-0.8,0-1.2c0-0.6,0.2-6.7,0.3-7.6c0-0.4,0.1-0.8,0.1-1.2
					c0-0.5,0-1,0.1-1.6c0.1-0.7,0.3-1.5,0.4-2.3c0.2-0.8,0.1-1.5,0.1-2.3c0-7,0.9-10.1,6-10.9c0.4-0.1,1.3-0.2,2.3-0.3
					c2.4-0.2,5.5-0.8,9.1-1.6c2.3-0.7,5-0.5,6.9,0.5c1.7,0.9,2.4,1.8,3.4,4.3c0.5,1.1,1,2.3,1.5,3.5c0.4,0.9,1,1.9,1.4,2.8l1.2,3.3
					c0.2,0.5,0.3,1.1,0.5,1.6c0.2,0.4,0.4,0.9,0.6,1.3c0.3,0.6,1.3,2.8,2,4.6c0.5,1.7,0.6,1.8,1.1,3c0.5,1,1.7,3.8,1.8,4.3
					c0.2,0.9,0.4,1.8,0.7,2.6c0.3,0.5,0.6,1,0.9,1.5c0.2,0.5,1.1,2.7,1.3,3.2c0.3,0.9,0.5,1.9,0.8,2.7c0.3,0.6,0.6,1.1,0.9,1.7
					c0.4,0.9,1.4,3.3,1.6,4.2c0.2,1,0.3,1.2,0.6,1.7c0.6,1.1,1.6,3.4,2.1,4.8c0.3,0.7,0.5,1.3,0.7,1.9c0.3,0.6,0.7,1.1,0.9,1.6
					c0.1,0.3,0.6,2.4,0.7,2.6c0.3,1.7-1.9,2-3.6,2.3c-0.7,0.1-4.1,0.9-4.9,1c-5.5,0.8-6.3,0.4-7.9-2.6c-0.4-0.8-0.6-1.6-1.1-2.2
					c-0.2-0.3-0.5-0.7-0.7-1c-0.7-1.2-1.2-1.7-2.9-2.1c-1-0.2-4.6,0.1-5.5,0.3L607.7,570.2z M601.3,547.9c0,0.6-0.1,1.3-0.2,2
					c-0.1,1-0.2,2.1-0.1,3.1c0.5,3,2.9,4,6.3,3.4c0.9-0.1,2.7-0.6,4.1-1.1c0.9-0.3,1.8-0.7,1.5-2.5c-0.1-0.4-0.1-0.7-0.3-1.1
					c-0.7-2.6-0.9-3.4-1.9-5.5c-0.4-0.9-0.9-1.7-1.2-2.7c-0.4-0.9-0.7-1.9-1-2.8c-0.3-0.6-0.6-1.1-0.9-1.7c-0.4-0.7-1.1-2.4-1.4-3.1
					c-0.8-1.9-2-1.7-2.4-1.7c-0.6,0.1-1.1,0.6-1.4,1.2c-0.6,1.1-1.1,5.7-1.1,6c0,0.7,0,1.5,0.1,2.2c-0.1,0.7-0.2,1.4-0.1,2.1
					C601.3,546.6,601.3,547.2,601.3,547.9z"/>
				<path class="st0" d="M653.9,535.2c-0.3-3-0.3-5.9-0.6-8.9c-0.1-1.1-0.8-6.2-0.9-7.4c-0.1-0.5-0.5-3-0.6-3.6
					c-0.3-2.5-0.7-5.8,3-6.2c0.4,0,2,0,2.4-0.1c0.4,0,2.1-0.3,2.4-0.4c0.5-0.1,3.3-0.3,3.9-0.4l3-0.3c0.5-0.1,2.7-0.4,3.2-0.5
					c1-0.1,2.5-0.4,3.5-0.5c0.6-0.1,5-0.4,5.6-0.3c0.7,0,3.8,0.5,4.7,0.6c0.7,0.3,4.3,1.4,4.5,1.5c1.5,0.6,3.5,2,4.1,2.4
					c0.2,0.3,3,3.3,3.2,3.6c0.3,0.3,2.6,4,3,6.7c0,0.3,0.1,1.7,0.1,2c0.1,0.5,0.5,3,0.6,3.6c0.2,2-0.3,7.1-1.2,9.5
					c-0.6,1.5-2.5,4.4-3.4,5.6c-2.8,3.7-3.1,4.1-3,5.3c0.1,1.3,1,1.8,1.9,2.3c2.1,1.2,4.6,2.1,5.3,2.2c0.6,0.1,1,0.2,1.6,0.3
					c1.4,0.7,1.6,1.9,1.7,2.5c0.1,0.6,0.1,1.4,0.1,2c0,0.4,0.4,2,0.4,2.3c0.1,0.5,0.1,3.4,0.2,4c0,0.3,0.3,1.6,0.3,1.9
					c0.3,2.8-3,3.5-3.4,3.6c-3.9,0.4-7.8-2-8.5-2.5c-1.5-0.9-4.5-3-6.4-4.8c-0.3-0.3-0.7-0.7-1.1-1c-0.6-0.4-1.2-0.7-1.8-1
					c-0.3-0.2-1.9-1.2-2.2-1.4c-2.5-1.3-3.3-1.3-4.7-1.1c-0.4,0.1-1.1,0.5-1.3,0.6c-0.7,0.6-0.9,1.1-1.1,2c-0.4,1.2-0.5,1.5-0.2,4
					c0.1,0.6,0.1,0.8,0.6,2.7c0.1,0.4,0.7,2.4,0.8,2.8c0.2,1.7-1,2.7-2.1,2.8c-0.6,0.1-1.3,0-1.9-0.1c-0.5,0-1.2,0-1.8,0
					c-0.1,0-1.7,0.3-1.9,0.3c-0.6,0.2-1.2,0.2-2.1,0.3c-0.5,0-2.8,0.4-3.2,0.5c-2.2,0.3-3-1.9-3.1-2.8c-0.1-0.7,0-1.5,0-2.2
					c0-0.6-0.1-1.3-0.1-1.8c-0.1-0.5-0.4-3-0.5-3.7c-0.1-1.2-0.2-2.4-0.2-3.7c-0.1-1.5-0.1-2.6-0.2-3.1c-0.2-1.4-0.5-2.8-0.7-4.1
					c-0.1-1-0.6-4.7-0.7-5.7c0-0.4-0.2-2.6-0.3-3.2c-0.1-0.5-0.5-3.2-0.6-3.9C654.1,537.7,653.9,536.3,653.9,535.2z M669.6,522.1
					c-0.9,0.6-1,0.8-1.3,1.8c-0.5,1.6-0.5,1.9-0.4,3c0.1,0.6,0.6,3.7,0.7,4.4c0.1,0.6,0.2,3.6,0.3,4.3c0.1,0.7,0.8,4.2,0.9,5
					c0.2,0.8,0.4,2.1,1.9,2.4c0.5,0.1,2.6,0,2.6,0c0.4,0,0.4,0,1.7-0.4c0.8-0.3,1-0.4,2-1c0.4-0.2,0.8-0.5,1.2-0.7
					c0.3-0.3,0.6-0.8,1.1-1.1c0.3-0.5,0.7-0.8,1-1.2c0.7-0.7,0.9-1,2-3.7c0.5-1.2,1.4-3.5,1-6.9c-0.2-1.7-1.7-5.6-5.8-6.5
					c-2-0.3-2.2-0.4-3.6-0.2c-0.2,0-3.7,0.1-3.8,0.1C670.8,521.4,670.2,521.7,669.6,522.1z"/>
				<path class="st0" d="M724.7,530c0-0.4-0.1-2.7-0.2-3.3c-0.1-1.2-0.6-7.2-0.7-8.7c0-0.5-0.2-3.4-0.2-4.1
					c-0.1-0.8-0.7-5.2-0.7-6.2c-0.1-1.6,0-4.3,1.6-5c0.4-0.2,7.2-0.9,8.3-1c0.4,0,1.4,0,2.4-0.1c1,0,2,0,2.4,0
					c1.8-0.1,3.6-0.6,5.4-0.8c0.3,0,1.6,0,1.9-0.1c0.2,0,1.2-0.2,1.4-0.2c0.2,0,1.4,0.1,1.6,0.1l1.2-0.1c1.4-0.1,3.7,0.3,4,0.4
					c0.4,0.1,0.7,0.2,1.1,0.3c0.7,0.1,1.5,0.2,2.2,0.4c0.5,0.2,1,0.6,1.4,0.7c0.5,0.1,0.9,0.1,1.4,0.3c0.4,0.2,0.9,0.4,1.2,0.5
					c0.5,0.2,1,0.3,1.5,0.4c0.8,0.3,8.7,4.3,12.8,12c0.2,0.3,2.4,4.7,2.7,5.3c0.5,1.2,1.4,5.7,1.5,6.8c0,0.4,0.1,2,0.1,2.4
					c0,0.5,0.4,2.8,0.4,3.3c0.1,1.5,0.1,1.9-0.4,5.3c-0.3,3-0.4,3.4-0.8,4.3c-0.1,0.6-0.4,1-0.6,1.6c-0.2,0.7-0.4,1.4-0.6,2
					c-0.3,0.7-0.7,1.2-1.1,1.9c-0.4,0.8-0.7,1.5-1.1,2.3c-0.4,0.7-3.7,4.9-4.1,5.3c-1.2,1.3-3.5,2.9-4.4,3.4
					c-0.9,0.4-1.8,0.8-2.6,1.1c-0.6,0.3-1.2,0.6-1.8,1c-1,0.4-2.1,0.7-3.2,1.1c-3.3,1.1-5.2,1.2-14.5,1.9l-0.3,0
					c-1.2,0.1-6.9,0.2-8.2,0.4l-2.7,0.2c-1.5,0.1-5.8,0.4-6-2.7c0-0.5,0-2.5,0-3c-0.1-1.6-0.9-8.9-1-9.9c0-0.3-0.1-2.6-0.2-4.5
					c-0.1-2.2-0.2-4.6-0.3-6.9c0-0.6-0.5-3.5-0.6-4.2c0-0.4,0-2.2,0-2.6L724.7,530z M742.9,516.5c-1,0.3-1.1,0.4-1.7,0.9
					c-1,1.1-1.8,1.8-1.8,5c0,0.5,0.3,3.3,0.3,4c0.1,1,0.2,5.7,0.2,6.8c0.3,3.3,0.7,9.1,1.3,12.3c0.4,2.5,0.8,5,10.1,4.3
					c0.7-0.1,1.4-0.1,2.2-0.3c1.6-0.4,4.9-1.8,6.1-2.6c4.8-3.5,5.3-12.6,5.2-14c0-0.5-0.3-3.1-0.6-4c-0.2-0.9-0.6-1.7-0.8-2.6
					c-0.1-0.5-0.3-1.2-0.5-1.7c-0.4-0.7-1-1.3-1.5-2c-0.3-0.3-0.5-0.7-0.7-1c-1-1.5-1.6-1.8-3.2-2.7c-0.5-0.3-2.8-1.9-3.3-2.1
					c-2.3-1-7-0.9-8.2-0.8C745.2,516.1,744.1,516.3,742.9,516.5z"/>
				<path class="st0" d="M846.6,517.4c0-0.6,0.2-3.7,0.2-4.4c0-1.4-0.2-2.7-0.3-4.1c0-0.4,0.2-2.8,0.2-3.3c0-0.9-0.5-5.2-0.5-6.2
					c0-1.5,0.9-3.8,2.4-4c0.3,0,1.5,0.1,1.6,0.1c0.4,0,2.7-0.1,3.2-0.1c1.2,0,2.5,0,3.6,0c0.3,0,1.6-0.1,2-0.1c1,0,1.4,0.4,1.8,1
					c0.7,0.9,1.1,1.3,1.1,2.8c0,0.5,0,2.7,0,3.3c0,0.5,0.1,2.5,0.1,3.1c0,0.6-0.1,3.7-0.1,4.4c0,2.1,0.3,4.3,0.3,6.3
					c0,0.6,0,3.4,0,4l0.1,3.4c0,0.5,0,3.4,0,4c0,0.8,0.3,4.7,0.3,5.6c0,0.8,0,5.4,0,6.2c-0.1,0.8-0.1,1.6-0.1,2.4
					c0,0.5,0.2,3.3,0.3,3.9l0.1,7.4c0,0.5,0.3,2.6,0.3,3.2c0,1.6-1.5,2.7-2.8,2.7c-0.3,0-1.9-0.1-2.3-0.1c-0.5,0-3.1,0.2-3.6,0.2
					c-0.4,0-2.1-0.1-2.5-0.1c-0.3,0-1.7,0.2-2,0.2c-1.9,0-2.8-1.5-2.9-2.2c-0.1-0.2-0.1-1.9-0.1-2c0-0.9,0.1-1.7,0.1-2.5
					c0.1-1.2,0.1-2.4,0.1-3.5c0-1.5-0.3-8.7-0.4-10.4c0-0.2,0.2-1.3,0.2-1.5c0-0.4-0.3-1.9-0.3-2.3c0-1,0.2-6.1,0.2-7.3
					c0-2.2-0.4-4.3-0.4-6.3L846.6,517.4z"/>
				<path class="st0" d="M886.7,520.4c0.4-2.3,0.5-4.5,1.1-6.7c0.9-3.3,3.2-6.9,4-7.8c0-0.1,4.6-5.5,7-7c1.9-1.2,4-2.1,6.2-2.8
					c5.3-1.7,7.4-1.7,11.8-1.6c0.4,0,3.8,0.2,4.2,0.3c1.5,0.4,2.1,0.9,2.1,3.7c0,1.2-0.2,2.4-0.2,3.6c0,0.5,0.2,3.3,0.1,3.9
					c0,1-0.1,1.6-0.3,2.1c-0.5,0.6-1.4,1.1-2.3,1.1c-0.5,0-0.9-0.1-1.4-0.2c-0.9-0.1-1.8-0.3-2.7-0.3c-5.3,0-9.7,3.2-11.1,5
					c-0.4,0.4-2.8,4.6-3,5.3c-0.5,1.3-0.7,3.9-0.7,7.2c0,2.8,1.5,10.5,6.8,15.5c2.5,2.5,7.3,3,8.1,3c0.4,0,2.4-0.2,2.8-0.3
					c0.2,0,1.1-0.3,1.4-0.3c1.7,0,2.1,1.7,2.1,2.8c0,0.3-0.1,1.7-0.1,2.1c0,0.3,0.2,1.8,0.2,2.1c0,0.5-0.3,2.7-0.3,3.2l0,1.6
					c0,0.8,0,1.8-1.6,2.6c-0.8,0.5-1.7,0.6-2.7,0.6c-0.4,0-5.3-0.2-5.6-0.2c-0.8-0.1-1.5-0.2-2.4-0.3c-3.2-0.5-3.3-0.6-6.1-2
					c-1.2-0.5-2.3-1-4.2-2.6c-0.7-0.6-1.4-1.3-2.2-1.9c-1-0.9-2.2-1.6-3.1-2.6c-0.5-0.4-0.8-0.8-1.3-1.3c-2-2.5-2.8-4.1-4-6.6
					c-1.3-2.9-2.4-5.2-2.7-9.2c-0.1-0.5-0.3-4.3-0.3-4.7c0-0.3,0.2-1.8,0.2-2.2c0-0.4-0.1-2-0.1-2.4
					C886.4,522.6,886.5,522.3,886.7,520.4z"/>
				<path class="st0" d="M968.5,496.6c0.4,0,2.5-0.1,3-0.1c0.5,0,2.7,0,3.3,0.1c0.8,0,4.8,0.5,5.7,0.5c0.5,0,3.1-0.1,3.6,0
					c2.2,0.1,3,1.3,3,3.1c0,0.4-0.2,2.4-0.2,2.8c0,0.6,0.1,3.6,0.1,4.3c-0.1,1.1-0.1,1.2-1.1,2.3c-0.5,0.6-0.5,0.6-1.2,0.9
					c-0.7,0.2-1.2,0.4-2.2,0.4c-0.4,0-2.3-0.2-2.7-0.2c-0.5,0-3.4,0-4.1,0c-0.3,0-0.6,0-1-0.1c-0.8,0-1.5-0.2-2.3-0.4
					c-0.8-0.1-1.5-0.2-2.4-0.2c-5.1-0.2-6.5,0.4-6.7,4.2c-0.2,4.3-0.2,5.8,2.7,6.4c2,0.4,2.2,0.4,3.3,0.4c0.7,0,4.1-0.1,4.9-0.1
					c0.5,0,3.5,0.5,4.1,0.5c1.2,0,2.5-0.1,3.6,0c0.7,0,2.1,0.1,2.5,0.3c0.3,0.2,1.6,1.2,1.5,2.8c0,0-0.2,2.1-0.3,2.5
					c-0.2,1.4-0.2,1.7-0.2,3.6c0,0.7-0.1,0.9-0.3,1.8c-0.2,1.2-0.6,3.1-4.1,3.1l-4.6-0.2c-0.4,0-2-0.2-2.3-0.2c-0.3,0-1.6,0-1.9,0
					c-0.4,0-2.4-0.4-2.9-0.4c-0.9,0-1.8,0.1-2.7,0.1l-0.7,0c-0.5,0-1.5,0.2-1.9,0.4c-1.7,0.7-1.8,2.9-1.8,3.7
					c-0.2,5.8-0.3,7.8,6.9,8.1c0.5,0,3.2,0,3.7,0.1c0.5,0,2.5,0.2,3.1,0.2c0.6,0,4.2,0.1,4.8,0c0.6-0.1,1.3,0,1.9,0
					c0.5,0,2.9,0.2,3.6,1.9c0.6,1.3,0.5,3,0.5,3.8l0,0.6c0.1,0.8,0.3,1.7,0.3,2.6l-0.1,2.4c0,1.1-0.2,3-3.2,2.9
					c-0.2,0-0.8-0.1-1.4-0.2c-0.6-0.1-1.4-0.2-1.6-0.2c-0.3,0-1.2,0-2.1,0c-0.9,0.1-1.8,0.1-2.2,0.1c-0.3,0-1.2-0.1-2.1-0.2
					c-0.9-0.1-1.8-0.2-2.2-0.2c-0.1,0-2,0-3.9-0.1c-2,0-4.1,0-4.5,0c-0.5,0-2.2-0.2-3.9-0.3c-1.6-0.1-3.3-0.2-4-0.3l-2.9-0.1
					c-1.2,0-2.4,0-2.9,0c-0.4,0-1.7-0.1-2.6-0.9c-0.7-0.7-1.4-2.2-1.3-3.5c0-0.4,0.2-2.1,0.2-2.4c0-1.1-0.1-2.1,0-3.2l0.1-1.6
					c0-0.6,0-3.4,0-4.1c0.1-1.5,0.3-3.9,0.3-5.4c0-0.4,0.2-2,0.2-2.4c0-0.5,0-3.2,0.1-3.8c0-0.5,0-2.8,0.1-3.4l0.3-6.2
					c0-0.5,0-1,0.2-1.5c0-0.4,0.3-2.1,0.3-2.4c0-0.5-0.1-3.3-0.1-3.8c0.1-1.5,0.3-2.8,0.4-4.2c0-0.5,0.4-4.2,0.4-4.6
					c0-0.7-0.1-3.9-0.1-4.6c0.1-2.7,0.4-3.4,0.6-3.8c0.3-0.5,1.3-2.2,3.3-2.1c0.5,0,2.9,0.2,3.4,0.2c0.7,0,4.4,0,5.2,0
					c0.6,0,3.8,0.3,4.4,0.4L968.5,496.6z"/>
				<path class="st0" d="M1012.4,526.8c0-0.5,0.3-2.7,0.4-3.2c0.1-1.2,0.5-7.2,0.7-8.7c0-0.5,0.4-3.3,0.4-4.1
					c0.1-0.8,0.2-5.3,0.3-6.3c0.1-1.6,0.7-4.2,2.4-4.7c0.5-0.1,7.3,0.3,8.3,0.4c0.4,0,1.3,0.2,2.4,0.3c1,0.2,2,0.4,2.3,0.4
					c1.8,0.2,3.6,0,5.4,0.1c0.3,0,1.6,0.2,1.9,0.3c0.2,0,1.2,0,1.4,0c0.2,0,1.3,0.3,1.6,0.3l1.2,0.1c1.4,0.1,3.6,0.9,3.9,1.1
					c0.4,0.1,0.7,0.3,1.1,0.5c0.7,0.2,1.4,0.4,2.1,0.7c0.4,0.3,0.8,0.7,1.3,0.9c0.4,0.2,0.9,0.3,1.3,0.5c0.3,0.2,0.8,0.5,1.1,0.7
					c0.4,0.3,1,0.4,1.4,0.7c0.7,0.4,7.9,5.6,10.7,13.9c0.1,0.4,1.7,5.1,1.8,5.6c0.3,1.3,0.5,5.9,0.4,7c0,0.4-0.3,2-0.3,2.3
					c0,0.5-0.1,2.8-0.1,3.4c-0.1,1.5-0.3,1.9-1.3,5.2c-0.8,2.9-0.9,3.3-1.5,4.1c-0.2,0.5-0.5,1-0.9,1.5c-0.3,0.6-0.6,1.3-0.9,1.9
					c-0.4,0.6-0.9,1.1-1.4,1.7c-0.5,0.7-0.9,1.4-1.5,2.1c-0.5,0.6-4.5,4.3-4.9,4.6c-1.4,1.1-3.9,2.3-4.9,2.7
					c-0.9,0.3-1.9,0.5-2.8,0.7c-0.7,0.2-1.3,0.4-2,0.7c-1,0.3-2.2,0.4-3.3,0.5c-3.4,0.5-5.3,0.4-14.6-0.4l-0.3,0
					c-1.2-0.1-6.8-0.9-8.2-1l-2.7-0.2c-1.5-0.1-5.8-0.5-5.5-3.7c0-0.5,0.4-2.5,0.4-3c0.1-1.6,0.5-9,0.6-10c0-0.3,0.3-2.6,0.5-4.5
					c0.3-2.2,0.6-4.6,0.8-6.9c0.1-0.6,0-3.5,0.1-4.3c0-0.4,0.4-2.2,0.4-2.6L1012.4,526.8z M1032.5,516.4c-1,0.1-1.1,0.2-1.8,0.7
					c-1.2,0.9-2,1.5-2.6,4.7c-0.1,0.5-0.3,3.3-0.3,4c-0.1,1-0.8,5.7-0.9,6.8c-0.3,3.3-0.8,9.1-0.7,12.3c0,2.5,0,5.1,9.2,5.9
					c0.7,0.1,1.4,0.1,2.2,0.1c1.7-0.1,5.1-1,6.4-1.6c5.3-2.6,7.3-11.6,7.4-13c0-0.5,0.2-3.1,0.1-4c-0.1-0.9-0.3-1.8-0.4-2.7
					c0-0.5-0.1-1.2-0.2-1.7c-0.3-0.8-0.8-1.4-1.2-2.2c-0.2-0.4-0.4-0.8-0.5-1.1c-0.8-1.6-1.3-2-2.7-3.1c-0.4-0.4-2.4-2.3-3-2.6
					c-2.2-1.4-6.7-2-8-2.1C1034.8,516.4,1033.7,516.4,1032.5,516.4z"/>
				<path class="st0" d="M1134.8,517.1c0-0.3,0.3-1.8,0.3-2.2c0.4-2.4,2.5-2.5,4.1-2.3c0.6,0.1,3.6,0.8,4.3,0.9
					c0.7,0.1,4.4,0.6,5.2,0.7c0.6,0.1,3.9,0.8,4.7,0.9c0.6,0.1,3.7,0.4,4.3,0.5c0.4,0.1,1.8,0.4,2,0.4c0.4,0.1,1.9,0.1,2.3,0.2
					c0.3,0,1.4,0.3,1.7,0.4c0.3,0,1.9,0.2,2.3,0.3s2,0.5,2.4,0.6c0.3,0,1.6,0.2,1.9,0.2c0.5,0.1,2.9,0.7,3.4,0.8
					c0.4,0.1,2.3,0.1,2.7,0.2c0.4,0.1,0.7,0.2,1.3,0.5c0.7,0.4,1.2,0.6,1.4,1.8c0.1,0.6,0.1,0.8-0.4,3.3c-0.1,0.5-0.4,3-0.5,3.6
					l-0.2,1.3c0,0.2-0.1,1.2-0.1,1.4c-0.2,1.5-1.7,2.4-3.2,2.5c-0.6,0-0.8,0-3-0.4c-3.9-0.6-5.5-0.8-6.9,0.2
					c-0.1,0.1-1.4,1.2-1.6,1.5c0,0.2-0.7,2.6-0.9,3.1c-0.2,0.7-1.1,5-1.2,5.8c-0.1,0.4-0.2,2.4-0.3,2.9c-0.1,0.4-0.5,2.2-0.6,2.7
					c-0.2,1-0.4,3.3-0.6,5.2l-0.4,2.7c-0.1,0.5-0.2,2.5-0.3,3.1c-0.2,1.3-0.7,2.7-0.9,4.2c-0.1,0.5-0.2,3.3-0.3,3.9l-0.6,3.8
					c-0.1,0.4-0.5,2.1-0.6,2.5c-0.1,0.4-0.2,2.5-0.3,3c-0.3,1.8-2.1,2.6-4.7,2.2l-2.5-0.4c-0.3,0-1.9-0.2-2.3-0.3
					c-0.4-0.1-2-0.6-2.4-0.6c-0.3,0-1.6-0.1-1.8-0.1c-1.5-0.2-1.7-1.5-1.8-2.5c-0.1-0.8-0.1-0.9,0.1-1.8l0.2-1.1
					c0.2-1.1,0.5-2,0.7-3.1l1.3-8c0.1-0.8,0.6-4.7,0.7-5.6c0.1-0.5,0.8-3.1,0.9-3.7c0.1-0.8,0.2-1.5,0.3-2.3
					c0.1-0.4,0.7-2.4,0.7-2.8c0.1-0.6,0.3-3.5,0.4-4.3c0.1-0.6,0.7-4.1,0.9-4.9c0.1-0.4,0.3-3,0.4-3.5c0-0.2,0.2-1,0.3-1.1
					c0-0.3,0.4-2.5-1.3-4c-1.2-1-3.3-1.4-6.1-1.9c-0.5-0.1-1.2-0.2-1.8-0.2c-0.5,0-1,0-1.6-0.1c-1.3-0.2-3.4-1.9-3-4.1
					c0-0.1,0.6-3.5,0.7-4.1L1134.8,517.1z"/>
				<path class="st0" d="M1222,527.2c0.4,0.1,2.5,0.3,3,0.4c0.4,0.1,2.7,0.5,3.2,0.6c0.8,0.2,4.7,1.2,5.5,1.4
					c0.5,0.1,3.1,0.4,3.6,0.5c2.1,0.4,2.8,1.8,2.4,3.5c-0.1,0.4-0.6,2.3-0.6,2.7c-0.1,0.6-0.5,3.6-0.6,4.2c-0.2,1.1-0.3,1.1-1.4,2.1
					c-0.6,0.5-0.6,0.5-1.3,0.7c-0.8,0.1-1.2,0.2-2.2,0c-0.4-0.1-2.2-0.5-2.6-0.6c-0.5-0.1-3.3-0.5-4-0.6c-0.3-0.1-0.6-0.1-1-0.3
					c-0.8-0.2-1.5-0.5-2.3-0.7c-0.8-0.3-1.5-0.4-2.3-0.6c-5-1-6.5-0.6-7.3,3.1c-0.8,4.2-1.1,5.7,1.7,6.7c1.9,0.7,2.1,0.7,3.2,0.9
					c0.7,0.1,4.1,0.5,4.9,0.7c0.5,0.1,3.4,1.1,4,1.2c1.2,0.2,2.4,0.3,3.6,0.5c0.7,0.1,2,0.4,2.5,0.7c0.2,0.2,1.4,1.4,1.1,3
					c0,0-0.5,2-0.7,2.5c-0.4,1.4-0.4,1.7-0.8,3.5c-0.1,0.7-0.3,0.9-0.5,1.7c-0.4,1.1-1.1,3-4.6,2.4l-4.5-0.9
					c-0.4-0.1-1.9-0.5-2.3-0.6c-0.3-0.1-1.6-0.2-1.9-0.3c-0.4-0.1-2.3-0.7-2.8-0.8c-0.9-0.2-1.8-0.2-2.7-0.4l-0.7-0.1
					c-0.5-0.1-1.6,0-2,0.1c-1.7,0.4-2.2,2.6-2.4,3.4c-1.1,5.7-1.5,7.6,5.6,9.1c0.5,0.1,3.1,0.5,3.7,0.6c0.4,0.1,2.5,0.6,3,0.7
					c0.6,0.1,4.1,0.7,4.7,0.8c0.6,0,1.3,0.2,1.9,0.3c0.4,0.1,2.8,0.7,3.3,2.4c0.4,1.4,0,3.1-0.1,3.9l-0.1,0.6
					c-0.1,0.8,0,1.8-0.1,2.6l-0.5,2.3c-0.2,1.1-0.7,2.9-3.6,2.3c-0.2,0-0.8-0.3-1.4-0.4c-0.6-0.2-1.3-0.4-1.6-0.4
					c-0.3-0.1-1.2-0.1-2.1-0.3c-0.9-0.1-1.8-0.2-2.2-0.3c-0.3-0.1-1.1-0.3-2-0.5c-0.9-0.3-1.8-0.4-2.1-0.5c-0.1,0-2-0.3-3.8-0.7
					c-2-0.3-4-0.6-4.5-0.7c-0.5-0.1-2.1-0.5-3.8-1c-1.6-0.3-3.3-0.8-3.9-0.9l-2.8-0.6c-1.2-0.1-2.4-0.4-2.9-0.5
					c-0.4-0.1-1.7-0.3-2.4-1.3c-0.6-0.8-1-2.4-0.7-3.7c0.1-0.4,0.5-2,0.6-2.4c0.2-1.1,0.2-2.1,0.5-3.1l0.3-1.6
					c0.1-0.6,0.5-3.4,0.6-4c0.3-1.5,0.9-3.8,1.2-5.3c0.1-0.4,0.5-1.9,0.6-2.3c0.1-0.5,0.5-3.1,0.7-3.7c0.1-0.4,0.5-2.8,0.6-3.3
					l1.2-6.1c0.1-0.5,0.2-1,0.4-1.5c0.1-0.4,0.6-2,0.7-2.4c0.1-0.5,0.4-3.3,0.5-3.8c0.3-1.4,0.7-2.7,1-4.1c0.1-0.5,1-4.1,1.1-4.5
					c0.1-0.7,0.5-3.9,0.6-4.6c0.5-2.7,0.9-3.3,1.2-3.6c0.4-0.5,1.6-2,3.6-1.6c0.5,0.1,2.8,0.7,3.4,0.8c0.7,0.1,4.3,0.7,5.1,0.8
					c0.6,0.1,3.7,0.9,4.3,1.1L1222,527.2z"/>
				<path class="st0" d="M1274,593.8c-0.6-0.2-1.1-0.2-2.8-0.2c-2.1-0.1-3-0.1-4,0.6c-0.7,0.5-2.8,2.9-3.5,4.9
					c-0.2,0.9-0.3,0.9-1.3,1.5c-0.9,0.5-1,0.6-3.3,0c-0.6-0.2-3.5-1-4.2-1.1c-0.4-0.1-2.2-0.4-2.7-0.5c-0.4-0.1-2.6-1-2.6-1.1
					c-0.5-0.5-1-1.8-0.7-3c0.2-0.6,0.4-1.4,0.9-2c0.3-0.4,0.6-0.8,0.8-1.2c0.3-0.5,0.5-1.1,0.7-1.6c0.3-0.7,0.5-1.2,0.7-1.8
					c0.2-0.5,1.4-2.6,1.6-3.1c0.6-1.3,0.9-2.6,1.4-3.8c0.4-0.8,2.1-4.2,2.6-5.1c0.4-0.7,0.8-1.4,1.2-2c0.6-1.3,1-2.5,1.6-3.7
					c0.2-0.5,2.7-5.6,3.2-6.2c0.3-0.5,0.8-0.9,1-1.5c0.2-0.3,0.3-0.8,0.5-1.1c0.2-0.6,2.8-6.1,3.2-6.9c0.2-0.3,0.4-0.7,0.5-1.1
					c0.2-0.5,0.4-0.9,0.7-1.4c0.4-0.7,0.9-1.3,1.2-1.9c0.4-0.6,0.7-1.3,1-2.1c2.6-6.4,4.8-9,9.7-7.8c0.4,0.1,1.2,0.3,2.2,0.6
					c2.3,0.8,5.4,1.3,9,2.1c2.4,0.2,4.8,1.5,6.1,3.1c1.2,1.5,1.5,2.6,1.5,5.2c0.1,1.2,0,2.5,0.1,3.8c0,1,0.2,2.1,0.2,3.1l-0.1,3.5
					c0,0.6-0.2,1.1-0.1,1.7c0,0.5,0,0.9,0.1,1.4c0,0.7,0.2,3.1,0,5.1c-0.2,1.7-0.2,1.9-0.2,3.2c0.1,1.1,0.1,4.1,0,4.7
					c-0.1,0.9-0.4,1.8-0.4,2.6c0,0.6,0.2,1.2,0.2,1.7c0,0.6,0,2.9,0,3.5c0,0.9-0.3,1.9-0.3,2.8c0,0.7,0.2,1.3,0.2,1.9
					c0,1,0,3.6-0.1,4.5c-0.2,1-0.2,1.2-0.1,1.8c0.2,1.3,0.2,3.8,0.1,5.3c0,0.7-0.1,1.4,0,2c0,0.7,0.2,1.3,0.2,1.8
					c0,0.4-0.3,2.4-0.4,2.6c-0.4,1.7-2.5,1.1-4.2,0.7c-0.7-0.2-4.1-0.7-4.9-0.9c-5.4-1.3-5.9-2-6.3-5.5c-0.1-0.9,0-1.7-0.1-2.5
					c-0.1-0.4-0.2-0.8-0.3-1.2c-0.2-1.4-0.4-2-1.8-3.1c-0.8-0.6-4.3-1.6-5.2-1.9L1274,593.8z M1276.7,570.8
					c-0.2,0.6-0.6,1.2-0.9,1.7c-0.5,0.9-1,1.8-1.3,2.9c-0.7,3,1.1,4.8,4.5,5.6c0.9,0.2,2.8,0.5,4.2,0.6c0.9,0,2,0,2.4-1.7
					c0.1-0.4,0.2-0.7,0.2-1.1c0.4-2.6,0.5-3.4,0.3-5.8c0-0.9-0.2-1.9-0.1-2.9c0-0.9,0.1-2,0.2-2.9c0-0.7-0.2-1.3-0.2-1.9
					c-0.1-0.8-0.1-2.6-0.1-3.4c0-2.1-1.2-2.4-1.5-2.4c-0.6-0.2-1.3,0.2-1.7,0.6c-0.9,0.8-3.2,4.9-3.3,5.1c-0.3,0.7-0.5,1.4-0.8,2
					c-0.3,0.7-0.7,1.2-0.9,1.9C1277.2,569.6,1277,570.2,1276.7,570.8z"/>
			</g>
		</g>
		<g>
			<g>
				<path class="st2" d="M591.2,92.6c0.2,0,1.1,0.1,1.4,0c0.2,0,1.6-0.3,2-0.4c0.3,0,1.9,0.1,2.2,0c0.1,0,0.9-0.1,1-0.2
					c0.6,0,1.3,0.1,1.6,0.5c0.3,0.3,0.3,1,0.4,2.2c0,0.4,0.3,2.6,0.3,3.1c0,0.4,0,2,0.1,2.3c0,0.2,0.2,1.2,0.2,1.5
					c0.1,1-0.7,1.9-1.4,1.9c-0.2,0-1.1-0.1-1.4,0c-0.4,0-2.3,0.3-2.8,0.4c-0.3,0-1.6,0.1-1.9,0.1c-0.1,0-0.7,0.1-0.8,0.1
					c-0.7,0.1-1.3-0.6-1.4-1.3c0-0.3,0-0.6-0.1-0.9c0-0.5-0.3-3-0.3-3.6c0-0.5-0.1-3.1-0.1-3.7C590.2,94.2,590.1,92.7,591.2,92.6z"
					/>
				<path class="st2" d="M624,67.1c-0.1-0.2-0.1-1.5-0.1-1.8c-0.1-2,1.3-2.4,2.4-2.5c0.4,0,2.6,0,3-0.1c0.5,0,3-0.3,3.6-0.3
					c0.4,0,2.8,0,3.3-0.1c0.4,0,2.5-0.3,3-0.3c0.2,0,1.2,0,1.4,0c0.2,0,1.3-0.2,1.5-0.2c0.2,0,1,0,1.2,0c0.2,0,1.3-0.2,1.6-0.2
					c0.2,0,1.4,0.1,1.7,0c0.2,0,1.1-0.1,1.3-0.2c0.4,0,2.1,0.1,2.4,0.1c0.3,0,1.5-0.3,1.9-0.3c0.3,0,0.5,0,0.9,0.2
					c0.5,0.2,0.9,0.2,1.2,1.2c0.1,0.4,0.2,0.6,0.3,2.7c0,0.4,0.2,2.4,0.2,2.9c0,0.3,0,0.7,0.1,1c0,0.1,0.1,0.9,0.1,1.2
					c0.1,1.2-0.7,2.2-1.8,2.5c-0.4,0.1-0.6,0.1-2,0.2c-2.7,0.2-3.8,0.3-4.6,1.3c-0.1,0.1-0.7,1.1-0.8,1.4c0,0.1,0,2.1-0.1,2.6
					c0,0.6,0.1,4.1,0.1,4.8c0,0.3,0.3,2,0.3,2.3c0,0.3,0,1.8,0,2.2c0.1,0.8,0.3,2.7,0.5,4.2c0,0.7,0.1,1.5,0.1,2.2
					c0,0.4,0.3,2,0.3,2.5c0.1,1.1,0,2.3,0,3.4c0,0.4,0.4,2.6,0.4,3.1c0.1,1,0.1,2,0.2,3.1c0,0.3,0,1.8,0,2.1c0,0.4,0.3,2,0.3,2.4
					c0.1,1.5-1,2.4-2.7,2.5c-0.6,0-1.1,0.1-1.7,0.1c-0.2,0-1.3,0.2-1.5,0.2c-0.2,0-1.4-0.1-1.7-0.1c-0.2,0-1,0.2-1.2,0.2
					c-1,0.1-1.4-0.9-1.6-1.7c-0.2-0.6-0.2-0.7-0.2-1.5c0-0.3,0-0.6-0.1-0.9c-0.1-0.9,0-1.7,0-2.6c-0.1-2.2-0.3-4.3-0.4-6.5
					c0-0.7-0.4-3.8-0.4-4.5c0-0.4,0-2.6,0-3.1c0-0.7-0.1-1.2-0.2-1.9c0-0.4,0.1-2,0-2.3c0-0.5-0.4-2.8-0.4-3.4c0-0.5-0.2-3.4-0.2-4
					c0-0.4-0.3-2.4-0.3-2.8c0-0.1,0-0.8,0-1c0-0.2-0.1-2-1.5-2.9c-1-0.6-2.4-0.6-4.4-0.4c-0.4,0-0.8,0.1-1.2,0.2
					c-0.3,0.1-0.7,0.2-1,0.2c-0.9,0.1-2.6-0.9-2.7-2.7c0-0.1-0.1-2.8-0.2-3.4C624,68,624,67.6,624,67.1z"/>
				<path class="st2" d="M658.5,79.3c-0.2-3.1,1.3-3.7,1.6-3.7c0.2,0,0.9,0,1.1,0c0.4,0,0.9-0.1,1.3-0.1c0.3,0,1.7,0,1.9,0
					c0.2,0,1.4-0.2,1.7-0.2c1.1-0.1,1.5,0.6,1.5,1.7c0.1,1.2,0.5,1.5,0.7,1.5c0.3,0,0.6-0.3,0.8-0.6c0.2-0.3,0.3-0.5,0.6-0.8
					c0.4-0.6,2.1-2.3,3.8-2.4c1.2-0.1,3,0,3.1,1.9c0,0.4,0,0.8,0,1.2c0,0.1,0.1,0.9,0.1,1.2c0,0.2,0,1.5,0,1.8
					c0,0.2,0.1,1.5,0.2,1.8c0,0.1,0,0.3,0,0.9c0,0.7,0.1,1.5,0.1,2.2c0.1,2.4-0.5,2.4-2.3,2.6c-0.8,0-1.2,0.2-2.3,0.8
					c-1.4,0.9-2.1,1.2-3.2,4.7c-0.1,0.4-0.1,0.4-0.2,1.3c0,0.3-0.1,0.6-0.1,1c0.1,1,0.1,2,0.2,3.1c0,0.5,0.3,3,0.3,3.5
					c0,0.4,0.1,2.2,0.1,2.6c0,0.4,0,0.7,0.1,1c0,0.4,0.3,1.8,0.3,2.1c0.1,1.1-0.2,2.3-0.5,2.9c-0.6,0.9-1.3,1-1.7,1
					c-0.4,0-2.2,0-2.6,0c-0.2,0-1.3,0.1-1.5,0.2c-0.4,0.1-0.7,0.1-1.5,0.2c-0.6,0-1,0.1-1.6-1.2c-0.2-0.4-0.4-0.9-0.4-1.7
					c0-0.5,0-2.9-0.1-3.4c0-0.8-0.1-1.6-0.1-2.3c0-0.4-0.1-2.1-0.1-2.6c0-0.4-0.3-2.5-0.3-3.1c-0.2-2.8-0.1-3.3-0.2-3.7
					c0-0.4,0-1.8,0-2.1c-0.1-0.9-0.2-1.9-0.3-2.8c0-0.4,0-0.7,0-1.1c0-0.3,0.1-1,0.1-1.2c0-0.3-0.2-1.7-0.2-2c0-0.6-0.1-1.2-0.1-1.8
					c0-0.3-0.2-2-0.2-2.3C658.6,80.4,658.6,79.9,658.5,79.3z"/>
				<path class="st2" d="M682.7,86.6c0-0.3-0.3-2.4-0.3-2.8c-0.1-1.2-0.1-1.3-0.1-2.8c0-0.9-0.1-1.8-0.1-2.7c0-0.2-0.1-1.2-0.1-1.5
					c-0.1-1.6,0.9-2.5,1-2.5c0.2-0.1,1.2-0.1,1.5-0.1c0.4,0,0.7-0.1,1.1-0.1c0.4-0.1,0.7-0.1,1.1-0.1c0.3,0,0.5,0,0.8,0
					c0.1,0,0.3,0.1,0.3,0.1c0,0,0,0,0.1,0c0,0,0,0,0.1,0c0.1,0,0.1,0,0.2,0c0.2,0,1.5-0.3,1.7-0.3c0.2,0,0.7,0,0.9,0.2
					c0.1,0.1,1,1,1.1,2.4c0,0.3,0,1.8,0,2.1c0,0.3,0.2,1.8,0.2,2.1c0,0.5-0.1,2.9-0.1,3.4c0,0.4,0.2,2,0.3,2.4c0,0.7,0,1.5,0,2.3
					c0,0.3,0.1,1.6,0.2,1.9c0,0.3,0,1.5,0,1.8c0.1,1.5,0.7,4.1,1.1,5c0.2,0.4,1.2,2,3.1,1.9c0.6,0,1.5-0.1,2.2-0.7
					c0.5-0.5,1.1-1.4,1.3-2.3c0.1-0.1,0.5-2,0.5-2.1c0-0.1,0-2.8,0-2.9c0-0.2-0.1-1.2-0.1-1.4c0-0.5,0-1,0-1.4c0-0.3-0.1-1.7-0.1-2
					c-0.1-1.5,0-3.1,0-4.6c0-0.8-0.5-4.4-0.5-5.2c-0.1-2.2,1-3.2,1.9-3.2c0.6,0,1.2-0.1,1.8-0.1c0.1,0,0.9-0.1,1-0.2
					c0.2,0,1.4,0,1.7,0c0.2,0,1.4-0.2,1.7-0.2c0.7,0,0.9,0.3,1.2,0.7c0.5,0.9,0.5,1.1,0.6,2.5c0,0.3,0.2,2,0.2,2.3
					c0,0.4,0,2.1,0,2.5c0,1,0.2,1.9,0.3,2.9c0,0.9,0.1,1.7,0.1,2.6c0,0.4,0.2,2.5,0.2,2.9c0,0.4,0,2.3,0,2.9c0,0.9,0.1,1.8,0.2,2.8
					c0,0.4,0,2.8,0,3.4c0,0.9,0.2,1.9,0.3,2.8c0,0.9,0,2,0.1,2.9c0,0.6,0.1,1.2,0.1,1.7c0.1,2.9-0.6,3.8-2.7,3.9
					c-0.4,0-2.3,0-2.8,0.1c-0.3,0-1.9,0.2-2.3,0.3c-0.9,0-1.4-0.4-1.6-0.8c-0.1-0.3-0.2-0.7-0.4-0.9c-0.1-0.2-0.3-0.4-0.5-0.4
					c-0.2,0-0.4,0.2-0.5,0.4c-1.7,1.7-3.3,2.3-5.4,2.4c-1,0.1-3.3,0-4.3-0.4c-0.4-0.2-1.8-0.7-2.1-1c-0.6-0.3-1-1-1.5-1.5
					c-0.3-0.2-0.5-0.4-0.8-0.7c-0.8-0.7-2.8-3.4-3.1-8.8c-0.1-1.1-0.2-2.9-0.2-3.9c0-0.3,0-1,0-1.1c0-0.6-0.1-1.2-0.2-1.7
					c0-0.7,0-1.2,0-1.8c0-0.3-0.2-1.5-0.2-1.8C682.8,87.8,682.8,86.9,682.7,86.6C682.7,86.6,682.7,86.6,682.7,86.6z"/>
				<path class="st2" d="M717.4,84.9c0.2-1.3,1-3.6,1.2-4.2c0.2-0.6,1.8-3.4,2.2-3.9c2.5-3.5,6.5-5.4,9.1-5.6c0.9,0,1.8-0.1,2.7-0.1
					c2.7-0.1,5.1,1,5.4,1.1c3.9,1.9,6.4,6.8,6.6,7.1c0.3,0.5,0.4,1.1,0.6,1.6c0.1,0.4,0.3,0.7,0.4,1c0.8,2.1,1.1,6.1,1.2,8.2
					c0.1,2.5-1.2,3.1-2.1,3.2c-0.7,0-1.3,0.1-2,0.1c-0.7,0-4.6,0.3-5.4,0.4c-0.4,0-2.7,0-3.2,0c-0.4,0-2.5,0.2-3,0.2
					c-0.7,0-1.4,0.1-2,0.1c-0.6,0-1.7,0.1-1.6,1.2c0.1,2,3.8,3.8,5.4,3.8c0.2,0,1.3-0.1,1.5-0.1c0.2,0,1.2,0.1,1.5,0.1
					c0.2,0,1.1-0.1,1.3-0.1c0.2,0,0.7-0.1,1.2-0.3c0.6-0.2,1.3-0.1,1.9-0.2c0.5-0.2,1-0.3,1.5-0.6c1.8-0.9,2.7-1.3,3.3-1.3
					c1.3-0.1,1.7,0.4,1.8,1.3c0,0.2,0,0.4,0,0.7c0,0.5,0,0.9,0.1,3.3c0,0.3,0.1,1.8,0.1,2.2c0,0.8-0.1,1.1-0.6,1.6
					c-1.2,1.2-2.6,2.1-5.2,2.8c-2.2,0.6-2.3,0.6-3.1,0.6c-0.4,0-2.3,0.3-2.8,0.3c-0.1,0-2.2-0.1-2.3-0.1c-2.3-0.1-2.9-0.2-3.8-0.4
					c-0.5-0.1-3.7-1.7-4.3-2c-0.6-0.3-3.4-2.2-5.2-5.5c-1.8-3.6-2.4-8.6-2.5-9.6C717.1,91.3,717.1,86.5,717.4,84.9z M728.6,81.5
					c-0.3,0.2-1.7,1.8-1.7,2.9c0.1,1.8,1.9,1.7,3.5,1.6c0.4,0,0.8,0,1.2,0c0.1,0,0.7-0.1,0.8-0.1c0.2,0,1,0.1,1.2,0.1
					c0.3,0,1.3-0.3,1.5-0.4c1.5-0.4,1.8-0.5,1.7-1.2c-0.1-3.4-4.1-4-4.6-4C732.1,80.4,729.8,80.5,728.6,81.5z"/>
				<path class="st2" d="M774.3,73.2c0-0.5,0.1-3,0.1-3.5c0-1.1-0.2-2.2-0.2-3.3c0-0.4,0.1-2.3,0.1-2.6c0-0.7-0.4-4.2-0.4-5
					c0-1.2,0.6-3.1,1.6-3.3c0.2,0,1,0,1.1,0c0.3,0,1.9-0.1,2.2-0.1c0.8,0,1.7,0,2.5,0c0.2,0,1.1-0.1,1.4-0.1c0.7,0,0.9,0.3,1.3,0.8
					c0.5,0.7,0.8,1.1,0.8,2.2c0,0.4,0,2.2,0,2.6c0,0.4,0.1,2,0.1,2.5c0,0.5,0,3,0,3.6c0,1.7,0.2,3.4,0.3,5.1c0,0.5,0,2.7,0,3.2
					c0,0.9,0.1,1.9,0.1,2.8c0,0.4,0,2.7,0,3.2c0,0.7,0.2,3.8,0.3,4.5c0,0.7,0.1,4.4,0.1,5c0,0.7-0.1,1.3-0.1,2
					c0,0.4,0.2,2.6,0.2,3.1c0.1,2,0.1,4,0.2,6c0,0.4,0.2,2.1,0.3,2.6c0,1.3-1,2.1-1.8,2.2c-0.2,0-1.3-0.1-1.5-0.1
					c-0.4,0-2.1,0.2-2.5,0.2c-0.2,0-1.4-0.1-1.7-0.1c-0.2,0-1.2,0.2-1.3,0.2c-1.3,0-1.9-1.2-2-1.8c-0.1-0.1-0.1-1.5-0.1-1.6
					c0-0.7,0-1.4,0.1-2.1c0-1,0.1-1.9,0-2.9c0-1.2-0.3-7-0.4-8.4c0-0.1,0.1-1,0.1-1.2c0-0.3-0.2-1.5-0.2-1.8c0-0.8,0.1-4.9,0.1-5.9
					c-0.1-1.8-0.3-3.4-0.3-5.1C774.3,75.2,774.3,74.2,774.3,73.2z"/>
				<path class="st2" d="M792.5,81.2c0.9-4.3,2.3-6.1,3.7-7.9c2-2.5,4.1-3.3,4.5-3.4c0.4-0.2,0.9-0.2,1.4-0.3
					c0.4-0.2,0.8-0.3,1.2-0.5c0.4-0.1,0.9-0.1,1.3-0.2c0.4,0,0.7-0.2,1.2-0.2c0.4-0.1,2.5-0.1,3-0.1c1.3,0,2.1,0.9,2.2,2.1
					c0,0.3,0,0.7,0,1c-0.1,1.2,0,3.4,0,5.3c0,1.7,0,1.8-1,2.4c-0.5,0.4-0.5,0.4-2.3,0.4c-0.2,0-0.9-0.1-1-0.1c-0.1,0-0.2,0-0.2,0
					c-0.5,0.1-1,0.5-1.5,0.8c-0.4,0.2-0.8,0.2-1.1,0.5c-0.5,0.4-2.3,2.7-2.2,4.8c0,0.1,0,0.9,0,1.1c0,0.1,0.1,0.4,0.1,0.5
					c0,0.1,0,0.4,0,0.5c0,0.1,0.3,1.4,0.3,1.5c0.3,0.8,1.6,3.9,3.8,5c1.9,0.9,2.5,1.2,4.5,1.1c0.9,0,1.7,0.3,1.7,2.2
					c0,0.4-0.1,2.1-0.1,2.5c0,0.4,0.2,2.5,0.3,3c0,0.4,0,0.8,0,1.2c0,1-0.7,2.1-2.3,2.1c-0.4,0-0.8-0.1-1.2,0c-0.4,0-0.8,0-1.2,0
					c-1.2,0-2.6-0.1-3.9-0.3c-1.1-0.3-1.2-0.3-1.9-0.6c-2.1-1.2-2.3-1.3-3.7-2.5c-2.4-2.1-2.7-2.8-3.9-5.5c-0.7-1.6-1.3-3.7-1.3-3.7
					c-0.1-0.6-0.4-2.3-0.5-4.8c0-0.4-0.2-2.9-0.2-3.5C791.8,84.4,792.2,82.7,792.5,81.2z"/>
				<path class="st2" d="M817.4,81.5c0.3-1.3,1-3.5,1.3-4.1c0.2-0.6,1.9-3.3,2.3-3.8c2.5-3.4,6.6-5.3,9.2-5.4c0.9,0,1.8,0,2.7,0
					c2.7,0,5.1,1.1,5.4,1.2c3.9,2,6.2,7,6.4,7.3c0.3,0.5,0.4,1.1,0.6,1.6c0.1,0.4,0.3,0.7,0.4,1c0.8,2.1,0.9,6.1,1,8.2
					c0,2.5-1.3,3.1-2.2,3.1c-0.7,0-1.3,0-2,0c-0.7,0-4.6,0.2-5.4,0.2c-0.4,0-2.7-0.1-3.2-0.1c-0.4,0-2.5,0.1-3,0.1c-0.7,0-1.4,0-2,0
					c-0.6,0-1.7,0.1-1.6,1.1c0,2,3.7,3.9,5.3,3.9c0.2,0,1.3-0.1,1.5-0.1c0.2,0,1.2,0.1,1.5,0.1c0.2,0,1.1-0.1,1.3-0.1
					c0.2,0,0.7-0.1,1.2-0.2c0.6-0.2,1.3-0.1,1.9-0.2c0.6-0.2,1-0.3,1.5-0.5c1.8-0.8,2.8-1.2,3.4-1.2c1.3,0,1.7,0.5,1.8,1.4
					c0,0.2-0.1,0.4-0.1,0.7c-0.1,0.5-0.1,0.9,0,3.3c0,0.3,0.1,1.8,0.1,2.2c0,0.8-0.2,1.1-0.7,1.5c-1.2,1.2-2.6,2.1-5.3,2.7
					c-2.2,0.5-2.3,0.5-3.1,0.6c-0.4,0-2.3,0.3-2.8,0.3c-0.1,0-2.2-0.2-2.3-0.2c-2.3-0.2-2.9-0.2-3.8-0.5c-0.5-0.1-3.7-1.8-4.3-2.1
					c-0.6-0.3-3.4-2.3-5-5.6c-1.7-3.6-2.2-8.7-2.2-9.7C817,87.9,817.1,83.1,817.4,81.5z M828.7,78.4c-0.3,0.2-1.8,1.7-1.7,2.8
					c0,1.8,1.8,1.7,3.4,1.7c0.4,0,0.8,0.1,1.2,0.1c0.1,0,0.7-0.1,0.8-0.1c0.2,0,1,0.1,1.2,0.1c0.2,0,1.3-0.2,1.5-0.3
					c1.5-0.3,1.8-0.5,1.8-1.2c-0.1-3.4-4-4.1-4.5-4.1C832.2,77.4,829.9,77.4,828.7,78.4z"/>
				<path class="st2" d="M875,58.4c0-0.4,0-1-0.1-1.4c0-0.2-0.1-1.2-0.1-1.5c0-0.5,0.1-0.7,0.4-1c0.4-0.6,0.6-0.9,1.5-0.9
					c0.5,0,2.7,0.2,3.2,0.2c0.2,0,0.9-0.1,1.6-0.1c0.6-0.1,1.3-0.1,1.5-0.1c0.6,0,1.2,0.1,1.5,0.8c0.1,0.1,0.5,1.3,0.5,1.6
					c0,0.3-0.2,1.7-0.2,2c0,1.3,0,2.6,0,4c0,0.3-0.1,1.7-0.1,2c0,0.3,0.1,1.8,0.1,2.1c0,0.1-0.1,1.2-0.1,1.4c0,0.2,0.1,1.4,0.1,1.6
					c0,0.5-0.1,1.1-0.1,1.6c0,0.2,0.1,1.3,0.1,1.6c0,0.8,0,1.6,0,2.4c0,0.3-0.1,1.7-0.1,2c0,0.5,0.1,2.9,0.1,3.4c0,0.4,0,0.8,0,1.2
					c-0.1,0.4-0.1,2.6-0.1,3.1c0,0.4,0.1,2.3,0.1,2.8c0,0.3-0.1,1.8-0.1,2.2c0,0.4,0.1,2.1,0.1,2.6c0,0.3-0.2,1.7-0.2,2
					c0,0.4,0.1,2.3,0.1,2.8c0,0.7,0.2,3.6,0.2,4.2c0,2.5-0.2,4.1-1.9,4.1c-0.6,0-3.2-0.1-3.8-0.1c-0.5,0-1,0-1.6,0.1
					c-0.1,0-0.9,0.1-1,0.1c-0.5,0-0.7-0.3-0.9-0.4c-0.2-0.3-0.2-0.7-0.4-1.1c-0.1-0.2-0.3-0.4-0.6-0.4c-0.2,0-0.4,0.2-0.6,0.4
					c-0.2,0.2-1.1,0.8-2,1.2c-1.5,0.6-4.2,0.8-4.3,0.8c-0.2,0.1-1.6,0-1.9,0c-0.1,0-3.1-0.5-3.3-0.6c-0.4-0.1-0.9-0.3-1.3-0.6
					c-0.3-0.1-0.6-0.4-0.9-0.5c-0.3-0.1-0.7-0.3-1-0.4c-1.2-0.5-3.3-2.3-4.1-3.8c-0.2-0.4-0.4-0.8-0.6-1.2c-0.4-0.7-1.1-1.9-1.4-2.8
					c-0.2-0.6-0.3-1.3-0.5-2c-0.1-0.3-0.2-0.5-0.3-0.8c-0.1-0.6-0.3-1.2-0.3-1.8c-0.1-0.8-0.3-5-0.3-5c0-2.1,0.6-6,1.1-7.4
					c0.2-0.5,0.4-1,0.6-1.5c0.4-0.7,0.6-1.5,0.9-2.3c0.7-1.4,2-2.7,2.2-3c0.4-0.4,0.8-0.7,1.2-1c0.5-0.4,0.9-0.8,1.4-1.2
					c0.6-0.5,1.3-0.9,2-1.2c1.7-0.7,2.1-0.8,3.7-0.8c0.2,0,1.4-0.2,1.6-0.2c1.4,0,3.8,0.5,4.9,1c0.4,0.2,2,1.5,2.4,1.4
					c0.9,0,0.9-1,0.8-2.6c0-0.3,0.1-1.7,0.1-2c0-0.1-0.1-0.9-0.1-0.9C875.1,62.5,875.1,60.4,875,58.4z M868.9,78.8
					c-0.2,0-0.9-0.1-1.1-0.1c-0.2,0-0.4,0-0.7,0.1c-1.1,0.2-2.3,0.5-3.1,1.4c-0.2,0.2-0.4,0.5-0.6,0.7c-0.2,0.2-0.6,0.4-0.7,0.8
					c-0.1,0.1-0.4,1.1-0.5,1.3c-0.5,1.3-0.8,2.7-0.8,4.1c0,2.1,0.8,4.2,1.4,4.9c0.4,0.5,2.4,2.1,2.7,2.2c0.5,0.2,3.1,0.6,3.6,0.6
					c0.6,0,1-0.1,1.7-0.5c1.2-0.4,3.2-1.3,4.2-3.4c0.3-0.7,0.4-0.8,0.4-2.3c0.1-0.6,0.2-1.2,0.2-1.8c0-0.3-0.2-1.5-0.3-1.8
					c0-0.3,0-0.6-0.1-0.9c-0.1-0.5-0.6-2.2-1-2.8c-0.3-0.4-1.6-1.5-2.1-1.8c-0.4-0.3-0.5-0.3-1.5-0.6c-0.4-0.1-0.7-0.2-1.1-0.3
					C869.4,78.8,869.1,78.8,868.9,78.8z"/>
				<path class="st2" d="M911.8,57.5c-0.1-0.2,0-1.5,0-1.8c0-2,1.4-2.3,2.6-2.3c0.4,0,2.6,0.2,3,0.2c0.5,0,3.1-0.1,3.6-0.1
					c0.4,0,2.7,0.2,3.3,0.2c0.4,0,2.6-0.1,3-0.1c0.2,0,1.2,0.1,1.4,0.1c0.2,0,1.3-0.1,1.6-0.1c0.2,0,1,0.1,1.2,0.1
					c0.2,0,1.3-0.1,1.6-0.1c0.2,0,1.4,0.2,1.7,0.2c0.2,0,1.1-0.1,1.3-0.1c0.4,0,2.1,0.2,2.4,0.2c0.2,0,1.6-0.2,1.9-0.2
					c0.3,0,0.5,0.1,0.9,0.2c0.5,0.2,0.9,0.3,1.1,1.3c0.1,0.4,0.1,0.7,0.1,2.7c0,0.4,0,2.4,0,2.9c0,0.3,0,0.7,0,1
					c0,0.1,0.1,1,0.1,1.2c0,1.2-0.9,2.1-2,2.4c-0.4,0.1-0.6,0.1-2.1,0.1c-2.7,0-3.8,0-4.7,1c-0.1,0.1-0.8,1.1-0.9,1.4
					c0,0.1-0.2,2.1-0.3,2.6c-0.1,0.6-0.2,4.1-0.2,4.8c0,0.3,0.1,2,0.1,2.3c0,0.3-0.1,1.8-0.1,2.2c0,0.8,0.1,2.7,0.2,4.2
					c0,0.7,0,1.5,0,2.2c0,0.4,0.1,2,0.1,2.5c0,1.1-0.2,2.3-0.2,3.4c0,0.4,0.2,2.6,0.2,3.1c0,1,0,2,0,3.1c0,0.3-0.1,1.8-0.1,2
					c0,0.4,0.1,2,0.1,2.4c0,1.5-1.1,2.3-2.9,2.3c-0.6,0-1.1,0-1.7,0c-0.2,0-1.3,0.1-1.5,0.1c-0.2,0-1.4-0.2-1.7-0.2
					c-0.2,0-1,0.1-1.2,0.1c-1,0-1.3-1-1.5-1.8c-0.2-0.7-0.2-0.7-0.1-1.5c0-0.3,0-0.6,0-0.9c0-0.9,0.1-1.7,0.1-2.6c0-2.2,0-4.3,0-6.5
					c0-0.7-0.1-3.8-0.1-4.5c0-0.4,0.2-2.6,0.2-3.1c0-0.7-0.1-1.2-0.1-1.9c0-0.4,0.2-2,0.2-2.3c0-0.5-0.2-2.9-0.2-3.4
					c0-0.5,0.1-3.4,0.1-4c0-0.4-0.1-2.4-0.1-2.9c0-0.1,0.1-0.8,0.1-1c0-0.2,0-2-1.3-3c-0.9-0.7-2.4-0.7-4.3-0.8
					c-0.4,0-0.8,0-1.2,0.1c-0.3,0.1-0.7,0.1-1.1,0.1c-0.9,0-2.5-1.1-2.5-2.9c0-0.1,0.1-2.9,0.1-3.4
					C911.8,58.4,911.8,57.9,911.8,57.5z"/>
				<path class="st2" d="M943.3,80.9c0.3-1.3,1.2-3.5,1.5-4.1c0.2-0.6,2-3.3,2.4-3.8c2.6-3.3,6.8-5,9.4-5.1c0.9,0,1.8,0,2.7,0
					c2.7,0,5.1,1.2,5.3,1.4c3.8,2.1,6,7.2,6.1,7.5c0.2,0.5,0.4,1.1,0.5,1.6c0.1,0.4,0.2,0.7,0.4,1c0.7,2.1,0.8,6.2,0.7,8.2
					c0,2.5-1.4,3.1-2.3,3c-0.7,0-1.3,0-2,0c-0.7,0-4.6,0.1-5.4,0.1c-0.4,0-2.7-0.2-3.2-0.2c-0.4,0-2.5,0-3,0c-0.7,0-1.4,0-2,0
					c-0.6,0-1.7,0-1.7,1.1c0,2,3.6,4,5.1,4.1c0.2,0,1.3-0.1,1.5-0.1c0.2,0,1.2,0.2,1.5,0.2c0.2,0,1.1-0.1,1.3-0.1
					c0.2,0,0.7-0.1,1.2-0.2c0.6-0.1,1.3-0.1,1.9-0.1c0.6-0.1,1.1-0.3,1.5-0.5c1.8-0.8,2.8-1.1,3.4-1.1c1.3,0,1.7,0.5,1.7,1.4
					c0,0.2-0.1,0.4-0.1,0.7c-0.1,0.5-0.1,0.9-0.1,3.3c0,0.3,0,1.8,0,2.2c0,0.8-0.2,1.1-0.7,1.5c-1.3,1.1-2.7,2-5.4,2.5
					c-2.2,0.5-2.3,0.5-3.1,0.5c-0.4,0-2.3,0.2-2.8,0.2c-0.1,0-2.1-0.3-2.3-0.3c-2.3-0.2-2.9-0.3-3.8-0.6c-0.5-0.2-3.6-1.9-4.2-2.2
					c-0.5-0.3-3.3-2.4-4.9-5.8c-1.6-3.7-1.9-8.7-1.9-9.8C942.6,87.2,942.9,82.4,943.3,80.9z M954.6,78.1c-0.3,0.2-1.8,1.7-1.8,2.8
					c0,1.8,1.8,1.8,3.4,1.8c0.4,0,0.8,0.1,1.2,0.1c0.1,0,0.7-0.1,0.8-0.1c0.2,0,1,0.2,1.2,0.2c0.2,0,1.3-0.2,1.6-0.3
					c1.6-0.3,1.8-0.4,1.8-1.1c0.1-3.4-3.9-4.2-4.3-4.2C958.2,77.2,955.9,77.2,954.6,78.1z"/>
				<path class="st2" d="M980.7,73.3c0-0.6,0.3-1.8,0.7-2.1c0.2-0.2,1.3-0.6,1.6-0.8c0.8-0.3,1.6-0.5,2.4-0.8
					c1.3-0.5,1.4-0.6,2.4-0.8c1.3-0.2,3.1-0.4,5.4-0.4c2.3,0.1,5.2,0.6,7.2,1.6c1.3,0.7,2.8,1.8,3.4,2.6c0.2,0.3,0.4,0.7,0.6,1
					c0.2,0.2,0.5,0.5,0.7,0.8c0.4,0.7,0.9,2.4,0.9,4.6c0,0.9-0.2,5.1-0.2,6.1c0,0.3,0.1,2,0.1,2.4c0,0.3-0.1,1.7-0.1,2
					c0,0.3,0,1.8,0,2.2c0,0.5-0.2,2.9-0.2,3.5c0,0.4,0,2.3,0.1,2.6c0,0.7-0.2,3.7-0.2,4.3c0,0.3,0.1,1.5,0.1,1.8
					c0,1.8-1.5,2.3-3,2.3c-0.6,0-1.1,0-1.7,0c-0.4,0-2.6,0-3.1,0c-0.6,0-0.8-0.8-0.9-0.9c-0.1-0.2-0.1-0.5-0.2-0.7
					c-0.1-0.2-0.3-0.4-0.5-0.4c-0.2,0-0.5,0.3-0.8,0.5c-0.6,0.6-1.2,0.8-2.1,1.2c-1.1,0.3-1.6,0.5-3.8,0.4c-0.7,0-2.9-0.4-3.7-0.5
					c-1-0.2-3.2-1.3-4.3-2.4c-0.4-0.4-2.1-2.8-2.4-3.5c-0.3-0.6-0.9-2.7-1-3.3c-0.1-1,0-2.1-0.1-3.2c0-0.4,0-1,0-1.5
					c0-0.7,0.1-1.1,0.5-2.3c0.5-1.2,0.6-1.7,1.4-2.7c0.1-0.2,0.3-0.4,0.5-0.6c0.4-0.5,0.7-1,1.1-1.4c0.7-0.8,2.6-1.8,3.1-2.1
					c0.3-0.1,0.7-0.1,1-0.3c0.9-0.3,1.4-0.6,2.3-0.7c0.5-0.1,1-0.1,1.5,0c0.4-0.1,0.9-0.2,1.3-0.2c0.1,0,0.7,0.1,0.9,0.1
					c0.2,0,1.2-0.1,1.4-0.1c0.2,0,0.3,0,0.4,0.1c0.1,0,0.6,0.2,0.8,0.2c0.1,0,0.2,0,0.4,0c0.2,0,0.9,0.2,1.1,0.2
					c0.7,0,1.4-0.6,1.4-1.2c0-0.6-0.6-1.6-1.6-2.1c-0.8-0.4-2-0.6-2.6-0.6c-0.2,0-3,0.1-3.3,0.1c-0.7,0.1-1.5,0.4-2.2,0.7
					c-0.3,0.1-0.9,0.2-1.1,0.2c-0.2,0.1-0.4,0.1-0.6,0.1c-0.4,0.1-0.7,0.4-1.1,0.5c-0.3,0.1-1.9,0.8-2.3,0.8c-0.9,0-1.7-0.6-1.6-1.8
					c0-0.4,0.2-2.1,0.2-2.5c0-0.2,0-1.2,0-1.4c0-0.2,0.1-1.2,0.1-1.3C980.7,73.9,980.7,73.6,980.7,73.3z M990.4,90.8
					c-0.3,0.1-1.5,0.4-1.7,0.5c-0.7,0.3-1.6,1.2-1.6,2.5c0,0.7,0.2,2.1,1.4,2.7c0.4,0.2,2.1,0.9,2.5,0.9c0.2,0,1.1-0.2,1.7-0.3
					c1.1,0,1.1,0,2-0.6c0.7-0.4,1.6-0.9,1.6-2.7c0-0.5-0.1-1.2-0.8-1.8c-0.5-0.4-2.1-1.4-2.7-1.4c-0.3,0-0.6,0.1-0.8,0.1
					c-0.1,0-0.7-0.2-0.9-0.2C991,90.6,990.7,90.8,990.4,90.8z"/>
				<path class="st2" d="M1033.2,59.7c-0.1-0.2,0-1.5,0.1-1.8c0.1-2,1.5-2.3,2.6-2.3c0.4,0,2.6,0.2,3,0.2c0.5,0,3.1,0,3.6,0.1
					c0.4,0,2.7,0.2,3.3,0.3c0.4,0,2.6-0.1,3,0c0.2,0,1.2,0.1,1.4,0.1c0.2,0,1.3-0.1,1.6-0.1c0.2,0,1,0.1,1.2,0.1c0.2,0,1.3,0,1.6,0
					c0.2,0,1.4,0.2,1.7,0.2c0.2,0,1.1,0,1.3,0c0.4,0,2,0.3,2.4,0.3c0.2,0,1.6-0.2,1.9-0.1c0.3,0,0.5,0.1,0.9,0.3
					c0.5,0.2,0.9,0.3,1.1,1.3c0.1,0.4,0.1,0.7,0,2.7c0,0.4,0,2.4-0.1,2.9c0,0.3,0,0.7,0,1c0,0.1,0,1,0,1.2c-0.1,1.2-1,2.1-2,2.3
					c-0.4,0.1-0.6,0.1-2.1,0c-2.7-0.1-3.8-0.1-4.7,0.8c-0.1,0.1-0.9,1.1-1,1.4c0,0.1-0.3,2.1-0.3,2.6c-0.1,0.6-0.3,4.1-0.4,4.7
					c0,0.3,0,2,0,2.3c0,0.3-0.2,1.8-0.2,2.2c0,0.8,0,2.7,0,4.2c0,0.7-0.1,1.5-0.1,2.2c0,0.4,0,2.1,0,2.5c0,1.1-0.3,2.3-0.3,3.4
					c0,0.4,0.1,2.6,0.1,3.1c0,1-0.1,2-0.1,3.1c0,0.3-0.2,1.7-0.2,2c0,0.4,0,2.1,0,2.4c-0.1,1.5-1.2,2.3-3,2.2c-0.6,0-1.1,0-1.7-0.1
					c-0.2,0-1.3,0-1.5,0c-0.2,0-1.4-0.3-1.7-0.3c-0.2,0-1.1,0.1-1.2,0.1c-1,0-1.3-1-1.4-1.8c-0.2-0.7-0.2-0.7-0.1-1.5
					c0-0.3,0-0.6,0-0.9c0-0.9,0.2-1.7,0.2-2.6c0.1-2.2,0.2-4.3,0.2-6.5c0-0.7,0-3.8,0-4.5c0-0.4,0.3-2.6,0.3-3.1c0-0.7,0-1.2,0-1.9
					c0-0.4,0.3-2,0.3-2.3c0-0.5-0.1-2.9-0.1-3.4c0-0.5,0.2-3.4,0.2-4c0-0.4,0-2.4,0-2.9c0-0.1,0.1-0.8,0.1-0.9c0-0.2,0.1-2-1.2-3
					c-0.9-0.7-2.3-0.8-4.3-0.9c-0.4,0-0.8,0-1.2,0c-0.3,0.1-0.7,0.1-1.1,0.1c-0.9,0-2.4-1.2-2.4-2.9c0-0.1,0.2-2.8,0.2-3.4
					C1033.2,60.6,1033.2,60.1,1033.2,59.7z"/>
				<path class="st2" d="M1066.2,76c0-0.6,0.4-1.7,0.7-2.1c0.3-0.2,1.3-0.6,1.6-0.7c0.8-0.3,1.6-0.4,2.4-0.7
					c1.3-0.5,1.5-0.5,2.4-0.7c1.3-0.2,3.1-0.4,5.4-0.3c2.3,0.1,5.2,0.7,7.2,1.8c1.3,0.7,2.8,1.9,3.4,2.7c0.2,0.3,0.3,0.7,0.6,1
					c0.2,0.2,0.5,0.5,0.6,0.8c0.4,0.7,0.9,2.4,0.8,4.6c0,0.9-0.3,5.1-0.4,6.1c0,0.3,0,2.1,0,2.4c0,0.3-0.1,1.7-0.2,2
					c0,0.3,0,1.8,0,2.2c0,0.5-0.3,2.9-0.3,3.5c0,0.4,0,2.3,0,2.6c0,0.7-0.2,3.7-0.3,4.3c0,0.3,0,1.5,0,1.8c-0.1,1.8-1.5,2.3-3.1,2.2
					c-0.6,0-1.1-0.1-1.7-0.1c-0.4,0-2.6,0-3.1-0.1c-0.6,0-0.8-0.8-0.9-0.9c0-0.2,0-0.5-0.2-0.7c-0.1-0.2-0.3-0.4-0.5-0.4
					c-0.2,0-0.5,0.3-0.8,0.5c-0.6,0.6-1.3,0.8-2.1,1.1c-1.1,0.3-1.6,0.4-3.8,0.3c-0.7,0-2.9-0.4-3.7-0.6c-1-0.3-3.2-1.4-4.2-2.4
					c-0.3-0.5-2-2.8-2.3-3.5c-0.3-0.6-0.9-2.7-1-3.3c-0.1-1,0-2.1,0-3.2c0-0.4,0-1,0-1.5c0-0.7,0.1-1.1,0.5-2.2
					c0.5-1.2,0.6-1.7,1.5-2.6c0.1-0.2,0.3-0.4,0.5-0.6c0.4-0.5,0.7-1,1.1-1.4c0.7-0.8,2.6-1.8,3.1-2c0.3-0.1,0.7-0.1,1-0.2
					c0.9-0.3,1.4-0.5,2.3-0.6c0.5-0.1,1,0,1.5,0c0.4-0.1,0.9-0.2,1.3-0.2c0.1,0,0.7,0.1,0.9,0.1c0.2,0,1.2-0.1,1.4-0.1
					c0.2,0,0.3,0,0.4,0.1c0.1,0,0.6,0.2,0.8,0.3c0.1,0,0.2,0,0.4,0c0.2,0,0.9,0.3,1.1,0.3c0.7,0,1.4-0.5,1.4-1.2
					c0-0.6-0.5-1.6-1.5-2.1c-0.8-0.4-2-0.6-2.6-0.6c-0.2,0-3,0-3.3,0.1c-0.7,0.1-1.5,0.4-2.3,0.6c-0.3,0.1-0.9,0.2-1.1,0.2
					c-0.2,0.1-0.4,0.1-0.6,0.1c-0.4,0.1-0.7,0.3-1.1,0.5c-0.3,0.1-2,0.7-2.3,0.7c-0.9,0-1.6-0.7-1.6-1.8c0-0.4,0.2-2.1,0.2-2.5
					c0-0.2,0-1.2,0-1.4c0-0.2,0.1-1.2,0.1-1.3C1066.2,76.6,1066.2,76.3,1066.2,76z M1075.6,93.7c-0.3,0.1-1.5,0.4-1.8,0.5
					c-0.8,0.3-1.6,1.2-1.7,2.5c0,0.7,0.2,2.1,1.3,2.8c0.4,0.2,2.1,1,2.5,1c0.2,0,1.1-0.2,1.7-0.3c1.1,0,1.1,0,2.1-0.6
					c0.7-0.4,1.6-0.9,1.7-2.6c0-0.5-0.1-1.2-0.8-1.9c-0.5-0.4-2-1.4-2.7-1.4c-0.2,0-0.6,0-0.8,0c-0.1,0-0.7-0.2-0.9-0.2
					C1076.2,93.5,1075.9,93.6,1075.6,93.7z"/>
				<path class="st2" d="M1098.3,81.2c0.3-2,0.4-3,1.5-4.2c1.3-1.5,2.6-2.9,4.7-3.5c0.8-0.2,3.3-0.6,4.3-0.6c0.7,0,4.5,0.5,5.2,0.7
					c0.6,0.1,1.2,0.4,1.7,0.5c1.2,0.5,3,1.3,2.9,2.5c0,0.4-0.3,2.5-0.3,2.9c0,0.4,0,2,0,2.3c0,0.7-0.1,2.5-2.3,2.4
					c-0.6,0-1.2-0.1-2.1-0.5c-1.2-0.4-1.3-0.4-2.6-0.5c-0.4,0-0.4,0-1.1,0.3c-0.6,0.3-0.8,0.4-0.8,1.1c0,0.5,0.1,0.9,2.6,2.5
					c2,1.4,3.1,2.1,4.3,3.8c0.2,0.2,0.4,0.5,0.6,0.7c0.4,0.5,0.8,0.8,1.1,1.2c0.8,1,1.2,2.3,1.3,3.9c0.1,1,0.1,1.1-0.1,2.5
					c0,0.3,0,1.7,0,2c-0.1,2.4-2,7.3-6.3,9c-2.9,1.2-4.2,1.1-7,1c-2.2-0.1-5.8-0.3-8.3-2.2c-0.6-0.5-1.4-1.2-1.3-2.7
					c0-0.4,0.2-2.3,0.3-2.7c0-0.3,0-2,0.1-2.5c0-0.4,0.1-0.8,0.2-1.1c0.2-0.6,0.9-1.4,2-1.4c0.2,0,1.4,0.1,1.6,0.2
					c0.6,0.1,1.3,0.4,2,0.5c0.4,0.1,0.9,0,1.2,0.1c0.3,0,1.7,0.3,2,0.3c1.2,0.1,2.3-0.8,2.4-0.8c0.1-0.2,0.5-1.1,0.5-1.5
					c0.1-1.9-1.9-3-4.4-4.3c-1.3-0.7-2.9-2.1-3.1-2.4c-0.2-0.2-0.4-0.5-0.6-0.8c-0.3-0.5-0.7-0.8-0.9-1.3c-1-1.4-1.6-3.5-1.5-5.5
					C1098.1,82.5,1098.2,81.9,1098.3,81.2z"/>
				<path class="st2" d="M1126.9,74.7c0.6,0,0.7-0.8,0.7-1.1c0-0.2,0.1-1.2,0.1-1.4c0-0.1,0-2.5,0-2.7c0-0.1,0-1.2,0-1.2
					c0-0.9,0.3-1.2,0.8-1.6c0.5-0.4,0.7-0.5,1.2-0.5c0.1,0,0.6,0.1,0.7,0.1c0.3,0,1.7-0.1,2-0.1c0.2,0,1.1,0.1,1.2,0.1
					c0.2,0,1.4-0.1,1.7,0c2.1,0.1,1.9,2.8,1.9,3c0,0.4-0.3,2.2-0.3,2.6c0,0.3,0,1.8-0.1,2.1c0,0.5-0.1,1.3,0.9,1.4
					c0.1,0,0.4-0.1,0.7-0.1c0.3,0,0.6,0,0.7,0c0.2,0,1,0.3,1.2,0.4c0.7,0.4,0.8,0.8,0.7,1.7c0,0.3,0,1.8-0.1,2
					c0,0.4-0.3,2.3-0.3,2.7c0,0.2,0,1.1,0,1.3c-0.1,2-1.1,2.1-2.5,2.1c-0.7,0-1.2,0-1.6,0.6c-0.3,0.4-0.6,2.1-0.6,2.5
					c0,0.7-0.1,1.5-0.1,2.2c0,0.1-0.2,0.9-0.2,1.1c0,0.3,0.1,0.6,0.1,0.8c0,0.1,0,2,0,2.2c0,0.4-0.2,2-0.3,2.4
					c-0.2,3,0.3,3.5,1.4,3.8c0.3,0,0.7,0,1,0.1c0.9,0.1,0.8,1.7,0.8,2.7c-0.1,1-0.1,2-0.2,3.1c0,0.4-0.1,1.9-0.1,2.3
					c-0.2,3.1-3.2,3-4.6,2.9c-5.4-0.3-6.1-0.9-6.8-2.6c0-0.1-0.6-1.5-0.7-2c-0.2-0.6-0.1-1.2-0.3-1.8c0-0.4-0.2-0.9-0.2-1.3
					c0-0.4-0.1-2.1,0-3.2c0-0.4,0.2-2.3,0.2-2.8c0-0.5,0.1-3.1,0.1-3.7c0.1-1,0.4-6.1,0.5-7.2c0.1-1,0.1-2-0.7-2.5
					c-0.3-0.2-0.7-0.3-1-0.6c-0.5-0.5-0.5-1.4-0.5-1.7c0-0.2,0.2-1.6,0.2-1.9c0-0.7,0.1-3.7,0.2-4.4c0.1-1.4,0.9-1.8,1.4-1.8
					C1126.6,74.7,1126.7,74.7,1126.9,74.7z"/>
				<path class="st2" d="M1145.4,88.2c0.4-1.3,1.3-3.4,1.7-4c0.3-0.6,2.1-3.2,2.6-3.6c2.8-3.2,7-4.7,9.6-4.6
					c0.9,0.1,1.8,0.1,2.7,0.2c2.7,0.2,5,1.5,5.2,1.7c3.7,2.3,5.7,7.5,5.8,7.8c0.2,0.5,0.3,1.1,0.4,1.6c0.1,0.4,0.2,0.7,0.3,1
					c0.6,2.2,0.4,6.2,0.3,8.2c-0.2,2.5-1.5,3-2.4,2.9c-0.7,0-1.3-0.1-2-0.1c-0.7-0.1-4.6-0.2-5.4-0.2c-0.4,0-2.7-0.3-3.2-0.4
					c-0.4,0-2.5-0.1-3-0.1c-0.7,0-1.4-0.1-2-0.1c-0.6,0-1.7,0-1.7,1c-0.1,2,3.4,4.2,4.9,4.3c0.2,0,1.3,0,1.5,0
					c0.2,0,1.2,0.2,1.5,0.2c0.2,0,1.1,0,1.3,0c0.2,0,0.7,0,1.2-0.1c0.6-0.1,1.3,0,1.9,0c0.6-0.1,1.1-0.2,1.6-0.4
					c1.8-0.7,2.8-1,3.5-0.9c1.3,0.1,1.7,0.6,1.6,1.5c0,0.2-0.1,0.4-0.1,0.7c-0.1,0.5-0.1,0.9-0.3,3.3c0,0.3-0.1,1.8-0.1,2.2
					c-0.1,0.8-0.3,1.1-0.8,1.5c-1.3,1.1-2.8,1.9-5.5,2.3c-2.2,0.4-2.3,0.4-3.1,0.3c-0.4,0-2.3,0.1-2.8,0c-0.1,0-2.1-0.4-2.3-0.4
					c-2.3-0.4-2.9-0.5-3.8-0.8c-0.5-0.2-3.5-2.1-4.1-2.5c-0.5-0.3-3.2-2.5-4.6-6c-1.4-3.8-1.5-8.8-1.4-9.8
					C1144.5,94.5,1145,89.7,1145.4,88.2z M1156.9,86c-0.3,0.2-1.9,1.6-2,2.7c-0.1,1.8,1.7,1.9,3.3,2c0.4,0,0.8,0.1,1.2,0.2
					c0.1,0,0.7,0,0.8,0c0.2,0,1,0.2,1.2,0.2c0.3,0,1.3-0.1,1.6-0.2c1.6-0.2,1.8-0.3,1.9-1.1c0.2-3.4-3.7-4.4-4.1-4.5
					C1160.6,85.3,1158.2,85.2,1156.9,86z"/>
				<path class="st2" d="M1203.1,92.1c0.2,0,1.1,0.2,1.3,0.3c0.2,0,1.7-0.1,2.1-0.1c0.3,0,1.8,0.4,2.2,0.4c0.1,0,0.9,0,1.1,0
					c0.6,0,1.3,0.3,1.5,0.7c0.2,0.4,0.2,1,0,2.2c0,0.4-0.1,2.6-0.2,3.1c0,0.4-0.3,2-0.3,2.3c0,0.2,0,1.2,0,1.5c-0.1,1-1,1.8-1.7,1.7
					c-0.2,0-1.1-0.2-1.3-0.3c-0.4,0-2.4,0-2.8-0.1c-0.3,0-1.6-0.2-1.9-0.2c-0.1,0-0.7,0-0.8,0c-0.7-0.1-1.2-0.8-1.2-1.5
					c0-0.3,0-0.6,0.1-0.9c0-0.5,0.2-3,0.2-3.6c0-0.5,0.4-3,0.5-3.6C1201.9,93.4,1202,92,1203.1,92.1z"/>
			</g>
			<g>
				<path class="st0" d="M591.2,92.6c0.2,0,1.1,0.1,1.4,0c0.2,0,1.6-0.3,2-0.4c0.3,0,1.9,0.1,2.2,0c0.1,0,0.9-0.1,1-0.2
					c0.6,0,1.3,0.1,1.6,0.5c0.3,0.3,0.3,1,0.4,2.2c0,0.4,0.3,2.6,0.3,3.1c0,0.4,0,2,0.1,2.3c0,0.2,0.2,1.2,0.2,1.5
					c0.1,1-0.7,1.9-1.4,1.9c-0.2,0-1.1-0.1-1.4,0c-0.4,0-2.3,0.3-2.8,0.4c-0.3,0-1.6,0.1-1.9,0.1c-0.1,0-0.7,0.1-0.8,0.1
					c-0.7,0.1-1.3-0.6-1.4-1.3c0-0.3,0-0.6-0.1-0.9c0-0.5-0.3-3-0.3-3.6c0-0.5-0.1-3.1-0.1-3.7C590.2,94.2,590.1,92.7,591.2,92.6z"
					/>
				<path class="st0" d="M624,67.1c-0.1-0.2-0.1-1.5-0.1-1.8c-0.1-2,1.3-2.4,2.4-2.5c0.4,0,2.6,0,3-0.1c0.5,0,3-0.3,3.6-0.3
					c0.4,0,2.8,0,3.3-0.1c0.4,0,2.5-0.3,3-0.3c0.2,0,1.2,0,1.4,0c0.2,0,1.3-0.2,1.5-0.2c0.2,0,1,0,1.2,0c0.2,0,1.3-0.2,1.6-0.2
					c0.2,0,1.4,0.1,1.7,0c0.2,0,1.1-0.1,1.3-0.2c0.4,0,2.1,0.1,2.4,0.1c0.3,0,1.5-0.3,1.9-0.3c0.3,0,0.5,0,0.9,0.2
					c0.5,0.2,0.9,0.2,1.2,1.2c0.1,0.4,0.2,0.6,0.3,2.7c0,0.4,0.2,2.4,0.2,2.9c0,0.3,0,0.7,0.1,1c0,0.1,0.1,0.9,0.1,1.2
					c0.1,1.2-0.7,2.2-1.8,2.5c-0.4,0.1-0.6,0.1-2,0.2c-2.7,0.2-3.8,0.3-4.6,1.3c-0.1,0.1-0.7,1.1-0.8,1.4c0,0.1,0,2.1-0.1,2.6
					c0,0.6,0.1,4.1,0.1,4.8c0,0.3,0.3,2,0.3,2.3c0,0.3,0,1.8,0,2.2c0.1,0.8,0.3,2.7,0.5,4.2c0,0.7,0.1,1.5,0.1,2.2
					c0,0.4,0.3,2,0.3,2.5c0.1,1.1,0,2.3,0,3.4c0,0.4,0.4,2.6,0.4,3.1c0.1,1,0.1,2,0.2,3.1c0,0.3,0,1.8,0,2.1c0,0.4,0.3,2,0.3,2.4
					c0.1,1.5-1,2.4-2.7,2.5c-0.6,0-1.1,0.1-1.7,0.1c-0.2,0-1.3,0.2-1.5,0.2c-0.2,0-1.4-0.1-1.7-0.1c-0.2,0-1,0.2-1.2,0.2
					c-1,0.1-1.4-0.9-1.6-1.7c-0.2-0.6-0.2-0.7-0.2-1.5c0-0.3,0-0.6-0.1-0.9c-0.1-0.9,0-1.7,0-2.6c-0.1-2.2-0.3-4.3-0.4-6.5
					c0-0.7-0.4-3.8-0.4-4.5c0-0.4,0-2.6,0-3.1c0-0.7-0.1-1.2-0.2-1.9c0-0.4,0.1-2,0-2.3c0-0.5-0.4-2.8-0.4-3.4c0-0.5-0.2-3.4-0.2-4
					c0-0.4-0.3-2.4-0.3-2.8c0-0.1,0-0.8,0-1c0-0.2-0.1-2-1.5-2.9c-1-0.6-2.4-0.6-4.4-0.4c-0.4,0-0.8,0.1-1.2,0.2
					c-0.3,0.1-0.7,0.2-1,0.2c-0.9,0.1-2.6-0.9-2.7-2.7c0-0.1-0.1-2.8-0.2-3.4C624,68,624,67.6,624,67.1z"/>
				<path class="st0" d="M658.5,79.3c-0.2-3.1,1.3-3.7,1.6-3.7c0.2,0,0.9,0,1.1,0c0.4,0,0.9-0.1,1.3-0.1c0.3,0,1.7,0,1.9,0
					c0.2,0,1.4-0.2,1.7-0.2c1.1-0.1,1.5,0.6,1.5,1.7c0.1,1.2,0.5,1.5,0.7,1.5c0.3,0,0.6-0.3,0.8-0.6c0.2-0.3,0.3-0.5,0.6-0.8
					c0.4-0.6,2.1-2.3,3.8-2.4c1.2-0.1,3,0,3.1,1.9c0,0.4,0,0.8,0,1.2c0,0.1,0.1,0.9,0.1,1.2c0,0.2,0,1.5,0,1.8
					c0,0.2,0.1,1.5,0.2,1.8c0,0.1,0,0.3,0,0.9c0,0.7,0.1,1.5,0.1,2.2c0.1,2.4-0.5,2.4-2.3,2.6c-0.8,0-1.2,0.2-2.3,0.8
					c-1.4,0.9-2.1,1.2-3.2,4.7c-0.1,0.4-0.1,0.4-0.2,1.3c0,0.3-0.1,0.6-0.1,1c0.1,1,0.1,2,0.2,3.1c0,0.5,0.3,3,0.3,3.5
					c0,0.4,0.1,2.2,0.1,2.6c0,0.4,0,0.7,0.1,1c0,0.4,0.3,1.8,0.3,2.1c0.1,1.1-0.2,2.3-0.5,2.9c-0.6,0.9-1.3,1-1.7,1
					c-0.4,0-2.2,0-2.6,0c-0.2,0-1.3,0.1-1.5,0.2c-0.4,0.1-0.7,0.1-1.5,0.2c-0.6,0-1,0.1-1.6-1.2c-0.2-0.4-0.4-0.9-0.4-1.7
					c0-0.5,0-2.9-0.1-3.4c0-0.8-0.1-1.6-0.1-2.3c0-0.4-0.1-2.1-0.1-2.6c0-0.4-0.3-2.5-0.3-3.1c-0.2-2.8-0.1-3.3-0.2-3.7
					c0-0.4,0-1.8,0-2.1c-0.1-0.9-0.2-1.9-0.3-2.8c0-0.4,0-0.7,0-1.1c0-0.3,0.1-1,0.1-1.2c0-0.3-0.2-1.7-0.2-2c0-0.6-0.1-1.2-0.1-1.8
					c0-0.3-0.2-2-0.2-2.3C658.6,80.4,658.6,79.9,658.5,79.3z"/>
				<path class="st0" d="M682.7,86.6c0-0.3-0.3-2.4-0.3-2.8c-0.1-1.2-0.1-1.3-0.1-2.8c0-0.9-0.1-1.8-0.1-2.7c0-0.2-0.1-1.2-0.1-1.5
					c-0.1-1.6,0.9-2.5,1-2.5c0.2-0.1,1.2-0.1,1.5-0.1c0.4,0,0.7-0.1,1.1-0.1c0.4-0.1,0.7-0.1,1.1-0.1c0.3,0,0.5,0,0.8,0
					c0.1,0,0.3,0.1,0.3,0.1c0,0,0,0,0.1,0c0,0,0,0,0.1,0c0.1,0,0.1,0,0.2,0c0.2,0,1.5-0.3,1.7-0.3c0.2,0,0.7,0,0.9,0.2
					c0.1,0.1,1,1,1.1,2.4c0,0.3,0,1.8,0,2.1c0,0.3,0.2,1.8,0.2,2.1c0,0.5-0.1,2.9-0.1,3.4c0,0.4,0.2,2,0.3,2.4c0,0.7,0,1.5,0,2.3
					c0,0.3,0.1,1.6,0.2,1.9c0,0.3,0,1.5,0,1.8c0.1,1.5,0.7,4.1,1.1,5c0.2,0.4,1.2,2,3.1,1.9c0.6,0,1.5-0.1,2.2-0.7
					c0.5-0.5,1.1-1.4,1.3-2.3c0.1-0.1,0.5-2,0.5-2.1c0-0.1,0-2.8,0-2.9c0-0.2-0.1-1.2-0.1-1.4c0-0.5,0-1,0-1.4c0-0.3-0.1-1.7-0.1-2
					c-0.1-1.5,0-3.1,0-4.6c0-0.8-0.5-4.4-0.5-5.2c-0.1-2.2,1-3.2,1.9-3.2c0.6,0,1.2-0.1,1.8-0.1c0.1,0,0.9-0.1,1-0.2
					c0.2,0,1.4,0,1.7,0c0.2,0,1.4-0.2,1.7-0.2c0.7,0,0.9,0.3,1.2,0.7c0.5,0.9,0.5,1.1,0.6,2.5c0,0.3,0.2,2,0.2,2.3
					c0,0.4,0,2.1,0,2.5c0,1,0.2,1.9,0.3,2.9c0,0.9,0.1,1.7,0.1,2.6c0,0.4,0.2,2.5,0.2,2.9c0,0.4,0,2.3,0,2.9c0,0.9,0.1,1.8,0.2,2.8
					c0,0.4,0,2.8,0,3.4c0,0.9,0.2,1.9,0.3,2.8c0,0.9,0,2,0.1,2.9c0,0.6,0.1,1.2,0.1,1.7c0.1,2.9-0.6,3.8-2.7,3.9
					c-0.4,0-2.3,0-2.8,0.1c-0.3,0-1.9,0.2-2.3,0.3c-0.9,0-1.4-0.4-1.6-0.8c-0.1-0.3-0.2-0.7-0.4-0.9c-0.1-0.2-0.3-0.4-0.5-0.4
					c-0.2,0-0.4,0.2-0.5,0.4c-1.7,1.7-3.3,2.3-5.4,2.4c-1,0.1-3.3,0-4.3-0.4c-0.4-0.2-1.8-0.7-2.1-1c-0.6-0.3-1-1-1.5-1.5
					c-0.3-0.2-0.5-0.4-0.8-0.7c-0.8-0.7-2.8-3.4-3.1-8.8c-0.1-1.1-0.2-2.9-0.2-3.9c0-0.3,0-1,0-1.1c0-0.6-0.1-1.2-0.2-1.7
					c0-0.7,0-1.2,0-1.8c0-0.3-0.2-1.5-0.2-1.8C682.8,87.8,682.8,86.9,682.7,86.6C682.7,86.6,682.7,86.6,682.7,86.6z"/>
				<path class="st0" d="M717.4,84.9c0.2-1.3,1-3.6,1.2-4.2c0.2-0.6,1.8-3.4,2.2-3.9c2.5-3.5,6.5-5.4,9.1-5.6c0.9,0,1.8-0.1,2.7-0.1
					c2.7-0.1,5.1,1,5.4,1.1c3.9,1.9,6.4,6.8,6.6,7.1c0.3,0.5,0.4,1.1,0.6,1.6c0.1,0.4,0.3,0.7,0.4,1c0.8,2.1,1.1,6.1,1.2,8.2
					c0.1,2.5-1.2,3.1-2.1,3.2c-0.7,0-1.3,0.1-2,0.1c-0.7,0-4.6,0.3-5.4,0.4c-0.4,0-2.7,0-3.2,0c-0.4,0-2.5,0.2-3,0.2
					c-0.7,0-1.4,0.1-2,0.1c-0.6,0-1.7,0.1-1.6,1.2c0.1,2,3.8,3.8,5.4,3.8c0.2,0,1.3-0.1,1.5-0.1c0.2,0,1.2,0.1,1.5,0.1
					c0.2,0,1.1-0.1,1.3-0.1c0.2,0,0.7-0.1,1.2-0.3c0.6-0.2,1.3-0.1,1.9-0.2c0.5-0.2,1-0.3,1.5-0.6c1.8-0.9,2.7-1.3,3.3-1.3
					c1.3-0.1,1.7,0.4,1.8,1.3c0,0.2,0,0.4,0,0.7c0,0.5,0,0.9,0.1,3.3c0,0.3,0.1,1.8,0.1,2.2c0,0.8-0.1,1.1-0.6,1.6
					c-1.2,1.2-2.6,2.1-5.2,2.8c-2.2,0.6-2.3,0.6-3.1,0.6c-0.4,0-2.3,0.3-2.8,0.3c-0.1,0-2.2-0.1-2.3-0.1c-2.3-0.1-2.9-0.2-3.8-0.4
					c-0.5-0.1-3.7-1.7-4.3-2c-0.6-0.3-3.4-2.2-5.2-5.5c-1.8-3.6-2.4-8.6-2.5-9.6C717.1,91.3,717.1,86.5,717.4,84.9z M728.6,81.5
					c-0.3,0.2-1.7,1.8-1.7,2.9c0.1,1.8,1.9,1.7,3.5,1.6c0.4,0,0.8,0,1.2,0c0.1,0,0.7-0.1,0.8-0.1c0.2,0,1,0.1,1.2,0.1
					c0.3,0,1.3-0.3,1.5-0.4c1.5-0.4,1.8-0.5,1.7-1.2c-0.1-3.4-4.1-4-4.6-4C732.1,80.4,729.8,80.5,728.6,81.5z"/>
				<path class="st0" d="M774.3,73.2c0-0.5,0.1-3,0.1-3.5c0-1.1-0.2-2.2-0.2-3.3c0-0.4,0.1-2.3,0.1-2.6c0-0.7-0.4-4.2-0.4-5
					c0-1.2,0.6-3.1,1.6-3.3c0.2,0,1,0,1.1,0c0.3,0,1.9-0.1,2.2-0.1c0.8,0,1.7,0,2.5,0c0.2,0,1.1-0.1,1.4-0.1c0.7,0,0.9,0.3,1.3,0.8
					c0.5,0.7,0.8,1.1,0.8,2.2c0,0.4,0,2.2,0,2.6c0,0.4,0.1,2,0.1,2.5c0,0.5,0,3,0,3.6c0,1.7,0.2,3.4,0.3,5.1c0,0.5,0,2.7,0,3.2
					c0,0.9,0.1,1.9,0.1,2.8c0,0.4,0,2.7,0,3.2c0,0.7,0.2,3.8,0.3,4.5c0,0.7,0.1,4.4,0.1,5c0,0.7-0.1,1.3-0.1,2
					c0,0.4,0.2,2.6,0.2,3.1c0.1,2,0.1,4,0.2,6c0,0.4,0.2,2.1,0.3,2.6c0,1.3-1,2.1-1.8,2.2c-0.2,0-1.3-0.1-1.5-0.1
					c-0.4,0-2.1,0.2-2.5,0.2c-0.2,0-1.4-0.1-1.7-0.1c-0.2,0-1.2,0.2-1.3,0.2c-1.3,0-1.9-1.2-2-1.8c-0.1-0.1-0.1-1.5-0.1-1.6
					c0-0.7,0-1.4,0.1-2.1c0-1,0.1-1.9,0-2.9c0-1.2-0.3-7-0.4-8.4c0-0.1,0.1-1,0.1-1.2c0-0.3-0.2-1.5-0.2-1.8c0-0.8,0.1-4.9,0.1-5.9
					c-0.1-1.8-0.3-3.4-0.3-5.1C774.3,75.2,774.3,74.2,774.3,73.2z"/>
				<path class="st0" d="M792.5,81.2c0.9-4.3,2.3-6.1,3.7-7.9c2-2.5,4.1-3.3,4.5-3.4c0.4-0.2,0.9-0.2,1.4-0.3
					c0.4-0.2,0.8-0.3,1.2-0.5c0.4-0.1,0.9-0.1,1.3-0.2c0.4,0,0.7-0.2,1.2-0.2c0.4-0.1,2.5-0.1,3-0.1c1.3,0,2.1,0.9,2.2,2.1
					c0,0.3,0,0.7,0,1c-0.1,1.2,0,3.4,0,5.3c0,1.7,0,1.8-1,2.4c-0.5,0.4-0.5,0.4-2.3,0.4c-0.2,0-0.9-0.1-1-0.1c-0.1,0-0.2,0-0.2,0
					c-0.5,0.1-1,0.5-1.5,0.8c-0.4,0.2-0.8,0.2-1.1,0.5c-0.5,0.4-2.3,2.7-2.2,4.8c0,0.1,0,0.9,0,1.1c0,0.1,0.1,0.4,0.1,0.5
					c0,0.1,0,0.4,0,0.5c0,0.1,0.3,1.4,0.3,1.5c0.3,0.8,1.6,3.9,3.8,5c1.9,0.9,2.5,1.2,4.5,1.1c0.9,0,1.7,0.3,1.7,2.2
					c0,0.4-0.1,2.1-0.1,2.5c0,0.4,0.2,2.5,0.3,3c0,0.4,0,0.8,0,1.2c0,1-0.7,2.1-2.3,2.1c-0.4,0-0.8-0.1-1.2,0c-0.4,0-0.8,0-1.2,0
					c-1.2,0-2.6-0.1-3.9-0.3c-1.1-0.3-1.2-0.3-1.9-0.6c-2.1-1.2-2.3-1.3-3.7-2.5c-2.4-2.1-2.7-2.8-3.9-5.5c-0.7-1.6-1.3-3.7-1.3-3.7
					c-0.1-0.6-0.4-2.3-0.5-4.8c0-0.4-0.2-2.9-0.2-3.5C791.8,84.4,792.2,82.7,792.5,81.2z"/>
				<path class="st0" d="M817.4,81.5c0.3-1.3,1-3.5,1.3-4.1c0.2-0.6,1.9-3.3,2.3-3.8c2.5-3.4,6.6-5.3,9.2-5.4c0.9,0,1.8,0,2.7,0
					c2.7,0,5.1,1.1,5.4,1.2c3.9,2,6.2,7,6.4,7.3c0.3,0.5,0.4,1.1,0.6,1.6c0.1,0.4,0.3,0.7,0.4,1c0.8,2.1,0.9,6.1,1,8.2
					c0,2.5-1.3,3.1-2.2,3.1c-0.7,0-1.3,0-2,0c-0.7,0-4.6,0.2-5.4,0.2c-0.4,0-2.7-0.1-3.2-0.1c-0.4,0-2.5,0.1-3,0.1c-0.7,0-1.4,0-2,0
					c-0.6,0-1.7,0.1-1.6,1.1c0,2,3.7,3.9,5.3,3.9c0.2,0,1.3-0.1,1.5-0.1c0.2,0,1.2,0.1,1.5,0.1c0.2,0,1.1-0.1,1.3-0.1
					c0.2,0,0.7-0.1,1.2-0.2c0.6-0.2,1.3-0.1,1.9-0.2c0.6-0.2,1-0.3,1.5-0.5c1.8-0.8,2.8-1.2,3.4-1.2c1.3,0,1.7,0.5,1.8,1.4
					c0,0.2-0.1,0.4-0.1,0.7c-0.1,0.5-0.1,0.9,0,3.3c0,0.3,0.1,1.8,0.1,2.2c0,0.8-0.2,1.1-0.7,1.5c-1.2,1.2-2.6,2.1-5.3,2.7
					c-2.2,0.5-2.3,0.5-3.1,0.6c-0.4,0-2.3,0.3-2.8,0.3c-0.1,0-2.2-0.2-2.3-0.2c-2.3-0.2-2.9-0.2-3.8-0.5c-0.5-0.1-3.7-1.8-4.3-2.1
					c-0.6-0.3-3.4-2.3-5-5.6c-1.7-3.6-2.2-8.7-2.2-9.7C817,87.9,817.1,83.1,817.4,81.5z M828.7,78.4c-0.3,0.2-1.8,1.7-1.7,2.8
					c0,1.8,1.8,1.7,3.4,1.7c0.4,0,0.8,0.1,1.2,0.1c0.1,0,0.7-0.1,0.8-0.1c0.2,0,1,0.1,1.2,0.1c0.2,0,1.3-0.2,1.5-0.3
					c1.5-0.3,1.8-0.5,1.8-1.2c-0.1-3.4-4-4.1-4.5-4.1C832.2,77.4,829.9,77.4,828.7,78.4z"/>
				<path class="st0" d="M875,58.4c0-0.4,0-1-0.1-1.4c0-0.2-0.1-1.2-0.1-1.5c0-0.5,0.1-0.7,0.4-1c0.4-0.6,0.6-0.9,1.5-0.9
					c0.5,0,2.7,0.2,3.2,0.2c0.2,0,0.9-0.1,1.6-0.1c0.6-0.1,1.3-0.1,1.5-0.1c0.6,0,1.2,0.1,1.5,0.8c0.1,0.1,0.5,1.3,0.5,1.6
					c0,0.3-0.2,1.7-0.2,2c0,1.3,0,2.6,0,4c0,0.3-0.1,1.7-0.1,2c0,0.3,0.1,1.8,0.1,2.1c0,0.1-0.1,1.2-0.1,1.4c0,0.2,0.1,1.4,0.1,1.6
					c0,0.5-0.1,1.1-0.1,1.6c0,0.2,0.1,1.3,0.1,1.6c0,0.8,0,1.6,0,2.4c0,0.3-0.1,1.7-0.1,2c0,0.5,0.1,2.9,0.1,3.4c0,0.4,0,0.8,0,1.2
					c-0.1,0.4-0.1,2.6-0.1,3.1c0,0.4,0.1,2.3,0.1,2.8c0,0.3-0.1,1.8-0.1,2.2c0,0.4,0.1,2.1,0.1,2.6c0,0.3-0.2,1.7-0.2,2
					c0,0.4,0.1,2.3,0.1,2.8c0,0.7,0.2,3.6,0.2,4.2c0,2.5-0.2,4.1-1.9,4.1c-0.6,0-3.2-0.1-3.8-0.1c-0.5,0-1,0-1.6,0.1
					c-0.1,0-0.9,0.1-1,0.1c-0.5,0-0.7-0.3-0.9-0.4c-0.2-0.3-0.2-0.7-0.4-1.1c-0.1-0.2-0.3-0.4-0.6-0.4c-0.2,0-0.4,0.2-0.6,0.4
					c-0.2,0.2-1.1,0.8-2,1.2c-1.5,0.6-4.2,0.8-4.3,0.8c-0.2,0.1-1.6,0-1.9,0c-0.1,0-3.1-0.5-3.3-0.6c-0.4-0.1-0.9-0.3-1.3-0.6
					c-0.3-0.1-0.6-0.4-0.9-0.5c-0.3-0.1-0.7-0.3-1-0.4c-1.2-0.5-3.3-2.3-4.1-3.8c-0.2-0.4-0.4-0.8-0.6-1.2c-0.4-0.7-1.1-1.9-1.4-2.8
					c-0.2-0.6-0.3-1.3-0.5-2c-0.1-0.3-0.2-0.5-0.3-0.8c-0.1-0.6-0.3-1.2-0.3-1.8c-0.1-0.8-0.3-5-0.3-5c0-2.1,0.6-6,1.1-7.4
					c0.2-0.5,0.4-1,0.6-1.5c0.4-0.7,0.6-1.5,0.9-2.3c0.7-1.4,2-2.7,2.2-3c0.4-0.4,0.8-0.7,1.2-1c0.5-0.4,0.9-0.8,1.4-1.2
					c0.6-0.5,1.3-0.9,2-1.2c1.7-0.7,2.1-0.8,3.7-0.8c0.2,0,1.4-0.2,1.6-0.2c1.4,0,3.8,0.5,4.9,1c0.4,0.2,2,1.5,2.4,1.4
					c0.9,0,0.9-1,0.8-2.6c0-0.3,0.1-1.7,0.1-2c0-0.1-0.1-0.9-0.1-0.9C875.1,62.5,875.1,60.4,875,58.4z M868.9,78.8
					c-0.2,0-0.9-0.1-1.1-0.1c-0.2,0-0.4,0-0.7,0.1c-1.1,0.2-2.3,0.5-3.1,1.4c-0.2,0.2-0.4,0.5-0.6,0.7c-0.2,0.2-0.6,0.4-0.7,0.8
					c-0.1,0.1-0.4,1.1-0.5,1.3c-0.5,1.3-0.8,2.7-0.8,4.1c0,2.1,0.8,4.2,1.4,4.9c0.4,0.5,2.4,2.1,2.7,2.2c0.5,0.2,3.1,0.6,3.6,0.6
					c0.6,0,1-0.1,1.7-0.5c1.2-0.4,3.2-1.3,4.2-3.4c0.3-0.7,0.4-0.8,0.4-2.3c0.1-0.6,0.2-1.2,0.2-1.8c0-0.3-0.2-1.5-0.3-1.8
					c0-0.3,0-0.6-0.1-0.9c-0.1-0.5-0.6-2.2-1-2.8c-0.3-0.4-1.6-1.5-2.1-1.8c-0.4-0.3-0.5-0.3-1.5-0.6c-0.4-0.1-0.7-0.2-1.1-0.3
					C869.4,78.8,869.1,78.8,868.9,78.8z"/>
				<path class="st0" d="M911.8,57.5c-0.1-0.2,0-1.5,0-1.8c0-2,1.4-2.3,2.6-2.3c0.4,0,2.6,0.2,3,0.2c0.5,0,3.1-0.1,3.6-0.1
					c0.4,0,2.7,0.2,3.3,0.2c0.4,0,2.6-0.1,3-0.1c0.2,0,1.2,0.1,1.4,0.1c0.2,0,1.3-0.1,1.6-0.1c0.2,0,1,0.1,1.2,0.1
					c0.2,0,1.3-0.1,1.6-0.1c0.2,0,1.4,0.2,1.7,0.2c0.2,0,1.1-0.1,1.3-0.1c0.4,0,2.1,0.2,2.4,0.2c0.2,0,1.6-0.2,1.9-0.2
					c0.3,0,0.5,0.1,0.9,0.2c0.5,0.2,0.9,0.3,1.1,1.3c0.1,0.4,0.1,0.7,0.1,2.7c0,0.4,0,2.4,0,2.9c0,0.3,0,0.7,0,1
					c0,0.1,0.1,1,0.1,1.2c0,1.2-0.9,2.1-2,2.4c-0.4,0.1-0.6,0.1-2.1,0.1c-2.7,0-3.8,0-4.7,1c-0.1,0.1-0.8,1.1-0.9,1.4
					c0,0.1-0.2,2.1-0.3,2.6c-0.1,0.6-0.2,4.1-0.2,4.8c0,0.3,0.1,2,0.1,2.3c0,0.3-0.1,1.8-0.1,2.2c0,0.8,0.1,2.7,0.2,4.2
					c0,0.7,0,1.5,0,2.2c0,0.4,0.1,2,0.1,2.5c0,1.1-0.2,2.3-0.2,3.4c0,0.4,0.2,2.6,0.2,3.1c0,1,0,2,0,3.1c0,0.3-0.1,1.8-0.1,2
					c0,0.4,0.1,2,0.1,2.4c0,1.5-1.1,2.3-2.9,2.3c-0.6,0-1.1,0-1.7,0c-0.2,0-1.3,0.1-1.5,0.1c-0.2,0-1.4-0.2-1.7-0.2
					c-0.2,0-1,0.1-1.2,0.1c-1,0-1.3-1-1.5-1.8c-0.2-0.7-0.2-0.7-0.1-1.5c0-0.3,0-0.6,0-0.9c0-0.9,0.1-1.7,0.1-2.6c0-2.2,0-4.3,0-6.5
					c0-0.7-0.1-3.8-0.1-4.5c0-0.4,0.2-2.6,0.2-3.1c0-0.7-0.1-1.2-0.1-1.9c0-0.4,0.2-2,0.2-2.3c0-0.5-0.2-2.9-0.2-3.4
					c0-0.5,0.1-3.4,0.1-4c0-0.4-0.1-2.4-0.1-2.9c0-0.1,0.1-0.8,0.1-1c0-0.2,0-2-1.3-3c-0.9-0.7-2.4-0.7-4.3-0.8
					c-0.4,0-0.8,0-1.2,0.1c-0.3,0.1-0.7,0.1-1.1,0.1c-0.9,0-2.5-1.1-2.5-2.9c0-0.1,0.1-2.9,0.1-3.4
					C911.8,58.4,911.8,57.9,911.8,57.5z"/>
				<path class="st0" d="M943.3,80.9c0.3-1.3,1.2-3.5,1.5-4.1c0.2-0.6,2-3.3,2.4-3.8c2.6-3.3,6.8-5,9.4-5.1c0.9,0,1.8,0,2.7,0
					c2.7,0,5.1,1.2,5.3,1.4c3.8,2.1,6,7.2,6.1,7.5c0.2,0.5,0.4,1.1,0.5,1.6c0.1,0.4,0.2,0.7,0.4,1c0.7,2.1,0.8,6.2,0.7,8.2
					c0,2.5-1.4,3.1-2.3,3c-0.7,0-1.3,0-2,0c-0.7,0-4.6,0.1-5.4,0.1c-0.4,0-2.7-0.2-3.2-0.2c-0.4,0-2.5,0-3,0c-0.7,0-1.4,0-2,0
					c-0.6,0-1.7,0-1.7,1.1c0,2,3.6,4,5.1,4.1c0.2,0,1.3-0.1,1.5-0.1c0.2,0,1.2,0.2,1.5,0.2c0.2,0,1.1-0.1,1.3-0.1
					c0.2,0,0.7-0.1,1.2-0.2c0.6-0.1,1.3-0.1,1.9-0.1c0.6-0.1,1.1-0.3,1.5-0.5c1.8-0.8,2.8-1.1,3.4-1.1c1.3,0,1.7,0.5,1.7,1.4
					c0,0.2-0.1,0.4-0.1,0.7c-0.1,0.5-0.1,0.9-0.1,3.3c0,0.3,0,1.8,0,2.2c0,0.8-0.2,1.1-0.7,1.5c-1.3,1.1-2.7,2-5.4,2.5
					c-2.2,0.5-2.3,0.5-3.1,0.5c-0.4,0-2.3,0.2-2.8,0.2c-0.1,0-2.1-0.3-2.3-0.3c-2.3-0.2-2.9-0.3-3.8-0.6c-0.5-0.2-3.6-1.9-4.2-2.2
					c-0.5-0.3-3.3-2.4-4.9-5.8c-1.6-3.7-1.9-8.7-1.9-9.8C942.6,87.2,942.9,82.4,943.3,80.9z M954.6,78.1c-0.3,0.2-1.8,1.7-1.8,2.8
					c0,1.8,1.8,1.8,3.4,1.8c0.4,0,0.8,0.1,1.2,0.1c0.1,0,0.7-0.1,0.8-0.1c0.2,0,1,0.2,1.2,0.2c0.2,0,1.3-0.2,1.6-0.3
					c1.6-0.3,1.8-0.4,1.8-1.1c0.1-3.4-3.9-4.2-4.3-4.2C958.2,77.2,955.9,77.2,954.6,78.1z"/>
				<path class="st0" d="M980.7,73.3c0-0.6,0.3-1.8,0.7-2.1c0.2-0.2,1.3-0.6,1.6-0.8c0.8-0.3,1.6-0.5,2.4-0.8
					c1.3-0.5,1.4-0.6,2.4-0.8c1.3-0.2,3.1-0.4,5.4-0.4c2.3,0.1,5.2,0.6,7.2,1.6c1.3,0.7,2.8,1.8,3.4,2.6c0.2,0.3,0.4,0.7,0.6,1
					c0.2,0.2,0.5,0.5,0.7,0.8c0.4,0.7,0.9,2.4,0.9,4.6c0,0.9-0.2,5.1-0.2,6.1c0,0.3,0.1,2,0.1,2.4c0,0.3-0.1,1.7-0.1,2
					c0,0.3,0,1.8,0,2.2c0,0.5-0.2,2.9-0.2,3.5c0,0.4,0,2.3,0.1,2.6c0,0.7-0.2,3.7-0.2,4.3c0,0.3,0.1,1.5,0.1,1.8
					c0,1.8-1.5,2.3-3,2.3c-0.6,0-1.1,0-1.7,0c-0.4,0-2.6,0-3.1,0c-0.6,0-0.8-0.8-0.9-0.9c-0.1-0.2-0.1-0.5-0.2-0.7
					c-0.1-0.2-0.3-0.4-0.5-0.4c-0.2,0-0.5,0.3-0.8,0.5c-0.6,0.6-1.2,0.8-2.1,1.2c-1.1,0.3-1.6,0.5-3.8,0.4c-0.7,0-2.9-0.4-3.7-0.5
					c-1-0.2-3.2-1.3-4.3-2.4c-0.4-0.4-2.1-2.8-2.4-3.5c-0.3-0.6-0.9-2.7-1-3.3c-0.1-1,0-2.1-0.1-3.2c0-0.4,0-1,0-1.5
					c0-0.7,0.1-1.1,0.5-2.3c0.5-1.2,0.6-1.7,1.4-2.7c0.1-0.2,0.3-0.4,0.5-0.6c0.4-0.5,0.7-1,1.1-1.4c0.7-0.8,2.6-1.8,3.1-2.1
					c0.3-0.1,0.7-0.1,1-0.3c0.9-0.3,1.4-0.6,2.3-0.7c0.5-0.1,1-0.1,1.5,0c0.4-0.1,0.9-0.2,1.3-0.2c0.1,0,0.7,0.1,0.9,0.1
					c0.2,0,1.2-0.1,1.4-0.1c0.2,0,0.3,0,0.4,0.1c0.1,0,0.6,0.2,0.8,0.2c0.1,0,0.2,0,0.4,0c0.2,0,0.9,0.2,1.1,0.2
					c0.7,0,1.4-0.6,1.4-1.2c0-0.6-0.6-1.6-1.6-2.1c-0.8-0.4-2-0.6-2.6-0.6c-0.2,0-3,0.1-3.3,0.1c-0.7,0.1-1.5,0.4-2.2,0.7
					c-0.3,0.1-0.9,0.2-1.1,0.2c-0.2,0.1-0.4,0.1-0.6,0.1c-0.4,0.1-0.7,0.4-1.1,0.5c-0.3,0.1-1.9,0.8-2.3,0.8c-0.9,0-1.7-0.6-1.6-1.8
					c0-0.4,0.2-2.1,0.2-2.5c0-0.2,0-1.2,0-1.4c0-0.2,0.1-1.2,0.1-1.3C980.7,73.9,980.7,73.6,980.7,73.3z M990.4,90.8
					c-0.3,0.1-1.5,0.4-1.7,0.5c-0.7,0.3-1.6,1.2-1.6,2.5c0,0.7,0.2,2.1,1.4,2.7c0.4,0.2,2.1,0.9,2.5,0.9c0.2,0,1.1-0.2,1.7-0.3
					c1.1,0,1.1,0,2-0.6c0.7-0.4,1.6-0.9,1.6-2.7c0-0.5-0.1-1.2-0.8-1.8c-0.5-0.4-2.1-1.4-2.7-1.4c-0.3,0-0.6,0.1-0.8,0.1
					c-0.1,0-0.7-0.2-0.9-0.2C991,90.6,990.7,90.8,990.4,90.8z"/>
				<path class="st0" d="M1033.2,59.7c-0.1-0.2,0-1.5,0.1-1.8c0.1-2,1.5-2.3,2.6-2.3c0.4,0,2.6,0.2,3,0.2c0.5,0,3.1,0,3.6,0.1
					c0.4,0,2.7,0.2,3.3,0.3c0.4,0,2.6-0.1,3,0c0.2,0,1.2,0.1,1.4,0.1c0.2,0,1.3-0.1,1.6-0.1c0.2,0,1,0.1,1.2,0.1c0.2,0,1.3,0,1.6,0
					c0.2,0,1.4,0.2,1.7,0.2c0.2,0,1.1,0,1.3,0c0.4,0,2,0.3,2.4,0.3c0.2,0,1.6-0.2,1.9-0.1c0.3,0,0.5,0.1,0.9,0.3
					c0.5,0.2,0.9,0.3,1.1,1.3c0.1,0.4,0.1,0.7,0,2.7c0,0.4,0,2.4-0.1,2.9c0,0.3,0,0.7,0,1c0,0.1,0,1,0,1.2c-0.1,1.2-1,2.1-2,2.3
					c-0.4,0.1-0.6,0.1-2.1,0c-2.7-0.1-3.8-0.1-4.7,0.8c-0.1,0.1-0.9,1.1-1,1.4c0,0.1-0.3,2.1-0.3,2.6c-0.1,0.6-0.3,4.1-0.4,4.7
					c0,0.3,0,2,0,2.3c0,0.3-0.2,1.8-0.2,2.2c0,0.8,0,2.7,0,4.2c0,0.7-0.1,1.5-0.1,2.2c0,0.4,0,2.1,0,2.5c0,1.1-0.3,2.3-0.3,3.4
					c0,0.4,0.1,2.6,0.1,3.1c0,1-0.1,2-0.1,3.1c0,0.3-0.2,1.7-0.2,2c0,0.4,0,2.1,0,2.4c-0.1,1.5-1.2,2.3-3,2.2c-0.6,0-1.1,0-1.7-0.1
					c-0.2,0-1.3,0-1.5,0c-0.2,0-1.4-0.3-1.7-0.3c-0.2,0-1.1,0.1-1.2,0.1c-1,0-1.3-1-1.4-1.8c-0.2-0.7-0.2-0.7-0.1-1.5
					c0-0.3,0-0.6,0-0.9c0-0.9,0.2-1.7,0.2-2.6c0.1-2.2,0.2-4.3,0.2-6.5c0-0.7,0-3.8,0-4.5c0-0.4,0.3-2.6,0.3-3.1c0-0.7,0-1.2,0-1.9
					c0-0.4,0.3-2,0.3-2.3c0-0.5-0.1-2.9-0.1-3.4c0-0.5,0.2-3.4,0.2-4c0-0.4,0-2.4,0-2.9c0-0.1,0.1-0.8,0.1-0.9c0-0.2,0.1-2-1.2-3
					c-0.9-0.7-2.3-0.8-4.3-0.9c-0.4,0-0.8,0-1.2,0c-0.3,0.1-0.7,0.1-1.1,0.1c-0.9,0-2.4-1.2-2.4-2.9c0-0.1,0.2-2.8,0.2-3.4
					C1033.2,60.6,1033.2,60.1,1033.2,59.7z"/>
				<path class="st0" d="M1066.2,76c0-0.6,0.4-1.7,0.7-2.1c0.3-0.2,1.3-0.6,1.6-0.7c0.8-0.3,1.6-0.4,2.4-0.7
					c1.3-0.5,1.5-0.5,2.4-0.7c1.3-0.2,3.1-0.4,5.4-0.3c2.3,0.1,5.2,0.7,7.2,1.8c1.3,0.7,2.8,1.9,3.4,2.7c0.2,0.3,0.3,0.7,0.6,1
					c0.2,0.2,0.5,0.5,0.6,0.8c0.4,0.7,0.9,2.4,0.8,4.6c0,0.9-0.3,5.1-0.4,6.1c0,0.3,0,2.1,0,2.4c0,0.3-0.1,1.7-0.2,2
					c0,0.3,0,1.8,0,2.2c0,0.5-0.3,2.9-0.3,3.5c0,0.4,0,2.3,0,2.6c0,0.7-0.2,3.7-0.3,4.3c0,0.3,0,1.5,0,1.8c-0.1,1.8-1.5,2.3-3.1,2.2
					c-0.6,0-1.1-0.1-1.7-0.1c-0.4,0-2.6,0-3.1-0.1c-0.6,0-0.8-0.8-0.9-0.9c0-0.2,0-0.5-0.2-0.7c-0.1-0.2-0.3-0.4-0.5-0.4
					c-0.2,0-0.5,0.3-0.8,0.5c-0.6,0.6-1.3,0.8-2.1,1.1c-1.1,0.3-1.6,0.4-3.8,0.3c-0.7,0-2.9-0.4-3.7-0.6c-1-0.3-3.2-1.4-4.2-2.4
					c-0.3-0.5-2-2.8-2.3-3.5c-0.3-0.6-0.9-2.7-1-3.3c-0.1-1,0-2.1,0-3.2c0-0.4,0-1,0-1.5c0-0.7,0.1-1.1,0.5-2.2
					c0.5-1.2,0.6-1.7,1.5-2.6c0.1-0.2,0.3-0.4,0.5-0.6c0.4-0.5,0.7-1,1.1-1.4c0.7-0.8,2.6-1.8,3.1-2c0.3-0.1,0.7-0.1,1-0.2
					c0.9-0.3,1.4-0.5,2.3-0.6c0.5-0.1,1,0,1.5,0c0.4-0.1,0.9-0.2,1.3-0.2c0.1,0,0.7,0.1,0.9,0.1c0.2,0,1.2-0.1,1.4-0.1
					c0.2,0,0.3,0,0.4,0.1c0.1,0,0.6,0.2,0.8,0.3c0.1,0,0.2,0,0.4,0c0.2,0,0.9,0.3,1.1,0.3c0.7,0,1.4-0.5,1.4-1.2
					c0-0.6-0.5-1.6-1.5-2.1c-0.8-0.4-2-0.6-2.6-0.6c-0.2,0-3,0-3.3,0.1c-0.7,0.1-1.5,0.4-2.3,0.6c-0.3,0.1-0.9,0.2-1.1,0.2
					c-0.2,0.1-0.4,0.1-0.6,0.1c-0.4,0.1-0.7,0.3-1.1,0.5c-0.3,0.1-2,0.7-2.3,0.7c-0.9,0-1.6-0.7-1.6-1.8c0-0.4,0.2-2.1,0.2-2.5
					c0-0.2,0-1.2,0-1.4c0-0.2,0.1-1.2,0.1-1.3C1066.2,76.6,1066.2,76.3,1066.2,76z M1075.6,93.7c-0.3,0.1-1.5,0.4-1.8,0.5
					c-0.8,0.3-1.6,1.2-1.7,2.5c0,0.7,0.2,2.1,1.3,2.8c0.4,0.2,2.1,1,2.5,1c0.2,0,1.1-0.2,1.7-0.3c1.1,0,1.1,0,2.1-0.6
					c0.7-0.4,1.6-0.9,1.7-2.6c0-0.5-0.1-1.2-0.8-1.9c-0.5-0.4-2-1.4-2.7-1.4c-0.2,0-0.6,0-0.8,0c-0.1,0-0.7-0.2-0.9-0.2
					C1076.2,93.5,1075.9,93.6,1075.6,93.7z"/>
				<path class="st0" d="M1098.3,81.2c0.3-2,0.4-3,1.5-4.2c1.3-1.5,2.6-2.9,4.7-3.5c0.8-0.2,3.3-0.6,4.3-0.6c0.7,0,4.5,0.5,5.2,0.7
					c0.6,0.1,1.2,0.4,1.7,0.5c1.2,0.5,3,1.3,2.9,2.5c0,0.4-0.3,2.5-0.3,2.9c0,0.4,0,2,0,2.3c0,0.7-0.1,2.5-2.3,2.4
					c-0.6,0-1.2-0.1-2.1-0.5c-1.2-0.4-1.3-0.4-2.6-0.5c-0.4,0-0.4,0-1.1,0.3c-0.6,0.3-0.8,0.4-0.8,1.1c0,0.5,0.1,0.9,2.6,2.5
					c2,1.4,3.1,2.1,4.3,3.8c0.2,0.2,0.4,0.5,0.6,0.7c0.4,0.5,0.8,0.8,1.1,1.2c0.8,1,1.2,2.3,1.3,3.9c0.1,1,0.1,1.1-0.1,2.5
					c0,0.3,0,1.7,0,2c-0.1,2.4-2,7.3-6.3,9c-2.9,1.2-4.2,1.1-7,1c-2.2-0.1-5.8-0.3-8.3-2.2c-0.6-0.5-1.4-1.2-1.3-2.7
					c0-0.4,0.2-2.3,0.3-2.7c0-0.3,0-2,0.1-2.5c0-0.4,0.1-0.8,0.2-1.1c0.2-0.6,0.9-1.4,2-1.4c0.2,0,1.4,0.1,1.6,0.2
					c0.6,0.1,1.3,0.4,2,0.5c0.4,0.1,0.9,0,1.2,0.1c0.3,0,1.7,0.3,2,0.3c1.2,0.1,2.3-0.8,2.4-0.8c0.1-0.2,0.5-1.1,0.5-1.5
					c0.1-1.9-1.9-3-4.4-4.3c-1.3-0.7-2.9-2.1-3.1-2.4c-0.2-0.2-0.4-0.5-0.6-0.8c-0.3-0.5-0.7-0.8-0.9-1.3c-1-1.4-1.6-3.5-1.5-5.5
					C1098.1,82.5,1098.2,81.9,1098.3,81.2z"/>
				<path class="st0" d="M1126.9,74.7c0.6,0,0.7-0.8,0.7-1.1c0-0.2,0.1-1.2,0.1-1.4c0-0.1,0-2.5,0-2.7c0-0.1,0-1.2,0-1.2
					c0-0.9,0.3-1.2,0.8-1.6c0.5-0.4,0.7-0.5,1.2-0.5c0.1,0,0.6,0.1,0.7,0.1c0.3,0,1.7-0.1,2-0.1c0.2,0,1.1,0.1,1.2,0.1
					c0.2,0,1.4-0.1,1.7,0c2.1,0.1,1.9,2.8,1.9,3c0,0.4-0.3,2.2-0.3,2.6c0,0.3,0,1.8-0.1,2.1c0,0.5-0.1,1.3,0.9,1.4
					c0.1,0,0.4-0.1,0.7-0.1c0.3,0,0.6,0,0.7,0c0.2,0,1,0.3,1.2,0.4c0.7,0.4,0.8,0.8,0.7,1.7c0,0.3,0,1.8-0.1,2
					c0,0.4-0.3,2.3-0.3,2.7c0,0.2,0,1.1,0,1.3c-0.1,2-1.1,2.1-2.5,2.1c-0.7,0-1.2,0-1.6,0.6c-0.3,0.4-0.6,2.1-0.6,2.5
					c0,0.7-0.1,1.5-0.1,2.2c0,0.1-0.2,0.9-0.2,1.1c0,0.3,0.1,0.6,0.1,0.8c0,0.1,0,2,0,2.2c0,0.4-0.2,2-0.3,2.4
					c-0.2,3,0.3,3.5,1.4,3.8c0.3,0,0.7,0,1,0.1c0.9,0.1,0.8,1.7,0.8,2.7c-0.1,1-0.1,2-0.2,3.1c0,0.4-0.1,1.9-0.1,2.3
					c-0.2,3.1-3.2,3-4.6,2.9c-5.4-0.3-6.1-0.9-6.8-2.6c0-0.1-0.6-1.5-0.7-2c-0.2-0.6-0.1-1.2-0.3-1.8c0-0.4-0.2-0.9-0.2-1.3
					c0-0.4-0.1-2.1,0-3.2c0-0.4,0.2-2.3,0.2-2.8c0-0.5,0.1-3.1,0.1-3.7c0.1-1,0.4-6.1,0.5-7.2c0.1-1,0.1-2-0.7-2.5
					c-0.3-0.2-0.7-0.3-1-0.6c-0.5-0.5-0.5-1.4-0.5-1.7c0-0.2,0.2-1.6,0.2-1.9c0-0.7,0.1-3.7,0.2-4.4c0.1-1.4,0.9-1.8,1.4-1.8
					C1126.6,74.7,1126.7,74.7,1126.9,74.7z"/>
				<path class="st0" d="M1145.4,88.2c0.4-1.3,1.3-3.4,1.7-4c0.3-0.6,2.1-3.2,2.6-3.6c2.8-3.2,7-4.7,9.6-4.6
					c0.9,0.1,1.8,0.1,2.7,0.2c2.7,0.2,5,1.5,5.2,1.7c3.7,2.3,5.7,7.5,5.8,7.8c0.2,0.5,0.3,1.1,0.4,1.6c0.1,0.4,0.2,0.7,0.3,1
					c0.6,2.2,0.4,6.2,0.3,8.2c-0.2,2.5-1.5,3-2.4,2.9c-0.7,0-1.3-0.1-2-0.1c-0.7-0.1-4.6-0.2-5.4-0.2c-0.4,0-2.7-0.3-3.2-0.4
					c-0.4,0-2.5-0.1-3-0.1c-0.7,0-1.4-0.1-2-0.1c-0.6,0-1.7,0-1.7,1c-0.1,2,3.4,4.2,4.9,4.3c0.2,0,1.3,0,1.5,0
					c0.2,0,1.2,0.2,1.5,0.2c0.2,0,1.1,0,1.3,0c0.2,0,0.7,0,1.2-0.1c0.6-0.1,1.3,0,1.9,0c0.6-0.1,1.1-0.2,1.6-0.4
					c1.8-0.7,2.8-1,3.5-0.9c1.3,0.1,1.7,0.6,1.6,1.5c0,0.2-0.1,0.4-0.1,0.7c-0.1,0.5-0.1,0.9-0.3,3.3c0,0.3-0.1,1.8-0.1,2.2
					c-0.1,0.8-0.3,1.1-0.8,1.5c-1.3,1.1-2.8,1.9-5.5,2.3c-2.2,0.4-2.3,0.4-3.1,0.3c-0.4,0-2.3,0.1-2.8,0c-0.1,0-2.1-0.4-2.3-0.4
					c-2.3-0.4-2.9-0.5-3.8-0.8c-0.5-0.2-3.5-2.1-4.1-2.5c-0.5-0.3-3.2-2.5-4.6-6c-1.4-3.8-1.5-8.8-1.4-9.8
					C1144.5,94.5,1145,89.7,1145.4,88.2z M1156.9,86c-0.3,0.2-1.9,1.6-2,2.7c-0.1,1.8,1.7,1.9,3.3,2c0.4,0,0.8,0.1,1.2,0.2
					c0.1,0,0.7,0,0.8,0c0.2,0,1,0.2,1.2,0.2c0.3,0,1.3-0.1,1.6-0.2c1.6-0.2,1.8-0.3,1.9-1.1c0.2-3.4-3.7-4.4-4.1-4.5
					C1160.6,85.3,1158.2,85.2,1156.9,86z"/>
				<path class="st0" d="M1203.1,92.1c0.2,0,1.1,0.2,1.3,0.3c0.2,0,1.7-0.1,2.1-0.1c0.3,0,1.8,0.4,2.2,0.4c0.1,0,0.9,0,1.1,0
					c0.6,0,1.3,0.3,1.5,0.7c0.2,0.4,0.2,1,0,2.2c0,0.4-0.1,2.6-0.2,3.1c0,0.4-0.3,2-0.3,2.3c0,0.2,0,1.2,0,1.5c-0.1,1-1,1.8-1.7,1.7
					c-0.2,0-1.1-0.2-1.3-0.3c-0.4,0-2.4,0-2.8-0.1c-0.3,0-1.6-0.2-1.9-0.2c-0.1,0-0.7,0-0.8,0c-0.7-0.1-1.2-0.8-1.2-1.5
					c0-0.3,0-0.6,0.1-0.9c0-0.5,0.2-3,0.2-3.6c0-0.5,0.4-3,0.5-3.6C1201.9,93.4,1202,92,1203.1,92.1z"/>
			</g>
		</g>
	</g>
</g>
</svg>
