<?xml version="1.0" encoding="utf-8"?>
<!-- Generator: Adobe Illustrator 19.2.1, SVG Export Plug-In . SVG Version: 6.00 Build 0)  -->
<svg version="1.1" id="Layer_1" xmlns="http://www.w3.org/2000/svg" xmlns:xlink="http://www.w3.org/1999/xlink" x="0px" y="0px"
	 viewBox="0 0 200 200" style="enable-background:new 0 0 200 200;" xml:space="preserve">
<path d="M157.8,54.5c-4.4,2.8-9.2,4.9-14.5,6c-4.1-4.9-10-7.9-16.6-7.9c-12.6,0-22.7,11.1-22.7,24.9c0,2,0.2,3.9,0.6,5.7
	c-18.9-1-35.6-11-46.8-26c-2,3.7-3.1,7.9-3.1,12.5c0,8.6,4,16.2,10.1,20.7c-3.7-0.1-7.2-1.2-10.3-3.1v0.3c0,12.1,7.8,22.1,18.2,24.4
	c-1.9,0.6-3.9,0.9-6,0.9c-1.5,0-2.9-0.1-4.3-0.4c2.9,9.8,11.3,17,21.2,17.2c-7.8,6.7-17.5,10.6-28.2,10.6c-1.8,0-3.7-0.1-5.4-0.3
	c10,7,22,11.1,34.8,11.1c41.8,0,64.6-37.8,64.6-70.7l-0.1-3.2c4.5-3.5,8.3-7.9,11.4-12.9c-4.1,2-8.5,3.3-13,3.9
	C152.5,65.2,156.1,60.3,157.8,54.5L157.8,54.5z M100,198.5c-54.4,0-98.5-44.1-98.5-98.5S45.6,1.5,100,1.5s98.5,44.1,98.5,98.5
	S154.4,198.5,100,198.5z"/>
</svg>
